<svg width="63" height="24" viewBox="0 0 63 24" fill="none" xmlns="http://www.w3.org/2000/svg">
<path d="M21 4.5H3C2.60218 4.5 2.22064 4.65804 1.93934 4.93934C1.65804 5.22064 1.5 5.60218 1.5 6V9.08438V17.9906C1.5 18.3884 1.65804 18.77 1.93934 19.0513C2.22064 19.3326 2.60218 19.4906 3 19.4906H21C21.3978 19.4906 21.7794 19.3326 22.0607 19.0513C22.342 18.77 22.5 18.3884 22.5 17.9906V6C22.5 5.60218 22.342 5.22064 22.0607 4.93934C21.7794 4.65804 21.3978 4.5 21 4.5ZM12.75 16.5H11.25C11.0511 16.5 10.8603 16.421 10.7197 16.2803C10.579 16.1397 10.5 15.9489 10.5 15.75C10.5 15.5511 10.579 15.3603 10.7197 15.2197C10.8603 15.079 11.0511 15 11.25 15H12.75C12.9489 15 13.1397 15.079 13.2803 15.2197C13.421 15.3603 13.5 15.5511 13.5 15.75C13.5 15.9489 13.421 16.1397 13.2803 16.2803C13.1397 16.421 12.9489 16.5 12.75 16.5ZM18.75 16.5H15.75C15.5511 16.5 15.3603 16.421 15.2197 16.2803C15.079 16.1397 15 15.9489 15 15.75C15 15.5511 15.079 15.3603 15.2197 15.2197C15.3603 15.079 15.5511 15 15.75 15H18.75C18.9489 15 19.1397 15.079 19.2803 15.2197C19.421 15.3603 19.5 15.5511 19.5 15.75C19.5 15.9489 19.421 16.1397 19.2803 16.2803C19.1397 16.421 18.9489 16.5 18.75 16.5ZM3 8.33438V6H21V8.33438H3Z" fill="white"/>
<path d="M37.6782 17.6758C34.7632 17.6758 32.9175 15.5591 32.9175 12.2119C32.9175 8.89404 34.7852 6.75537 37.6782 6.75537C39.978 6.75537 41.7285 8.1543 42.0654 10.2637H40.7324C40.3955 8.87939 39.187 7.97119 37.6782 7.97119C35.6128 7.97119 34.2725 9.64111 34.2725 12.2119C34.2725 14.8047 35.5981 16.46 37.6855 16.46C39.2383 16.46 40.3516 15.7129 40.7324 14.4238H42.0654C41.582 16.5112 40.0146 17.6758 37.6782 17.6758ZM45.9399 16.5479C47.1411 16.5479 48.064 15.7056 48.064 14.6069V13.9844L46.0278 14.1089C45.0024 14.1748 44.4165 14.6289 44.4165 15.3467C44.4165 16.0718 45.0244 16.5479 45.9399 16.5479ZM45.6543 17.6318C44.1382 17.6318 43.1201 16.7163 43.1201 15.3467C43.1201 14.043 44.1235 13.2227 45.8813 13.1201L48.064 12.9956V12.3584C48.064 11.4282 47.4487 10.8716 46.394 10.8716C45.4126 10.8716 44.7974 11.333 44.6362 12.0801H43.4058C43.4937 10.7617 44.6216 9.75098 46.4233 9.75098C48.2104 9.75098 49.3384 10.7178 49.3384 12.2339V17.5H48.1299V16.189H48.1006C47.6465 17.0605 46.6797 17.6318 45.6543 17.6318ZM50.957 17.5V9.88281H52.1582V11.1279H52.1875C52.4365 10.2856 53.1396 9.75098 54.0332 9.75098C54.2529 9.75098 54.4434 9.7876 54.5459 9.80225V11.04C54.4434 11.0034 54.1724 10.9668 53.8647 10.9668C52.876 10.9668 52.2314 11.6772 52.2314 12.7539V17.5H50.957ZM58.1055 17.6318C56.1646 17.6318 54.8462 16.0791 54.8462 13.6914C54.8462 11.3037 56.1572 9.75098 58.0762 9.75098C59.1675 9.75098 60.0464 10.2856 60.5005 11.1206H60.5298V6.93115H61.8042V17.5H60.5884V16.2109H60.5664C60.0757 17.0898 59.2041 17.6318 58.1055 17.6318ZM58.3472 10.8716C56.9995 10.8716 56.1499 11.9702 56.1499 13.6914C56.1499 15.4199 56.9995 16.5112 58.3472 16.5112C59.6582 16.5112 60.5371 15.3979 60.5371 13.6914C60.5371 11.9922 59.6582 10.8716 58.3472 10.8716Z" fill="white"/>
</svg>
