<svg width="15" height="13" viewBox="0 0 15 13" fill="none" xmlns="http://www.w3.org/2000/svg">
<path d="M6.88297 2.59836L7.50114 3.49817L8.11931 2.59836C8.67944 1.78305 9.61131 1.25243 10.6627 1.25229C12.3645 1.25434 13.7495 2.64273 13.75 4.36462C13.748 5.16527 13.4458 5.89195 12.9504 6.44462L12.9463 6.44883L12.9012 6.49469L12.7288 6.66951C12.5798 6.82029 12.3661 7.03587 12.1079 7.29463C11.5913 7.81242 10.8973 8.50191 10.1866 9.19066C9.47411 9.88102 8.75161 10.5639 8.17575 11.0715C7.90216 11.3127 7.6718 11.5053 7.49652 11.6383C7.31663 11.5007 7.07892 11.3001 6.79616 11.0488C6.20807 10.5262 5.46928 9.8233 4.74064 9.11309C4.01364 8.40449 3.30347 7.69514 2.7746 7.16248C2.51029 6.89628 2.29155 6.6745 2.13899 6.51937L1.96241 6.3395L1.92564 6.30193C1.50286 5.77039 1.25 5.09549 1.25 4.35862C1.25 2.63777 2.63827 1.25 4.34139 1.25C5.3916 1.25 6.32194 1.78174 6.88297 2.59836Z" stroke="#282828" stroke-width="1.5"/>
</svg>
