<svg width="21" height="20" viewBox="0 0 21 20" fill="none" xmlns="http://www.w3.org/2000/svg">
<path d="M10.9287 0C8.21281 0 7.87197 0.0118752 6.8053 0.0604169C5.7407 0.109167 5.01403 0.277708 4.37819 0.525C3.72047 0.780417 3.16255 1.12208 2.60671 1.67813C2.05045 2.23396 1.70878 2.79187 1.45253 3.44937C1.20461 4.08542 1.03586 4.81229 0.987943 5.87646C0.940234 6.94312 0.927734 7.28417 0.927734 10C0.927734 12.7158 0.939818 13.0556 0.988152 14.1223C1.03711 15.1869 1.20565 15.9135 1.45274 16.5494C1.70837 17.2071 2.05004 17.765 2.60609 18.3208C3.16172 18.8771 3.71964 19.2196 4.37694 19.475C5.01319 19.7223 5.74008 19.8908 6.80446 19.9396C7.87114 19.9881 8.21177 20 10.9274 20C13.6435 20 13.9833 19.9881 15.05 19.9396C16.1146 19.8908 16.8421 19.7223 17.4783 19.475C18.1358 19.2196 18.6929 18.8771 19.2486 18.3208C19.8048 17.765 20.1465 17.2071 20.4027 16.5496C20.6486 15.9135 20.8173 15.1867 20.8673 14.1225C20.9152 13.0558 20.9277 12.7158 20.9277 10C20.9277 7.28417 20.9152 6.94333 20.8673 5.87667C20.8173 4.81208 20.6486 4.08542 20.4027 3.44958C20.1465 2.79187 19.8048 2.23396 19.2486 1.67813C18.6923 1.12188 18.136 0.780208 17.4777 0.525C16.8402 0.277708 16.1131 0.109167 15.0485 0.0604169C13.9818 0.0118752 13.6422 0 10.9255 0H10.9287ZM10.0316 1.80208C10.2978 1.80167 10.5949 1.80208 10.9287 1.80208C13.5987 1.80208 13.9152 1.81167 14.9695 1.85958C15.9446 1.90417 16.4737 2.06708 16.8262 2.20396C17.2929 2.38521 17.6256 2.60187 17.9754 2.95187C18.3254 3.30187 18.5421 3.63521 18.7238 4.10187C18.8606 4.45396 19.0238 4.98312 19.0681 5.95812C19.116 7.01229 19.1265 7.32896 19.1265 9.99771C19.1265 12.6665 19.116 12.9831 19.0681 14.0373C19.0235 15.0123 18.8606 15.5415 18.7238 15.8935C18.5425 16.3602 18.3254 16.6925 17.9754 17.0423C17.6254 17.3923 17.2931 17.609 16.8262 17.7902C16.4741 17.9277 15.9446 18.0902 14.9695 18.1348C13.9154 18.1827 13.5987 18.1931 10.9287 18.1931C8.25844 18.1931 7.94197 18.1827 6.8878 18.1348C5.91279 18.0898 5.38361 17.9269 5.0309 17.79C4.56423 17.6087 4.23089 17.3921 3.88089 17.0421C3.53089 16.6921 3.31422 16.3596 3.13255 15.8927C2.99567 15.5406 2.83255 15.0115 2.78817 14.0365C2.74025 12.9823 2.73067 12.6656 2.73067 9.99521C2.73067 7.32479 2.74025 7.00979 2.78817 5.95563C2.83275 4.98063 2.99567 4.45146 3.13255 4.09896C3.3138 3.63229 3.53089 3.29896 3.88089 2.94896C4.23089 2.59896 4.56423 2.38229 5.0309 2.20062C5.38341 2.06312 5.91279 1.90063 6.8878 1.85583C7.81031 1.81417 8.16781 1.80167 10.0316 1.79958V1.80208ZM16.2666 3.4625C15.6041 3.4625 15.0666 3.99937 15.0666 4.66208C15.0666 5.32458 15.6041 5.86208 16.2666 5.86208C16.9292 5.86208 17.4667 5.32458 17.4667 4.66208C17.4667 3.99958 16.9292 3.46208 16.2666 3.46208V3.4625ZM10.9287 4.86458C8.0926 4.86458 5.7932 7.16396 5.7932 10C5.7932 12.836 8.0926 15.1344 10.9287 15.1344C13.7647 15.1344 16.0633 12.836 16.0633 10C16.0633 7.16396 13.7647 4.86458 10.9287 4.86458ZM10.9287 6.66667C12.7695 6.66667 14.262 8.15896 14.262 10C14.262 11.8408 12.7695 13.3333 10.9287 13.3333C9.08761 13.3333 7.5953 11.8408 7.5953 10C7.5953 8.15896 9.08761 6.66667 10.9287 6.66667Z" fill="#1E1E1E"/>
</svg>
