<svg width="21" height="20" viewBox="0 0 21 20" fill="none" xmlns="http://www.w3.org/2000/svg">
<path d="M10.9292 0C8.2133 0 7.87246 0.0118752 6.80578 0.0604169C5.74119 0.109167 5.01452 0.277708 4.37868 0.525C3.72096 0.780417 3.16304 1.12208 2.6072 1.67813C2.05094 2.23396 1.70927 2.79187 1.45302 3.44937C1.2051 4.08542 1.03635 4.81229 0.988432 5.87646C0.940723 6.94312 0.928223 7.28417 0.928223 10C0.928223 12.7158 0.940306 13.0556 0.98864 14.1223C1.0376 15.1869 1.20614 15.9135 1.45323 16.5494C1.70886 17.2071 2.05053 17.765 2.60657 18.3208C3.1622 18.8771 3.72013 19.2196 4.37743 19.475C5.01368 19.7223 5.74056 19.8908 6.80495 19.9396C7.87163 19.9881 8.21226 20 10.9279 20C13.644 20 13.9838 19.9881 15.0505 19.9396C16.115 19.8908 16.8426 19.7223 17.4788 19.475C18.1363 19.2196 18.6934 18.8771 19.249 18.3208C19.8053 17.765 20.147 17.2071 20.4032 16.5496C20.6491 15.9135 20.8178 15.1867 20.8678 14.1225C20.9157 13.0558 20.9282 12.7158 20.9282 10C20.9282 7.28417 20.9157 6.94333 20.8678 5.87667C20.8178 4.81208 20.6491 4.08542 20.4032 3.44958C20.147 2.79187 19.8053 2.23396 19.249 1.67813C18.6928 1.12188 18.1365 0.780208 17.4782 0.525C16.8407 0.277708 16.1136 0.109167 15.049 0.0604169C13.9823 0.0118752 13.6427 0 10.926 0H10.9292ZM10.0321 1.80208C10.2983 1.80167 10.5954 1.80208 10.9292 1.80208C13.5992 1.80208 13.9157 1.81167 14.97 1.85958C15.945 1.90417 16.4742 2.06708 16.8267 2.20396C17.2934 2.38521 17.6261 2.60187 17.9759 2.95187C18.3259 3.30187 18.5426 3.63521 18.7242 4.10187C18.8611 4.45396 19.0242 4.98312 19.0686 5.95812C19.1165 7.01229 19.127 7.32896 19.127 9.99771C19.127 12.6665 19.1165 12.9831 19.0686 14.0373C19.024 15.0123 18.8611 15.5415 18.7242 15.8935C18.543 16.3602 18.3259 16.6925 17.9759 17.0423C17.6259 17.3923 17.2936 17.609 16.8267 17.7902C16.4746 17.9277 15.945 18.0902 14.97 18.1348C13.9159 18.1827 13.5992 18.1931 10.9292 18.1931C8.25892 18.1931 7.94246 18.1827 6.88829 18.1348C5.91327 18.0898 5.3841 17.9269 5.03139 17.79C4.56472 17.6087 4.23138 17.3921 3.88138 17.0421C3.53137 16.6921 3.31471 16.3596 3.13304 15.8927C2.99616 15.5406 2.83303 15.0115 2.78866 14.0365C2.74074 12.9823 2.73116 12.6656 2.73116 9.99521C2.73116 7.32479 2.74074 7.00979 2.78866 5.95563C2.83324 4.98063 2.99616 4.45146 3.13304 4.09896C3.31429 3.63229 3.53137 3.29896 3.88138 2.94896C4.23138 2.59896 4.56472 2.38229 5.03139 2.20062C5.38389 2.06312 5.91327 1.90063 6.88829 1.85583C7.81079 1.81417 8.1683 1.80167 10.0321 1.79958V1.80208ZM16.2671 3.4625C15.6046 3.4625 15.0671 3.99937 15.0671 4.66208C15.0671 5.32458 15.6046 5.86208 16.2671 5.86208C16.9296 5.86208 17.4671 5.32458 17.4671 4.66208C17.4671 3.99958 16.9296 3.46208 16.2671 3.46208V3.4625ZM10.9292 4.86458C8.09309 4.86458 5.79369 7.16396 5.79369 10C5.79369 12.836 8.09309 15.1344 10.9292 15.1344C13.7652 15.1344 16.0638 12.836 16.0638 10C16.0638 7.16396 13.7652 4.86458 10.9292 4.86458ZM10.9292 6.66667C12.77 6.66667 14.2625 8.15896 14.2625 10C14.2625 11.8408 12.77 13.3333 10.9292 13.3333C9.0881 13.3333 7.59579 11.8408 7.59579 10C7.59579 8.15896 9.0881 6.66667 10.9292 6.66667Z" fill="#949494"/>
</svg>
