<svg width="40" height="11" viewBox="0 0 40 11" fill="none" xmlns="http://www.w3.org/2000/svg">
<path d="M6.77082 0.51742C6.26946 0.172752 5.61522 0 4.8081 0H1.6834C1.43597 0 1.29927 0.123744 1.2733 0.370993L0.00398437 8.33884C-0.00920786 8.4171 0.0103715 8.48867 0.0625435 8.55373C0.114417 8.61892 0.179662 8.65133 0.2578 8.65133H1.74202C2.00234 8.65133 2.14542 8.52789 2.17169 8.28034L2.52316 6.13222C2.536 6.02812 2.58178 5.94347 2.65992 5.87829C2.738 5.81322 2.83566 5.77066 2.95284 5.7512C3.07001 5.73186 3.18051 5.72207 3.28485 5.72207C3.3889 5.72207 3.51252 5.72869 3.65596 5.74165C3.79905 5.7546 3.89026 5.76099 3.92936 5.76099C5.04897 5.76099 5.92777 5.44551 6.56583 4.81384C7.2036 4.18252 7.52284 3.30706 7.52284 2.1871C7.52284 1.41897 7.27195 0.862447 6.77082 0.517241V0.51742ZM5.15976 2.90992C5.09445 3.36568 4.9254 3.66498 4.65201 3.80825C4.37855 3.95169 3.98798 4.02308 3.48029 4.02308L2.83578 4.04254L3.16785 1.95286C3.19376 1.80978 3.27834 1.73815 3.42167 1.73815H3.79284C4.31337 1.73815 4.69116 1.81318 4.92552 1.96265C5.15976 2.11248 5.2379 2.42832 5.15976 2.90992Z" fill="white" fill-opacity="0.23"/>
<path d="M39.7458 0H38.3008C38.1571 0 38.0726 0.0716326 38.0468 0.214956L36.7774 8.3392L36.7578 8.37824C36.7578 8.44366 36.7838 8.5052 36.8361 8.56382C36.8878 8.62232 36.9532 8.65163 37.0313 8.65163H38.3204C38.5674 8.65163 38.7041 8.52818 38.7306 8.28064L39.9999 0.293094V0.273694C39.9998 0.0913309 39.9149 0.000239552 39.7458 0.000239552V0Z" fill="white" fill-opacity="0.23"/>
<path d="M22.2868 3.14449C22.2868 3.07954 22.2606 3.01758 22.2089 2.95914C22.1567 2.90058 22.098 2.87109 22.0331 2.87109H20.5294C20.3859 2.87109 20.2687 2.93652 20.1777 3.06635L18.1076 6.11303L17.2484 3.18365C17.1829 2.9755 17.0399 2.87109 16.8187 2.87109H15.3538C15.2886 2.87109 15.23 2.90046 15.1782 2.95914C15.126 3.01758 15.1001 3.07966 15.1001 3.14449C15.1001 3.17069 15.2271 3.55464 15.4809 4.29675C15.7347 5.03909 16.0081 5.83981 16.3011 6.69916C16.5941 7.55832 16.7469 8.01426 16.76 8.06589C15.6923 9.52431 15.1587 10.3055 15.1587 10.4094C15.1587 10.5789 15.2432 10.6634 15.4126 10.6634H16.9163C17.0595 10.6634 17.1766 10.5984 17.2679 10.4682L22.248 3.28113C22.2738 3.25534 22.2868 3.20997 22.2868 3.14443V3.14449Z" fill="white" fill-opacity="0.23"/>
<path d="M36.2895 2.87119H34.8052C34.6228 2.87119 34.5125 3.08609 34.4734 3.51582C34.1345 2.99518 33.5165 2.7345 32.6179 2.7345C31.6806 2.7345 30.883 3.08609 30.2257 3.78916C29.5681 4.49223 29.2395 5.31922 29.2395 6.26954C29.2395 7.03786 29.4641 7.64972 29.9131 8.10524C30.3623 8.56123 30.9644 8.78879 31.7198 8.78879C32.0973 8.78879 32.4814 8.71053 32.8719 8.55443C33.2625 8.39821 33.5682 8.19 33.7899 7.9295C33.7899 7.94257 33.7766 8.00095 33.7509 8.10506C33.7246 8.2094 33.7117 8.28778 33.7117 8.33941C33.7117 8.54798 33.7961 8.65185 33.9657 8.65185H35.3133C35.5604 8.65185 35.7037 8.5284 35.7427 8.28085L36.5435 3.18363C36.5563 3.10543 36.5369 3.03398 36.4849 2.96879C36.4325 2.90385 36.3676 2.87119 36.2895 2.87119ZM33.741 6.71868C33.409 7.04419 33.0086 7.20685 32.5399 7.20685C32.1622 7.20685 31.8565 7.10286 31.622 6.89441C31.3875 6.68656 31.2704 6.40009 31.2704 6.03513C31.2704 5.55376 31.4331 5.14653 31.7588 4.81457C32.0838 4.48256 32.4878 4.31661 32.9695 4.31661C33.3338 4.31661 33.6365 4.424 33.8776 4.63872C34.1182 4.85361 34.2391 5.14981 34.2391 5.52749C34.2389 5.99615 34.0729 6.39335 33.741 6.71868Z" fill="white" fill-opacity="0.23"/>
<path d="M14.1039 2.87119H12.6197C12.4371 2.87119 12.3267 3.08609 12.2876 3.51582C11.9361 2.99518 11.3176 2.7345 10.4323 2.7345C9.49485 2.7345 8.6973 3.08609 8.0399 3.78916C7.38232 4.49223 7.05371 5.31922 7.05371 6.26954C7.05371 7.03786 7.27834 7.64972 7.72753 8.10524C8.17671 8.56123 8.77872 8.78879 9.53395 8.78879C9.89832 8.78879 10.2761 8.71053 10.6666 8.55443C11.0572 8.39821 11.3697 8.19 11.604 7.9295C11.5518 8.0856 11.5259 8.22236 11.5259 8.33941C11.5259 8.54798 11.6105 8.65185 11.7798 8.65185H13.1273C13.3745 8.65185 13.5179 8.5284 13.557 8.28085L14.3576 3.18363C14.3705 3.10543 14.351 3.03398 14.2991 2.96879C14.2469 2.90385 14.1819 2.87119 14.1039 2.87119ZM11.5553 6.72835C11.2233 7.04771 10.8162 7.20685 10.3348 7.20685C9.957 7.20685 9.65429 7.10286 9.42662 6.89441C9.19866 6.68656 9.08482 6.40009 9.08482 6.03513C9.08482 5.55376 9.24749 5.14653 9.57311 4.81457C9.89838 4.48256 10.302 4.31655 10.7839 4.31655C11.1483 4.31655 11.451 4.424 11.6921 4.63872C11.9328 4.85361 12.0534 5.14981 12.0534 5.52749C12.0533 6.00922 11.8873 6.4097 11.5553 6.72835Z" fill="white" fill-opacity="0.23"/>
<path d="M28.9562 0.51742C28.4549 0.172752 27.8009 0 26.9936 0H23.8883C23.6279 0 23.4846 0.123744 23.4587 0.370993L22.1893 8.33884C22.1761 8.4171 22.1957 8.48867 22.2479 8.55373C22.2995 8.61892 22.365 8.65133 22.4431 8.65133H24.0444C24.2006 8.65133 24.3048 8.5668 24.357 8.39752L24.7085 6.13222C24.7215 6.02812 24.767 5.94347 24.8453 5.87829C24.9234 5.81322 25.0209 5.77066 25.1382 5.7512C25.2553 5.73186 25.3658 5.72207 25.4702 5.72207C25.5743 5.72207 25.6979 5.72869 25.8412 5.74165C25.9843 5.7546 26.0758 5.76099 26.1146 5.76099C27.2344 5.76099 28.1131 5.44551 28.7511 4.81384C29.3891 4.18252 29.7081 3.30706 29.7081 2.1871C29.7081 1.41897 29.4573 0.862387 28.9562 0.517241V0.51742ZM26.9545 3.73005C26.6681 3.9253 26.2383 4.0229 25.6656 4.0229L25.0406 4.04248L25.3726 1.95274C25.3984 1.80972 25.483 1.73797 25.6264 1.73797H25.9778C26.2643 1.73797 26.4921 1.75104 26.6616 1.77701C26.8305 1.80315 26.9936 1.88439 27.1498 2.02103C27.3061 2.15779 27.3841 2.35645 27.3841 2.61671C27.3841 3.16374 27.2408 3.53461 26.9545 3.73005Z" fill="white" fill-opacity="0.23"/>
</svg>
