<svg width="10" height="10" viewBox="0 0 10 10" fill="none" xmlns="http://www.w3.org/2000/svg">
<g opacity="0.5">
<circle cx="5" cy="5" r="5" fill="#636365"/>
<path d="M5.28557 5.87273H4.54471C4.54693 5.69416 4.56464 5.54439 4.59787 5.42342C4.63109 5.30053 4.68646 5.18917 4.76398 5.08932C4.84371 4.98947 4.94892 4.88387 5.07959 4.7725C5.18148 4.68801 5.27339 4.60833 5.35534 4.53344C5.43729 4.45664 5.50263 4.37599 5.55136 4.29151C5.60008 4.2051 5.62445 4.10622 5.62445 3.99485C5.62445 3.87388 5.60119 3.77116 5.55468 3.68667C5.50817 3.60219 5.43951 3.53786 5.3487 3.4937C5.2601 3.44954 5.14936 3.42745 5.01647 3.42745C4.90573 3.42745 4.80163 3.44666 4.70418 3.48506C4.60673 3.52154 4.5281 3.57914 4.4683 3.65787C4.4085 3.73467 4.37638 3.83644 4.37195 3.96317H3.57129C3.57572 3.72123 3.64216 3.5177 3.77062 3.35257C3.89909 3.18744 4.07184 3.06359 4.2889 2.98103C4.50595 2.89846 4.74848 2.85718 5.01647 2.85718C5.31326 2.85718 5.56686 2.90134 5.77727 2.98967C5.98768 3.07607 6.14825 3.2028 6.259 3.36985C6.37195 3.53498 6.42843 3.73467 6.42843 3.96893C6.42843 4.1379 6.38967 4.29151 6.31215 4.42976C6.23463 4.56609 6.13386 4.69378 6.00983 4.81282C5.8858 4.92995 5.7518 5.04708 5.60783 5.16421C5.4838 5.26213 5.39964 5.3687 5.35534 5.48391C5.31105 5.59719 5.28779 5.7268 5.28557 5.87273ZM4.47827 6.77135C4.47827 6.66766 4.51924 6.5803 4.60119 6.50925C4.68314 6.43629 4.79499 6.3998 4.93674 6.3998C5.07849 6.3998 5.19034 6.43629 5.27229 6.50925C5.35423 6.5803 5.39521 6.66766 5.39521 6.77135C5.39521 6.87503 5.35423 6.96336 5.27229 7.03632C5.19034 7.10737 5.07849 7.14289 4.93674 7.14289C4.79499 7.14289 4.68314 7.10737 4.60119 7.03632C4.51924 6.96336 4.47827 6.87503 4.47827 6.77135Z" fill="white"/>
</g>
</svg>
