<svg width="21" height="13" viewBox="0 0 21 13" fill="none" xmlns="http://www.w3.org/2000/svg">
<path d="M2.77234 0.2H3.74734V1.745C4.35734 1.795 4.98234 1.97 5.62234 2.27L5.23234 3.29C4.87234 3.1 4.53234 2.965 4.21234 2.885C3.89234 2.805 3.57234 2.765 3.25234 2.765C2.76234 2.765 2.36234 2.875 2.05234 3.095C1.74234 3.315 1.58734 3.65 1.58734 4.1C1.58734 4.51 1.72734 4.81 2.00734 5C2.28734 5.19 2.65734 5.36 3.11734 5.51L3.80734 5.735C4.57734 5.985 5.15734 6.315 5.54734 6.725C5.94734 7.125 6.14734 7.645 6.14734 8.285C6.14734 8.665 6.07734 9.005 5.93734 9.305C5.79734 9.595 5.60734 9.85 5.36734 10.07C5.13734 10.28 4.86234 10.45 4.54234 10.58C4.22234 10.71 3.88234 10.795 3.52234 10.835V12.41H2.54734V10.835C2.11734 10.815 1.72734 10.755 1.37734 10.655C1.03734 10.555 0.677344 10.405 0.297344 10.205L0.777344 9.185C1.19734 9.425 1.60234 9.59 1.99234 9.68C2.38234 9.76 2.72734 9.8 3.02734 9.8C3.27734 9.8 3.50734 9.775 3.71734 9.725C3.93734 9.665 4.12734 9.58 4.28734 9.47C4.45734 9.35 4.58734 9.2 4.67734 9.02C4.77734 8.84 4.82734 8.63 4.82734 8.39C4.82734 7.97 4.67734 7.65 4.37734 7.43C4.08734 7.21 3.65734 7.01 3.08734 6.83L2.39734 6.605C2.07734 6.505 1.78734 6.39 1.52734 6.26C1.26734 6.12 1.04234 5.955 0.852344 5.765C0.672344 5.575 0.527344 5.36 0.417344 5.12C0.317344 4.87 0.267344 4.585 0.267344 4.265C0.267344 3.505 0.492344 2.91 0.942344 2.48C1.39234 2.05 2.00234 1.8 2.77234 1.73V0.2ZM9.78086 1.55H10.7409V11H9.45086V2.93L7.75586 3.71L7.45586 2.615L9.78086 1.55ZM16.4147 1.415C16.9347 1.415 17.4197 1.51 17.8697 1.7C18.3197 1.88 18.7097 2.165 19.0397 2.555C19.3697 2.945 19.6247 3.45 19.8047 4.07C19.9947 4.68 20.0897 5.415 20.0897 6.275C20.0897 7.135 19.9897 7.875 19.7897 8.495C19.5897 9.105 19.3197 9.605 18.9797 9.995C18.6397 10.385 18.2497 10.675 17.8097 10.865C17.3697 11.045 16.9047 11.135 16.4147 11.135C15.8847 11.135 15.3947 11.045 14.9447 10.865C14.5047 10.675 14.1197 10.385 13.7897 9.995C13.4597 9.605 13.1997 9.105 13.0097 8.495C12.8297 7.875 12.7397 7.135 12.7397 6.275C12.7397 5.455 12.8397 4.74 13.0397 4.13C13.2397 3.52 13.5047 3.015 13.8347 2.615C14.1747 2.205 14.5647 1.905 15.0047 1.715C15.4547 1.515 15.9247 1.415 16.4147 1.415ZM14.1197 6.275C14.1197 7.065 14.1847 7.71 14.3147 8.21C14.4447 8.7 14.6147 9.085 14.8247 9.365C15.0347 9.645 15.2797 9.84 15.5597 9.95C15.8397 10.05 16.1297 10.1 16.4297 10.1C16.7297 10.1 17.0147 10.045 17.2847 9.935C17.5647 9.815 17.8097 9.61 18.0197 9.32C18.2297 9.02 18.3947 8.625 18.5147 8.135C18.6447 7.645 18.7097 7.025 18.7097 6.275C18.7097 5.495 18.6447 4.855 18.5147 4.355C18.3847 3.855 18.2147 3.465 18.0047 3.185C17.7947 2.905 17.5497 2.715 17.2697 2.615C16.9897 2.505 16.6997 2.45 16.3997 2.45C16.0997 2.45 15.8097 2.51 15.5297 2.63C15.2597 2.74 15.0197 2.945 14.8097 3.245C14.5997 3.535 14.4297 3.925 14.2997 4.415C14.1797 4.905 14.1197 5.525 14.1197 6.275Z" fill="black"/>
</svg>
