<svg width="7" height="13" viewBox="0 0 6 13" fill="none" xmlns="http://www.w3.org/2000/svg">
<mask id="path-1-outside-1_407_1529" maskUnits="userSpaceOnUse" x="-2" y="-1" width="9" height="15" fill="black">
<rect fill="white" x="-2" y="-1" width="9" height="15"/>
<path d="M2.51795 0.2H3.49295V1.745C4.10295 1.795 4.72795 1.97 5.36795 2.27L4.97795 3.29C4.61795 3.1 4.27795 2.965 3.95795 2.885C3.63795 2.805 3.31795 2.765 2.99795 2.765C2.50795 2.765 2.10795 2.875 1.79795 3.095C1.48795 3.315 1.33295 3.65 1.33295 4.1C1.33295 4.51 1.47295 4.81 1.75295 5C2.03295 5.19 2.40295 5.36 2.86295 5.51L3.55295 5.735C4.32295 5.985 4.90295 6.315 5.29295 6.725C5.69295 7.125 5.89295 7.645 5.89295 8.285C5.89295 8.665 5.82295 9.005 5.68295 9.305C5.54295 9.595 5.35295 9.85 5.11295 10.07C4.88295 10.28 4.60795 10.45 4.28795 10.58C3.96795 10.71 3.62795 10.795 3.26795 10.835V12.41H2.29295V10.835C1.86295 10.815 1.47295 10.755 1.12295 10.655C0.782949 10.555 0.422949 10.405 0.0429493 10.205L0.522949 9.185C0.942949 9.425 1.34795 9.59 1.73795 9.68C2.12795 9.76 2.47295 9.8 2.77295 9.8C3.02295 9.8 3.25295 9.775 3.46295 9.725C3.68295 9.665 3.87295 9.58 4.03295 9.47C4.20295 9.35 4.33295 9.2 4.42295 9.02C4.52295 8.84 4.57295 8.63 4.57295 8.39C4.57295 7.97 4.42295 7.65 4.12295 7.43C3.83295 7.21 3.40295 7.01 2.83295 6.83L2.14295 6.605C1.82295 6.505 1.53295 6.39 1.27295 6.26C1.01295 6.12 0.787949 5.955 0.597949 5.765C0.417949 5.575 0.272949 5.36 0.162949 5.12C0.0629492 4.87 0.0129492 4.585 0.0129492 4.265C0.0129492 3.505 0.237949 2.91 0.687949 2.48C1.13795 2.05 1.74795 1.8 2.51795 1.73V0.2Z"/>
</mask>
<path d="M2.51795 0.2H3.49295V1.745C4.10295 1.795 4.72795 1.97 5.36795 2.27L4.97795 3.29C4.61795 3.1 4.27795 2.965 3.95795 2.885C3.63795 2.805 3.31795 2.765 2.99795 2.765C2.50795 2.765 2.10795 2.875 1.79795 3.095C1.48795 3.315 1.33295 3.65 1.33295 4.1C1.33295 4.51 1.47295 4.81 1.75295 5C2.03295 5.19 2.40295 5.36 2.86295 5.51L3.55295 5.735C4.32295 5.985 4.90295 6.315 5.29295 6.725C5.69295 7.125 5.89295 7.645 5.89295 8.285C5.89295 8.665 5.82295 9.005 5.68295 9.305C5.54295 9.595 5.35295 9.85 5.11295 10.07C4.88295 10.28 4.60795 10.45 4.28795 10.58C3.96795 10.71 3.62795 10.795 3.26795 10.835V12.41H2.29295V10.835C1.86295 10.815 1.47295 10.755 1.12295 10.655C0.782949 10.555 0.422949 10.405 0.0429493 10.205L0.522949 9.185C0.942949 9.425 1.34795 9.59 1.73795 9.68C2.12795 9.76 2.47295 9.8 2.77295 9.8C3.02295 9.8 3.25295 9.775 3.46295 9.725C3.68295 9.665 3.87295 9.58 4.03295 9.47C4.20295 9.35 4.33295 9.2 4.42295 9.02C4.52295 8.84 4.57295 8.63 4.57295 8.39C4.57295 7.97 4.42295 7.65 4.12295 7.43C3.83295 7.21 3.40295 7.01 2.83295 6.83L2.14295 6.605C1.82295 6.505 1.53295 6.39 1.27295 6.26C1.01295 6.12 0.787949 5.955 0.597949 5.765C0.417949 5.575 0.272949 5.36 0.162949 5.12C0.0629492 4.87 0.0129492 4.585 0.0129492 4.265C0.0129492 3.505 0.237949 2.91 0.687949 2.48C1.13795 2.05 1.74795 1.8 2.51795 1.73V0.2Z" fill="white"/>
<path d="M2.51795 0.2V-0.8H1.51795V0.2H2.51795ZM3.49295 0.2H4.49295V-0.8H3.49295V0.2ZM3.49295 1.745H2.49295V2.66639L3.41126 2.74166L3.49295 1.745ZM5.36795 2.27L6.302 2.62714L6.63393 1.75902L5.79238 1.36454L5.36795 2.27ZM4.97795 3.29L4.51119 4.17438L5.50904 4.70103L5.912 3.64714L4.97795 3.29ZM3.95795 2.885L3.71541 3.85514L3.71542 3.85514L3.95795 2.885ZM1.79795 3.095L1.2192 2.27949H1.2192L1.79795 3.095ZM1.75295 5L1.19145 5.82748H1.19145L1.75295 5ZM2.86295 5.51L3.17297 4.55927H3.17297L2.86295 5.51ZM3.55295 5.735L3.24293 6.68573L3.24414 6.68612L3.55295 5.735ZM5.29295 6.725L4.56839 7.41421L4.57701 7.42327L4.58584 7.43211L5.29295 6.725ZM5.68295 9.305L6.58358 9.73979L6.58913 9.72789L5.68295 9.305ZM5.11295 10.07L5.78722 10.8085L5.78867 10.8072L5.11295 10.07ZM3.26795 10.835L3.15752 9.84112L2.26795 9.93996V10.835H3.26795ZM3.26795 12.41V13.41H4.26795V12.41H3.26795ZM2.29295 12.41H1.29295V13.41H2.29295V12.41ZM2.29295 10.835H3.29295V9.88043L2.33941 9.83608L2.29295 10.835ZM1.12295 10.655L0.840774 11.6144L0.848228 11.6165L1.12295 10.655ZM0.0429493 10.205L-0.861869 9.7792L-1.26907 10.6445L-0.422797 11.0899L0.0429493 10.205ZM0.522949 9.185L1.01909 8.31676L0.0791081 7.77962L-0.381869 8.7592L0.522949 9.185ZM1.73795 9.68L1.51309 10.6544L1.52502 10.6571L1.53701 10.6596L1.73795 9.68ZM3.46295 9.725L3.69457 10.6978L3.71038 10.694L3.72607 10.6898L3.46295 9.725ZM4.03295 9.47L4.59952 10.2941L4.60963 10.287L4.03295 9.47ZM4.42295 9.02L3.54879 8.53436L3.53824 8.55335L3.52852 8.57279L4.42295 9.02ZM4.12295 7.43L3.51856 8.22669L3.52503 8.2316L3.53159 8.23641L4.12295 7.43ZM2.83295 6.83L2.52292 7.78077L2.53182 7.78358L2.83295 6.83ZM2.14295 6.605L2.45299 5.6542L2.44122 5.65052L2.14295 6.605ZM1.27295 6.26L0.79885 7.14047L0.812187 7.14765L0.825735 7.15443L1.27295 6.26ZM0.597949 5.765L-0.128004 6.45274L-0.118711 6.46255L-0.109157 6.47211L0.597949 5.765ZM0.162949 5.12L-0.765527 5.49139L-0.756379 5.51426L-0.746115 5.53665L0.162949 5.12ZM0.687949 2.48L1.37881 3.20299H1.37881L0.687949 2.48ZM2.51795 1.73L2.60849 2.72589L3.51795 2.64321V1.73H2.51795ZM2.51795 1.2H3.49295V-0.8H2.51795V1.2ZM2.49295 0.2V1.745H4.49295V0.2H2.49295ZM3.41126 2.74166C3.88563 2.78054 4.39496 2.91832 4.94351 3.17546L5.79238 1.36454C5.06094 1.02168 4.32027 0.809458 3.57464 0.748342L3.41126 2.74166ZM4.4339 1.91286L4.0439 2.93286L5.912 3.64714L6.302 2.62714L4.4339 1.91286ZM5.44471 2.40562C5.02952 2.18649 4.61404 2.01825 4.20048 1.91486L3.71542 3.85514C3.94186 3.91175 4.20638 4.01351 4.51119 4.17438L5.44471 2.40562ZM4.20049 1.91486C3.80361 1.81564 3.4022 1.765 2.99795 1.765V3.765C3.2337 3.765 3.47228 3.79436 3.71541 3.85514L4.20049 1.91486ZM2.99795 1.765C2.36041 1.765 1.74132 1.90895 1.2192 2.27949L2.3767 3.91051C2.47457 3.84104 2.65549 3.765 2.99795 3.765V1.765ZM1.2192 2.27949C0.594032 2.72316 0.332949 3.39389 0.332949 4.1H2.33295C2.33295 3.98889 2.352 3.94146 2.35676 3.93117C2.35923 3.92583 2.36062 3.92427 2.36103 3.92378C2.36155 3.92316 2.36545 3.91849 2.3767 3.91051L1.2192 2.27949ZM0.332949 4.1C0.332949 4.76137 0.576962 5.4105 1.19145 5.82748L2.31445 4.17252C2.31434 4.17245 2.32043 4.17672 2.32846 4.18608C2.33658 4.19556 2.34174 4.20448 2.34413 4.20961C2.34884 4.21971 2.33295 4.19286 2.33295 4.1H0.332949ZM1.19145 5.82748C1.57448 6.08739 2.03859 6.29301 2.55293 6.46073L3.17297 4.55927C2.76731 4.42699 2.49142 4.29261 2.31445 4.17252L1.19145 5.82748ZM2.55293 6.46073L3.24293 6.68573L3.86297 4.78427L3.17297 4.55927L2.55293 6.46073ZM3.24414 6.68612C3.91982 6.9055 4.3318 7.16549 4.56839 7.41421L6.01751 6.03579C5.4741 5.46451 4.72608 5.0645 3.86176 4.78387L3.24414 6.68612ZM4.58584 7.43211C4.77306 7.61933 4.89295 7.87225 4.89295 8.285H6.89295C6.89295 7.41775 6.61284 6.63067 6.00006 6.01789L4.58584 7.43211ZM4.89295 8.285C4.89295 8.54045 4.84646 8.73277 4.77677 8.88211L6.58913 9.72789C6.79944 9.27723 6.89295 8.78955 6.89295 8.285H4.89295ZM4.7824 8.87025C4.69812 9.04483 4.58485 9.19752 4.43722 9.33285L5.78867 10.8072C6.12105 10.5025 6.38778 10.1452 6.5835 9.73975L4.7824 8.87025ZM4.43868 9.33151C4.30508 9.45349 4.13384 9.56324 3.91157 9.65353L4.66433 11.5065C5.08206 11.3368 5.46082 11.1065 5.78722 10.8085L4.43868 9.33151ZM3.91157 9.65353C3.68076 9.7473 3.43065 9.81077 3.15752 9.84112L3.37838 11.8289C3.82525 11.7792 4.25514 11.6727 4.66433 11.5065L3.91157 9.65353ZM2.26795 10.835V12.41H4.26795V10.835H2.26795ZM3.26795 11.41H2.29295V13.41H3.26795V11.41ZM3.29295 12.41V10.835H1.29295V12.41H3.29295ZM2.33941 9.83608C1.97308 9.81904 1.66124 9.76878 1.39767 9.69348L0.848228 11.6165C1.28466 11.7412 1.75282 11.811 2.24649 11.8339L2.33941 9.83608ZM1.40512 9.69563C1.14028 9.61774 0.841953 9.49548 0.508696 9.32008L-0.422797 11.0899C0.00394523 11.3145 0.425617 11.4923 0.840783 11.6144L1.40512 9.69563ZM0.947768 10.6308L1.42777 9.6108L-0.381869 8.7592L-0.861869 9.7792L0.947768 10.6308ZM0.0268103 10.0532C0.514534 10.3319 1.01057 10.5384 1.51309 10.6544L1.96281 8.70561C1.68533 8.64157 1.37136 8.51806 1.01909 8.31676L0.0268103 10.0532ZM1.53701 10.6596C1.97308 10.7491 2.38768 10.8 2.77295 10.8V8.8C2.55822 8.8 2.28282 8.77095 1.93889 8.7004L1.53701 10.6596ZM2.77295 10.8C3.08898 10.8 3.39787 10.7684 3.69457 10.6978L3.23133 8.75219C3.10803 8.78155 2.95692 8.8 2.77295 8.8V10.8ZM3.72607 10.6898C4.03592 10.6053 4.3324 10.4777 4.59948 10.294L3.46642 8.64596C3.4135 8.68234 3.32998 8.72474 3.19983 8.76024L3.72607 10.6898ZM4.60963 10.287C4.90967 10.0752 5.15103 9.79991 5.31738 9.46721L3.52852 8.57279C3.51487 8.60009 3.49623 8.62483 3.45627 8.65303L4.60963 10.287ZM5.29711 9.50564C5.49238 9.15415 5.57295 8.77162 5.57295 8.39H3.57295C3.57295 8.48838 3.55352 8.52585 3.54879 8.53436L5.29711 9.50564ZM5.57295 8.39C5.57295 7.69871 5.30705 7.05827 4.71431 6.6236L3.53159 8.23641C3.54492 8.24618 3.55028 8.25235 3.5516 8.25393C3.55276 8.25532 3.55361 8.25649 3.55499 8.25943C3.55709 8.26391 3.57295 8.29938 3.57295 8.39H5.57295ZM4.72734 6.63331C4.30615 6.31378 3.75253 6.07172 3.13408 5.87642L2.53182 7.78358C3.05337 7.94828 3.35975 8.10622 3.51856 8.22669L4.72734 6.63331ZM3.14297 5.87927L2.45297 5.65427L1.83293 7.55573L2.52293 7.78073L3.14297 5.87927ZM2.44122 5.65052C2.16482 5.56414 1.92559 5.46829 1.72016 5.36557L0.825735 7.15443C1.14031 7.31171 1.48108 7.44586 1.84467 7.55948L2.44122 5.65052ZM1.74705 5.37953C1.56434 5.28114 1.4198 5.17263 1.30506 5.05789L-0.109157 6.47211C0.156101 6.73736 0.461564 6.95886 0.79885 7.14047L1.74705 5.37953ZM1.3239 5.07726C1.22007 4.96766 1.13668 4.84443 1.07201 4.70334L-0.746115 5.53665C-0.590779 5.87557 -0.384176 6.18234 -0.128004 6.45274L1.3239 5.07726ZM1.09143 4.74861C1.04668 4.63673 1.01295 4.48126 1.01295 4.265H-0.987051C-0.987051 4.68874 -0.920777 5.10327 -0.765527 5.49139L1.09143 4.74861ZM1.01295 4.265C1.01295 3.71338 1.16861 3.40384 1.37881 3.20299L-0.00290823 1.75701C-0.692716 2.41616 -0.987051 3.29662 -0.987051 4.265H1.01295ZM1.37881 3.20299C1.62889 2.96402 2.0078 2.7805 2.60849 2.72589L2.42741 0.734106C1.4881 0.819499 0.647004 1.13598 -0.00290835 1.75701L1.37881 3.20299ZM3.51795 1.73V0.2H1.51795V1.73H3.51795Z" fill="#F1F1F1" fill-opacity="0.07" mask="url(#path-1-outside-1_407_1529)"/>
</svg>
