<svg width="7" height="13" viewBox="0 0 7 13" fill="none" xmlns="http://www.w3.org/2000/svg">
<path d="M2.93949 0.0949991H4.24449V1.715C4.54449 1.755 4.85949 1.825 5.18949 1.925C5.51949 2.025 5.84449 2.165 6.16449 2.345L5.62449 3.785C5.33449 3.625 5.00949 3.495 4.64949 3.395C4.28949 3.285 3.93449 3.23 3.58449 3.23C3.22449 3.23 2.92449 3.31 2.68449 3.47C2.45449 3.62 2.33949 3.84 2.33949 4.13C2.33949 4.41 2.43949 4.63 2.63949 4.79C2.83949 4.94 3.17949 5.095 3.65949 5.255L4.34949 5.48C5.10949 5.73 5.68949 6.08 6.08949 6.53C6.48949 6.97 6.68949 7.525 6.68949 8.195C6.68949 8.525 6.62949 8.84 6.50949 9.14C6.39949 9.43 6.22949 9.69 5.99949 9.92C5.77949 10.15 5.50449 10.345 5.17449 10.505C4.84449 10.655 4.45949 10.76 4.01949 10.82V12.53H2.71449V10.85C2.24449 10.81 1.81449 10.725 1.42449 10.595C1.04449 10.465 0.674492 10.285 0.314492 10.055L0.989492 8.63C1.34949 8.87 1.71449 9.045 2.08449 9.155C2.46449 9.265 2.82949 9.32 3.17949 9.32C3.68949 9.32 4.05449 9.23 4.27449 9.05C4.50449 8.86 4.61949 8.62 4.61949 8.33C4.61949 8.07 4.52449 7.855 4.33449 7.685C4.14449 7.505 3.80949 7.335 3.32949 7.175L2.57949 6.935C2.25949 6.835 1.95949 6.71 1.67949 6.56C1.39949 6.4 1.15449 6.215 0.944492 6.005C0.734492 5.795 0.569492 5.555 0.449492 5.285C0.329492 5.005 0.269492 4.685 0.269492 4.325C0.269492 3.955 0.334492 3.615 0.464492 3.305C0.604492 2.985 0.789492 2.715 1.01949 2.495C1.25949 2.265 1.53949 2.085 1.85949 1.955C2.18949 1.815 2.54949 1.735 2.93949 1.715V0.0949991Z" fill="black"/>
</svg>
