<svg width="33" height="13" viewBox="0 0 33 13" fill="none" xmlns="http://www.w3.org/2000/svg">
<path d="M2.76127 0.0949991H4.06627V1.715C4.36627 1.755 4.68127 1.825 5.01127 1.925C5.34127 2.025 5.66627 2.165 5.98627 2.345L5.44627 3.785C5.15627 3.625 4.83127 3.495 4.47127 3.395C4.11127 3.285 3.75627 3.23 3.40627 3.23C3.04627 3.23 2.74627 3.31 2.50627 3.47C2.27627 3.62 2.16127 3.84 2.16127 4.13C2.16127 4.41 2.26127 4.63 2.46127 4.79C2.66127 4.94 3.00127 5.095 3.48127 5.255L4.17127 5.48C4.93127 5.73 5.51127 6.08 5.91127 6.53C6.31127 6.97 6.51127 7.525 6.51127 8.195C6.51127 8.525 6.45127 8.84 6.33127 9.14C6.22127 9.43 6.05127 9.69 5.82127 9.92C5.60127 10.15 5.32627 10.345 4.99627 10.505C4.66627 10.655 4.28127 10.76 3.84127 10.82V12.53H2.53627V10.85C2.06627 10.81 1.63627 10.725 1.24627 10.595C0.86627 10.465 0.49627 10.285 0.13627 10.055L0.81127 8.63C1.17127 8.87 1.53627 9.045 1.90627 9.155C2.28627 9.265 2.65127 9.32 3.00127 9.32C3.51127 9.32 3.87627 9.23 4.09627 9.05C4.32627 8.86 4.44127 8.62 4.44127 8.33C4.44127 8.07 4.34627 7.855 4.15627 7.685C3.96627 7.505 3.63127 7.335 3.15127 7.175L2.40127 6.935C2.08127 6.835 1.78127 6.71 1.50127 6.56C1.22127 6.4 0.97627 6.215 0.76627 6.005C0.55627 5.795 0.39127 5.555 0.27127 5.285C0.15127 5.005 0.0912696 4.685 0.0912696 4.325C0.0912696 3.955 0.15627 3.615 0.28627 3.305C0.42627 2.985 0.61127 2.715 0.84127 2.495C1.08127 2.265 1.36127 2.085 1.68127 1.955C2.01127 1.815 2.37127 1.735 2.76127 1.715V0.0949991ZM13.8193 1.52V3.065L10.5193 3.095L10.3093 4.985C10.4493 4.965 10.5593 4.955 10.6393 4.955C10.7293 4.955 10.8443 4.955 10.9843 4.955C11.4043 4.955 11.8093 5.015 12.1993 5.135C12.5893 5.245 12.9343 5.42 13.2343 5.66C13.5343 5.89 13.7743 6.19 13.9543 6.56C14.1343 6.93 14.2243 7.37 14.2243 7.88C14.2243 8.33 14.1443 8.755 13.9843 9.155C13.8343 9.545 13.5993 9.89 13.2793 10.19C12.9693 10.49 12.5693 10.73 12.0793 10.91C11.5893 11.08 11.0143 11.165 10.3543 11.165C9.87432 11.165 9.43432 11.115 9.03432 11.015C8.63432 10.915 8.28932 10.795 7.99932 10.655L8.41932 9.2C8.67932 9.32 8.94932 9.42 9.22932 9.5C9.50932 9.58 9.82432 9.62 10.1743 9.62C10.8243 9.62 11.3193 9.47 11.6593 9.17C11.9993 8.87 12.1693 8.48 12.1693 8C12.1693 7.45 11.9743 7.04 11.5843 6.77C11.2043 6.5 10.7143 6.365 10.1143 6.365C9.85432 6.365 9.58932 6.385 9.31932 6.425C9.04932 6.455 8.79432 6.495 8.55432 6.545L9.01932 1.55L13.8193 1.52ZM19.5684 1.385C20.1284 1.385 20.6434 1.48 21.1134 1.67C21.5934 1.85 22.0034 2.14 22.3434 2.54C22.6934 2.93 22.9634 3.435 23.1534 4.055C23.3534 4.665 23.4534 5.4 23.4534 6.26C23.4534 7.11 23.3484 7.845 23.1384 8.465C22.9284 9.075 22.6434 9.58 22.2834 9.98C21.9234 10.38 21.5084 10.68 21.0384 10.88C20.5684 11.07 20.0734 11.165 19.5534 11.165C18.9934 11.165 18.4734 11.075 17.9934 10.895C17.5234 10.705 17.1134 10.41 16.7634 10.01C16.4134 9.61 16.1384 9.1 15.9384 8.48C15.7484 7.86 15.6534 7.12 15.6534 6.26C15.6534 5.44 15.7584 4.725 15.9684 4.115C16.1884 3.495 16.4784 2.985 16.8384 2.585C17.1984 2.185 17.6134 1.885 18.0834 1.685C18.5634 1.485 19.0584 1.385 19.5684 1.385ZM17.7084 6.26C17.7084 6.93 17.7584 7.485 17.8584 7.925C17.9584 8.365 18.0934 8.715 18.2634 8.975C18.4434 9.235 18.6434 9.42 18.8634 9.53C19.0934 9.63 19.3284 9.68 19.5684 9.68C19.8084 9.68 20.0384 9.625 20.2584 9.515C20.4884 9.405 20.6834 9.22 20.8434 8.96C21.0134 8.7 21.1484 8.35 21.2484 7.91C21.3484 7.47 21.3984 6.92 21.3984 6.26C21.3984 5.59 21.3484 5.04 21.2484 4.61C21.1484 4.17 21.0134 3.825 20.8434 3.575C20.6834 3.315 20.4884 3.135 20.2584 3.035C20.0384 2.925 19.8084 2.87 19.5684 2.87C19.3284 2.87 19.0934 2.925 18.8634 3.035C18.6434 3.135 18.4434 3.315 18.2634 3.575C18.0934 3.835 17.9584 4.185 17.8584 4.625C17.7584 5.055 17.7084 5.6 17.7084 6.26ZM28.4161 1.385C28.9761 1.385 29.4911 1.48 29.9611 1.67C30.4411 1.85 30.8511 2.14 31.1911 2.54C31.5411 2.93 31.8111 3.435 32.0011 4.055C32.2011 4.665 32.3011 5.4 32.3011 6.26C32.3011 7.11 32.1961 7.845 31.9861 8.465C31.7761 9.075 31.4911 9.58 31.1311 9.98C30.7711 10.38 30.3561 10.68 29.8861 10.88C29.4161 11.07 28.9211 11.165 28.4011 11.165C27.8411 11.165 27.3211 11.075 26.8411 10.895C26.3711 10.705 25.9611 10.41 25.6111 10.01C25.2611 9.61 24.9861 9.1 24.7861 8.48C24.5961 7.86 24.5011 7.12 24.5011 6.26C24.5011 5.44 24.6061 4.725 24.8161 4.115C25.0361 3.495 25.3261 2.985 25.6861 2.585C26.0461 2.185 26.4611 1.885 26.9311 1.685C27.4111 1.485 27.9061 1.385 28.4161 1.385ZM26.5561 6.26C26.5561 6.93 26.6061 7.485 26.7061 7.925C26.8061 8.365 26.9411 8.715 27.1111 8.975C27.2911 9.235 27.4911 9.42 27.7111 9.53C27.9411 9.63 28.1761 9.68 28.4161 9.68C28.6561 9.68 28.8861 9.625 29.1061 9.515C29.3361 9.405 29.5311 9.22 29.6911 8.96C29.8611 8.7 29.9961 8.35 30.0961 7.91C30.1961 7.47 30.2461 6.92 30.2461 6.26C30.2461 5.59 30.1961 5.04 30.0961 4.61C29.9961 4.17 29.8611 3.825 29.6911 3.575C29.5311 3.315 29.3361 3.135 29.1061 3.035C28.8861 2.925 28.6561 2.87 28.4161 2.87C28.1761 2.87 27.9411 2.925 27.7111 3.035C27.4911 3.135 27.2911 3.315 27.1111 3.575C26.9411 3.835 26.8061 4.185 26.7061 4.625C26.6061 5.055 26.5561 5.6 26.5561 6.26Z" fill="black"/>
</svg>
