<svg width="5" height="11" viewBox="0 0 5 11" fill="none" xmlns="http://www.w3.org/2000/svg">
<path d="M2.11436 0.36H2.89436V1.596C3.38236 1.636 3.88236 1.776 4.39436 2.016L4.08236 2.832C3.79436 2.68 3.52236 2.572 3.26636 2.508C3.01036 2.444 2.75436 2.412 2.49836 2.412C2.10636 2.412 1.78636 2.5 1.53836 2.676C1.29036 2.852 1.16636 3.12 1.16636 3.48C1.16636 3.808 1.27836 4.048 1.50236 4.2C1.72636 4.352 2.02236 4.488 2.39036 4.608L2.94236 4.788C3.55836 4.988 4.02236 5.252 4.33436 5.58C4.65436 5.9 4.81436 6.316 4.81436 6.828C4.81436 7.132 4.75836 7.404 4.64636 7.644C4.53436 7.876 4.38236 8.08 4.19036 8.256C4.00636 8.424 3.78636 8.56 3.53036 8.664C3.27436 8.768 3.00236 8.836 2.71436 8.868V10.128H1.93436V8.868C1.59036 8.852 1.27836 8.804 0.998359 8.724C0.726359 8.644 0.438359 8.524 0.134359 8.364L0.518359 7.548C0.854359 7.74 1.17836 7.872 1.49036 7.944C1.80236 8.008 2.07836 8.04 2.31836 8.04C2.51836 8.04 2.70236 8.02 2.87036 7.98C3.04636 7.932 3.19836 7.864 3.32636 7.776C3.46236 7.68 3.56636 7.56 3.63836 7.416C3.71836 7.272 3.75836 7.104 3.75836 6.912C3.75836 6.576 3.63836 6.32 3.39836 6.144C3.16636 5.968 2.82236 5.808 2.36636 5.664L1.81436 5.484C1.55836 5.404 1.32636 5.312 1.11836 5.208C0.910359 5.096 0.730359 4.964 0.578359 4.812C0.434359 4.66 0.318359 4.488 0.230359 4.296C0.150359 4.096 0.110359 3.868 0.110359 3.612C0.110359 3.004 0.290359 2.528 0.650359 2.184C1.01036 1.84 1.49836 1.64 2.11436 1.584V0.36Z" fill="#C1C1C1"/>
</svg>
