<svg width="11" height="13" viewBox="0 0 11 13" fill="none" xmlns="http://www.w3.org/2000/svg">
<path d="M2.58631 0.2H3.56131V1.745C4.17131 1.795 4.79631 1.97 5.43631 2.27L5.04631 3.29C4.68631 3.1 4.34631 2.965 4.02631 2.885C3.70631 2.805 3.38631 2.765 3.06631 2.765C2.57631 2.765 2.17631 2.875 1.86631 3.095C1.55631 3.315 1.40131 3.65 1.40131 4.1C1.40131 4.51 1.54131 4.81 1.82131 5C2.10131 5.19 2.47131 5.36 2.93131 5.51L3.62131 5.735C4.39131 5.985 4.97131 6.315 5.36131 6.725C5.76131 7.125 5.96131 7.645 5.96131 8.285C5.96131 8.665 5.89131 9.005 5.75131 9.305C5.61131 9.595 5.42131 9.85 5.18131 10.07C4.95131 10.28 4.67631 10.45 4.35631 10.58C4.03631 10.71 3.69631 10.795 3.33631 10.835V12.41H2.36131V10.835C1.93131 10.815 1.54131 10.755 1.19131 10.655C0.851309 10.555 0.491309 10.405 0.111309 10.205L0.591309 9.185C1.01131 9.425 1.41631 9.59 1.80631 9.68C2.19631 9.76 2.54131 9.8 2.84131 9.8C3.09131 9.8 3.32131 9.775 3.53131 9.725C3.75131 9.665 3.94131 9.58 4.10131 9.47C4.27131 9.35 4.40131 9.2 4.49131 9.02C4.59131 8.84 4.64131 8.63 4.64131 8.39C4.64131 7.97 4.49131 7.65 4.19131 7.43C3.90131 7.21 3.47131 7.01 2.90131 6.83L2.21131 6.605C1.89131 6.505 1.60131 6.39 1.34131 6.26C1.08131 6.12 0.856309 5.955 0.666309 5.765C0.486309 5.575 0.341309 5.36 0.231309 5.12C0.131309 4.87 0.0813086 4.585 0.0813086 4.265C0.0813086 3.505 0.306309 2.91 0.756309 2.48C1.20631 2.05 1.81631 1.8 2.58631 1.73V0.2ZM9.59482 1.55H10.5548V11H9.26482V2.93L7.56982 3.71L7.26982 2.615L9.59482 1.55Z" fill="black"/>
</svg>
