<svg width="21" height="16" viewBox="0 0 21 16" fill="none" xmlns="http://www.w3.org/2000/svg">
<path fill-rule="evenodd" clip-rule="evenodd" d="M2.2976 6.90067C7.6652 4.64981 11.2385 3.15417 13.0328 2.42856C18.1397 0.370208 19.2132 0.0148083 19.9033 0C20.0567 0 20.3941 0.0296168 20.6241 0.207316C20.8082 0.355399 20.8542 0.547908 20.8848 0.695991C20.9155 0.844074 20.9462 1.15505 20.9155 1.39198C20.6395 4.20556 19.4433 11.0322 18.8298 14.1715C18.5691 15.5043 18.063 15.9485 17.5723 15.993C16.4987 16.0818 15.6859 15.3118 14.6584 14.6602C13.0328 13.6384 12.128 13.0017 10.5484 11.9947C8.72339 10.8397 9.90426 10.2029 10.9471 9.16634C11.2232 8.89979 15.9313 4.75347 16.0233 4.38326C16.0387 4.33883 16.0387 4.16113 15.9313 4.07228C15.824 3.98343 15.6706 4.01305 15.5479 4.04267C15.3792 4.07228 12.8028 5.73081 7.78789 9.00345C7.05176 9.49212 6.39231 9.72905 5.79421 9.71425C5.13476 9.69944 3.87721 9.35885 2.92637 9.06268C1.77617 8.70728 0.856011 8.51477 0.932691 7.89282C0.978699 7.56704 1.43878 7.24126 2.2976 6.90067Z" fill="#949494"/>
</svg>
