<svg width="20" height="22" viewBox="0 0 20 22" fill="none" xmlns="http://www.w3.org/2000/svg">
<path d="M18.8345 5.15392C17.746 4.91897 16.7603 4.33932 16.0211 3.49947C15.282 2.65962 14.828 1.60349 14.7253 0.485036V0H10.9704V15.0372C10.968 15.7029 10.7591 16.3512 10.3728 16.8909C9.98654 17.4306 9.4424 17.8346 8.81686 18.0461C8.19131 18.2577 7.51581 18.2661 6.88526 18.0703C6.25472 17.8744 5.70083 17.4841 5.30144 16.9543C4.89584 16.4155 4.67084 15.7605 4.65908 15.084C4.64731 14.4075 4.84939 13.7449 5.236 13.1921C5.62261 12.6394 6.17367 12.2252 6.80924 12.0098C7.44482 11.7943 8.13189 11.7888 8.77081 11.9939V8.14443C7.34606 7.94569 5.89538 8.20129 4.62168 8.87547C3.34797 9.54966 2.31496 10.6087 1.66713 11.9045C1.01929 13.2003 0.789038 14.668 1.00857 16.1023C1.22811 17.5367 1.88645 18.8659 2.89151 19.9041C3.84999 20.8937 5.07896 21.5726 6.42155 21.8543C7.76414 22.1359 9.15945 22.0074 10.4294 21.4853C11.6993 20.9631 12.7862 20.071 13.5514 18.9227C14.3165 17.7744 14.7252 16.4221 14.7253 15.0383V7.35474C16.2428 8.44946 18.0623 9.03646 19.9277 9.03312V5.26831C19.5604 5.26877 19.194 5.23043 18.8345 5.15392Z" fill="#FFFFFF"/>
</svg>
