<svg width="170" height="104" viewBox="0 0 170 104" fill="none" xmlns="http://www.w3.org/2000/svg">
<path opacity="0.6" d="M108.495 37.7757C108.591 37.2938 108.976 37.0047 109.457 36.9084L113.402 36.5229C114.845 36.3302 116 35.0774 116 33.6319V27.4645C116 26.019 114.845 24.7662 113.402 24.5735L109.457 24.188C108.976 24.0916 108.591 23.8025 108.495 23.3207C108.11 21.9716 107.533 20.6224 106.86 19.466C106.667 19.0806 106.667 18.5024 106.956 18.2133L109.457 15.1295C110.42 13.9731 110.323 12.3349 109.265 11.2749L104.839 6.84202C103.781 5.78199 102.145 5.68563 100.991 6.64929L97.9117 9.15482C97.5268 9.34755 97.0457 9.34755 96.6609 9.15482C95.4101 8.48025 94.1593 7.99842 92.8123 7.51659C92.3312 7.42022 92.0426 7.03476 91.9464 6.55292L91.4653 2.6019C91.2729 1.1564 90.0221 0 88.5789 0H82.4211C80.9779 0 79.7271 1.1564 79.5347 2.6019L79.1498 6.55292C79.0536 7.03476 78.765 7.42022 78.2839 7.51659C76.9369 7.90206 75.5899 8.48025 74.4353 9.15482C74.0505 9.34755 73.4732 9.34755 73.1845 9.05845L70.1057 6.55292C68.9511 5.58926 67.3155 5.68562 66.2571 6.74566L61.8312 11.1785C60.7729 12.2385 60.6767 13.8768 61.6388 15.0332L64.1404 18.1169C64.429 18.5024 64.429 18.9842 64.2366 19.3697C63.5631 20.6224 63.082 21.8752 62.6009 23.2243C62.5047 23.7062 62.1199 23.9953 61.6388 24.0916L57.5978 24.5735C56.1546 24.7662 55 26.019 55 27.4645V33.6319C55 35.0774 56.1546 36.3302 57.5978 36.5229L61.5426 36.9084C62.0237 37.0047 62.4085 37.2938 62.5047 37.7757C62.8896 39.1248 63.4669 40.4739 64.1404 41.6303C64.3328 42.0158 64.3328 42.594 64.0442 42.8831L61.5426 45.9668C60.5804 47.1232 60.6767 48.7615 61.735 49.8215L66.1609 54.2543C67.2192 55.3144 68.8549 55.4107 70.0095 54.4471L73.0883 51.9415C73.4732 51.6524 73.9543 51.6525 74.3391 51.8452C75.5899 52.5197 76.8407 53.0016 78.1877 53.4834C78.6688 53.5798 78.9574 53.9653 79.0536 54.4471L79.4385 58.3981C79.6309 59.8436 80.8817 61 82.3249 61H88.4827C89.9259 61 91.1767 59.8436 91.3691 58.3981L91.7539 54.4471C91.8502 53.9653 92.1388 53.5798 92.6199 53.4834C93.9669 53.098 95.3139 52.5197 96.4685 51.8452C96.8533 51.6525 97.4306 51.6524 97.7192 51.9415L100.798 54.4471C101.953 55.4107 103.588 55.3144 104.647 54.2543L109.073 49.8215C110.131 48.7615 110.227 47.1232 109.265 45.9668L106.763 42.8831C106.667 42.594 106.667 42.1122 106.86 41.7267C107.533 40.4739 108.014 39.1248 108.495 37.7757ZM85.5 42.3049C79.0536 42.3049 73.7618 37.0047 73.7618 30.5482C73.7618 24.0916 79.0536 18.7915 85.5 18.7915C91.9464 18.7915 97.2382 24.0916 97.2382 30.5482C97.2382 37.0047 91.9464 42.3049 85.5 42.3049Z" fill="white"/>
<path d="M3.16284 82.88L5.73084 91.784C5.79484 91.976 5.85884 92.224 5.92284 92.528C6.00284 92.816 6.08284 93.128 6.16284 93.464C6.24284 93.784 6.31484 94.112 6.37884 94.448C6.44284 94.768 6.49084 95.072 6.52284 95.36H6.57084C6.61884 95.072 6.67484 94.768 6.73884 94.448C6.81884 94.112 6.89884 93.784 6.97884 93.464C7.05884 93.128 7.13084 92.816 7.19484 92.528C7.27484 92.24 7.34684 91.992 7.41084 91.784L10.0508 82.88H12.0188L14.7548 91.784C14.8188 91.992 14.8828 92.24 14.9468 92.528C15.0268 92.816 15.0988 93.12 15.1628 93.44C15.2428 93.76 15.3148 94.088 15.3788 94.424C15.4588 94.76 15.5228 95.072 15.5708 95.36H15.6188C15.6668 95.056 15.7228 94.736 15.7868 94.4C15.8668 94.064 15.9468 93.736 16.0268 93.416C16.1068 93.08 16.1788 92.776 16.2428 92.504C16.3228 92.216 16.3868 91.976 16.4348 91.784L18.9068 82.88H21.1388L16.6988 98H14.4668L12.1628 89.96C12.0508 89.56 11.9388 89.184 11.8268 88.832C11.7308 88.48 11.6348 88.144 11.5388 87.824C11.4588 87.504 11.3708 87.184 11.2748 86.864C11.1948 86.528 11.1068 86.176 11.0108 85.808H10.9628C10.8028 86.528 10.6268 87.248 10.4348 87.968C10.2428 88.688 10.0588 89.352 9.88284 89.96L7.65084 98H5.44284L0.906844 82.88H3.16284ZM32.9643 92.24C32.9643 93.184 32.8203 94.032 32.5323 94.784C32.2443 95.52 31.8443 96.144 31.3323 96.656C30.8363 97.168 30.2523 97.56 29.5803 97.832C28.9083 98.088 28.1803 98.216 27.3963 98.216C26.6123 98.216 25.8843 98.096 25.2123 97.856C24.5563 97.6 23.9803 97.232 23.4843 96.752C23.0043 96.256 22.6203 95.656 22.3323 94.952C22.0603 94.232 21.9243 93.408 21.9243 92.48C21.9243 91.536 22.0683 90.696 22.3563 89.96C22.6443 89.224 23.0363 88.608 23.5323 88.112C24.0443 87.6 24.6363 87.216 25.3083 86.96C25.9803 86.688 26.7083 86.552 27.4923 86.552C28.2763 86.552 28.9963 86.672 29.6523 86.912C30.3243 87.152 30.9003 87.512 31.3803 87.992C31.8763 88.472 32.2603 89.072 32.5323 89.792C32.8203 90.496 32.9643 91.312 32.9643 92.24ZM30.7563 92.36C30.7563 91.608 30.6603 90.968 30.4683 90.44C30.2763 89.912 30.0203 89.48 29.7003 89.144C29.3963 88.808 29.0443 88.568 28.6443 88.424C28.2443 88.264 27.8363 88.184 27.4203 88.184C27.0043 88.184 26.5963 88.248 26.1963 88.376C25.7963 88.504 25.4443 88.728 25.1403 89.048C24.8363 89.368 24.5883 89.8 24.3963 90.344C24.2203 90.872 24.1323 91.544 24.1323 92.36C24.1323 93.112 24.2283 93.76 24.4203 94.304C24.6123 94.832 24.8603 95.264 25.1643 95.6C25.4843 95.936 25.8443 96.184 26.2443 96.344C26.6443 96.504 27.0523 96.584 27.4683 96.584C27.8843 96.584 28.2923 96.52 28.6923 96.392C29.0923 96.248 29.4443 96.016 29.7483 95.696C30.0523 95.36 30.2923 94.928 30.4683 94.4C30.6603 93.856 30.7563 93.176 30.7563 92.36ZM35.4863 98V86.72H37.0703L37.4303 88.976C37.7023 88.256 38.1503 87.672 38.7743 87.224C39.3983 86.776 40.1183 86.552 40.9343 86.552C41.3503 86.552 41.6943 86.584 41.9663 86.648C42.2383 86.712 42.4863 86.792 42.7103 86.888L42.3023 88.736C42.1103 88.64 41.8943 88.56 41.6543 88.496C41.4303 88.432 41.1583 88.4 40.8383 88.4C40.3743 88.4 39.9423 88.48 39.5423 88.64C39.1583 88.8 38.8143 89.04 38.5103 89.36C38.2223 89.68 37.9903 90.08 37.8143 90.56C37.6543 91.024 37.5743 91.56 37.5743 92.168V98H35.4863ZM46.576 93.872V98H44.488V80.96H46.576V91.568L51.112 86.72H53.728L49.096 91.472L53.944 98H51.448L47.704 92.744L46.576 93.872ZM63.4835 82.88V98H61.2755V82.88H63.4835ZM69.1229 98H67.0109V86.72H68.6669L68.9789 88.28C69.5389 87.72 70.1229 87.296 70.7309 87.008C71.3549 86.704 72.0669 86.552 72.8669 86.552C74.0189 86.552 74.9229 86.88 75.5789 87.536C76.2349 88.176 76.5629 89.072 76.5629 90.224V98H74.4509V90.536C74.4509 89.848 74.2669 89.304 73.8989 88.904C73.5469 88.488 73.0029 88.28 72.2669 88.28C71.1469 88.28 70.0989 88.784 69.1229 89.792V98ZM85.4395 82.88H90.1915C90.9755 82.88 91.6875 82.984 92.3275 83.192C92.9675 83.384 93.5195 83.68 93.9835 84.08C94.4475 84.464 94.8075 84.944 95.0635 85.52C95.3195 86.08 95.4475 86.728 95.4475 87.464C95.4475 88.264 95.3115 88.96 95.0395 89.552C94.7675 90.128 94.3835 90.608 93.8875 90.992C93.3915 91.376 92.8075 91.664 92.1355 91.856C91.4635 92.048 90.7195 92.144 89.9035 92.144H87.6475V98H85.4395V82.88ZM87.6475 90.344H89.0155C89.6075 90.344 90.1595 90.304 90.6715 90.224C91.1835 90.144 91.6155 90 91.9675 89.792C92.3355 89.584 92.6235 89.296 92.8315 88.928C93.0395 88.544 93.1435 88.064 93.1435 87.488C93.1435 86.96 93.0395 86.52 92.8315 86.168C92.6395 85.8 92.3835 85.504 92.0635 85.28C91.7435 85.056 91.3755 84.896 90.9595 84.8C90.5435 84.704 90.1195 84.656 89.6875 84.656H87.6475V90.344ZM97.666 98V86.72H99.25L99.61 88.976C99.882 88.256 100.33 87.672 100.954 87.224C101.578 86.776 102.298 86.552 103.114 86.552C103.53 86.552 103.874 86.584 104.146 86.648C104.418 86.712 104.666 86.792 104.89 86.888L104.482 88.736C104.29 88.64 104.074 88.56 103.834 88.496C103.61 88.432 103.338 88.4 103.018 88.4C102.554 88.4 102.122 88.48 101.722 88.64C101.338 88.8 100.994 89.04 100.69 89.36C100.402 89.68 100.17 90.08 99.994 90.56C99.834 91.024 99.754 91.56 99.754 92.168V98H97.666ZM116.378 92.24C116.378 93.184 116.234 94.032 115.946 94.784C115.658 95.52 115.258 96.144 114.746 96.656C114.25 97.168 113.666 97.56 112.994 97.832C112.322 98.088 111.594 98.216 110.81 98.216C110.026 98.216 109.298 98.096 108.626 97.856C107.97 97.6 107.394 97.232 106.898 96.752C106.418 96.256 106.034 95.656 105.746 94.952C105.474 94.232 105.338 93.408 105.338 92.48C105.338 91.536 105.482 90.696 105.77 89.96C106.058 89.224 106.45 88.608 106.946 88.112C107.458 87.6 108.05 87.216 108.722 86.96C109.394 86.688 110.122 86.552 110.906 86.552C111.69 86.552 112.41 86.672 113.066 86.912C113.738 87.152 114.314 87.512 114.794 87.992C115.29 88.472 115.674 89.072 115.946 89.792C116.234 90.496 116.378 91.312 116.378 92.24ZM114.17 92.36C114.17 91.608 114.074 90.968 113.882 90.44C113.69 89.912 113.434 89.48 113.114 89.144C112.81 88.808 112.458 88.568 112.058 88.424C111.658 88.264 111.25 88.184 110.834 88.184C110.418 88.184 110.01 88.248 109.61 88.376C109.21 88.504 108.858 88.728 108.554 89.048C108.25 89.368 108.002 89.8 107.81 90.344C107.634 90.872 107.546 91.544 107.546 92.36C107.546 93.112 107.642 93.76 107.834 94.304C108.026 94.832 108.274 95.264 108.578 95.6C108.898 95.936 109.258 96.184 109.658 96.344C110.058 96.504 110.466 96.584 110.882 96.584C111.298 96.584 111.706 96.52 112.106 96.392C112.506 96.248 112.858 96.016 113.162 95.696C113.466 95.36 113.706 94.928 113.882 94.4C114.074 93.856 114.17 93.176 114.17 92.36ZM118.78 90.464C118.78 89.84 118.892 89.288 119.116 88.808C119.34 88.312 119.652 87.896 120.052 87.56C120.468 87.224 120.956 86.976 121.516 86.816C122.076 86.64 122.684 86.552 123.34 86.552C123.58 86.552 123.812 86.568 124.036 86.6C124.26 86.632 124.484 86.672 124.708 86.72H129.58V88.28H128.836L126.916 88.016C127.22 88.336 127.452 88.704 127.612 89.12C127.788 89.536 127.876 89.976 127.876 90.44C127.876 91.064 127.764 91.624 127.54 92.12C127.316 92.6 127.004 93.008 126.604 93.344C126.204 93.68 125.724 93.936 125.164 94.112C124.604 94.272 123.996 94.352 123.34 94.352C122.844 94.352 122.412 94.32 122.044 94.256C121.676 94.384 121.42 94.552 121.276 94.76C121.132 94.952 121.06 95.16 121.06 95.384C121.06 95.752 121.18 96 121.42 96.128C121.676 96.256 122.012 96.32 122.428 96.32H125.404C126.652 96.32 127.604 96.608 128.26 97.184C128.932 97.744 129.268 98.512 129.268 99.488C129.268 100.112 129.132 100.672 128.86 101.168C128.588 101.664 128.196 102.088 127.684 102.44C127.188 102.792 126.58 103.056 125.86 103.232C125.14 103.424 124.332 103.52 123.436 103.52C121.804 103.52 120.5 103.224 119.524 102.632C118.564 102.056 118.084 101.2 118.084 100.064C118.084 99.472 118.268 98.976 118.636 98.576C119.02 98.176 119.516 97.872 120.124 97.664C119.804 97.44 119.564 97.208 119.404 96.968C119.244 96.712 119.164 96.376 119.164 95.96C119.164 95.464 119.308 95.04 119.596 94.688C119.9 94.336 120.308 94.056 120.82 93.848C120.18 93.56 119.676 93.144 119.308 92.6C118.956 92.04 118.78 91.328 118.78 90.464ZM121.348 98C120.532 98.368 120.124 98.944 120.124 99.728C120.124 101.136 121.26 101.84 123.532 101.84C124.204 101.84 124.772 101.776 125.236 101.648C125.7 101.52 126.076 101.352 126.364 101.144C126.652 100.936 126.86 100.704 126.988 100.448C127.132 100.192 127.204 99.928 127.204 99.656C127.204 98.984 126.972 98.536 126.508 98.312C126.06 98.104 125.492 98 124.804 98H121.348ZM125.74 90.512C125.74 89.664 125.516 89.04 125.068 88.64C124.636 88.24 124.06 88.04 123.34 88.04C122.62 88.04 122.036 88.24 121.588 88.64C121.156 89.04 120.94 89.632 120.94 90.416C120.94 91.248 121.156 91.864 121.588 92.264C122.036 92.648 122.62 92.84 123.34 92.84C124.06 92.84 124.636 92.648 125.068 92.264C125.516 91.88 125.74 91.296 125.74 90.512ZM131.885 98V86.72H133.469L133.829 88.976C134.101 88.256 134.549 87.672 135.173 87.224C135.797 86.776 136.517 86.552 137.333 86.552C137.749 86.552 138.093 86.584 138.365 86.648C138.637 86.712 138.885 86.792 139.109 86.888L138.701 88.736C138.509 88.64 138.293 88.56 138.053 88.496C137.829 88.432 137.557 88.4 137.237 88.4C136.773 88.4 136.341 88.48 135.941 88.64C135.557 88.8 135.213 89.04 134.909 89.36C134.621 89.68 134.389 90.08 134.213 90.56C134.053 91.024 133.973 91.56 133.973 92.168V98H131.885ZM149.877 92.6H141.789V92.696C141.789 93.944 142.125 94.904 142.797 95.576C143.485 96.248 144.413 96.584 145.581 96.584C146.189 96.584 146.725 96.536 147.189 96.44C147.669 96.344 148.189 96.184 148.749 95.96L149.181 97.52C148.717 97.728 148.165 97.896 147.525 98.024C146.901 98.152 146.229 98.216 145.509 98.216C144.693 98.216 143.925 98.104 143.205 97.88C142.501 97.656 141.877 97.312 141.333 96.848C140.789 96.368 140.357 95.76 140.037 95.024C139.733 94.288 139.581 93.408 139.581 92.384C139.581 91.504 139.709 90.704 139.965 89.984C140.237 89.264 140.613 88.656 141.093 88.16C141.573 87.648 142.149 87.256 142.821 86.984C143.509 86.696 144.277 86.552 145.125 86.552C145.845 86.552 146.493 86.672 147.069 86.912C147.661 87.152 148.165 87.488 148.581 87.92C148.997 88.352 149.317 88.872 149.541 89.48C149.765 90.088 149.877 90.76 149.877 91.496V92.6ZM147.693 91.088C147.693 90.672 147.637 90.288 147.525 89.936C147.429 89.568 147.269 89.248 147.045 88.976C146.837 88.704 146.565 88.488 146.229 88.328C145.893 88.168 145.485 88.088 145.005 88.088C144.125 88.088 143.405 88.368 142.845 88.928C142.301 89.488 141.965 90.224 141.837 91.136L147.693 91.088ZM158.706 88.832C158.178 88.576 157.698 88.4 157.266 88.304C156.834 88.208 156.402 88.16 155.97 88.16C155.202 88.16 154.634 88.304 154.266 88.592C153.898 88.864 153.714 89.232 153.714 89.696C153.714 90.032 153.842 90.328 154.098 90.584C154.354 90.824 154.89 91.064 155.706 91.304L156.426 91.52C157.498 91.84 158.306 92.256 158.85 92.768C159.41 93.264 159.69 93.944 159.69 94.808C159.69 95.832 159.306 96.656 158.538 97.28C157.786 97.904 156.73 98.216 155.37 98.216C154.65 98.216 153.954 98.152 153.282 98.024C152.626 97.896 152.058 97.72 151.578 97.496L152.082 95.84C152.546 96.064 153.05 96.248 153.594 96.392C154.138 96.52 154.69 96.584 155.25 96.584C155.97 96.584 156.538 96.456 156.954 96.2C157.386 95.944 157.602 95.52 157.602 94.928C157.602 94.416 157.418 94.056 157.05 93.848C156.682 93.624 156.154 93.408 155.466 93.2L154.722 92.96C153.682 92.624 152.906 92.208 152.394 91.712C151.898 91.2 151.65 90.544 151.65 89.744C151.65 89.264 151.754 88.824 151.962 88.424C152.17 88.024 152.45 87.688 152.802 87.416C153.17 87.144 153.602 86.936 154.098 86.792C154.594 86.632 155.138 86.552 155.73 86.552C156.29 86.552 156.866 86.608 157.458 86.72C158.066 86.816 158.642 86.984 159.186 87.224L158.706 88.832ZM168.48 88.832C167.952 88.576 167.472 88.4 167.04 88.304C166.608 88.208 166.176 88.16 165.744 88.16C164.976 88.16 164.408 88.304 164.04 88.592C163.672 88.864 163.488 89.232 163.488 89.696C163.488 90.032 163.616 90.328 163.872 90.584C164.128 90.824 164.664 91.064 165.48 91.304L166.2 91.52C167.272 91.84 168.08 92.256 168.624 92.768C169.184 93.264 169.464 93.944 169.464 94.808C169.464 95.832 169.08 96.656 168.312 97.28C167.56 97.904 166.504 98.216 165.144 98.216C164.424 98.216 163.728 98.152 163.056 98.024C162.4 97.896 161.832 97.72 161.352 97.496L161.856 95.84C162.32 96.064 162.824 96.248 163.368 96.392C163.912 96.52 164.464 96.584 165.024 96.584C165.744 96.584 166.312 96.456 166.728 96.2C167.16 95.944 167.376 95.52 167.376 94.928C167.376 94.416 167.192 94.056 166.824 93.848C166.456 93.624 165.928 93.408 165.24 93.2L164.496 92.96C163.456 92.624 162.68 92.208 162.168 91.712C161.672 91.2 161.424 90.544 161.424 89.744C161.424 89.264 161.528 88.824 161.736 88.424C161.944 88.024 162.224 87.688 162.576 87.416C162.944 87.144 163.376 86.936 163.872 86.792C164.368 86.632 164.912 86.552 165.504 86.552C166.064 86.552 166.64 86.608 167.232 86.72C167.84 86.816 168.416 86.984 168.96 87.224L168.48 88.832Z" fill="#979797"/>
</svg>
