<svg width="40" height="58" viewBox="0 0 40 58" fill="none" xmlns="http://www.w3.org/2000/svg">
<path d="M21.7318 2.71996C20.4358 1.42121 18.7846 0.536749 16.987 0.178433C15.1894 -0.179883 13.3262 0.00403482 11.6329 0.706928C9.93961 1.40982 8.49233 2.60012 7.47408 4.12731C6.45583 5.6545 5.91234 7.44998 5.91234 9.28671C5.91234 11.1234 6.45583 12.9189 7.47408 14.4461C8.49233 15.9733 9.93961 17.1636 11.6329 17.8665C13.3262 18.5694 15.1894 18.7533 16.987 18.395C18.7846 18.0367 20.4358 17.1522 21.7318 15.8535C22.5931 14.9915 23.2764 13.9679 23.7426 12.8411C24.2088 11.7143 24.4488 10.5065 24.4488 9.28671C24.4488 8.06691 24.2088 6.85907 23.7426 5.73229C23.2764 4.60551 22.5931 3.58188 21.7318 2.71996ZM13.391 34.3431C15.301 50.2194 15.3698 50.8039 26.5318 58C37.6926 50.8039 37.7633 50.2194 39.6727 34.3431C39.782 33.4505 39.8939 32.516 40 31.6428L26.5318 28.5855L13.0643 31.6415C13.1698 32.5115 13.2823 33.4492 13.391 34.3418V34.3431ZM13.5254 46.6452C12.7884 43.8096 12.337 40.0562 11.6733 34.5454C11.5518 33.5407 11.4238 32.4716 11.254 31.0776C11.2265 30.8541 11.2872 30.6287 11.423 30.4494C11.5589 30.27 11.7592 30.1509 11.9813 30.1173L26.3428 26.8583C26.4728 26.8303 26.6074 26.8314 26.737 26.8615L29.5441 27.5002C28.7422 25.5831 27.394 23.9455 25.6681 22.7923C23.9423 21.6391 21.9154 21.0216 19.8412 21.0169H10.5164C7.73028 21.0249 5.06051 22.1373 3.09012 24.1113C1.11973 26.0853 0.00882266 28.7605 0 31.5526V46.6452H13.5254ZM21.865 43.3958C21.7017 43.2353 21.6088 43.0163 21.6067 42.7871C21.6046 42.5578 21.6935 42.3372 21.8537 42.1736C22.0139 42.01 22.2325 41.917 22.4612 41.9148C22.6899 41.9127 22.9101 42.0018 23.0733 42.1623L25.5659 44.6113L30.7749 39.0625C30.9332 38.9016 31.148 38.8091 31.3734 38.8048C31.5988 38.8006 31.8169 38.8849 31.9811 39.0398C32.1452 39.1946 32.2424 39.4077 32.2519 39.6334C32.2613 39.8591 32.1822 40.0796 32.0315 40.2476L26.2219 46.4383C26.1435 46.5224 26.0491 46.5898 25.9443 46.6366C25.8394 46.6834 25.7263 46.7086 25.6115 46.7107C25.4968 46.7128 25.3828 46.6918 25.2763 46.6489C25.1698 46.6059 25.073 46.542 24.9916 46.4609L21.865 43.3958Z" fill="#979797"/>
</svg>
