<svg width="55" height="64" viewBox="0 0 55 64" fill="none" xmlns="http://www.w3.org/2000/svg">
<path opacity="0.6" d="M47.1453 22.5869V18.8217C47.1453 8.44456 38.3328 0 27.5015 0C16.6702 0 7.85772 8.44543 7.85772 18.8217V22.5869C3.51803 22.5869 0 25.9583 0 30.1173V56.4696C0.00391293 60.6285 3.52184 64 7.85772 64H47.1423C51.482 64 55 60.6286 55 56.4696V30.1173C55 25.9584 51.4811 22.5869 47.1453 22.5869ZM15.7146 18.8217C15.7146 12.5926 21.0013 7.5258 27.5015 7.5258C34.0017 7.5258 39.2884 12.5922 39.2884 18.8217V22.5869H15.7156L15.7146 18.8217ZM31.4305 45.1778C31.4305 47.2555 29.6734 48.943 27.5016 48.943C25.3337 48.943 23.5727 47.2592 23.5727 45.1778V37.6474C23.5727 35.5698 25.3337 33.8822 27.5016 33.8822C29.6695 33.8822 31.4305 35.566 31.4305 37.6474V45.1778Z" fill="white"/>
</svg>
