<svg width="86" height="28" viewBox="0 0 86 28" fill="none" xmlns="http://www.w3.org/2000/svg">
<path d="M27.1131 14.45L26.6181 15.9568C26.4944 16.3373 26.2792 16.6553 25.9728 16.911C25.6662 17.1607 25.3215 17.2855 24.9384 17.2855C24.8441 17.2855 24.7646 17.2587 24.6997 17.2053C24.6407 17.1576 24.6113 17.0863 24.6113 16.9912C24.6113 16.9556 24.6231 16.902 24.6468 16.8308L25.4954 14.3787C25.5366 14.2539 25.5808 14.1588 25.6279 14.0934C25.6751 14.022 25.74 13.9715 25.8225 13.9418C25.9108 13.9121 25.9874 13.8942 26.0523 13.8883C26.1231 13.8824 26.2409 13.8794 26.406 13.8794C26.5415 13.8794 26.6416 13.8824 26.7065 13.8883C26.7714 13.8883 26.845 13.8972 26.9276 13.915C27.016 13.9329 27.0778 13.9656 27.1131 14.0131C27.1486 14.0547 27.1662 14.1142 27.1662 14.1915C27.1662 14.245 27.1486 14.3311 27.1131 14.45ZM30.0218 4.79357L33.7878 15.841C33.829 16.0312 33.8497 16.1382 33.8497 16.162C33.8497 16.4176 33.7022 16.6702 33.4076 16.9199C33.1129 17.1636 32.8536 17.2855 32.6297 17.2855C32.4352 17.2855 32.2849 17.1339 32.1787 16.8308L28.5011 6.00619C28.4422 5.7387 28.4126 5.59604 28.4126 5.57821C28.4126 5.31666 28.5748 5.05809 28.8989 4.80248C29.229 4.54093 29.4824 4.41016 29.6592 4.41016C29.7594 4.41016 29.8301 4.4369 29.8713 4.49041C29.9185 4.53796 29.9686 4.63902 30.0218 4.79357ZM29.8626 13.3444H26.2734C26.0493 13.3444 25.9374 13.2463 25.9374 13.0501C25.9374 12.9966 25.9491 12.9372 25.9728 12.8718L27.785 7.40609C27.8675 7.17425 27.9618 7.05834 28.0679 7.05834C28.1622 7.05834 28.2447 7.11778 28.3155 7.23667C28.3862 7.34962 28.4629 7.53388 28.5453 7.78949C28.6986 8.27098 28.7752 8.6306 28.7752 8.86837C28.7752 9.03482 28.7458 9.21017 28.6868 9.39445L27.9973 11.5165C27.9854 11.5462 27.9795 11.5878 27.9795 11.6414C27.9795 11.8018 28.0709 11.8821 28.2536 11.8821H29.1731C29.4736 11.8821 29.6768 11.897 29.7831 11.9267C29.8891 11.9564 29.9745 12.0396 30.0394 12.1763C30.0982 12.2952 30.1455 12.4498 30.1808 12.64C30.2221 12.8243 30.2426 12.961 30.2426 13.0501C30.2426 13.2463 30.116 13.3444 29.8626 13.3444ZM40.8247 8.94863C40.8247 8.5028 40.7628 8.11345 40.6391 7.78057C40.5211 7.44174 40.3621 7.17128 40.1618 6.96918C39.9673 6.76113 39.7226 6.59468 39.4279 6.46985C39.1332 6.33907 38.8297 6.24992 38.5173 6.20236C38.2109 6.15481 37.8662 6.13104 37.4831 6.13104H35.3789C35.3025 6.13104 35.2404 6.12806 35.1934 6.12212C35.152 6.11617 35.1139 6.09834 35.0784 6.06862C35.049 6.03295 35.0342 5.98539 35.0342 5.92595C35.0342 5.67035 35.2021 5.40286 35.5381 5.12348C35.8741 4.84409 36.213 4.69846 36.5547 4.68657L38.2344 4.65982C38.4762 4.65982 38.7059 4.66874 38.924 4.68657C39.1421 4.69846 39.4074 4.73709 39.7197 4.80248C40.032 4.86192 40.3179 4.94218 40.5773 5.04322C40.8365 5.14428 41.1017 5.29288 41.3728 5.48905C41.6499 5.67926 41.8796 5.90515 42.0624 6.16669C42.251 6.42825 42.4042 6.75815 42.5221 7.15642C42.6458 7.55469 42.7078 7.99754 42.7078 8.48497C42.7078 9.75705 42.08 10.83 40.8247 11.7038C40.642 11.8345 40.5507 11.9713 40.5507 12.1139C40.5507 12.2209 40.6008 12.3517 40.701 12.5062L42.7697 15.8588C42.8993 16.0728 42.9641 16.2571 42.9641 16.4117C42.9641 16.6494 42.808 16.8604 42.4955 17.0447C42.2422 17.2053 42.0094 17.2855 41.7971 17.2855C41.6026 17.2855 41.4318 17.1576 41.2844 16.902L38.8357 12.5776C38.7649 12.4706 38.7295 12.3666 38.7295 12.2655C38.7295 12.0991 38.8416 11.9504 39.0655 11.8197C39.643 11.4927 40.0792 11.0796 40.3739 10.5803C40.6744 10.081 40.8247 9.53712 40.8247 8.94863ZM35.0342 11.4541V7.17425C35.0342 6.96026 35.105 6.82057 35.2463 6.75518C35.3937 6.68385 35.6176 6.64819 35.9183 6.64819C36.2483 6.64819 36.4782 6.68385 36.6078 6.75518C36.7433 6.82057 36.8112 6.96026 36.8112 7.17425V10.4198C36.8112 10.6754 36.9232 10.8032 37.1471 10.8032H38.6942C38.9476 10.8032 39.0744 10.8775 39.0744 11.0261C39.0744 11.1688 38.9359 11.3352 38.6589 11.5254C38.3819 11.7097 38.04 11.8643 37.6334 11.9891C37.3858 12.0664 36.7729 12.105 35.7945 12.105C35.4939 12.105 35.2905 12.0515 35.1845 11.9445C35.0843 11.8375 35.0342 11.674 35.0342 11.4541ZM36.8112 13.1928V15.9568C36.8112 16.2482 36.7492 16.4651 36.6255 16.6078C36.4782 16.7862 36.269 16.9437 35.9978 17.0803C35.7326 17.2171 35.5146 17.2855 35.3436 17.2855C35.1374 17.2855 35.0342 17.1576 35.0342 16.902V13.1928C35.0342 12.9788 35.108 12.8332 35.2552 12.7559C35.4085 12.6786 35.6354 12.64 35.936 12.64C36.2601 12.64 36.487 12.6786 36.6167 12.7559C36.7463 12.8272 36.8112 12.9729 36.8112 13.1928ZM46.4031 14.45L45.9081 15.9568C45.7842 16.3373 45.569 16.6553 45.2626 16.911C44.9562 17.1607 44.6114 17.2855 44.2283 17.2855C44.134 17.2855 44.0544 17.2587 43.9897 17.2053C43.9307 17.1576 43.9012 17.0863 43.9012 16.9912C43.9012 16.9556 43.913 16.902 43.9365 16.8308L44.7852 14.3787C44.8266 14.2539 44.8708 14.1588 44.9179 14.0934C44.9651 14.022 45.0298 13.9715 45.1123 13.9418C45.2007 13.9121 45.2774 13.8942 45.3423 13.8883C45.4129 13.8824 45.5309 13.8794 45.6958 13.8794C45.8314 13.8794 45.9316 13.8824 45.9963 13.8883C46.0612 13.8883 46.1348 13.8972 46.2174 13.915C46.3058 13.9329 46.3676 13.9656 46.4031 14.0131C46.4384 14.0547 46.456 14.1142 46.456 14.1915C46.456 14.245 46.4384 14.3311 46.4031 14.45ZM49.3115 4.79357L53.0776 15.841C53.1188 16.0312 53.1395 16.1382 53.1395 16.162C53.1395 16.4176 52.9922 16.6702 52.6975 16.9199C52.4027 17.1636 52.1435 17.2855 51.9195 17.2855C51.725 17.2855 51.5747 17.1339 51.4686 16.8308L47.791 6.00619C47.732 5.7387 47.7026 5.59604 47.7026 5.57821C47.7026 5.31666 47.8646 5.05809 48.1889 4.80248C48.5188 4.54093 48.7723 4.41016 48.9491 4.41016C49.0493 4.41016 49.1201 4.4369 49.1613 4.49041C49.2085 4.53796 49.2586 4.63902 49.3115 4.79357ZM49.1524 13.3444H45.5632C45.3393 13.3444 45.2273 13.2463 45.2273 13.0501C45.2273 12.9966 45.2391 12.9372 45.2626 12.8718L47.0749 7.40609C47.1575 7.17425 47.2518 7.05834 47.3578 7.05834C47.4521 7.05834 47.5347 7.11778 47.6054 7.23667C47.676 7.34962 47.7527 7.53388 47.8352 7.78949C47.9885 8.27098 48.065 8.6306 48.065 8.86837C48.065 9.03482 48.0356 9.21017 47.9766 9.39445L47.2871 11.5165C47.2753 11.5462 47.2694 11.5878 47.2694 11.6414C47.2694 11.8018 47.3607 11.8821 47.5434 11.8821H48.4629C48.7634 11.8821 48.9668 11.897 49.0729 11.9267C49.1789 11.9564 49.2645 12.0396 49.3292 12.1763C49.3882 12.2952 49.4353 12.4498 49.4707 12.64C49.5119 12.8243 49.5326 12.961 49.5326 13.0501C49.5326 13.2463 49.4058 13.3444 49.1524 13.3444ZM56.101 6.13995H54.6689C54.439 6.13995 54.3241 6.06862 54.3241 5.92595C54.3241 5.79517 54.3712 5.66143 54.4655 5.52472C54.5598 5.38205 54.6807 5.25127 54.8281 5.1324C54.9812 5.0135 55.1493 4.91244 55.3319 4.82924C55.5204 4.74601 55.7032 4.69846 55.88 4.68657L56.5873 4.66874C57.5244 4.66874 58.3966 4.78762 59.2041 5.02539C60.0115 5.25722 60.7129 5.62874 61.3081 6.13995C61.9033 6.65115 62.3689 7.308 62.7049 8.11049C63.0467 8.91296 63.2176 9.88485 63.2176 11.0261C63.2176 11.567 63.1616 12.0961 63.0497 12.6132C62.9436 13.1304 62.7874 13.6178 62.581 14.0755C62.3748 14.5332 62.1243 14.9523 61.8297 15.3328C61.5409 15.7132 61.2167 16.0431 60.8573 16.3225C60.4977 16.596 60.1058 16.8099 59.6815 16.9645C59.2571 17.119 58.8121 17.1963 58.3465 17.1963C58.1403 17.1963 58.0371 17.128 58.0371 16.9912C58.0371 16.8842 58.102 16.8009 58.2316 16.7416C58.7326 16.5097 59.1776 16.2393 59.5665 15.9302C59.9555 15.621 60.2826 15.2526 60.5478 14.8245C60.819 14.3906 61.0222 13.8853 61.1578 13.3087C61.2992 12.7321 61.37 12.0604 61.37 11.2936C61.37 10.5327 61.2787 9.84028 61.096 9.21612C60.9191 8.59196 60.6245 8.05401 60.2118 7.60224C59.7993 7.15048 59.2571 6.79977 58.5852 6.55011C57.9134 6.2945 57.0853 6.15777 56.101 6.13995ZM54.3241 16.8128V7.20992C54.3241 6.99593 54.3949 6.85325 54.5363 6.78193C54.6837 6.71061 54.9076 6.67494 55.2081 6.67494C55.5383 6.67494 55.768 6.71061 55.8976 6.78193C56.0333 6.84732 56.101 6.98998 56.101 7.20992V15.3684C56.101 15.6122 56.2219 15.7341 56.4634 15.7341H57.931C58.1845 15.7341 58.3112 15.8083 58.3112 15.9568C58.3112 16.046 58.2198 16.162 58.0371 16.3047C57.8603 16.4473 57.6392 16.5841 57.3741 16.7148C57.1089 16.8455 56.8083 16.9586 56.4723 17.0536C56.1363 17.1488 55.8299 17.1963 55.5529 17.1963H54.6865C54.445 17.1963 54.3241 17.0685 54.3241 16.8128ZM66.9925 4.89164V15.9568C66.9925 16.2482 66.9305 16.4651 66.8068 16.6078C66.6596 16.7862 66.4503 16.9437 66.1792 17.0803C65.9139 17.2171 65.6959 17.2855 65.525 17.2855C65.3187 17.2855 65.2155 17.1576 65.2155 16.902V5.83679C65.2155 5.58712 65.2774 5.38799 65.4012 5.23939C65.5544 5.05511 65.7636 4.88867 66.0289 4.74006C66.2941 4.58551 66.5121 4.50824 66.6831 4.50824C66.8893 4.50824 66.9925 4.63604 66.9925 4.89164ZM72.9244 10.1256C73.39 10.2147 73.8056 10.3247 74.171 10.4555C74.5423 10.5862 74.8546 10.7259 75.1081 10.8745C75.3614 11.0172 75.5796 11.1836 75.7623 11.3739C75.945 11.5641 76.0864 11.7483 76.1865 11.9267C76.2926 12.105 76.3751 12.3101 76.4341 12.5419C76.493 12.7737 76.5313 12.9877 76.549 13.1839C76.5668 13.3741 76.5755 13.597 76.5755 13.8526C76.5755 14.3282 76.4871 14.7829 76.3103 15.2168C76.1336 15.6508 75.9126 16.0104 75.6473 16.2957C75.388 16.5751 75.1168 16.7981 74.8339 16.9645C74.551 17.1309 74.2947 17.2141 74.0649 17.2141C73.941 17.2141 73.8792 17.1547 73.8792 17.0357C73.8792 16.9586 73.9264 16.8723 74.0207 16.7772C74.3213 16.4859 74.5423 16.1323 74.6837 15.7161C74.8252 15.3001 74.8958 14.9226 74.8958 14.5838C74.8958 14.3817 74.8929 14.2242 74.887 14.1112C74.8812 13.9983 74.8605 13.8437 74.8252 13.6476C74.7956 13.4514 74.7485 13.2939 74.6837 13.175C74.6248 13.0501 74.5334 12.9105 74.4097 12.7559C74.2858 12.5954 74.1355 12.4646 73.9588 12.3636C73.782 12.2566 73.5551 12.1585 73.2781 12.0693C73.007 11.9742 72.6946 11.8999 72.341 11.8464C71.893 11.781 71.4893 11.6949 71.1299 11.5878C70.7762 11.4749 70.4816 11.356 70.2458 11.2312C70.016 11.1064 69.8156 10.9607 69.6447 10.7943C69.4796 10.6278 69.3529 10.4733 69.2645 10.3306C69.176 10.182 69.1083 10.0156 69.0612 9.83136C69.014 9.64708 68.9846 9.4955 68.9728 9.37662C68.9609 9.25179 68.955 9.11209 68.955 8.95755C68.955 8.77921 68.9816 8.6098 69.0347 8.4493C69.1172 8.19369 69.3058 7.94999 69.6005 7.71815C69.8951 7.48633 70.1515 7.37042 70.3695 7.37042C70.4757 7.37042 70.5552 7.39419 70.6082 7.44174C70.6672 7.48336 70.6966 7.57549 70.6966 7.71815C70.6966 8.16992 70.7231 8.52657 70.7762 8.78813C70.8351 9.04967 70.9559 9.26962 71.1386 9.44794C71.3214 9.62627 71.5424 9.76002 71.8018 9.84919C72.061 9.93835 72.4353 10.0305 72.9244 10.1256ZM71.4834 17.4726C71.0354 17.4726 70.6406 17.4133 70.2989 17.2944C69.9629 17.1814 69.5946 16.9406 69.1937 16.5721C68.9992 16.3939 68.902 16.2066 68.902 16.0104C68.902 15.8499 68.9669 15.7042 69.0965 15.5735C69.4855 15.1812 69.8361 14.985 70.1486 14.985C70.349 14.985 70.5729 15.089 70.8204 15.2972C71.1622 15.5944 71.4451 15.7875 71.6691 15.8766C71.8989 15.9658 72.167 16.0104 72.4736 16.0104C72.7328 16.0104 72.9717 15.9599 73.1897 15.8588C73.4136 15.7578 73.5462 15.7073 73.5875 15.7073C73.7348 15.7073 73.8084 15.8024 73.8084 15.9926C73.8084 16.0877 73.7702 16.2096 73.6936 16.3581C73.617 16.5068 73.4961 16.6702 73.331 16.8486C73.172 17.021 72.9274 17.1666 72.5973 17.2855C72.2732 17.4102 71.9019 17.4726 71.4834 17.4726ZM75.886 5.47121C75.886 5.70305 75.7327 5.93487 75.4263 6.16669C75.1257 6.39853 74.8635 6.51444 74.6395 6.51444C74.4981 6.51444 74.3065 6.46094 74.0649 6.35394C73.8232 6.24695 73.5492 6.13995 73.2426 6.03295C72.9421 5.92595 72.6474 5.87245 72.3586 5.87245C71.8636 5.87245 71.4009 5.96756 70.9707 6.15777C70.5463 6.34206 70.0925 6.6363 69.6092 7.0405C69.291 7.308 69.0906 7.44174 69.0081 7.44174C68.8785 7.44174 68.8136 7.37042 68.8136 7.22775C68.8136 7.13265 68.8696 6.98702 68.9816 6.79085C69.0935 6.59468 69.1997 6.43418 69.2999 6.30936C70.3372 5.04322 71.7133 4.41016 73.4284 4.41016C73.7524 4.41016 74.1002 4.45177 74.4715 4.53499C74.8428 4.61227 75.1699 4.73709 75.4528 4.90948C75.7416 5.07592 75.886 5.26316 75.886 5.47121ZM79.9173 4.68657H84.6823C84.9356 4.68657 85.0623 4.7787 85.0623 4.96298C85.0623 5.04619 85.0035 5.19777 84.8855 5.41772C84.7677 5.63171 84.6263 5.81301 84.4613 5.96162C84.3256 6.08645 84.1106 6.14886 83.816 6.14886H78.7415C78.6531 6.14886 78.5882 6.14589 78.547 6.13995C78.5057 6.12805 78.4674 6.1013 78.4321 6.0597C78.4026 6.01809 78.3878 5.95864 78.3878 5.88137C78.3878 5.66143 78.5588 5.40881 78.9005 5.12348C79.2483 4.8322 79.5872 4.68657 79.9173 4.68657ZM78.3967 16.8128V12.4171C78.3967 12.2031 78.4674 12.0634 78.6089 11.998C78.7561 11.9267 78.9831 11.891 79.2896 11.891C79.6196 11.891 79.8494 11.9267 79.9791 11.998C80.1088 12.0634 80.1736 12.2031 80.1736 12.4171V15.3684C80.1736 15.6122 80.2945 15.7341 80.536 15.7341H84.8591C85.1124 15.7341 85.2392 15.8261 85.2392 16.0104C85.2392 16.0936 85.1802 16.2482 85.0623 16.4741C84.9445 16.694 84.806 16.8754 84.6468 17.0179C84.5113 17.1368 84.2933 17.1963 83.9926 17.1963H78.706C78.4998 17.1963 78.3967 17.0685 78.3967 16.8128ZM78.3967 10.9905V7.21884C78.3967 7.00484 78.4674 6.86217 78.6089 6.79085C78.7561 6.71951 78.9831 6.68385 79.2896 6.68385C79.6196 6.68385 79.8494 6.71951 79.9791 6.79085C80.1088 6.85624 80.1736 6.9989 80.1736 7.21884V9.5282C80.1736 9.77191 80.2945 9.89377 80.536 9.89377H84.1342C84.3876 9.89377 84.5142 9.98591 84.5142 10.1701C84.5142 10.2534 84.4554 10.4049 84.3375 10.6249C84.2195 10.8389 84.081 11.0202 83.922 11.1688C83.7864 11.2936 83.5684 11.356 83.2678 11.356H78.7592C78.5175 11.356 78.3967 11.2342 78.3967 10.9905Z" fill="black"/>
<path d="M26.0701 26.0827V27.2286C26.0701 27.3742 26.0392 27.4827 25.9773 27.5539C25.9037 27.6431 25.799 27.7219 25.6635 27.7903C25.5309 27.8586 25.4218 27.8928 25.3364 27.8928C25.2332 27.8928 25.1816 27.8289 25.1816 27.7011V26.0827C25.1816 25.9757 25.2186 25.903 25.2922 25.8643C25.3688 25.8257 25.4823 25.8064 25.6326 25.8064C25.7946 25.8064 25.9081 25.8257 25.973 25.8643C26.0377 25.9 26.0701 25.9728 26.0701 26.0827ZM25.1816 25.2135V22.8372C25.1816 22.7302 25.2171 22.6603 25.2878 22.6276C25.3615 22.592 25.4734 22.5742 25.6237 22.5742C25.7887 22.5742 25.9037 22.592 25.9684 22.6276C26.0363 22.6603 26.0701 22.7302 26.0701 22.8372V24.6963C26.0701 24.8241 26.1261 24.888 26.2381 24.888H26.9763C27.103 24.888 27.1664 24.9251 27.1664 24.9994C27.1664 25.0708 27.1015 25.154 26.9719 25.2491C26.8452 25.3412 26.6816 25.4185 26.4813 25.4809C26.3574 25.5195 26.051 25.5389 25.5618 25.5389C25.4115 25.5389 25.3099 25.5121 25.2569 25.4587C25.2067 25.4051 25.1816 25.3234 25.1816 25.2135ZM28.0238 23.8047C28.0238 22.8149 27.4419 22.3201 26.2779 22.3201H25.3541C25.3157 22.3201 25.2848 22.3185 25.2613 22.3157C25.2406 22.3126 25.2214 22.3036 25.2038 22.2889C25.189 22.2711 25.1816 22.2472 25.1816 22.2175C25.1816 22.0927 25.2656 21.959 25.4336 21.8162C25.6045 21.6736 25.774 21.5994 25.942 21.5933L26.4105 21.5889L26.9763 21.5933C27.1355 21.5963 27.296 21.6157 27.458 21.6513C27.6231 21.684 27.7984 21.7479 27.9842 21.843C28.1697 21.9381 28.3333 22.0585 28.4748 22.2041C28.6162 22.3497 28.7327 22.5459 28.8239 22.7926C28.9182 23.0392 28.9655 23.3186 28.9655 23.6307C28.9655 23.7526 28.9492 23.8864 28.9167 24.032C28.8873 24.1777 28.8298 24.3396 28.7444 24.5179C28.6619 24.6963 28.5573 24.8597 28.4306 25.0084C28.3067 25.154 28.1388 25.2847 27.9267 25.4007C27.7145 25.5136 27.4758 25.5865 27.2106 25.6192H27.1841C27.1045 25.6192 27.0647 25.585 27.0647 25.5166C27.0647 25.4749 27.0987 25.4334 27.1664 25.3917C27.7381 25.0352 28.0238 24.506 28.0238 23.8047ZM35.668 23.7243C35.668 23.5015 35.6371 23.3068 35.5752 23.1403C35.5162 22.9709 35.4367 22.8358 35.3365 22.7346C35.2392 22.6307 35.117 22.5474 34.9696 22.485C34.8224 22.4196 34.6706 22.375 34.5144 22.3513C34.3611 22.3275 34.1888 22.3157 33.9972 22.3157H32.9451C32.9068 22.3157 32.8759 22.3141 32.8524 22.3111C32.8317 22.3082 32.8125 22.2992 32.7949 22.2845C32.7802 22.2665 32.7728 22.2428 32.7728 22.2131C32.7728 22.0853 32.8567 21.9515 33.0248 21.8118C33.1927 21.6721 33.3622 21.5994 33.5331 21.5933L34.3729 21.58C34.4937 21.58 34.6087 21.5845 34.7177 21.5933C34.8267 21.5994 34.9594 21.6185 35.1155 21.6513C35.2717 21.6811 35.4147 21.7211 35.5443 21.7716C35.6739 21.8222 35.8065 21.8966 35.9422 21.9946C36.0807 22.0897 36.1955 22.2026 36.2869 22.3335C36.3812 22.4642 36.4579 22.6291 36.5167 22.8283C36.5786 23.0274 36.6095 23.2488 36.6095 23.4926C36.6095 24.1287 36.2957 24.6651 35.668 25.102C35.5767 25.1674 35.531 25.2357 35.531 25.3071C35.531 25.3605 35.5561 25.4259 35.6062 25.5032L36.6406 27.1794C36.7053 27.2866 36.7377 27.3786 36.7377 27.4559C36.7377 27.5748 36.6596 27.6802 36.5034 27.7725C36.3767 27.8527 36.2604 27.8928 36.1543 27.8928C36.057 27.8928 35.9716 27.8289 35.898 27.7011L34.6734 25.5389C34.6381 25.4854 34.6205 25.4334 34.6205 25.3829C34.6205 25.2996 34.6765 25.2254 34.7884 25.1599C35.0772 24.9965 35.2954 24.7898 35.4426 24.5403C35.5929 24.2906 35.668 24.0186 35.668 23.7243ZM32.7728 24.9772V22.8372C32.7728 22.7302 32.8081 22.6603 32.8789 22.6276C32.9525 22.592 33.0645 22.5742 33.2148 22.5742C33.3798 22.5742 33.4948 22.592 33.5597 22.6276C33.6274 22.6603 33.6612 22.7302 33.6612 22.8372V24.4599C33.6612 24.5878 33.7173 24.6517 33.8293 24.6517H34.6028C34.7296 24.6517 34.7928 24.6888 34.7928 24.7632C34.7928 24.8344 34.7235 24.9177 34.585 25.0128C34.4467 25.105 34.2757 25.1822 34.0723 25.2447C33.9486 25.2834 33.642 25.3025 33.1529 25.3025C33.0026 25.3025 32.9009 25.2759 32.848 25.2223C32.7979 25.1689 32.7728 25.087 32.7728 24.9772ZM33.6612 25.8465V27.2286C33.6612 27.3742 33.6303 27.4827 33.5684 27.5539C33.4948 27.6431 33.3902 27.7219 33.2546 27.7903C33.122 27.8586 33.013 27.8928 32.9275 27.8928C32.8244 27.8928 32.7728 27.8289 32.7728 27.7011V25.8465C32.7728 25.7396 32.8097 25.6667 32.8833 25.628C32.9599 25.5894 33.0734 25.57 33.2237 25.57C33.3857 25.57 33.4992 25.5894 33.564 25.628C33.6289 25.6638 33.6612 25.7365 33.6612 25.8465ZM45.4251 24.5269C45.4251 24.9282 45.4044 25.2862 45.3632 25.6012C45.3219 25.9164 45.2616 26.1972 45.182 26.4438C45.1054 26.6876 45.0096 26.9002 44.8946 27.0814C44.7827 27.2598 44.6531 27.4129 44.5057 27.5407C44.3288 27.6982 44.177 27.7769 44.0505 27.7769C43.9885 27.7769 43.9575 27.7397 43.9575 27.6655C43.9575 27.6417 43.9797 27.6016 44.0239 27.5451C44.0681 27.4856 44.1108 27.4158 44.152 27.3356C44.3878 26.8868 44.5057 26.2061 44.5057 25.2937C44.5057 25.1303 44.5057 24.94 44.5057 24.723C44.5057 24.506 44.491 24.2831 44.4615 24.0542C44.4349 23.8225 44.3878 23.5951 44.3201 23.3722C44.2523 23.1493 44.1491 22.9501 44.0106 22.7748C43.8721 22.5995 43.6909 22.4582 43.4669 22.3513C43.246 22.2412 42.969 22.1863 42.636 22.1863C42.3766 22.1863 42.1232 22.2353 41.8757 22.3335C41.6281 22.4315 41.382 22.5771 41.1375 22.7703L40.9961 22.8817C40.9696 22.9056 40.94 22.9263 40.9077 22.9441C40.8753 22.9621 40.8516 22.9709 40.8369 22.9709C40.7751 22.9709 40.7441 22.9412 40.7441 22.8817C40.7441 22.7897 40.8075 22.6618 40.9341 22.4984C41.1993 22.1566 41.5117 21.8979 41.8712 21.7226C42.2307 21.5443 42.6094 21.4551 43.0073 21.4551C43.408 21.4551 43.7587 21.5161 44.0592 21.6379C44.3628 21.7598 44.6147 21.9471 44.8151 22.1997C45.0185 22.4493 45.1703 22.7673 45.2705 23.1537C45.3735 23.54 45.4251 23.9978 45.4251 24.5269ZM41.6414 23.127C41.6414 23.1537 41.6266 23.2474 41.5972 23.4078C41.5678 23.5653 41.5382 23.7749 41.5088 24.0364C41.4794 24.298 41.4646 24.5671 41.4646 24.8434C41.4646 25.0574 41.4705 25.252 41.4822 25.4275C41.497 25.6028 41.5206 25.787 41.553 25.9803C41.5854 26.1734 41.6355 26.3428 41.7033 26.4884C41.771 26.6312 41.855 26.7634 41.9552 26.8853C42.0554 27.0041 42.1837 27.0964 42.3398 27.1616C42.496 27.224 42.6743 27.2554 42.8747 27.2554C43.0515 27.2554 43.2077 27.2374 43.3432 27.2018C43.4788 27.1632 43.5833 27.126 43.657 27.0904C43.7308 27.0547 43.7808 27.0368 43.8072 27.0368C43.8721 27.0368 43.9046 27.0725 43.9046 27.1438C43.9046 27.2181 43.8765 27.3013 43.8205 27.3935C43.7646 27.4856 43.6865 27.5778 43.5862 27.6699C43.486 27.7591 43.3505 27.8333 43.1796 27.8928C43.0087 27.9552 42.8246 27.9864 42.6271 27.9864C42.2292 27.9864 41.8934 27.9211 41.6192 27.7903C41.3452 27.6565 41.1301 27.4559 40.9739 27.1884C40.8206 26.9209 40.7102 26.6118 40.6424 26.2611C40.5776 25.9105 40.5451 25.4927 40.5451 25.0084C40.5451 24.2743 40.6189 23.766 40.7662 23.4836C40.8487 23.3291 40.9665 23.2042 41.1198 23.1091C41.273 23.0111 41.4012 22.9621 41.5044 22.9621C41.5957 22.9621 41.6414 23.017 41.6414 23.127ZM50.4569 22.3157H49.5419C49.5036 22.3157 49.4727 22.3141 49.4492 22.3111C49.4285 22.3082 49.4093 22.2992 49.3917 22.2845C49.3769 22.2665 49.3695 22.2428 49.3695 22.2131C49.3695 22.0882 49.4535 21.9559 49.6215 21.8162C49.7895 21.6765 49.959 21.6023 50.1298 21.5933C50.3214 21.5845 50.569 21.58 50.8724 21.58C50.9962 21.58 51.1082 21.5829 51.2084 21.5889C51.3114 21.5948 51.4338 21.6097 51.5752 21.6335C51.7197 21.6572 51.8463 21.6899 51.9554 21.7316C52.0645 21.7732 52.1764 21.8342 52.2914 21.9144C52.4092 21.9946 52.5064 22.0897 52.583 22.1997C52.6597 22.3067 52.723 22.4433 52.7731 22.6098C52.8232 22.7732 52.8483 22.9575 52.8483 23.1627C52.8483 23.6026 52.6699 23.9651 52.3134 24.2504C52.2633 24.289 52.2383 24.3233 52.2383 24.353C52.2383 24.3916 52.2603 24.4184 52.3045 24.4333C52.6995 24.564 52.9942 24.7587 53.1886 25.0172C53.3831 25.2759 53.4803 25.6265 53.4803 26.0695C53.4803 26.2329 53.4568 26.3964 53.4097 26.5598C53.3655 26.7203 53.2917 26.8793 53.1886 27.0368C53.0885 27.1915 52.9646 27.3296 52.8173 27.4515C52.6729 27.5704 52.4917 27.667 52.2736 27.7413C52.0556 27.8126 51.8154 27.8482 51.5531 27.8482C51.4499 27.8482 51.3985 27.8199 51.3985 27.7635C51.3985 27.7248 51.422 27.6936 51.4691 27.6699C51.8345 27.5065 52.1041 27.2969 52.2781 27.0413C52.4519 26.7858 52.5388 26.4677 52.5388 26.0873C52.5388 25.3293 52.1705 24.8909 51.4338 24.772C51.3866 24.7632 51.363 24.738 51.363 24.6963C51.363 24.6576 51.3985 24.613 51.4691 24.5625C51.6254 24.4465 51.752 24.2965 51.8493 24.1122C51.9465 23.925 51.9952 23.7184 51.9952 23.4926C51.9952 23.2905 51.9656 23.1165 51.9068 22.9709C51.8508 22.8224 51.777 22.708 51.6858 22.6276C51.5973 22.5444 51.4809 22.4791 51.3365 22.4315C51.1951 22.3809 51.0581 22.3497 50.9255 22.3379C50.7929 22.323 50.6367 22.3157 50.4569 22.3157ZM49.3695 27.6565V22.8505C49.3695 22.7436 49.4049 22.6722 49.4756 22.6366C49.5493 22.601 49.6613 22.583 49.8116 22.583C49.9766 22.583 50.0914 22.601 50.1563 22.6366C50.2241 22.6693 50.258 22.7407 50.258 22.8505V23.9027C50.258 24.0246 50.3184 24.0854 50.4392 24.0854H51.2171C51.3439 24.0854 51.4072 24.1256 51.4072 24.2058C51.4072 24.2416 51.3748 24.2995 51.3101 24.3797C51.2452 24.4599 51.1657 24.5269 51.0714 24.5803C50.9682 24.6398 50.7576 24.6978 50.4392 24.7542C50.3184 24.778 50.258 24.8568 50.258 24.9906V26.9343C50.258 27.0562 50.3184 27.117 50.4392 27.117H51.3896C51.5163 27.117 51.5797 27.1542 51.5797 27.2286C51.5797 27.291 51.5089 27.3712 51.3676 27.4693C51.226 27.5673 51.0463 27.655 50.8282 27.7323C50.6132 27.8096 50.4157 27.8482 50.236 27.8482H49.5508C49.43 27.8482 49.3695 27.7843 49.3695 27.6565ZM57.3762 26.6312V22.1685C57.3762 22.0436 57.4072 21.944 57.469 21.8698C57.5457 21.7776 57.6502 21.6945 57.7829 21.6201C57.9155 21.5428 58.0244 21.5043 58.11 21.5043C58.213 21.5043 58.2646 21.568 58.2646 21.6959V26.6312C58.2646 26.7381 58.2278 26.8095 58.1542 26.8451C58.0834 26.8778 57.973 26.8941 57.8227 26.8941C57.6576 26.8941 57.5411 26.8778 57.4734 26.8451C57.4085 26.8095 57.3762 26.7381 57.3762 26.6312ZM57.5574 27.117H60.5543C60.681 27.117 60.7444 27.1632 60.7444 27.2554C60.7444 27.2969 60.7135 27.3727 60.6516 27.4827C60.5926 27.5926 60.5234 27.6848 60.4439 27.7591C60.379 27.8186 60.2714 27.8482 60.1211 27.8482H57.5574C57.4366 27.8482 57.3762 27.7843 57.3762 27.6565V27.3088C57.3762 27.181 57.4366 27.117 57.5574 27.117ZM65.1751 21.5933H67.5576C67.6843 21.5933 67.7477 21.6394 67.7477 21.7316C67.7477 21.7732 67.7181 21.8489 67.6593 21.959C67.6003 22.0659 67.5295 22.1566 67.447 22.2309C67.3792 22.2933 67.2717 22.3245 67.1244 22.3245H64.5871C64.5429 22.3245 64.5105 22.323 64.4899 22.3201C64.4693 22.3141 64.4501 22.3007 64.4325 22.2799C64.4177 22.259 64.4103 22.2294 64.4103 22.1907C64.4103 22.0809 64.4958 21.9545 64.6668 21.8118C64.8406 21.6662 65.01 21.5933 65.1751 21.5933ZM64.4148 27.6565V25.4587C64.4148 25.3517 64.4501 25.2818 64.5209 25.2491C64.5945 25.2135 64.708 25.1955 64.8613 25.1955C65.0262 25.1955 65.1411 25.2135 65.206 25.2491C65.2709 25.2818 65.3032 25.3517 65.3032 25.4587V26.9343C65.3032 27.0562 65.3637 27.117 65.4845 27.117H67.646C67.7727 27.117 67.836 27.1632 67.836 27.2554C67.836 27.2969 67.8065 27.3742 67.7477 27.4871C67.6887 27.5972 67.6194 27.6877 67.5399 27.7591C67.472 27.8186 67.3631 27.8482 67.2128 27.8482H64.5695C64.4663 27.8482 64.4148 27.7843 64.4148 27.6565ZM64.4148 24.7453V22.8595C64.4148 22.7525 64.4501 22.6812 64.5209 22.6456C64.5945 22.6098 64.708 22.592 64.8613 22.592C65.0262 22.592 65.1411 22.6098 65.206 22.6456C65.2709 22.6781 65.3032 22.7495 65.3032 22.8595V24.0142C65.3032 24.136 65.3637 24.197 65.4845 24.197H67.2834C67.4102 24.197 67.4735 24.2431 67.4735 24.3352C67.4735 24.3769 67.4441 24.4526 67.3851 24.5625C67.3263 24.6695 67.257 24.7602 67.1774 24.8344C67.1096 24.8968 67.0005 24.9282 66.8503 24.9282H64.596C64.4752 24.9282 64.4148 24.8672 64.4148 24.7453ZM72.3463 24.7275C72.3757 24.8522 72.3905 25.0113 72.3905 25.2045V27.2554C72.3905 27.398 72.3609 27.508 72.3021 27.5851C72.2313 27.6684 72.1414 27.7413 72.0324 27.8037C71.9234 27.8632 71.8467 27.8928 71.8025 27.8928C71.6995 27.8928 71.6479 27.8289 71.6479 27.7011V23.4792C71.6479 23.4436 71.6568 23.4153 71.6744 23.3944C71.6921 23.3707 71.7141 23.3588 71.7406 23.3588C71.7849 23.3588 71.8291 23.4034 71.8733 23.4926C71.9205 23.5817 72.0029 23.772 72.1209 24.0632C72.2446 24.3753 72.3197 24.5967 72.3463 24.7275ZM73.4336 26.7559L71.6744 22.1417C71.6507 22.0853 71.639 22.0303 71.639 21.9768C71.639 21.9054 71.667 21.8386 71.723 21.7762C71.7907 21.693 71.8807 21.6275 71.9926 21.58C72.1046 21.5295 72.1915 21.5043 72.2535 21.5043C72.3182 21.5043 72.3683 21.519 72.4038 21.5489C72.4421 21.5785 72.4774 21.6335 72.5098 21.7138L74.0038 25.7662C74.0569 25.9118 74.0835 26.0308 74.0835 26.1229C74.0835 26.1972 74.0657 26.2863 74.0304 26.3904C73.9596 26.5717 73.8903 26.7144 73.8226 26.8183C73.7607 26.9165 73.6944 26.9655 73.6237 26.9655C73.5883 26.9655 73.5559 26.9507 73.5264 26.9209C73.497 26.8912 73.4661 26.8363 73.4336 26.7559ZM75.794 24.6695L74.8701 27.0904C74.773 27.334 74.6197 27.5287 74.4104 27.6743C74.2072 27.8199 74.0495 27.8928 73.9376 27.8928C73.8492 27.8928 73.805 27.8513 73.805 27.768C73.805 27.7323 73.8196 27.6802 73.8492 27.6119L75.657 22.7792C75.7101 22.6693 75.7528 22.6069 75.7852 22.592C75.8029 22.583 75.8205 22.5786 75.8382 22.5786C75.9061 22.5786 75.9488 22.6366 75.9664 22.7525C75.9841 22.8565 75.993 23.0972 75.993 23.4748C75.993 23.7096 75.9797 23.9161 75.9531 24.0944C75.9296 24.2697 75.8765 24.4615 75.794 24.6695ZM77.1466 21.6959V27.2286C77.1466 27.3742 77.1172 27.4827 77.0582 27.5539C76.9845 27.6431 76.8785 27.7219 76.74 27.7903C76.6043 27.8586 76.4939 27.8928 76.4085 27.8928C76.3083 27.8928 76.2582 27.8289 76.2582 27.7011V22.1685C76.2582 22.0436 76.2876 21.944 76.3466 21.8698C76.4231 21.7776 76.5292 21.6945 76.6648 21.6201C76.8003 21.5428 76.9094 21.5043 76.9919 21.5043C77.095 21.5043 77.1466 21.568 77.1466 21.6959ZM83.0934 24.3129C83.3262 24.3575 83.534 24.4125 83.7167 24.4779C83.9023 24.5432 84.0586 24.613 84.1852 24.6874C84.3119 24.7587 84.421 24.8419 84.5123 24.937C84.6037 25.0321 84.6744 25.1243 84.7245 25.2135C84.7775 25.3025 84.8188 25.4051 84.8483 25.521C84.8777 25.637 84.8968 25.744 84.9057 25.842C84.9145 25.9371 84.919 26.0486 84.919 26.1765C84.919 26.4142 84.8748 26.6415 84.7864 26.8585C84.698 27.0755 84.5874 27.2554 84.4549 27.398C84.3252 27.5377 84.1897 27.649 84.0482 27.7323C83.9068 27.8155 83.7785 27.8572 83.6636 27.8572C83.6017 27.8572 83.5708 27.8274 83.5708 27.768C83.5708 27.7294 83.5943 27.6863 83.6415 27.6387C83.7918 27.4931 83.9023 27.3162 83.973 27.1082C84.0438 26.9002 84.0791 26.7113 84.0791 26.542C84.0791 26.4409 84.0777 26.3621 84.0747 26.3057C84.0717 26.2492 84.0614 26.1719 84.0438 26.0739C84.029 25.9757 84.0055 25.8971 83.973 25.8376C83.9436 25.7752 83.8979 25.7053 83.836 25.628C83.7742 25.5478 83.699 25.4824 83.6106 25.4319C83.5222 25.3785 83.4087 25.3293 83.2702 25.2847C83.1347 25.2372 82.9784 25.2001 82.8016 25.1733C82.5777 25.1406 82.3758 25.0975 82.1961 25.044C82.0193 24.9875 81.8719 24.9282 81.7541 24.8656C81.6391 24.8032 81.5389 24.7305 81.4535 24.6473C81.371 24.564 81.3076 24.4867 81.2634 24.4153C81.2192 24.3411 81.1854 24.2578 81.1617 24.1658C81.1382 24.0736 81.1234 23.9978 81.1175 23.9384C81.1116 23.8759 81.1088 23.8062 81.1088 23.7289C81.1088 23.6397 81.122 23.555 81.1484 23.4748C81.1898 23.3469 81.2841 23.225 81.4313 23.1091C81.5787 22.9933 81.707 22.9353 81.8159 22.9353C81.869 22.9353 81.9089 22.9472 81.9353 22.9709C81.9648 22.9918 81.9795 23.0379 81.9795 23.1091C81.9795 23.3351 81.9928 23.5134 82.0193 23.6441C82.0487 23.7749 82.1092 23.8849 82.2005 23.974C82.2919 24.0632 82.4024 24.13 82.532 24.1746C82.6617 24.2192 82.8488 24.2653 83.0934 24.3129ZM82.373 27.9864C82.1489 27.9864 81.9516 27.9567 81.7806 27.8972C81.6127 27.8408 81.4285 27.7204 81.2281 27.5361C81.1308 27.447 81.0822 27.3534 81.0822 27.2554C81.0822 27.175 81.1146 27.1023 81.1795 27.0368C81.374 26.8407 81.5493 26.7425 81.7055 26.7425C81.8057 26.7425 81.9176 26.7946 82.0413 26.8987C82.2123 27.0472 82.3538 27.1438 82.4658 27.1884C82.5807 27.233 82.7147 27.2554 82.868 27.2554C82.9976 27.2554 83.1169 27.2301 83.226 27.1794C83.338 27.1289 83.4044 27.1037 83.4249 27.1037C83.4987 27.1037 83.5355 27.1513 83.5355 27.2464C83.5355 27.2939 83.5163 27.3549 83.478 27.4292C83.4397 27.5034 83.3793 27.5851 83.2968 27.6743C83.2171 27.7606 83.0949 27.8333 82.9299 27.8928C82.7678 27.9552 82.5821 27.9864 82.373 27.9864ZM84.5743 21.9857C84.5743 22.1015 84.4976 22.2175 84.3443 22.3335C84.1941 22.4493 84.0629 22.5072 83.951 22.5072C83.8802 22.5072 83.7844 22.4806 83.6636 22.427C83.5429 22.3735 83.4057 22.3201 83.2526 22.2665C83.1023 22.2131 82.9549 22.1863 82.8105 22.1863C82.5629 22.1863 82.3316 22.2338 82.1165 22.3289C81.9043 22.4211 81.6774 22.5683 81.4359 22.7703C81.2767 22.9041 81.1765 22.9709 81.1353 22.9709C81.0704 22.9709 81.038 22.9353 81.038 22.8639C81.038 22.8165 81.0661 22.7436 81.122 22.6456C81.178 22.5474 81.231 22.4672 81.2811 22.4048C81.7998 21.7716 82.4878 21.4551 83.3454 21.4551C83.5074 21.4551 83.6814 21.476 83.867 21.5175C84.0525 21.5562 84.2161 21.6185 84.3576 21.7048C84.502 21.7881 84.5743 21.8817 84.5743 21.9857Z" fill="black"/>
<path fill-rule="evenodd" clip-rule="evenodd" d="M0.627227 17.9557C0.456995 17.6845 0 17.8019 0 18.1228V26.6517C0 27.5037 0.343796 27.9297 1.03139 27.9297C1.60111 27.9297 2.32799 27.7019 3.21204 27.2461C4.11572 26.7903 4.81313 26.2653 5.30427 25.6708C5.71683 25.1952 5.92311 24.4721 5.92311 23.5012V22.9412C5.92311 22.8311 5.86407 22.7296 5.76909 22.6754C5.41691 22.4739 5.08669 22.2769 4.7751 22.0799C4.54581 21.9381 4.32129 21.7891 4.10184 21.6336C3.1121 20.9427 2.31637 20.2152 1.5765 19.2761C1.23364 18.8574 0.916404 18.4164 0.627227 17.9557Z" fill="black"/>
<path fill-rule="evenodd" clip-rule="evenodd" d="M8.20801 0.570202C8.04461 0.624342 7.96403 0.807793 8.02942 0.968231L10.7099 7.54495C10.7674 7.68602 10.9193 7.76104 11.0679 7.7327C11.2963 7.68918 11.5319 7.6664 11.7728 7.6664C11.9385 7.6664 12.1018 7.67719 12.2619 7.6981C12.4041 7.71668 12.5447 7.6422 12.6 7.50876L15.324 0.931673C15.3912 0.769755 15.3091 0.583966 15.1431 0.531145C12.9475 -0.16786 10.5302 -0.199246 8.20801 0.570202ZM15.1353 9.25945C15.0027 9.31446 14.851 9.26681 14.7635 9.15217C14.5407 8.8603 14.2768 8.60195 13.9807 8.38592C13.8609 8.29858 13.8099 8.1407 13.8669 8.00315L16.5787 1.45549C16.6456 1.29406 16.8336 1.22225 16.9873 1.30321C18.9882 2.35679 20.6877 4.01514 21.7875 6.15267C21.8676 6.30829 21.7955 6.49812 21.6346 6.56477L15.1353 9.25945ZM15.6874 12.4028C15.5523 12.346 15.4784 12.1997 15.5007 12.0538C15.5297 11.8637 15.5446 11.669 15.5446 11.4707C15.5446 11.2643 15.5283 11.0617 15.4969 10.8642C15.4736 10.717 15.5482 10.5691 15.6848 10.5124L22.1535 7.8304C22.314 7.76387 22.4973 7.84718 22.5492 8.01413C23.2718 10.3341 23.219 12.7421 22.5191 14.9284C22.4658 15.0946 22.2825 15.1764 22.1227 15.1092L15.6874 12.4028ZM13.7546 15.0151C13.6971 14.8741 13.7527 14.713 13.8781 14.6278C14.2228 14.3935 14.527 14.1034 14.778 13.7702C14.8656 13.6539 15.019 13.6056 15.1526 13.6618L21.5912 16.3695C21.752 16.4372 21.8231 16.628 21.7415 16.7833C20.6672 18.8257 18.9762 20.5522 16.7986 21.6475C16.6447 21.7248 16.4594 21.6516 16.3941 21.4912L13.7546 15.0151ZM10.7988 15.4107C10.8558 15.2731 11.003 15.1988 11.1488 15.2233C11.3518 15.2574 11.5602 15.2751 11.7728 15.2751C11.8953 15.2751 12.0164 15.2691 12.1359 15.2577C12.2753 15.2443 12.4105 15.3195 12.4637 15.4501L15.1276 21.9859C15.1941 22.1495 15.109 22.3361 14.941 22.3865C12.7034 23.0565 10.3911 22.9936 8.28485 22.3155C8.11946 22.2623 8.03784 22.0769 8.10475 21.9153L10.7988 15.4107ZM8.32378 13.5644C8.46043 13.5077 8.61662 13.56 8.70257 13.6813C8.91466 13.9804 9.16864 14.2472 9.45587 14.473C9.56897 14.5619 9.6153 14.7152 9.56002 14.8486L6.85248 21.3858C6.78548 21.5475 6.59697 21.6192 6.44314 21.5376C4.44685 20.4783 2.75306 18.8157 1.65973 16.6752C1.58028 16.5197 1.65249 16.3304 1.81296 16.2639L8.32378 13.5644ZM7.85052 10.5908C7.98418 10.647 8.05808 10.7909 8.0379 10.9356C8.01348 11.1104 8.00086 11.2891 8.00086 11.4707C8.00086 11.631 8.01069 11.789 8.02978 11.9441C8.04745 12.0877 7.97281 12.2291 7.84016 12.2841L1.29929 14.996C1.13852 15.0627 0.954887 14.9789 0.903285 14.8115C0.201543 12.5347 0.245387 10.1747 0.913788 8.02367C0.965867 7.85607 1.15017 7.77291 1.3109 7.8405L7.85052 10.5908ZM9.48918 8.15199C9.54243 8.2826 9.49872 8.43202 9.39022 8.52128C9.14573 8.72244 8.92671 8.95391 8.73881 9.21001C8.65174 9.32869 8.49673 9.37869 8.36162 9.32187L1.82698 6.57369C1.66702 6.50641 1.59565 6.3172 1.67554 6.1621C2.69947 4.17409 4.30462 2.47859 6.37221 1.36247C6.52677 1.27903 6.7174 1.35132 6.78406 1.51486L9.48918 8.15199Z" fill="black"/>
</svg>
