<svg width="98" height="24" viewBox="0 0 98 24" fill="none" xmlns="http://www.w3.org/2000/svg">
<path d="M16 6.58246C16 8.037 15.691 9.31898 15.073 10.4284C14.4549 11.5131 13.5851 12.3637 12.4635 12.98C11.3648 13.5717 10.083 13.8675 8.61803 13.8675C8.43491 13.8675 8.19457 13.8429 7.897 13.7936C7.59942 13.7443 7.35908 13.6703 7.17597 13.5717C7.13019 13.5224 7.03862 13.4361 6.90128 13.3128C6.76395 13.1649 6.69529 12.98 6.69529 12.7581C6.69529 12.6102 6.75251 12.5486 6.86695 12.5732C7.05007 12.6225 7.24463 12.6842 7.45065 12.7581C7.65666 12.8074 7.88555 12.8321 8.13735 12.8321C9.48783 12.8321 10.6209 12.3513 11.5365 11.3899C12.4521 10.4037 12.9099 9.01082 12.9099 7.21111C12.9099 5.41141 12.4521 3.9692 11.5365 2.88444C10.6209 1.7997 9.23605 1.25732 7.38197 1.25732C7.17597 1.25732 6.85552 1.26965 6.4206 1.2943C6.00859 1.31896 5.76825 1.41757 5.69957 1.59014C5.60802 1.81202 5.5508 2.19415 5.5279 2.73652C5.5279 3.25426 5.5279 3.78429 5.5279 4.32667V19.7104C5.5279 20.2528 5.5279 20.7582 5.5279 21.2265C5.5508 21.6949 5.60802 22.0771 5.69957 22.373C5.74535 22.4963 5.92847 22.6071 6.24893 22.7058C6.56939 22.8044 6.90128 22.8783 7.24463 22.9277C7.61087 22.9524 7.86265 22.9646 8.00001 22.9646C8.06867 23.0633 8.103 23.2358 8.103 23.4824C8.12589 23.7289 8.09156 23.9014 8.00001 24C7.31331 23.9508 6.6495 23.9138 6.00859 23.8891C5.39057 23.8399 4.74963 23.8152 4.08585 23.8152C3.44491 23.8152 2.79256 23.8399 2.12876 23.8891C1.48784 23.9138 0.824035 23.9508 0.137339 24C0.0457797 23.9014 0 23.7289 0 23.4824C0.0228898 23.2358 0.0686695 23.0633 0.137339 22.9646C0.274678 22.9646 0.515021 22.9524 0.85837 22.9277C1.22461 22.8783 1.56795 22.8044 1.88841 22.7058C2.23176 22.6071 2.41488 22.4963 2.43778 22.373C2.52933 22.0771 2.57511 21.6949 2.57511 21.2265C2.598 20.7582 2.60944 20.2528 2.60944 19.7104V4.28969C2.60944 3.74731 2.598 3.24192 2.57511 2.77351C2.57511 2.28044 2.52933 1.88599 2.43778 1.59014C2.41488 1.44222 2.23176 1.33128 1.88841 1.25732C1.56795 1.18336 1.22461 1.13406 0.85837 1.1094C0.515021 1.0601 0.274678 1.03544 0.137339 1.03544C0.0686695 0.936829 0.0228898 0.764254 0 0.517721C0 0.271187 0.0457797 0.0986138 0.137339 0C0.824035 0.0246531 1.48784 0.0616334 2.12876 0.110941C2.79256 0.135594 3.44491 0.147921 4.08585 0.147921C4.74963 0.147921 5.45923 0.135594 6.21458 0.110941C6.99285 0.0862865 7.87411 0.0739592 8.85837 0.0739592C10.0487 0.0739592 11.1817 0.332821 12.2575 0.850541C13.3562 1.34361 14.2489 2.07089 14.9356 3.03236C15.6452 3.99385 16 5.17721 16 6.58246Z" fill="black"/>
<path d="M20.031 10.4338C20.031 10.4338 20.0879 10.2861 20.2018 9.99077C20.3284 9.68306 20.4928 9.27076 20.6954 8.75384C20.8978 8.23693 21.1256 7.6646 21.3786 7.03693C21.6443 6.39692 21.9103 5.74461 22.176 5.07999C22.4417 4.40308 22.6948 3.75692 22.9351 3.14153C23.1882 2.52615 23.4096 1.98461 23.5995 1.51691C23.6502 1.41846 23.7576 1.30768 23.9222 1.18462C24.0993 1.06154 24.2323 1 24.3207 1C24.346 1 24.3587 1.00615 24.3587 1.01846C24.3714 1.01846 24.3904 1.02462 24.4157 1.03692L28.1929 10.6738C28.4713 11.3877 28.6296 11.7815 28.6676 11.8554C28.7309 11.9908 28.851 12.1077 29.0283 12.2062C29.218 12.3046 29.4014 12.3785 29.5787 12.4277C29.7685 12.4646 29.8888 12.4831 29.9392 12.4831C29.9899 12.5446 30.0089 12.6431 29.9962 12.7785C29.9835 12.9015 29.9709 12.9754 29.9582 13C29.5914 12.9754 29.2624 12.9569 28.9713 12.9446C28.6803 12.92 28.3322 12.9077 27.9272 12.9077C27.4971 12.9077 27.1364 12.92 26.8454 12.9446C26.567 12.9569 26.2126 12.9754 25.7823 13C25.7318 12.9508 25.7065 12.8646 25.7065 12.7415C25.7192 12.6185 25.7508 12.5323 25.8013 12.4831C25.9152 12.4831 26.0923 12.4646 26.3329 12.4277C26.5733 12.3785 26.7377 12.3169 26.8264 12.2431C26.877 12.1938 26.9023 12.1077 26.9023 11.9846C26.9023 11.8738 26.858 11.6892 26.7694 11.4308C26.6934 11.16 26.5923 10.8584 26.4657 10.5261C26.3393 10.1938 26.2126 9.87383 26.086 9.56615C25.9596 9.24616 25.8519 8.98769 25.7635 8.79077C25.6875 8.58154 25.6495 8.47691 25.6495 8.47691C25.6495 8.47691 25.6369 8.4646 25.6115 8.44C25.5862 8.41539 25.5609 8.40308 25.5356 8.40308C25.3458 8.39077 25.1118 8.38461 24.8334 8.38461C24.555 8.38461 24.2956 8.38461 24.055 8.38461C23.9919 8.38461 23.9286 8.38461 23.8653 8.38461C23.8019 8.38461 23.745 8.38461 23.6945 8.38461C23.3148 8.38461 22.9921 8.39077 22.7264 8.40308C22.4607 8.40308 22.119 8.41539 21.7013 8.44C21.6887 8.44 21.6697 8.45231 21.6443 8.47691C21.6192 8.48922 21.6066 8.49537 21.6066 8.49537C21.6066 8.49537 21.5559 8.61846 21.4546 8.8646C21.3659 9.11076 21.2522 9.40615 21.1129 9.75076C20.9865 10.0831 20.8725 10.3969 20.7712 10.6923C20.6574 11 20.5815 11.2584 20.5435 11.4677C20.5181 11.6769 20.5055 11.8431 20.5055 11.9662C20.5055 12.1015 20.6005 12.2123 20.7902 12.2985C20.9928 12.3723 21.1952 12.4215 21.3976 12.4462C21.6129 12.4708 21.7456 12.4831 21.7963 12.4831C21.8216 12.5077 21.8406 12.5877 21.8533 12.7231C21.8659 12.8461 21.8596 12.9385 21.8343 13C21.5939 12.9877 21.3849 12.9754 21.2079 12.9631C21.0432 12.9508 20.8725 12.9385 20.6954 12.9261C20.5308 12.9138 20.3094 12.9077 20.031 12.9077C19.7526 12.9077 19.5185 12.9138 19.3287 12.9261C19.1389 12.9385 18.9491 12.9508 18.7593 12.9631C18.5694 12.9754 18.329 12.9877 18.038 13C18.0126 12.9754 18 12.9015 18 12.7785C18 12.6431 18.0126 12.5446 18.038 12.4831C18.1519 12.4831 18.3417 12.4584 18.6074 12.4092C18.8858 12.3477 19.0693 12.2554 19.1579 12.1323C19.3477 11.8984 19.5059 11.64 19.6324 11.3569C19.7716 11.0615 19.9045 10.7538 20.031 10.4338ZM23.6565 3.17846L21.967 7.5723C21.967 7.5723 21.967 7.58461 21.967 7.60923C21.9797 7.63385 21.9924 7.64616 22.005 7.64616C22.2454 7.65847 22.5301 7.67076 22.8592 7.68306C23.2009 7.68306 23.4729 7.68306 23.6755 7.68306C23.9666 7.68306 24.226 7.67691 24.4537 7.66462C24.6941 7.65231 24.9535 7.64 25.2318 7.6277C25.2572 7.6277 25.2698 7.61539 25.2698 7.59077C25.2825 7.55384 25.2888 7.53538 25.2888 7.53538L23.6565 3.17846Z" fill="black"/>
<path d="M36.346 1.03698C36.7164 1.03698 37.0983 1.10478 37.4913 1.24037C37.8844 1.37596 38.2438 1.57319 38.5693 1.83205C38.9063 2.0909 39.1758 2.41757 39.3779 2.81202C39.58 3.19415 39.6811 3.64407 39.6811 4.16179C39.6811 4.59322 39.5687 5.01233 39.3442 5.41911C39.1308 5.82589 38.8501 6.18336 38.5021 6.49152C38.1652 6.79969 37.8114 7.02158 37.4409 7.15716C37.7327 7.6872 38.0134 8.17411 38.283 8.61788C38.5525 9.06162 38.8332 9.50538 39.1252 9.94915C39.4172 10.3806 39.7429 10.8613 40.1022 11.3914C40.3381 11.7365 40.5908 11.9954 40.8603 12.1679C41.1409 12.3405 41.5059 12.4453 41.9551 12.4823C42 12.5316 42.0112 12.624 41.9888 12.7596C41.9663 12.8952 41.9494 12.9753 41.9382 13C41.3881 13 40.9276 12.9815 40.5571 12.9445C40.1977 12.8952 39.9338 12.8398 39.7654 12.7781C39.653 12.7288 39.4959 12.6548 39.2938 12.5562C39.0915 12.4453 38.895 12.2542 38.7042 11.983C38.6368 11.8844 38.5133 11.6934 38.3335 11.4099C38.1539 11.1263 37.9406 10.7812 37.6936 10.3744C37.4465 9.96764 37.1826 9.5362 36.9019 9.08011C36.6211 8.61171 36.3516 8.15562 36.0933 7.71186C36.0034 7.56394 35.835 7.48997 35.588 7.48997H34.7289V10.8551C34.7289 10.8921 34.7289 10.9291 34.7289 10.9661C34.7289 11.0031 34.7289 11.0401 34.7289 11.077C34.7289 11.3112 34.7289 11.527 34.7289 11.7242C34.7401 11.9091 34.7626 12.0632 34.7963 12.1864C34.8188 12.2481 34.9085 12.3035 35.0658 12.3528C35.223 12.4022 35.3913 12.4391 35.5711 12.4638C35.7507 12.4761 35.8744 12.4823 35.9416 12.4823C35.9753 12.5316 35.9922 12.6179 35.9922 12.7411C36.0034 12.8644 35.9866 12.9507 35.9416 13C35.6048 12.9753 35.2791 12.9569 34.9647 12.9445C34.6614 12.9199 34.347 12.9075 34.0215 12.9075C33.707 12.9075 33.3869 12.9199 33.0612 12.9445C32.7357 12.9569 32.4044 12.9753 32.0674 13C32.0225 12.9507 32 12.8644 32 12.7411C32.0112 12.6179 32.0337 12.5316 32.0674 12.4823C32.1349 12.4823 32.2583 12.4761 32.4381 12.4638C32.6177 12.4391 32.7861 12.4022 32.9434 12.3528C33.1118 12.3035 33.2017 12.2481 33.2129 12.1864C33.2579 12.0385 33.2802 11.8475 33.2802 11.6133C33.2914 11.379 33.297 11.1263 33.297 10.8551L33.2802 3.14483C33.2802 2.87364 33.2745 2.62096 33.2635 2.38675C33.2635 2.14021 33.241 1.94299 33.1961 1.79507C33.1848 1.7211 33.0949 1.66565 32.9265 1.62866C32.7692 1.59168 32.6008 1.56702 32.4212 1.5547C32.2527 1.53004 32.1349 1.51771 32.0674 1.51771C32.0337 1.46842 32.0112 1.38213 32 1.25887C32 1.13559 32.0225 1.04931 32.0674 1C32.4044 1.01233 32.7301 1.03082 33.0444 1.05547C33.3701 1.0678 33.6901 1.07396 34.0046 1.07396C34.3301 1.07396 34.6783 1.0678 35.049 1.05547C35.4307 1.04314 35.8631 1.03698 36.346 1.03698ZM38.1483 4.32819C38.1483 3.53929 37.9518 2.89213 37.5587 2.38675C37.177 1.88135 36.5312 1.62866 35.6217 1.62866C35.5206 1.62866 35.3634 1.63483 35.1499 1.64716C34.9478 1.65948 34.83 1.70878 34.7963 1.79507C34.7513 1.906 34.7233 2.09706 34.712 2.36826C34.712 2.62712 34.712 2.89213 34.712 3.16333L34.7289 6.93528H35.6048C36.0315 6.93528 36.4357 6.83051 36.8176 6.62096C37.2105 6.39908 37.5306 6.09706 37.7776 5.71494C38.0247 5.32049 38.1483 4.85825 38.1483 4.32819Z" fill="black"/>
<path d="M45.031 10.4338C45.031 10.4338 45.088 10.2861 45.2017 9.99077C45.3284 9.68306 45.4928 9.27076 45.6954 8.75384C45.8978 8.23693 46.1255 7.6646 46.3786 7.03693C46.6443 6.39692 46.9102 5.74461 47.1759 5.07999C47.4417 4.40308 47.6947 3.75692 47.9351 3.14153C48.1882 2.52615 48.4098 1.98461 48.5995 1.51691C48.6502 1.41846 48.7576 1.30768 48.9222 1.18462C49.0993 1.06154 49.2323 1 49.3207 1C49.346 1 49.3587 1.00615 49.3587 1.01846C49.3714 1.01846 49.3903 1.02462 49.4157 1.03692L53.1929 10.6738C53.4713 11.3877 53.6296 11.7815 53.6676 11.8554C53.7309 11.9908 53.851 12.1077 54.0283 12.2062C54.218 12.3046 54.4014 12.3785 54.5787 12.4277C54.7685 12.4646 54.8888 12.4831 54.9392 12.4831C54.9899 12.5446 55.0089 12.6431 54.9962 12.7785C54.9835 12.9015 54.9709 12.9754 54.9582 13C54.5914 12.9754 54.2624 12.9569 53.9713 12.9446C53.6803 12.92 53.3322 12.9077 52.9272 12.9077C52.4971 12.9077 52.1364 12.92 51.8453 12.9446C51.567 12.9569 51.2126 12.9754 50.7825 13C50.7318 12.9508 50.7065 12.8646 50.7065 12.7415C50.7192 12.6185 50.7508 12.5323 50.8013 12.4831C50.9152 12.4831 51.0923 12.4646 51.3329 12.4277C51.5733 12.3785 51.7377 12.3169 51.8264 12.2431C51.877 12.1938 51.9023 12.1077 51.9023 11.9846C51.9023 11.8738 51.858 11.6892 51.7694 11.4308C51.6934 11.16 51.5923 10.8584 51.4657 10.5261C51.3392 10.1938 51.2126 9.87383 51.086 9.56615C50.9595 9.24616 50.8519 8.98769 50.7635 8.79077C50.6875 8.58154 50.6495 8.47691 50.6495 8.47691C50.6495 8.47691 50.6368 8.4646 50.6115 8.44C50.5862 8.41539 50.5609 8.40308 50.5355 8.40308C50.3458 8.39077 50.1117 8.38461 49.8334 8.38461C49.555 8.38461 49.2956 8.38461 49.055 8.38461C48.9919 8.38461 48.9286 8.38461 48.8652 8.38461C48.8019 8.38461 48.7449 8.38461 48.6945 8.38461C48.3148 8.38461 47.9921 8.39077 47.7264 8.40308C47.4607 8.40308 47.119 8.41539 46.7013 8.44C46.6886 8.44 46.6696 8.45231 46.6445 8.47691C46.6192 8.48922 46.6065 8.49537 46.6065 8.49537C46.6065 8.49537 46.5559 8.61846 46.4546 8.8646C46.3659 9.11076 46.2522 9.40615 46.1129 9.75076C45.9864 10.0831 45.8725 10.3969 45.7712 10.6923C45.6574 11 45.5814 11.2584 45.5434 11.4677C45.5181 11.6769 45.5054 11.8431 45.5054 11.9662C45.5054 12.1015 45.6004 12.2123 45.7902 12.2985C45.9928 12.3723 46.1952 12.4215 46.3976 12.4462C46.6129 12.4708 46.7456 12.4831 46.7963 12.4831C46.8216 12.5077 46.8406 12.5877 46.8532 12.7231C46.8659 12.8461 46.8596 12.9385 46.8342 13C46.5939 12.9877 46.3849 12.9754 46.2078 12.9631C46.0434 12.9508 45.8725 12.9385 45.6954 12.9261C45.5308 12.9138 45.3094 12.9077 45.031 12.9077C44.7526 12.9077 44.5185 12.9138 44.3286 12.9261C44.1389 12.9385 43.9491 12.9508 43.7592 12.9631C43.5694 12.9754 43.329 12.9877 43.038 13C43.0127 12.9754 43 12.9015 43 12.7785C43 12.6431 43.0127 12.5446 43.038 12.4831C43.1517 12.4831 43.3417 12.4584 43.6074 12.4092C43.8858 12.3477 44.0692 12.2554 44.1579 12.1323C44.3476 11.8984 44.5059 11.64 44.6323 11.3569C44.7716 11.0615 44.9044 10.7538 45.031 10.4338ZM48.6565 3.17846L46.967 7.5723C46.967 7.5723 46.967 7.58461 46.967 7.60923C46.9797 7.63385 46.9923 7.64616 47.005 7.64616C47.2454 7.65847 47.5303 7.67076 47.8591 7.68306C48.2008 7.68306 48.4729 7.68306 48.6755 7.68306C48.9665 7.68306 49.2259 7.67691 49.4537 7.66462C49.6941 7.65231 49.9534 7.64 50.2318 7.6277C50.2572 7.6277 50.2698 7.61539 50.2698 7.59077C50.2825 7.55384 50.2888 7.53538 50.2888 7.53538L48.6565 3.17846Z" fill="black"/>
<path d="M61.7534 1.05547C63.0524 1.05547 64.1694 1.31432 65.1043 1.83205C66.0392 2.33744 66.7555 3.0339 67.2532 3.92141C67.7509 4.79661 68 5.79507 68 6.91679C68 7.68104 67.8967 8.42681 67.6904 9.15408C67.4838 9.88134 67.1319 10.5347 66.634 11.114C66.1484 11.6934 65.4866 12.1556 64.6489 12.5008C63.8112 12.8336 62.7671 13 61.5165 13H57.0729C57.0243 12.9507 57 12.8644 57 12.7411C57.0121 12.6179 57.0364 12.5316 57.0729 12.4823C57.1458 12.4823 57.2792 12.4761 57.4736 12.4638C57.6678 12.4391 57.8499 12.4022 58.02 12.3528C58.202 12.3035 58.2992 12.2481 58.3114 12.1864C58.36 12.0385 58.3841 11.8475 58.3841 11.6133C58.3962 11.379 58.4023 11.1263 58.4023 10.8551V3.14483C58.4023 2.87364 58.3962 2.62096 58.3841 2.38675C58.3841 2.14021 58.36 1.94299 58.3114 1.79507C58.2992 1.7211 58.202 1.66565 58.02 1.62866C57.8499 1.59168 57.6678 1.56702 57.4736 1.5547C57.2792 1.53004 57.1458 1.51771 57.0729 1.51771C57.0364 1.46842 57.0121 1.38213 57 1.25887C57 1.13559 57.0243 1.04931 57.0729 1C57.4372 1.01233 57.7954 1.03082 58.1473 1.05547C58.4995 1.0678 58.8456 1.07396 59.1855 1.07396C59.5375 1.07396 59.9564 1.07396 60.442 1.07396C60.9278 1.06163 61.3648 1.05547 61.7534 1.05547ZM59.9686 3.18182V10.8736C59.9686 10.9599 59.9686 11.1017 59.9686 11.2989C59.9686 11.4838 59.9747 11.6687 59.9868 11.8536C60.0111 12.0262 60.0354 12.131 60.0597 12.1679C60.1324 12.2666 60.3086 12.3344 60.5878 12.3713C60.8792 12.4083 61.1888 12.4268 61.5165 12.4268C62.3664 12.4268 63.1435 12.2419 63.8476 11.8721C64.564 11.5023 65.1408 10.9414 65.5777 10.1895C66.0149 9.42527 66.2334 8.45761 66.2334 7.28658C66.2334 6.26347 66.0937 5.39445 65.8145 4.6795C65.5474 3.96456 65.1772 3.38521 64.7036 2.94144C64.2423 2.48535 63.7142 2.1587 63.1192 1.96148C62.5364 1.75192 61.9233 1.64716 61.2798 1.64716C61.2071 1.64716 61.0734 1.65332 60.8792 1.66565C60.6848 1.66565 60.5028 1.67796 60.3329 1.70261C60.1628 1.72727 60.0658 1.77041 60.0415 1.83205C60.005 1.95531 59.9807 2.12172 59.9686 2.33127C59.9686 2.5285 59.9686 2.73805 59.9686 2.95994C59.9686 2.99692 59.9686 3.0339 59.9686 3.07087C59.9686 3.10785 59.9686 3.14483 59.9686 3.18182Z" fill="black"/>
<path d="M73.0236 1.07396C73.3497 1.07396 73.6644 1.0678 73.9679 1.05547C74.2828 1.03082 74.6088 1.01233 74.9462 1C74.991 1.04931 75.0079 1.13559 74.9966 1.25887C74.9966 1.38213 74.9797 1.46842 74.9462 1.51771C74.8787 1.51771 74.7549 1.53004 74.5751 1.5547C74.3953 1.56702 74.2265 1.59168 74.0692 1.62866C73.9119 1.66565 73.8219 1.7211 73.7994 1.79507C73.7656 1.91833 73.7431 2.07857 73.7319 2.2758C73.7319 2.47302 73.7319 2.68874 73.7319 2.92295C73.7319 2.95994 73.7319 2.99692 73.7319 3.0339C73.7319 3.07087 73.7319 3.10785 73.7319 3.14483V10.8551C73.7319 10.8921 73.7319 10.9291 73.7319 10.9661C73.7319 11.0031 73.7319 11.0401 73.7319 11.077C73.7319 11.3112 73.7319 11.527 73.7319 11.7242C73.7431 11.9091 73.7656 12.0632 73.7994 12.1864C73.8219 12.2481 73.9119 12.3035 74.0692 12.3528C74.2265 12.4022 74.3953 12.4391 74.5751 12.4638C74.7549 12.4761 74.8787 12.4823 74.9462 12.4823C74.9797 12.5316 74.9966 12.6179 74.9966 12.7411C75.0079 12.8644 74.991 12.9507 74.9462 13C74.6088 12.9753 74.2828 12.9569 73.9679 12.9445C73.6644 12.9199 73.3497 12.9075 73.0236 12.9075C72.7088 12.9075 72.3883 12.9199 72.0624 12.9445C71.7364 12.9569 71.4046 12.9753 71.0673 13C71.0225 12.9507 71 12.8644 71 12.7411C71.0113 12.6179 71.0336 12.5316 71.0673 12.4823C71.1348 12.4823 71.2586 12.4761 71.4384 12.4638C71.6182 12.4391 71.787 12.4022 71.9443 12.3528C72.1129 12.3035 72.2029 12.2481 72.2141 12.1864C72.2591 12.0385 72.2816 11.8475 72.2816 11.6133C72.2929 11.379 72.2985 11.1263 72.2985 10.8551V3.14483C72.2985 2.87364 72.2929 2.62096 72.2816 2.38675C72.2816 2.14021 72.2591 1.94299 72.2141 1.79507C72.2029 1.7211 72.1129 1.66565 71.9443 1.62866C71.787 1.59168 71.6182 1.56702 71.4384 1.5547C71.2586 1.53004 71.1348 1.51771 71.0673 1.51771C71.0336 1.46842 71.0113 1.38213 71 1.25887C71 1.13559 71.0225 1.04931 71.0673 1C71.4046 1.01233 71.7364 1.03082 72.0624 1.05547C72.3883 1.0678 72.7088 1.07396 73.0236 1.07396Z" fill="black"/>
<path d="M82.6225 1C82.9842 1 83.2817 1.02424 83.515 1.07273C83.76 1.10909 84.005 1.16364 84.2499 1.23636C84.5066 1.30909 84.8216 1.39393 85.195 1.49091C85.2649 1.95151 85.3174 2.4303 85.3524 2.92726C85.3991 3.41212 85.4283 3.77576 85.44 4.01818C85.4517 4.0788 85.4108 4.12727 85.3174 4.16363C85.224 4.18788 85.1483 4.2 85.09 4.2C85.0082 4.2 84.944 4.17576 84.8975 4.12727C84.8742 3.90908 84.8041 3.65455 84.6874 3.36363C84.5708 3.07273 84.4074 2.79394 84.1974 2.52726C83.9991 2.26061 83.7542 2.04242 83.4625 1.87273C83.1825 1.69091 82.8616 1.6 82.4999 1.6C82.0333 1.6 81.6657 1.70304 81.3974 1.9091C81.1291 2.11516 80.9367 2.36969 80.8201 2.67273C80.7034 2.97575 80.645 3.27273 80.645 3.56363C80.645 4.03637 80.7617 4.43031 80.995 4.74545C81.24 5.06061 81.5433 5.33939 81.9051 5.58182C82.2783 5.82425 82.6517 6.07272 83.0249 6.32727C83.3049 6.50909 83.6141 6.70909 83.9524 6.92727C84.2908 7.14546 84.6175 7.38789 84.9323 7.65454C85.2474 7.92121 85.504 8.23029 85.7025 8.58183C85.9008 8.92121 86 9.30909 86 9.74546C86 10.3879 85.8249 10.9576 85.475 11.4545C85.1367 11.9394 84.6932 12.3212 84.1449 12.6C83.6082 12.8667 83.0366 13 82.43 13C81.8584 13 81.3042 12.9333 80.7676 12.8C80.2426 12.6667 79.77 12.5576 79.3501 12.4727C79.28 12.1212 79.2158 11.7454 79.1576 11.3455C79.1109 10.9455 79.07 10.5939 79.035 10.2909C79.0117 9.98787 79 9.79999 79 9.72728C79.0584 9.66667 79.1226 9.61818 79.1926 9.58183C79.2742 9.53334 79.3559 9.50909 79.4376 9.50909C79.5425 9.50909 79.6067 9.56364 79.63 9.67273C79.6651 9.84242 79.7351 10.0788 79.84 10.3818C79.9567 10.6727 80.12 10.9757 80.3299 11.2909C80.5518 11.6061 80.8318 11.8727 81.17 12.0909C81.52 12.297 81.9516 12.4 82.4651 12.4C83.0134 12.4 83.4917 12.2121 83.8999 11.8364C84.3083 11.4485 84.5124 10.9091 84.5124 10.2182C84.5124 9.72122 84.4015 9.33334 84.1799 9.05454C83.97 8.77577 83.6899 8.53334 83.3399 8.32727C83.0017 8.12121 82.6342 7.90303 82.2374 7.67272C81.8058 7.40607 81.3567 7.11515 80.89 6.80001C80.435 6.47272 80.0499 6.0909 79.7351 5.65455C79.4201 5.21819 79.2625 4.70302 79.2625 4.10908C79.2625 3.47879 79.4201 2.93332 79.7351 2.47273C80.0616 2 80.4817 1.63636 80.995 1.38181C81.5083 1.12727 82.0508 1 82.6225 1Z" fill="black"/>
<path d="M90.3717 1.11043C91.2807 1.11043 92.2819 1.09202 93.3755 1.05521C94.469 1.0184 95.5363 1 96.577 1C96.6429 1.45399 96.7286 1.87117 96.8341 2.25154C96.9393 2.6319 97.0382 3.02454 97.1305 3.42945C97.0646 3.49081 96.9525 3.52146 96.7945 3.52146C96.6231 3.52146 96.531 3.47853 96.5178 3.39264C96.3069 2.66872 96.0105 2.20859 95.6286 2.01227C95.2464 1.81595 94.7984 1.71778 94.2846 1.71778H92.6245C92.5456 1.71778 92.4005 1.72392 92.1898 1.73619C91.9789 1.73619 91.7813 1.74846 91.5969 1.773C91.4124 1.79754 91.3071 1.84049 91.2807 1.90185C91.2412 2.02454 91.2148 2.18405 91.2016 2.38036C91.2016 2.57668 91.2016 2.77914 91.2016 2.98773C91.2016 3.07363 91.2016 3.1411 91.2016 3.19018V6.53987C91.2016 6.58895 91.2873 6.61963 91.4585 6.6319C91.6297 6.64418 91.8209 6.65031 92.0316 6.65031H93.0396C93.5006 6.65031 93.8563 6.63804 94.1066 6.6135C94.3703 6.58895 94.5613 6.53373 94.6799 6.44786C94.7984 6.36196 94.8907 6.23313 94.9566 6.06135C95.0223 5.88956 95.0948 5.65645 95.1739 5.36196C95.1871 5.27608 95.2794 5.23313 95.4506 5.23313C95.6088 5.23313 95.7206 5.26381 95.7865 5.32514V8.71165C95.7338 8.76073 95.6285 8.78527 95.4703 8.78527C95.3123 8.78527 95.2135 8.74232 95.1739 8.65645C95.0816 8.31287 95.0027 8.06747 94.9368 7.92024C94.8841 7.76073 94.8313 7.65645 94.7786 7.60736C94.739 7.54601 94.6865 7.49692 94.6206 7.46013C94.5547 7.41104 94.403 7.38036 94.1659 7.36809C93.9288 7.34355 93.6654 7.33128 93.3755 7.33128C93.0989 7.31901 92.8354 7.31287 92.5849 7.31287C92.4137 7.31287 92.2162 7.31901 91.992 7.33128C91.7813 7.33128 91.5969 7.34355 91.4387 7.36809C91.2807 7.38036 91.2016 7.41718 91.2016 7.47851V10.9018C91.2016 10.9264 91.2016 10.9632 91.2016 11.0123C91.2016 11.184 91.2016 11.4049 91.2016 11.6748C91.2148 11.9448 91.2478 12.0981 91.3005 12.135C91.4321 12.2209 91.5904 12.2761 91.7747 12.3006C91.9723 12.3129 92.2753 12.319 92.6838 12.319H93.6126C94.0739 12.319 94.5283 12.2761 94.9764 12.1902C95.4242 12.1043 95.78 11.9816 96.0434 11.8221C96.3464 11.6503 96.5835 11.4049 96.7549 11.0859C96.9261 10.7546 97.0909 10.3988 97.2489 10.0184C97.2753 9.94478 97.3676 9.90797 97.5256 9.90797C97.7629 9.90797 97.9209 9.94478 98 10.0184C97.8154 10.5092 97.6113 11.0307 97.3874 11.5828C97.1764 12.135 97.0382 12.6074 96.9723 13C95.9316 13 94.8972 12.9877 93.8695 12.9632C92.842 12.9386 91.6824 12.9264 90.3914 12.9264C89.9434 12.9264 89.5415 12.9325 89.1857 12.9448C88.8302 12.9693 88.4612 12.9816 88.0791 12.9816C88.0264 12.9325 88 12.8466 88 12.7239C88.0132 12.6012 88.0396 12.5153 88.0791 12.4662C88.1582 12.4662 88.303 12.4601 88.514 12.4478C88.7247 12.4233 88.9223 12.3865 89.1068 12.3374C89.3044 12.2883 89.4099 12.2331 89.423 12.1718C89.4756 12.0245 89.5019 11.8344 89.5019 11.6012C89.5151 11.3681 89.5217 11.1166 89.5217 10.8466V3.17177C89.5217 2.90183 89.5151 2.65031 89.5019 2.41718C89.5019 2.17177 89.4756 1.97546 89.423 1.82822C89.4099 1.75459 89.3044 1.69939 89.1068 1.66258C88.9223 1.62577 88.7247 1.60123 88.514 1.58895C88.303 1.56441 88.1582 1.55214 88.0791 1.55214C88.0396 1.50308 88.0132 1.41718 88 1.29449C88 1.17178 88.0264 1.08589 88.0791 1.03681C88.4744 1.04908 88.8629 1.06748 89.2451 1.09202C89.6272 1.10429 90.0027 1.11043 90.3717 1.11043Z" fill="black"/>
<path d="M22 20.3713C22 20.6744 21.9227 20.9415 21.7683 21.1725C21.6137 21.3986 21.3963 21.5758 21.1159 21.7042C20.8412 21.8275 20.5208 21.8891 20.1545 21.8891C20.1087 21.8891 20.0486 21.8839 19.9743 21.8737C19.8998 21.8634 19.8397 21.848 19.7939 21.8275C19.7825 21.8172 19.7596 21.7993 19.7254 21.7736C19.6911 21.7426 19.6739 21.7042 19.6739 21.658C19.6739 21.6271 19.688 21.6143 19.7168 21.6193C19.7626 21.6298 19.8111 21.6425 19.8626 21.658C19.9142 21.6682 19.9713 21.6734 20.0344 21.6734C20.372 21.6734 20.6553 21.5731 20.8842 21.3729C21.1131 21.1675 21.2276 20.8773 21.2276 20.5023C21.2276 20.1274 21.1131 19.8269 20.8842 19.6009C20.6553 19.3749 20.3091 19.2619 19.8455 19.2619C19.7939 19.2619 19.7138 19.2645 19.6052 19.2696C19.5021 19.2748 19.4421 19.2953 19.4249 19.3313C19.402 19.3775 19.3877 19.4571 19.382 19.5701C19.382 19.678 19.382 19.7884 19.382 19.9014V23.1063C19.382 23.2194 19.382 23.3245 19.382 23.4221C19.3877 23.5197 19.402 23.5994 19.4249 23.661C19.4363 23.6867 19.4821 23.7099 19.5622 23.7304C19.6423 23.7509 19.7254 23.7663 19.8111 23.7766C19.9028 23.7818 19.9657 23.7843 20.0001 23.7843C20.0173 23.8048 20.0258 23.8407 20.0258 23.8922C20.0314 23.9436 20.0228 23.9795 20.0001 24C19.8283 23.9898 19.6623 23.982 19.5021 23.9768C19.3476 23.9666 19.1874 23.9615 19.0215 23.9615C18.8612 23.9615 18.6981 23.9666 18.5322 23.9768C18.372 23.982 18.206 23.9898 18.0343 24C18.0114 23.9795 18 23.9436 18 23.8922C18.0057 23.8407 18.0172 23.8048 18.0343 23.7843C18.0687 23.7843 18.1287 23.7818 18.2146 23.7766C18.3061 23.7663 18.392 23.7509 18.4721 23.7304C18.5579 23.7099 18.6037 23.6867 18.6094 23.661C18.6323 23.5994 18.6438 23.5197 18.6438 23.4221C18.6495 23.3245 18.6524 23.2194 18.6524 23.1063V19.8937C18.6524 19.7807 18.6495 19.6754 18.6438 19.5778C18.6438 19.4751 18.6323 19.3929 18.6094 19.3313C18.6037 19.3005 18.5579 19.2774 18.4721 19.2619C18.392 19.2465 18.3061 19.2363 18.2146 19.2311C18.1287 19.2208 18.0687 19.2157 18.0343 19.2157C18.0172 19.1952 18.0057 19.1592 18 19.1079C18 19.0565 18.0114 19.0205 18.0343 19C18.206 19.0051 18.372 19.0129 18.5322 19.0231C18.6981 19.0283 18.8612 19.0308 19.0215 19.0308C19.1874 19.0308 19.3648 19.0283 19.5536 19.0231C19.7482 19.018 19.9685 19.0154 20.2146 19.0154C20.5122 19.0154 20.7955 19.0693 21.0644 19.1772C21.339 19.2799 21.5621 19.4314 21.7339 19.6317C21.9113 19.8321 22 20.0786 22 20.3713Z" fill="black"/>
<path d="M30.173 19.0154C30.3582 19.0154 30.5491 19.0437 30.7457 19.1002C30.9421 19.1566 31.1218 19.2388 31.2847 19.3467C31.453 19.4545 31.5879 19.5906 31.689 19.755C31.7899 19.9142 31.8405 20.1017 31.8405 20.3174C31.8405 20.4972 31.7844 20.6718 31.6721 20.8413C31.5653 21.0107 31.425 21.1597 31.2509 21.2881C31.0826 21.4166 30.9056 21.509 30.7204 21.5654C30.8664 21.7863 31.0067 21.9892 31.1414 22.1742C31.2762 22.359 31.4166 22.5439 31.5626 22.7289C31.7086 22.9086 31.8715 23.1088 32.051 23.3297C32.169 23.4735 32.2954 23.5814 32.43 23.6533C32.5704 23.7252 32.7528 23.7689 32.9774 23.7843C33 23.8048 33.0057 23.8433 32.9943 23.8999C32.9831 23.9563 32.9747 23.9898 32.969 24C32.6941 24 32.4638 23.9923 32.2785 23.9768C32.0988 23.9563 31.9669 23.9333 31.8826 23.9076C31.8264 23.8869 31.7478 23.8562 31.6469 23.815C31.5457 23.7689 31.4475 23.6892 31.3521 23.5764C31.3184 23.5352 31.2566 23.4556 31.1667 23.3375C31.0769 23.2194 30.9703 23.0754 30.8466 22.9061C30.7231 22.7366 30.5912 22.5567 30.4509 22.3667C30.3106 22.1715 30.1757 21.9815 30.0466 21.7966C30.0017 21.7349 29.9174 21.7042 29.7939 21.7042H29.3645V23.1063C29.3645 23.1218 29.3645 23.1371 29.3645 23.1525C29.3645 23.168 29.3645 23.1834 29.3645 23.1987C29.3645 23.2963 29.3645 23.3862 29.3645 23.4683C29.37 23.5454 29.3812 23.6096 29.398 23.661C29.4094 23.6867 29.4543 23.7099 29.5329 23.7304C29.6115 23.7509 29.6957 23.7663 29.7855 23.7766C29.8753 23.7818 29.9372 23.7843 29.9707 23.7843C29.9876 23.8048 29.996 23.8407 29.996 23.8922C30.0017 23.9436 29.9933 23.9795 29.9707 24C29.8024 23.9898 29.6395 23.982 29.4823 23.9768C29.3308 23.9666 29.1734 23.9615 29.0107 23.9615C28.8536 23.9615 28.6934 23.9666 28.5305 23.9768C28.3679 23.982 28.2021 23.9898 28.0337 24C28.0112 23.9795 28 23.9436 28 23.8922C28.0057 23.8407 28.0169 23.8048 28.0337 23.7843C28.0674 23.7843 28.1292 23.7818 28.2189 23.7766C28.3089 23.7663 28.393 23.7509 28.4718 23.7304C28.5558 23.7099 28.6007 23.6867 28.6064 23.661C28.6289 23.5994 28.6401 23.5197 28.6401 23.4221C28.6458 23.3245 28.6485 23.2194 28.6485 23.1063L28.6401 19.8937C28.6401 19.7807 28.6374 19.6754 28.6317 19.5778C28.6317 19.4751 28.6205 19.3929 28.598 19.3313C28.5923 19.3005 28.5474 19.2774 28.4633 19.2619C28.3845 19.2465 28.3005 19.2363 28.2105 19.2311C28.1264 19.2208 28.0674 19.2157 28.0337 19.2157C28.0169 19.1952 28.0057 19.1592 28 19.1079C28 19.0565 28.0112 19.0205 28.0337 19C28.2021 19.0051 28.3649 19.0129 28.5221 19.0231C28.685 19.0283 28.8451 19.0308 29.0023 19.0308C29.1652 19.0308 29.3392 19.0283 29.5244 19.0231C29.7153 19.018 29.9315 19.0154 30.173 19.0154ZM31.0742 20.3868C31.0742 20.058 30.9758 19.7884 30.7794 19.5778C30.5885 19.3672 30.2655 19.2619 29.8108 19.2619C29.7602 19.2619 29.6816 19.2645 29.575 19.2696C29.4739 19.2748 29.4149 19.2953 29.398 19.3313C29.3757 19.3775 29.3616 19.4571 29.3561 19.5701C29.3561 19.678 29.3561 19.7884 29.3561 19.9014L29.3645 21.473H29.8024C30.0158 21.473 30.2179 21.4293 30.4088 21.342C30.6053 21.2496 30.7653 21.1238 30.8887 20.9645C31.0124 20.8002 31.0742 20.6076 31.0742 20.3868Z" fill="black"/>
<path d="M40.4882 19C40.8294 19 41.1497 19.0605 41.4487 19.1815C41.7533 19.3026 42.021 19.4765 42.252 19.7035C42.4829 19.9254 42.6639 20.1901 42.7953 20.4977C42.9316 20.8003 43 21.1356 43 21.5037C43 21.8517 42.9316 22.177 42.7953 22.4796C42.6639 22.7772 42.4829 23.0419 42.252 23.2738C42.021 23.5007 41.7533 23.6799 41.4487 23.8108C41.1497 23.937 40.8294 24 40.4882 24C40.1521 24 39.832 23.9395 39.5275 23.8184C39.2282 23.6975 38.9633 23.526 38.7322 23.3042C38.5065 23.0772 38.328 22.8125 38.1968 22.5098C38.0656 22.2022 38 21.8669 38 21.5037C38 21.1559 38.0656 20.8306 38.1968 20.528C38.328 20.2254 38.5065 19.9607 38.7322 19.7337C38.9633 19.5018 39.2282 19.3227 39.5275 19.1967C39.832 19.0656 40.1521 19 40.4882 19ZM40.3779 19.2496C40.0893 19.2496 39.8424 19.3126 39.6378 19.4387C39.4331 19.5598 39.2651 19.7211 39.1339 19.9228C39.0078 20.1246 38.9134 20.349 38.8504 20.5961C38.7927 20.8432 38.7637 21.0902 38.7637 21.3373C38.7637 21.6248 38.8031 21.9123 38.8819 22.1997C38.9658 22.4821 39.0866 22.7419 39.244 22.9789C39.4016 23.2108 39.5931 23.3973 39.8188 23.5385C40.0499 23.6799 40.315 23.7505 40.6141 23.7505C40.9028 23.7505 41.1497 23.6899 41.3543 23.5689C41.559 23.4429 41.7271 23.2764 41.8582 23.0696C41.9894 22.8628 42.084 22.6358 42.1417 22.3888C42.2048 22.1367 42.2363 21.887 42.2363 21.64C42.2363 21.3525 42.1941 21.0676 42.1102 20.7852C42.0314 20.5028 41.9106 20.2456 41.7479 20.0136C41.5905 19.7816 41.3963 19.5976 41.1652 19.4614C40.9397 19.3202 40.6771 19.2496 40.3779 19.2496Z" fill="black"/>
<path d="M52.068 19.0154C52.2445 19.0154 52.4262 19.0359 52.6131 19.077C52.8002 19.113 52.9712 19.1746 53.1262 19.2619C53.2811 19.3441 53.4068 19.4571 53.5029 19.6009C53.5991 19.7447 53.6472 19.9245 53.6472 20.1402C53.6472 20.3302 53.5991 20.5023 53.5029 20.6564C53.412 20.8105 53.3025 20.9363 53.1744 21.0339C53.0514 21.1315 52.9445 21.1982 52.8537 21.2341C52.8377 21.2446 52.8377 21.2548 52.8537 21.2651C52.9498 21.2701 53.0621 21.301 53.1902 21.3574C53.3186 21.4139 53.4441 21.4962 53.567 21.6041C53.6954 21.7067 53.7995 21.8325 53.8797 21.9815C53.9599 22.1305 54 22.2973 54 22.4823C54 22.698 53.9599 22.8984 53.8797 23.0831C53.8049 23.2681 53.6713 23.4376 53.4788 23.5916C53.2919 23.7406 53.046 23.846 52.7414 23.9076C52.4368 23.9641 52.135 23.9948 51.8356 24H50.0321C50.0106 23.9795 50 23.9436 50 23.8922C50.0052 23.8407 50.016 23.8048 50.0321 23.7843C50.0642 23.7843 50.1229 23.7818 50.2084 23.7766C50.2938 23.7663 50.374 23.7509 50.4488 23.7304C50.529 23.7099 50.5717 23.6867 50.5772 23.661C50.5984 23.5994 50.6092 23.5197 50.6092 23.4221C50.6145 23.3245 50.6173 23.2194 50.6173 23.1063V19.8937C50.6173 19.7807 50.6145 19.6754 50.6092 19.5778C50.6092 19.4751 50.5984 19.3929 50.5772 19.3313C50.5717 19.3005 50.529 19.2774 50.4488 19.2619C50.374 19.2465 50.2938 19.2363 50.2084 19.2311C50.1229 19.2208 50.0642 19.2157 50.0321 19.2157C50.016 19.1952 50.0052 19.1592 50 19.1079C50 19.0565 50.0106 19.0205 50.0321 19C50.1923 19.0051 50.3499 19.0129 50.505 19.0231C50.66 19.0283 50.8122 19.0308 50.9618 19.0308C51.1168 19.0308 51.2825 19.0283 51.4589 19.0231C51.6352 19.018 51.8384 19.0154 52.068 19.0154ZM51.2985 21.4808V23.1141C51.2985 23.15 51.2985 23.2064 51.2985 23.2836C51.3039 23.3555 51.3119 23.4248 51.3226 23.4915C51.3332 23.5584 51.3466 23.6019 51.3627 23.6225C51.4214 23.6842 51.5017 23.7227 51.6031 23.7381C51.71 23.7534 51.8356 23.7611 51.9799 23.7611C52.1777 23.7611 52.37 23.7329 52.5571 23.6765C52.7494 23.6198 52.9097 23.512 53.038 23.3529C53.1663 23.1885 53.2303 22.9548 53.2303 22.6518C53.2303 22.4618 53.193 22.2793 53.1182 22.1048C53.0434 21.9251 52.899 21.7761 52.6853 21.658C52.4769 21.5399 52.1723 21.4808 51.7714 21.4808H51.2985ZM51.2985 21.1957H51.9479C52.1829 21.1957 52.3726 21.152 52.517 21.0646C52.6612 20.9775 52.7655 20.867 52.8296 20.7334C52.899 20.5948 52.9337 20.4535 52.9337 20.3097C52.9337 19.9759 52.8216 19.7191 52.5972 19.5393C52.378 19.3544 52.0868 19.2619 51.7235 19.2619C51.6753 19.2619 51.6005 19.2645 51.4988 19.2696C51.4028 19.2748 51.3466 19.2953 51.3306 19.3313C51.3145 19.3724 51.3039 19.4366 51.2985 19.5239C51.2985 19.6112 51.2985 19.7037 51.2985 19.8012C51.2985 19.8218 51.2985 19.8398 51.2985 19.8552C51.2985 19.8706 51.2985 19.886 51.2985 19.9014V21.1957Z" fill="black"/>
<path d="M61.9605 23.1C61.9605 23.1102 61.9605 23.1257 61.9605 23.1461C61.9605 23.1922 61.9605 23.2538 61.9605 23.3308C61.9605 23.4026 61.9625 23.4691 61.9665 23.5307C61.9703 23.5923 61.9783 23.6281 61.9902 23.6384C62.0297 23.6743 62.0771 23.6974 62.1325 23.7077C62.1918 23.7129 62.2826 23.7154 62.4052 23.7154H62.7312C62.8419 23.7154 62.9625 23.6999 63.0929 23.6692C63.2272 23.6334 63.334 23.5795 63.4131 23.5077C63.4841 23.441 63.5494 23.3487 63.6087 23.2308C63.6719 23.1127 63.7272 22.9539 63.7747 22.7538C63.7826 22.7231 63.8103 22.7077 63.8578 22.7077C63.9288 22.7077 63.9763 22.7231 64 22.7538C63.9447 22.9589 63.8834 23.177 63.8162 23.4076C63.7529 23.6384 63.7115 23.8358 63.6916 24C63.3794 24 63.0691 23.9948 62.7609 23.9846C62.4525 23.9743 62.1047 23.9691 61.7174 23.9691C61.5831 23.9691 61.4625 23.9718 61.3558 23.9768C61.249 23.9871 61.1384 23.9923 61.0237 23.9923C61.008 23.9718 61 23.9359 61 23.8846C61.004 23.8333 61.0119 23.7974 61.0237 23.7769C61.0475 23.7769 61.0909 23.7744 61.1543 23.7692C61.2174 23.759 61.2768 23.7435 61.3321 23.7231C61.3913 23.7026 61.423 23.6795 61.4269 23.6538C61.4427 23.5923 61.4506 23.5128 61.4506 23.4153C61.4546 23.3179 61.4565 23.2129 61.4565 23.1V19.8923C61.4565 19.7795 61.4546 19.6744 61.4506 19.5769C61.4506 19.4744 61.4427 19.3923 61.4269 19.3308C61.423 19.3 61.3913 19.2769 61.3321 19.2615C61.2768 19.2462 61.2174 19.2359 61.1543 19.2308C61.0909 19.2205 61.0475 19.2154 61.0237 19.2154C61.0119 19.1949 61.004 19.159 61 19.1077C61 19.0564 61.008 19.0205 61.0237 19C61.1424 19.0051 61.259 19.0128 61.3735 19.0231C61.4881 19.0282 61.6009 19.0308 61.7115 19.0308C61.8262 19.0308 61.9368 19.0282 62.0435 19.0231C62.1541 19.0128 62.2688 19.0051 62.3874 19C62.4031 19.0205 62.4091 19.0564 62.4052 19.1077C62.4052 19.159 62.3993 19.1949 62.3874 19.2154C62.3637 19.2154 62.3202 19.2205 62.2569 19.2308C62.1937 19.2359 62.1344 19.2462 62.0791 19.2615C62.0237 19.2769 61.9921 19.3 61.9843 19.3308C61.9724 19.3821 61.9644 19.4487 61.9605 19.5308C61.9605 19.6128 61.9605 19.7026 61.9605 19.8C61.9605 19.8154 61.9605 19.8308 61.9605 19.8462C61.9605 19.8615 61.9605 19.8769 61.9605 19.8923V23.1Z" fill="black"/>
<path d="M71.1857 19.046C71.6403 19.046 72.1409 19.0383 72.6878 19.023C73.2346 19.0077 73.7681 19 74.2885 19C74.3216 19.1892 74.3644 19.363 74.4171 19.5215C74.4697 19.68 74.5192 19.8436 74.5654 20.0123C74.5323 20.0378 74.4764 20.0506 74.3973 20.0506C74.3117 20.0506 74.2655 20.0327 74.2591 19.9969C74.1535 19.6953 74.0054 19.5036 73.8143 19.4218C73.6232 19.34 73.3993 19.2991 73.1424 19.2991H72.3122C72.2727 19.2991 72.2002 19.3016 72.0949 19.3067C71.9894 19.3067 71.8907 19.3119 71.7985 19.3221C71.7063 19.3323 71.6534 19.3502 71.6403 19.3758C71.6205 19.4269 71.6074 19.4934 71.6007 19.5752C71.6007 19.657 71.6007 19.7413 71.6007 19.8282C71.6007 19.864 71.6007 19.8921 71.6007 19.9126V21.3082C71.6007 21.3286 71.6435 21.3415 71.7293 21.3465C71.8148 21.3517 71.9105 21.3542 72.0158 21.3542H72.5199C72.7503 21.3542 72.9283 21.3492 73.0534 21.339C73.1852 21.3286 73.2806 21.3057 73.3399 21.27C73.3993 21.2342 73.4455 21.1805 73.4784 21.1089C73.5112 21.0374 73.5476 20.9402 73.5869 20.8175C73.5936 20.7817 73.6398 20.7638 73.7253 20.7638C73.8044 20.7638 73.8603 20.7766 73.8935 20.8021V22.2132C73.867 22.2336 73.8143 22.2438 73.7352 22.2438C73.6561 22.2438 73.6067 22.2259 73.5869 22.1901C73.5409 22.047 73.5014 21.9448 73.4685 21.8835C73.442 21.8169 73.4158 21.7734 73.3894 21.753C73.3696 21.7274 73.3434 21.707 73.3103 21.6917C73.2774 21.6713 73.2017 21.6586 73.0831 21.6534C72.9644 21.6432 72.8326 21.638 72.6878 21.638C72.5493 21.633 72.4178 21.6303 72.2925 21.6303C72.2069 21.6303 72.108 21.633 71.996 21.638C71.8907 21.638 71.7985 21.6432 71.7194 21.6534C71.6403 21.6586 71.6007 21.6738 71.6007 21.6994V23.1258C71.6007 23.136 71.6007 23.1512 71.6007 23.1718C71.6007 23.2434 71.6007 23.3353 71.6007 23.4479C71.6074 23.5602 71.6237 23.6243 71.6502 23.6395C71.7162 23.6753 71.7951 23.6984 71.8873 23.7085C71.9862 23.7137 72.1377 23.7162 72.3419 23.7162H72.8064C73.0368 23.7162 73.2643 23.6984 73.4883 23.6626C73.7122 23.6268 73.89 23.5756 74.0218 23.5092C74.1733 23.4377 74.292 23.3353 74.3775 23.2024C74.4633 23.0645 74.5456 22.9161 74.6245 22.7576C74.6378 22.727 74.6838 22.7116 74.7629 22.7116C74.8816 22.7116 74.9607 22.727 75 22.7576C74.9078 22.9621 74.8057 23.1795 74.6937 23.4094C74.5884 23.6395 74.5192 23.8363 74.4863 24C73.9659 24 73.4487 23.9948 72.9347 23.9846C72.421 23.9744 71.8413 23.9692 71.1955 23.9692C70.9716 23.9692 70.7708 23.9719 70.5928 23.9769C70.4151 23.9871 70.2304 23.9923 70.0396 23.9923C70.0131 23.9719 70 23.9361 70 23.885C70.0064 23.8338 70.0198 23.798 70.0396 23.7776C70.0791 23.7776 70.1515 23.7751 70.2569 23.7699C70.3622 23.7597 70.4611 23.7443 70.5533 23.7239C70.6522 23.7035 70.7048 23.6805 70.7115 23.6549C70.7377 23.5935 70.751 23.5142 70.751 23.4171C70.7575 23.3199 70.7609 23.2153 70.7609 23.1027V19.9049C70.7609 19.7924 70.7575 19.6876 70.751 19.5905C70.751 19.4882 70.7377 19.4064 70.7115 19.3451C70.7048 19.3144 70.6522 19.2914 70.5533 19.2761C70.4611 19.2607 70.3622 19.2505 70.2569 19.2454C70.1515 19.2352 70.0791 19.2301 70.0396 19.2301C70.0198 19.2096 70.0064 19.1738 70 19.1227C70 19.0716 70.0131 19.0358 70.0396 19.0153C70.2371 19.0204 70.4314 19.0281 70.6225 19.0383C70.8136 19.0435 71.0012 19.046 71.1857 19.046Z" fill="black"/>
<path d="M81.9772 19.0308C82.0976 19.0308 82.2035 19.0283 82.2951 19.0231C82.3866 19.0129 82.4708 19.0051 82.548 19C82.5767 19.0976 82.6299 19.2491 82.7069 19.4545C82.7888 19.66 82.8828 19.904 82.9887 20.1864C83.0995 20.4638 83.2175 20.7591 83.3426 21.0724C83.4679 21.3857 83.5908 21.6989 83.7112 22.0122C83.8315 22.3205 83.9423 22.6081 84.0436 22.8752C84.0483 22.8854 84.058 22.8906 84.0725 22.8906C84.0868 22.8906 84.0965 22.8804 84.1012 22.8597C84.2409 22.4798 84.3662 22.1382 84.477 21.8352C84.5878 21.5269 84.6986 21.2214 84.8094 20.9183C84.9249 20.6102 85.0502 20.2712 85.185 19.9014C85.2284 19.7833 85.2741 19.6549 85.3224 19.5162C85.3705 19.3775 85.4115 19.2568 85.4451 19.1541C85.4789 19.0514 85.4957 19 85.4957 19C85.722 19.0154 85.9075 19.0231 86.0521 19.0231C86.1774 19.0231 86.3169 19.0205 86.4711 19.0154C86.63 19.0103 86.7529 19.0051 86.8396 19C86.8443 19.0103 86.8492 19.0488 86.8541 19.1156C86.8588 19.1823 86.8613 19.2157 86.8613 19.2157C86.8275 19.2157 86.7722 19.2208 86.695 19.2311C86.6227 19.2414 86.553 19.2568 86.4855 19.2774C86.4181 19.2979 86.3771 19.321 86.3626 19.3467C86.3484 19.3826 86.3386 19.4289 86.3339 19.4854C86.329 19.5419 86.3267 19.5932 86.3267 19.6394C86.3314 19.7679 86.3362 19.963 86.3411 20.225C86.3458 20.4869 86.3507 20.7822 86.3556 21.111C86.3652 21.4346 86.3724 21.7556 86.3771 22.0739C86.3869 22.3924 86.3941 22.675 86.3988 22.9214C86.4037 23.0652 86.4109 23.2014 86.4205 23.3297C86.4302 23.4581 86.4519 23.5659 86.4855 23.6533C86.5 23.6892 86.5434 23.7174 86.6155 23.7381C86.6878 23.7534 86.7601 23.7663 86.8324 23.7766C86.9094 23.7818 86.9575 23.7843 86.9768 23.7843C86.9962 23.8203 87.0034 23.8639 86.9985 23.9153C86.9985 23.9615 86.9962 23.9898 86.9913 24C86.8516 23.9898 86.7144 23.982 86.5795 23.9768C86.4494 23.9666 86.3073 23.9615 86.1531 23.9615C85.9894 23.9615 85.8473 23.9666 85.7269 23.9768C85.6065 23.982 85.4645 23.9898 85.3007 24C85.2958 23.9898 85.2909 23.9588 85.2862 23.9076C85.2814 23.8562 85.2862 23.815 85.3007 23.7843C85.3296 23.7843 85.3754 23.7818 85.4379 23.7766C85.5006 23.7663 85.5632 23.7561 85.6257 23.7459C85.6884 23.7304 85.7341 23.7149 85.7631 23.6995C85.7871 23.6842 85.8039 23.6405 85.8137 23.5686C85.8233 23.4967 85.8281 23.4351 85.8281 23.3837C85.8281 23.3272 85.8256 23.2553 85.8209 23.168C85.816 23.0754 85.8137 23.001 85.8137 22.9446C85.8039 22.5799 85.7943 22.2306 85.7848 21.8969C85.7752 21.5579 85.7654 21.2137 85.7558 20.8644C85.7463 20.51 85.7342 20.1299 85.7197 19.7242C85.7197 19.7088 85.7148 19.6805 85.7052 19.6394C85.6956 19.5984 85.6788 19.5778 85.6546 19.5778C85.645 19.5778 85.6329 19.5958 85.6185 19.6317C85.474 20.017 85.3392 20.3739 85.2139 20.7026C85.0936 21.0314 84.9755 21.3497 84.8598 21.658C84.7443 21.961 84.6263 22.2718 84.5059 22.5901C84.3902 22.9034 84.265 23.2424 84.1301 23.6071C84.1206 23.6276 84.0989 23.6687 84.0652 23.7304C84.0314 23.792 83.9953 23.851 83.9568 23.9076C83.923 23.9588 83.8917 23.9872 83.8628 23.9923C83.8532 23.9975 83.8364 23.9948 83.8124 23.9845C83.8075 23.9795 83.8026 23.9768 83.7979 23.9768L82.0782 19.5855C82.0735 19.9142 82.0663 20.2532 82.0565 20.6025C82.047 20.9517 82.0374 21.2908 82.0278 21.6193C82.0229 21.9481 82.0157 22.2461 82.0061 22.5132C82.0012 22.7751 81.9963 22.9882 81.9916 23.1525C81.9868 23.3118 81.9844 23.3991 81.9844 23.4144C81.9844 23.4503 81.9868 23.4915 81.9916 23.5377C81.9963 23.5789 82.0036 23.6148 82.0133 23.6455C82.0278 23.6815 82.0759 23.7099 82.1578 23.7304C82.2445 23.7509 82.3311 23.7663 82.4179 23.7766C82.5046 23.7818 82.5576 23.7843 82.5767 23.7843C82.5961 23.8048 82.6033 23.8433 82.5984 23.8999C82.5937 23.9563 82.5889 23.9898 82.584 24C82.4444 23.9898 82.3239 23.982 82.2228 23.9768C82.1216 23.9666 81.994 23.9615 81.8398 23.9615C81.676 23.9615 81.5389 23.9666 81.4281 23.9768C81.3172 23.982 81.1801 23.9898 81.0163 24C81.0114 23.9898 81.0065 23.9588 81.0018 23.9076C80.997 23.8562 81.0018 23.815 81.0163 23.7843C81.045 23.7843 81.1005 23.7791 81.1824 23.7689C81.2692 23.7586 81.3534 23.7431 81.4353 23.7227C81.5172 23.7022 81.5678 23.6765 81.5869 23.6455C81.6207 23.5943 81.6424 23.5404 81.652 23.4838C81.6616 23.4221 81.6688 23.3502 81.6737 23.2681C81.6882 22.816 81.7003 22.3822 81.7098 21.966C81.7243 21.5501 81.7339 21.1777 81.7388 20.849C81.7483 20.5151 81.7556 20.2455 81.7605 20.0401C81.7652 19.8295 81.7677 19.7062 81.7677 19.6703C81.7677 19.6138 81.7652 19.5598 81.7605 19.5085C81.7605 19.4571 81.7532 19.4109 81.7388 19.3698C81.729 19.339 81.6882 19.3133 81.6159 19.2928C81.5484 19.2671 81.4761 19.2491 81.3991 19.2388C81.3268 19.2234 81.2764 19.2157 81.2475 19.2157C81.2426 19.2157 81.2402 19.1823 81.2402 19.1156C81.2402 19.0437 81.2426 19.0051 81.2475 19C81.3583 19.0051 81.4474 19.0103 81.5148 19.0154C81.5822 19.0205 81.6497 19.0257 81.7171 19.0308C81.7845 19.0308 81.8713 19.0308 81.9772 19.0308Z" fill="black"/>
<path d="M95.5526 19C95.7076 19 95.835 19.0101 95.935 19.0303C96.0401 19.0454 96.145 19.0682 96.2501 19.0985C96.36 19.1288 96.4951 19.1641 96.655 19.2045C96.685 19.3965 96.7075 19.596 96.7225 19.803C96.7426 20.005 96.755 20.1566 96.76 20.2576C96.7651 20.2828 96.7475 20.303 96.7075 20.3182C96.6675 20.3283 96.6351 20.3333 96.6099 20.3333C96.575 20.3333 96.5474 20.3232 96.5276 20.303C96.5176 20.2121 96.4876 20.1061 96.4375 19.9848C96.3876 19.8636 96.3176 19.7475 96.2275 19.6364C96.1425 19.5253 96.0375 19.4343 95.9125 19.3636C95.7926 19.2879 95.6551 19.25 95.5001 19.25C95.3001 19.25 95.1425 19.2929 95.0276 19.3788C94.9126 19.4646 94.8301 19.5707 94.78 19.697C94.7301 19.8232 94.7051 19.947 94.7051 20.0682C94.7051 20.2651 94.755 20.4293 94.855 20.5606C94.9601 20.6919 95.0901 20.8081 95.2451 20.9091C95.405 21.0102 95.565 21.1136 95.7251 21.2196C95.845 21.2954 95.9776 21.3789 96.1225 21.4697C96.2675 21.5605 96.4075 21.6617 96.5426 21.7726C96.6775 21.8838 96.7874 22.0127 96.8724 22.159C96.9576 22.3006 97 22.4621 97 22.644C97 22.9116 96.925 23.149 96.775 23.3561C96.63 23.5581 96.4399 23.7172 96.205 23.8333C95.975 23.9445 95.7299 24 95.4701 24C95.225 24 94.9875 23.9723 94.7576 23.9168C94.5325 23.8611 94.33 23.8157 94.1501 23.7803C94.1201 23.6338 94.0925 23.4774 94.0675 23.3107C94.0477 23.144 94.03 22.9975 94.015 22.8713C94.0051 22.7449 94 22.6666 94 22.6364C94.0251 22.6111 94.0525 22.591 94.0826 22.5758C94.1176 22.5556 94.1525 22.5454 94.1876 22.5454C94.2327 22.5454 94.2601 22.5682 94.27 22.6136C94.285 22.6843 94.315 22.7827 94.3601 22.9091C94.4102 23.0304 94.4801 23.1566 94.57 23.2879C94.6651 23.4192 94.785 23.5304 94.9301 23.6212C95.08 23.7071 95.265 23.7501 95.4851 23.7501C95.72 23.7501 95.9251 23.6718 96.0999 23.5152C96.275 23.3535 96.3624 23.1288 96.3624 22.8409C96.3624 22.6337 96.315 22.4722 96.22 22.3561C96.13 22.24 96.0101 22.1389 95.86 22.053C95.7151 21.9673 95.5575 21.8762 95.3875 21.7802C95.2025 21.6693 95.01 21.548 94.81 21.4167C94.615 21.2802 94.4501 21.1212 94.315 20.9394C94.1801 20.7576 94.1126 20.5429 94.1126 20.2955C94.1126 20.0328 94.1801 19.8056 94.315 19.6136C94.455 19.4167 94.6351 19.2652 94.855 19.1591C95.0751 19.053 95.3076 19 95.5526 19Z" fill="black"/>
</svg>
