<svg width="120" height="29" viewBox="0 0 120 29" fill="none" xmlns="http://www.w3.org/2000/svg">
<path d="M20 7.72585C20 9.43306 19.6137 10.9377 18.8412 12.2398C18.0686 13.513 16.9814 14.5113 15.5794 15.2347C14.206 15.9291 12.6037 16.2764 10.7725 16.2764C10.5436 16.2764 10.2432 16.2474 9.87122 16.1896C9.49926 16.1317 9.19884 16.0449 8.96994 15.9291C8.91271 15.8713 8.79826 15.77 8.62659 15.6253C8.45492 15.4517 8.36908 15.2347 8.36908 14.9743C8.36908 14.8006 8.44061 14.7283 8.58367 14.7572C8.81257 14.8151 9.05577 14.8874 9.31328 14.9743C9.57079 15.0321 9.85692 15.0611 10.1717 15.0611C11.8598 15.0611 13.2761 14.4968 14.4206 13.3683C15.5651 12.2109 16.1373 10.576 16.1373 8.46371C16.1373 6.3514 15.5651 4.65866 14.4206 3.38548C13.2761 2.11231 11.545 1.47572 9.22745 1.47572C8.96994 1.47572 8.56937 1.49019 8.02573 1.51913C7.51071 1.54806 7.21028 1.66381 7.12445 1.86636C7.01 2.12678 6.93847 2.57528 6.90986 3.21187C6.90986 3.81952 6.90986 4.44164 6.90986 5.07822V23.1341C6.90986 23.7707 6.90986 24.3639 6.90986 24.9137C6.93847 25.4635 7.01 25.912 7.12445 26.2592C7.18167 26.4039 7.41057 26.5341 7.81114 26.6498C8.21171 26.7656 8.62659 26.8524 9.05577 26.9102C9.51357 26.9392 9.8283 26.9537 9.99998 26.9537C10.0858 27.0694 10.1287 27.2719 10.1287 27.5613C10.1573 27.8507 10.1144 28.0532 9.99998 28.169C9.14161 28.1111 8.31186 28.0677 7.51071 28.0387C6.73818 27.9809 5.93704 27.9519 5.10728 27.9519C4.30614 27.9519 3.49069 27.9809 2.66094 28.0387C1.8598 28.0677 1.03004 28.1111 0.171673 28.169C0.0572245 28.0532 0 27.8507 0 27.5613C0.0286122 27.2719 0.0858367 27.0694 0.171673 26.9537C0.343347 26.9537 0.643775 26.9392 1.07296 26.9102C1.53075 26.8524 1.95994 26.7656 2.36051 26.6498C2.78969 26.5341 3.01859 26.4039 3.0472 26.2592C3.16165 25.912 3.21888 25.4635 3.21888 24.9137C3.24749 24.3639 3.2618 23.7707 3.2618 23.1341V5.03482C3.2618 4.39823 3.24749 3.80505 3.21888 3.25527C3.21888 2.67656 3.16165 2.21358 3.0472 1.86636C3.01859 1.69274 2.78969 1.56253 2.36051 1.47572C1.95994 1.38892 1.53075 1.33104 1.07296 1.30211C0.643775 1.24424 0.343347 1.2153 0.171673 1.2153C0.0858367 1.09956 0.0286122 0.897008 0 0.607651C0 0.318293 0.0572245 0.115743 0.171673 0C1.03004 0.0289354 1.8598 0.0723393 2.66094 0.130212C3.49069 0.159147 4.30614 0.173615 5.10728 0.173615C5.93704 0.173615 6.82402 0.159147 7.76822 0.130212C8.74104 0.101275 9.84261 0.0868061 11.0729 0.0868061C12.5608 0.0868061 13.9771 0.390632 15.3219 0.998283C16.6952 1.577 17.8111 2.4306 18.6695 3.5591C19.5565 4.68759 20 6.07651 20 7.72585Z" fill="black"/>
<path d="M24.1018 13.1276C24.1018 13.1276 24.1694 12.9671 24.3046 12.6462C24.4549 12.3118 24.6502 11.8638 24.8906 11.3022C25.131 10.7405 25.4014 10.1186 25.7019 9.4366C26.0174 8.7412 26.3329 8.03242 26.6484 7.31027C26.9639 6.57475 27.2644 5.87266 27.5499 5.204C27.8504 4.53534 28.1133 3.94692 28.3387 3.43875C28.3988 3.33176 28.5265 3.2114 28.7218 3.07767C28.9321 2.94394 29.0899 2.87707 29.195 2.87707C29.2251 2.87707 29.2401 2.88376 29.2401 2.89713C29.2551 2.89713 29.2777 2.90382 29.3077 2.91719L33.7925 13.3884C34.123 14.164 34.3108 14.5919 34.3559 14.6722C34.431 14.8193 34.5737 14.9463 34.7841 15.0533C35.0094 15.1603 35.2273 15.2405 35.4376 15.294C35.663 15.3342 35.8057 15.3542 35.8658 15.3542C35.9259 15.4211 35.9484 15.5281 35.9334 15.6752C35.9184 15.8089 35.9034 15.8891 35.8883 15.9159C35.4526 15.8891 35.062 15.8691 34.7165 15.8557C34.3709 15.829 33.9577 15.8156 33.477 15.8156C32.9661 15.8156 32.5379 15.829 32.1924 15.8557C31.8618 15.8691 31.4412 15.8891 30.9303 15.9159C30.8702 15.8624 30.8402 15.7688 30.8402 15.635C30.8552 15.5013 30.8928 15.4077 30.9529 15.3542C31.0881 15.3542 31.2984 15.3342 31.5839 15.294C31.8694 15.2405 32.0647 15.1737 32.1698 15.0934C32.2299 15.0399 32.26 14.9463 32.26 14.8126C32.26 14.6922 32.2074 14.4916 32.1022 14.2108C32.0121 13.9166 31.8919 13.589 31.7417 13.2279C31.5914 12.8668 31.4412 12.5191 31.2909 12.1848C31.1407 11.8371 31.013 11.5562 30.9078 11.3423C30.8177 11.1149 30.7726 11.0013 30.7726 11.0013C30.7726 11.0013 30.7576 10.9879 30.7275 10.9611C30.6975 10.9344 30.6674 10.921 30.6374 10.921C30.412 10.9076 30.1341 10.901 29.8035 10.901C29.473 10.901 29.165 10.901 28.8795 10.901C28.8044 10.901 28.7293 10.901 28.6542 10.901C28.579 10.901 28.5114 10.901 28.4513 10.901C28.0006 10.901 27.6175 10.9076 27.302 10.921C26.9865 10.921 26.5808 10.9344 26.085 10.9611C26.07 10.9611 26.0475 10.9745 26.0174 11.0013C25.9874 11.0146 25.9723 11.0213 25.9723 11.0213C25.9723 11.0213 25.9122 11.155 25.792 11.4225C25.6869 11.69 25.5517 12.0109 25.3864 12.3854C25.2362 12.7465 25.1009 13.0875 24.9807 13.4084C24.8455 13.7427 24.7554 14.0236 24.7103 14.2509C24.6803 14.4783 24.6652 14.6588 24.6652 14.7925C24.6652 14.9396 24.7779 15.06 25.0033 15.1536C25.2437 15.2339 25.4841 15.2873 25.7244 15.3141C25.9799 15.3408 26.1376 15.3542 26.1977 15.3542C26.2278 15.381 26.2503 15.4679 26.2653 15.615C26.2803 15.7487 26.2728 15.849 26.2428 15.9159C25.9573 15.9025 25.7094 15.8891 25.4991 15.8758C25.3038 15.8624 25.1009 15.849 24.8906 15.8356C24.6953 15.8223 24.4324 15.8156 24.1018 15.8156C23.7713 15.8156 23.4933 15.8223 23.268 15.8356C23.0426 15.849 22.8172 15.8624 22.5919 15.8758C22.3665 15.8891 22.0811 15.9025 21.7355 15.9159C21.7055 15.8891 21.6904 15.8089 21.6904 15.6752C21.6904 15.5281 21.7055 15.4211 21.7355 15.3542C21.8707 15.3542 22.0961 15.3275 22.4116 15.274C22.7421 15.2071 22.96 15.1068 23.0651 14.9731C23.2905 14.719 23.4783 14.4382 23.6286 14.1306C23.7938 13.8096 23.9516 13.4753 24.1018 13.1276ZM28.4063 5.24412L26.4005 10.0183C26.4005 10.0183 26.4005 10.0317 26.4005 10.0584C26.4156 10.0852 26.4306 10.0986 26.4456 10.0986C26.7311 10.1119 27.0691 10.1253 27.4597 10.1387C27.8654 10.1387 28.1884 10.1387 28.4288 10.1387C28.7744 10.1387 29.0824 10.132 29.3528 10.1186C29.6383 10.1053 29.9463 10.0919 30.2768 10.0785C30.3068 10.0785 30.3219 10.0651 30.3219 10.0384C30.3369 9.99827 30.3444 9.97821 30.3444 9.97821L28.4063 5.24412Z" fill="black"/>
<path d="M44.3238 2.93725C44.8196 2.93725 45.3304 3.0108 45.8563 3.15791C46.3821 3.30501 46.8629 3.51898 47.2986 3.79982C47.7493 4.08066 48.1099 4.43504 48.3804 4.86298C48.6508 5.27755 48.786 5.76567 48.786 6.32734C48.786 6.7954 48.6358 7.25009 48.3353 7.6914C48.0498 8.13272 47.6742 8.52054 47.2085 8.85487C46.7577 9.1892 46.2845 9.42991 45.7887 9.57702C46.1793 10.1521 46.5549 10.6803 46.9155 11.1617C47.2761 11.6432 47.6517 12.1246 48.0423 12.606C48.4329 13.0741 48.8686 13.5956 49.3494 14.1707C49.6649 14.5451 50.003 14.826 50.3636 15.0132C50.7392 15.2004 51.2275 15.3141 51.8284 15.3542C51.8885 15.4077 51.9035 15.508 51.8735 15.6551C51.8434 15.8022 51.8209 15.8891 51.8059 15.9159C51.0697 15.9159 50.4537 15.8958 49.9579 15.8557C49.4771 15.8022 49.1241 15.742 48.8987 15.6752C48.7485 15.6217 48.5381 15.5414 48.2677 15.4345C47.9972 15.3141 47.7343 15.1068 47.4789 14.8126C47.3888 14.7056 47.2235 14.4983 46.9831 14.1907C46.7427 13.8832 46.4573 13.5087 46.1267 13.0674C45.7962 12.6261 45.4431 12.158 45.0675 11.6632C44.6919 11.155 44.3313 10.6602 43.9858 10.1788C43.8656 10.0183 43.6402 9.93809 43.3097 9.93809H42.1603V13.589C42.1603 13.6291 42.1603 13.6692 42.1603 13.7093C42.1603 13.7494 42.1603 13.7896 42.1603 13.8297C42.1603 14.0838 42.1603 14.3178 42.1603 14.5318C42.1753 14.7324 42.2054 14.8995 42.2505 15.0333C42.2805 15.1001 42.4007 15.1603 42.6111 15.2138C42.8214 15.2673 43.0468 15.3074 43.2871 15.3342C43.5275 15.3475 43.6928 15.3542 43.7829 15.3542C43.828 15.4077 43.8505 15.5013 43.8505 15.635C43.8656 15.7688 43.843 15.8624 43.7829 15.9159C43.3322 15.8891 42.8965 15.8691 42.4758 15.8557C42.0702 15.829 41.6495 15.8156 41.2138 15.8156C40.7931 15.8156 40.3649 15.829 39.9292 15.8557C39.4935 15.8691 39.0503 15.8891 38.5996 15.9159C38.5395 15.8624 38.5094 15.7688 38.5094 15.635C38.5245 15.5013 38.5545 15.4077 38.5996 15.3542C38.6897 15.3542 38.855 15.3475 39.0954 15.3342C39.3358 15.3074 39.5611 15.2673 39.7715 15.2138C39.9968 15.1603 40.117 15.1001 40.132 15.0333C40.1921 14.8728 40.2222 14.6655 40.2222 14.4114C40.2372 14.1573 40.2447 13.8832 40.2447 13.589L40.2222 5.22406C40.2222 4.92985 40.2147 4.6557 40.1997 4.40161C40.1997 4.13415 40.1696 3.92018 40.1095 3.7597C40.0945 3.67946 39.9743 3.61928 39.7489 3.57916C39.5386 3.53904 39.3132 3.5123 39.0728 3.49892C38.8475 3.47218 38.6897 3.45881 38.5996 3.45881C38.5545 3.40531 38.5245 3.3117 38.5094 3.17797C38.5094 3.04424 38.5395 2.95063 38.5996 2.89713C39.0503 2.91051 39.486 2.93057 39.9067 2.95731C40.3424 2.97069 40.7706 2.97737 41.1913 2.97737C41.627 2.97737 42.0927 2.97069 42.5885 2.95731C43.0993 2.94394 43.6778 2.93725 44.3238 2.93725ZM46.7352 6.50788C46.7352 5.652 46.4723 4.94991 45.9464 4.40161C45.4356 3.85331 44.5717 3.57916 43.3548 3.57916C43.2195 3.57916 43.0092 3.58585 42.7237 3.59922C42.4533 3.6126 42.2955 3.66609 42.2505 3.7597C42.1904 3.88006 42.1528 4.08734 42.1378 4.38155C42.1378 4.66239 42.1378 4.94991 42.1378 5.24412L42.1603 9.3363H43.3322C43.9031 9.3363 44.444 9.22263 44.9548 8.99529C45.4807 8.75457 45.9089 8.42693 46.2394 8.01236C46.5699 7.58442 46.7352 7.08293 46.7352 6.50788Z" fill="black"/>
<path d="M55.1738 13.1276C55.1738 13.1276 55.2415 12.9671 55.3767 12.6462C55.5269 12.3118 55.7222 11.8638 55.9626 11.3022C56.203 10.7405 56.4734 10.1186 56.7739 9.4366C57.0894 8.7412 57.4049 8.03242 57.7205 7.31027C58.036 6.57475 58.3364 5.87266 58.6219 5.204C58.9224 4.53534 59.1853 3.94692 59.4107 3.43875C59.4708 3.33176 59.5985 3.2114 59.7938 3.07767C60.0041 2.94394 60.1619 2.87707 60.2671 2.87707C60.2971 2.87707 60.3121 2.88376 60.3121 2.89713C60.3272 2.89713 60.3497 2.90382 60.3797 2.91719L64.8645 13.3884C65.195 14.164 65.3828 14.5919 65.4279 14.6722C65.503 14.8193 65.6457 14.9463 65.8561 15.0533C66.0814 15.1603 66.2993 15.2405 66.5096 15.294C66.735 15.3342 66.8777 15.3542 66.9378 15.3542C66.9979 15.4211 67.0205 15.5281 67.0054 15.6752C66.9904 15.8089 66.9754 15.8891 66.9604 15.9159C66.5247 15.8891 66.134 15.8691 65.7885 15.8557C65.4429 15.829 65.0297 15.8156 64.549 15.8156C64.0381 15.8156 63.61 15.829 63.2644 15.8557C62.9339 15.8691 62.5132 15.8891 62.0024 15.9159C61.9423 15.8624 61.9122 15.7688 61.9122 15.635C61.9272 15.5013 61.9648 15.4077 62.0249 15.3542C62.1601 15.3542 62.3705 15.3342 62.6559 15.294C62.9414 15.2405 63.1367 15.1737 63.2419 15.0934C63.302 15.0399 63.332 14.9463 63.332 14.8126C63.332 14.6922 63.2794 14.4916 63.1743 14.2108C63.0841 13.9166 62.9639 13.589 62.8137 13.2279C62.6634 12.8668 62.5132 12.5191 62.3629 12.1848C62.2127 11.8371 62.085 11.5562 61.9798 11.3423C61.8897 11.1149 61.8446 11.0013 61.8446 11.0013C61.8446 11.0013 61.8296 10.9879 61.7995 10.9611C61.7695 10.9344 61.7394 10.921 61.7094 10.921C61.484 10.9076 61.2061 10.901 60.8755 10.901C60.545 10.901 60.237 10.901 59.9516 10.901C59.8764 10.901 59.8013 10.901 59.7262 10.901C59.6511 10.901 59.5835 10.901 59.5234 10.901C59.0726 10.901 58.6895 10.9076 58.374 10.921C58.0585 10.921 57.6528 10.9344 57.157 10.9611C57.142 10.9611 57.1195 10.9745 57.0894 11.0013C57.0594 11.0146 57.0444 11.0213 57.0444 11.0213C57.0444 11.0213 56.9843 11.155 56.8641 11.4225C56.7589 11.69 56.6237 12.0109 56.4584 12.3854C56.3082 12.7465 56.173 13.0875 56.0528 13.4084C55.9175 13.7427 55.8274 14.0236 55.7823 14.2509C55.7523 14.4783 55.7373 14.6588 55.7373 14.7925C55.7373 14.9396 55.8499 15.06 56.0753 15.1536C56.3157 15.2339 56.5561 15.2873 56.7965 15.3141C57.0519 15.3408 57.2096 15.3542 57.2697 15.3542C57.2998 15.381 57.3223 15.4679 57.3373 15.615C57.3524 15.7487 57.3448 15.849 57.3148 15.9159C57.0293 15.9025 56.7814 15.8891 56.5711 15.8758C56.3758 15.8624 56.173 15.849 55.9626 15.8356C55.7673 15.8223 55.5044 15.8156 55.1738 15.8156C54.8433 15.8156 54.5654 15.8223 54.34 15.8356C54.1146 15.849 53.8893 15.8624 53.6639 15.8758C53.4385 15.8891 53.1531 15.9025 52.8075 15.9159C52.7775 15.8891 52.7625 15.8089 52.7625 15.6752C52.7625 15.5281 52.7775 15.4211 52.8075 15.3542C52.9427 15.3542 53.1681 15.3275 53.4836 15.274C53.8141 15.2071 54.032 15.1068 54.1372 14.9731C54.3625 14.719 54.5503 14.4382 54.7006 14.1306C54.8658 13.8096 55.0236 13.4753 55.1738 13.1276ZM59.4783 5.24412L57.4726 10.0183C57.4726 10.0183 57.4726 10.0317 57.4726 10.0584C57.4876 10.0852 57.5026 10.0986 57.5176 10.0986C57.8031 10.1119 58.1411 10.1253 58.5318 10.1387C58.9374 10.1387 59.2604 10.1387 59.5008 10.1387C59.8464 10.1387 60.1544 10.132 60.4248 10.1186C60.7103 10.1053 61.0183 10.0919 61.3488 10.0785C61.3789 10.0785 61.3939 10.0651 61.3939 10.0384C61.4089 9.99827 61.4164 9.97821 61.4164 9.97821L59.4783 5.24412Z" fill="black"/>
<path d="M75.4634 2.95731C77.071 2.95731 78.4533 3.23815 79.6101 3.79982C80.767 4.34812 81.6534 5.1037 82.2694 6.06657C82.8854 7.01606 83.1934 8.09928 83.1934 9.31624C83.1934 10.1454 83.0657 10.9544 82.8103 11.7435C82.5549 12.5325 82.1192 13.2413 81.5032 13.8698C80.9022 14.4983 80.0834 14.9998 79.0467 15.3743C78.0101 15.7353 76.718 15.9159 75.1705 15.9159H69.6716C69.6115 15.8624 69.5815 15.7688 69.5815 15.635C69.5965 15.5013 69.6265 15.4077 69.6716 15.3542C69.7617 15.3542 69.927 15.3475 70.1674 15.3342C70.4078 15.3074 70.6331 15.2673 70.8435 15.2138C71.0689 15.1603 71.189 15.1001 71.2041 15.0333C71.2642 14.8728 71.2942 14.6655 71.2942 14.4114C71.3092 14.1573 71.3167 13.8832 71.3167 13.589V5.22406C71.3167 4.92985 71.3092 4.6557 71.2942 4.40161C71.2942 4.13415 71.2642 3.92018 71.2041 3.7597C71.189 3.67946 71.0689 3.61928 70.8435 3.57916C70.6331 3.53904 70.4078 3.5123 70.1674 3.49892C69.927 3.47218 69.7617 3.45881 69.6716 3.45881C69.6265 3.40531 69.5965 3.3117 69.5815 3.17797C69.5815 3.04424 69.6115 2.95063 69.6716 2.89713C70.1223 2.91051 70.5655 2.93057 71.0012 2.95731C71.4369 2.97069 71.8651 2.97737 72.2858 2.97737C72.7215 2.97737 73.2399 2.97737 73.8408 2.97737C74.4418 2.964 74.9827 2.95731 75.4634 2.95731ZM73.2549 5.26418V13.609C73.2549 13.7026 73.2549 13.8564 73.2549 14.0704C73.2549 14.271 73.2624 14.4716 73.2774 14.6722C73.3075 14.8594 73.3375 14.9731 73.3676 15.0132C73.4577 15.1202 73.6756 15.1937 74.0211 15.2339C74.3817 15.274 74.7648 15.294 75.1705 15.294C76.2222 15.294 77.1837 15.0934 78.0551 14.6922C78.9416 14.291 79.6552 13.6826 80.1961 12.8668C80.737 12.0377 81.0074 10.9879 81.0074 9.71743C81.0074 8.60746 80.8346 7.66466 80.4891 6.88902C80.1585 6.11337 79.7003 5.48484 79.1143 5.0034C78.5434 4.5086 77.8899 4.15421 77.1537 3.94024C76.4325 3.7129 75.6738 3.59922 74.8775 3.59922C74.7873 3.59922 74.6221 3.60591 74.3817 3.61928C74.1413 3.61928 73.9159 3.63266 73.7056 3.6594C73.4953 3.68615 73.3751 3.73296 73.345 3.79982C73.3 3.93355 73.2699 4.11409 73.2549 4.34143C73.2549 4.5554 73.2549 4.78275 73.2549 5.02346C73.2549 5.06358 73.2549 5.1037 73.2549 5.14382C73.2549 5.18394 73.2549 5.22406 73.2549 5.26418Z" fill="black"/>
<path d="M89.5165 2.97737C89.9522 2.97737 90.3728 2.97069 90.7785 2.95731C91.1992 2.93057 91.6349 2.91051 92.0856 2.89713C92.1457 2.95063 92.1682 3.04424 92.1532 3.17797C92.1532 3.3117 92.1307 3.40531 92.0856 3.45881C91.9955 3.45881 91.8302 3.47218 91.5898 3.49892C91.3494 3.5123 91.1241 3.53904 90.9137 3.57916C90.7034 3.61928 90.5832 3.67946 90.5531 3.7597C90.5081 3.89343 90.478 4.06728 90.463 4.28125C90.463 4.49522 90.463 4.72925 90.463 4.98334C90.463 5.02346 90.463 5.06358 90.463 5.1037C90.463 5.14382 90.463 5.18394 90.463 5.22406V13.589C90.463 13.6291 90.463 13.6692 90.463 13.7093C90.463 13.7494 90.463 13.7896 90.463 13.8297C90.463 14.0838 90.463 14.3178 90.463 14.5318C90.478 14.7324 90.5081 14.8995 90.5531 15.0333C90.5832 15.1001 90.7034 15.1603 90.9137 15.2138C91.1241 15.2673 91.3494 15.3074 91.5898 15.3342C91.8302 15.3475 91.9955 15.3542 92.0856 15.3542C92.1307 15.4077 92.1532 15.5013 92.1532 15.635C92.1682 15.7688 92.1457 15.8624 92.0856 15.9159C91.6349 15.8891 91.1992 15.8691 90.7785 15.8557C90.3728 15.829 89.9522 15.8156 89.5165 15.8156C89.0958 15.8156 88.6676 15.829 88.2319 15.8557C87.7962 15.8691 87.353 15.8891 86.9022 15.9159C86.8421 15.8624 86.8121 15.7688 86.8121 15.635C86.8271 15.5013 86.8572 15.4077 86.9022 15.3542C86.9924 15.3542 87.1576 15.3475 87.398 15.3342C87.6384 15.3074 87.8638 15.2673 88.0741 15.2138C88.2995 15.1603 88.4197 15.1001 88.4347 15.0333C88.4948 14.8728 88.5249 14.6655 88.5249 14.4114C88.5399 14.1573 88.5474 13.8832 88.5474 13.589V5.22406C88.5474 4.92985 88.5399 4.6557 88.5249 4.40161C88.5249 4.13415 88.4948 3.92018 88.4347 3.7597C88.4197 3.67946 88.2995 3.61928 88.0741 3.57916C87.8638 3.53904 87.6384 3.5123 87.398 3.49892C87.1576 3.47218 86.9924 3.45881 86.9022 3.45881C86.8572 3.40531 86.8271 3.3117 86.8121 3.17797C86.8121 3.04424 86.8421 2.95063 86.9022 2.89713C87.353 2.91051 87.7962 2.93057 88.2319 2.95731C88.6676 2.97069 89.0958 2.97737 89.5165 2.97737Z" fill="black"/>
<path d="M100.591 2.81689C101.057 2.81689 101.44 2.84364 101.74 2.89713C102.056 2.93725 102.371 2.99743 102.687 3.07767C103.017 3.15791 103.423 3.25152 103.904 3.35851C103.994 3.86669 104.062 4.39492 104.107 4.94322C104.167 5.47815 104.204 5.87934 104.219 6.14681C104.234 6.21367 104.182 6.26716 104.062 6.30728C103.941 6.33403 103.844 6.3474 103.769 6.3474C103.663 6.3474 103.581 6.32066 103.521 6.26716C103.491 6.02645 103.4 5.74561 103.25 5.42466C103.1 5.1037 102.89 4.79612 102.619 4.50191C102.364 4.2077 102.048 3.96698 101.673 3.77976C101.312 3.57916 100.899 3.47886 100.433 3.47886C99.8322 3.47886 99.359 3.59254 99.0134 3.81988C98.6679 4.04722 98.42 4.32806 98.2697 4.66239C98.1195 4.99672 98.0444 5.32436 98.0444 5.64531C98.0444 6.16687 98.1946 6.60149 98.4951 6.94919C98.8106 7.2969 99.2012 7.60448 99.667 7.87194C100.148 8.1394 100.629 8.41355 101.109 8.69439C101.47 8.89499 101.868 9.11564 102.304 9.35636C102.739 9.59708 103.16 9.86454 103.566 10.1587C103.971 10.453 104.302 10.794 104.557 11.1818C104.813 11.5562 104.94 11.9842 104.94 12.4656C104.94 13.1744 104.715 13.8029 104.264 14.3512C103.829 14.8862 103.258 15.3074 102.552 15.615C101.861 15.9092 101.124 16.0563 100.343 16.0563C99.6069 16.0563 98.8932 15.9827 98.2021 15.8356C97.526 15.6885 96.9175 15.5682 96.3767 15.4746C96.2865 15.0867 96.2039 14.6722 96.1288 14.2309C96.0687 13.7896 96.0161 13.4017 95.971 13.0674C95.941 12.7331 95.9259 12.5258 95.9259 12.4456C96.0011 12.3787 96.0837 12.3252 96.1738 12.2851C96.279 12.2316 96.3842 12.2048 96.4893 12.2048C96.6246 12.2048 96.7072 12.265 96.7372 12.3854C96.7823 12.5726 96.8725 12.8334 97.0077 13.1677C97.1579 13.4887 97.3683 13.823 97.6387 14.1707C97.9242 14.5184 98.2847 14.8126 98.7205 15.0533C99.1712 15.2807 99.7271 15.3943 100.388 15.3943C101.094 15.3943 101.71 15.187 102.236 14.7725C102.762 14.3445 103.025 13.7494 103.025 12.9872C103.025 12.4389 102.882 12.0109 102.597 11.7033C102.326 11.3958 101.966 11.1283 101.515 10.901C101.079 10.6736 100.606 10.4329 100.095 10.1788C99.5393 9.8846 98.9608 9.56364 98.3599 9.21594C97.7739 8.85487 97.2781 8.43361 96.8725 7.95218C96.4668 7.47075 96.264 6.90239 96.264 6.2471C96.264 5.5517 96.4668 4.94991 96.8725 4.44173C97.2931 3.92018 97.834 3.51898 98.4951 3.23815C99.1561 2.95731 99.8548 2.81689 100.591 2.81689Z" fill="black"/>
<path d="M111.301 2.97737C112.338 2.97737 113.48 2.95731 114.727 2.91719C115.974 2.87707 117.191 2.85701 118.377 2.85701C118.453 3.35182 118.55 3.80651 118.67 4.22107C118.791 4.63564 118.903 5.06358 119.008 5.5049C118.933 5.57176 118.806 5.60519 118.625 5.60519C118.43 5.60519 118.325 5.55839 118.31 5.46478C118.069 4.67576 117.731 4.17427 117.296 3.9603C116.86 3.74633 116.349 3.63934 115.763 3.63934H113.87C113.78 3.63934 113.615 3.64603 113.374 3.6594C113.134 3.6594 112.909 3.67278 112.698 3.69952C112.488 3.72627 112.368 3.77307 112.338 3.83994C112.293 3.97367 112.263 4.14752 112.248 4.36149C112.248 4.57546 112.248 4.79612 112.248 5.02346C112.248 5.11707 112.248 5.19063 112.248 5.24412V8.89499C112.248 8.94848 112.345 8.98191 112.541 8.99529C112.736 9.00866 112.954 9.01534 113.194 9.01534H114.343C114.869 9.01534 115.275 9.00197 115.56 8.97522C115.861 8.94848 116.079 8.8883 116.214 8.79469C116.349 8.70108 116.454 8.56066 116.529 8.37343C116.605 8.18621 116.687 7.93212 116.777 7.61117C116.792 7.51755 116.898 7.47075 117.093 7.47075C117.273 7.47075 117.401 7.50418 117.476 7.57105V11.262C117.416 11.3155 117.296 11.3423 117.115 11.3423C116.935 11.3423 116.822 11.2955 116.777 11.2019C116.672 10.8274 116.582 10.5599 116.507 10.3995C116.447 10.2256 116.387 10.1119 116.327 10.0584C116.282 9.99158 116.221 9.93809 116.146 9.89797C116.071 9.84448 115.898 9.81105 115.628 9.79767C115.358 9.77093 115.057 9.75755 114.727 9.75755C114.411 9.74418 114.111 9.73749 113.825 9.73749C113.63 9.73749 113.404 9.74418 113.149 9.75755C112.909 9.75755 112.698 9.77093 112.518 9.79767C112.338 9.81105 112.248 9.85117 112.248 9.91803V13.6491C112.248 13.6759 112.248 13.716 112.248 13.7695C112.248 13.9567 112.248 14.1974 112.248 14.4916C112.263 14.7859 112.3 14.953 112.36 14.9931C112.51 15.0867 112.691 15.1469 112.901 15.1737C113.126 15.187 113.472 15.1937 113.938 15.1937H114.997C115.523 15.1937 116.041 15.1469 116.552 15.0533C117.063 14.9597 117.468 14.826 117.769 14.6521C118.115 14.4649 118.385 14.1974 118.58 13.8497C118.776 13.4887 118.963 13.1008 119.144 12.6863C119.174 12.606 119.279 12.5659 119.459 12.5659C119.73 12.5659 119.91 12.606 120 12.6863C119.79 13.2212 119.557 13.7896 119.301 14.3913C119.061 14.9931 118.903 15.508 118.828 15.9359C117.641 15.9359 116.462 15.9226 115.29 15.8958C114.118 15.8691 112.796 15.8557 111.324 15.8557C110.813 15.8557 110.354 15.8624 109.949 15.8758C109.543 15.9025 109.123 15.9159 108.687 15.9159C108.627 15.8624 108.597 15.7688 108.597 15.635C108.612 15.5013 108.642 15.4077 108.687 15.3542C108.777 15.3542 108.942 15.3475 109.183 15.3342C109.423 15.3074 109.648 15.2673 109.859 15.2138C110.084 15.1603 110.204 15.1001 110.219 15.0333C110.279 14.8728 110.309 14.6655 110.309 14.4114C110.324 14.1573 110.332 13.8832 110.332 13.589V5.22406C110.332 4.92985 110.324 4.6557 110.309 4.40161C110.309 4.13415 110.279 3.92018 110.219 3.7597C110.204 3.67946 110.084 3.61928 109.859 3.57916C109.648 3.53904 109.423 3.5123 109.183 3.49892C108.942 3.47218 108.777 3.45881 108.687 3.45881C108.642 3.40531 108.612 3.3117 108.597 3.17797C108.597 3.04424 108.627 2.95063 108.687 2.89713C109.138 2.91051 109.581 2.93057 110.016 2.95731C110.452 2.97069 110.88 2.97737 111.301 2.97737Z" fill="black"/>
<path d="M25.623 24.0949C25.623 24.4301 25.5471 24.7256 25.3952 24.9813C25.2433 25.2313 25.0295 25.4273 24.7538 25.5694C24.4838 25.7058 24.1687 25.7739 23.8086 25.7739C23.7636 25.7739 23.7045 25.7683 23.6314 25.7569C23.5583 25.7455 23.4992 25.7285 23.4542 25.7058C23.4429 25.6944 23.4204 25.6745 23.3867 25.6461C23.3529 25.612 23.336 25.5694 23.336 25.5183C23.336 25.4842 23.3501 25.47 23.3782 25.4756C23.4232 25.487 23.4711 25.5012 23.5217 25.5183C23.5723 25.5296 23.6286 25.5353 23.6905 25.5353C24.0224 25.5353 24.3009 25.4245 24.5259 25.2029C24.751 24.9756 24.8635 24.6546 24.8635 24.2398C24.8635 23.825 24.751 23.4926 24.5259 23.2426C24.3009 22.9926 23.9605 22.8676 23.5048 22.8676C23.4542 22.8676 23.3754 22.8704 23.2685 22.8761C23.1673 22.8818 23.1082 22.9045 23.0913 22.9443C23.0688 22.9954 23.0547 23.0835 23.0491 23.2085C23.0491 23.3278 23.0491 23.45 23.0491 23.575V27.1206C23.0491 27.2456 23.0491 27.3621 23.0491 27.47C23.0547 27.578 23.0688 27.6661 23.0913 27.7343C23.1026 27.7627 23.1476 27.7882 23.2263 27.811C23.3051 27.8337 23.3867 27.8507 23.4711 27.8621C23.5611 27.8678 23.623 27.8706 23.6567 27.8706C23.6736 27.8934 23.682 27.9331 23.682 27.99C23.6877 28.0468 23.6792 28.0866 23.6567 28.1093C23.4879 28.0979 23.3248 28.0894 23.1673 28.0837C23.0154 28.0724 22.8578 28.0667 22.6947 28.0667C22.5371 28.0667 22.3768 28.0724 22.2137 28.0837C22.0561 28.0894 21.893 28.0979 21.7242 28.1093C21.7017 28.0866 21.6904 28.0468 21.6904 27.99C21.6961 27.9331 21.7073 27.8934 21.7242 27.8706C21.7579 27.8706 21.817 27.8678 21.9014 27.8621C21.9914 27.8507 22.0758 27.8337 22.1546 27.811C22.239 27.7882 22.284 27.7627 22.2896 27.7343C22.3121 27.6661 22.3234 27.578 22.3234 27.47C22.329 27.3621 22.3318 27.2456 22.3318 27.1206V23.5665C22.3318 23.4414 22.329 23.325 22.3234 23.217C22.3234 23.1034 22.3121 23.0125 22.2896 22.9443C22.284 22.9102 22.239 22.8846 22.1546 22.8676C22.0758 22.8505 21.9914 22.8391 21.9014 22.8335C21.817 22.8221 21.7579 22.8164 21.7242 22.8164C21.7073 22.7937 21.6961 22.7539 21.6904 22.6971C21.6904 22.6403 21.7017 22.6005 21.7242 22.5778C21.893 22.5835 22.0561 22.592 22.2137 22.6033C22.3768 22.609 22.5371 22.6119 22.6947 22.6119C22.8578 22.6119 23.0322 22.609 23.2179 22.6033C23.4092 22.5977 23.6258 22.5948 23.8677 22.5948C24.1603 22.5948 24.4387 22.6545 24.7032 22.7738C24.9732 22.8874 25.1926 23.0551 25.3614 23.2767C25.5358 23.4983 25.623 23.771 25.623 24.0949Z" fill="black"/>
<path d="M36.2754 22.5948C36.4611 22.5948 36.6523 22.6261 36.8493 22.6886C37.0462 22.7511 37.2262 22.842 37.3893 22.9613C37.5581 23.0806 37.6932 23.2312 37.7944 23.413C37.8957 23.5892 37.9463 23.7966 37.9463 24.0352C37.9463 24.2341 37.8901 24.4273 37.7775 24.6148C37.6706 24.8023 37.53 24.9671 37.3556 25.1091C37.1868 25.2512 37.0096 25.3535 36.8239 25.416C36.9702 25.6603 37.1109 25.8847 37.2459 26.0893C37.3809 26.2939 37.5216 26.4984 37.6678 26.703C37.8141 26.9018 37.9773 27.1234 38.1573 27.3678C38.2754 27.5269 38.402 27.6462 38.5371 27.7257C38.6777 27.8053 38.8606 27.8536 39.0856 27.8706C39.1081 27.8934 39.1137 27.936 39.1025 27.9985C39.0912 28.061 39.0828 28.0979 39.0772 28.1093C38.8015 28.1093 38.5708 28.1008 38.3852 28.0837C38.2051 28.061 38.0729 28.0354 37.9885 28.007C37.9323 27.9843 37.8535 27.9502 37.7522 27.9047C37.651 27.8536 37.5525 27.7655 37.4569 27.6405C37.4231 27.5951 37.3612 27.507 37.2712 27.3763C37.1812 27.2456 37.0743 27.0865 36.9505 26.899C36.8267 26.7115 36.6945 26.5126 36.5539 26.3024C36.4132 26.0865 36.2782 25.8762 36.1488 25.6717C36.1038 25.6035 36.0194 25.5694 35.8956 25.5694H35.4652V27.1206C35.4652 27.1376 35.4652 27.1547 35.4652 27.1717C35.4652 27.1888 35.4652 27.2058 35.4652 27.2229C35.4652 27.3308 35.4652 27.4303 35.4652 27.5212C35.4709 27.6064 35.4821 27.6774 35.499 27.7343C35.5103 27.7627 35.5553 27.7882 35.634 27.811C35.7128 27.8337 35.7972 27.8507 35.8872 27.8621C35.9772 27.8678 36.0391 27.8706 36.0729 27.8706C36.0897 27.8934 36.0982 27.9331 36.0982 27.99C36.1038 28.0468 36.0954 28.0866 36.0729 28.1093C35.9041 28.0979 35.7409 28.0894 35.5834 28.0837C35.4315 28.0724 35.274 28.0667 35.1108 28.0667C34.9533 28.0667 34.7929 28.0724 34.6298 28.0837C34.4666 28.0894 34.3007 28.0979 34.1319 28.1093C34.1094 28.0866 34.0981 28.0468 34.0981 27.99C34.1037 27.9331 34.115 27.8934 34.1319 27.8706C34.1656 27.8706 34.2275 27.8678 34.3175 27.8621C34.4076 27.8507 34.4919 27.8337 34.5707 27.811C34.6551 27.7882 34.7001 27.7627 34.7057 27.7343C34.7282 27.6661 34.7395 27.578 34.7395 27.47C34.7451 27.3621 34.7479 27.2456 34.7479 27.1206L34.7395 23.5665C34.7395 23.4414 34.7367 23.325 34.7311 23.217C34.7311 23.1034 34.7198 23.0125 34.6973 22.9443C34.6917 22.9102 34.6467 22.8846 34.5623 22.8676C34.4835 22.8505 34.3991 22.8391 34.3091 22.8335C34.2247 22.8221 34.1656 22.8164 34.1319 22.8164C34.115 22.7937 34.1037 22.7539 34.0981 22.6971C34.0981 22.6403 34.1094 22.6005 34.1319 22.5778C34.3007 22.5835 34.4638 22.592 34.6213 22.6033C34.7845 22.609 34.9448 22.6119 35.1024 22.6119C35.2655 22.6119 35.4399 22.609 35.6256 22.6033C35.8169 22.5977 36.0335 22.5948 36.2754 22.5948ZM37.1784 24.1119C37.1784 23.7483 37.0799 23.45 36.883 23.217C36.6917 22.984 36.3682 22.8676 35.9125 22.8676C35.8619 22.8676 35.7831 22.8704 35.6762 22.8761C35.575 22.8818 35.5159 22.9045 35.499 22.9443C35.4765 22.9954 35.4624 23.0835 35.4568 23.2085C35.4568 23.3278 35.4568 23.45 35.4568 23.575L35.4652 25.3137H35.9041C36.1179 25.3137 36.3204 25.2654 36.5117 25.1688C36.7086 25.0665 36.8689 24.9273 36.9927 24.7512C37.1165 24.5693 37.1784 24.3563 37.1784 24.1119Z" fill="black"/>
<path d="M49.7593 22.5352C50.125 22.5352 50.4681 22.6033 50.7888 22.7397C51.1151 22.8761 51.4021 23.0721 51.6496 23.3278C51.8972 23.5778 52.0913 23.8761 52.2319 24.2227C52.3782 24.5637 52.4513 24.9415 52.4513 25.3563C52.4513 25.7484 52.3782 26.1149 52.2319 26.4558C52.0913 26.791 51.8972 27.0893 51.6496 27.3507C51.4021 27.6064 51.1151 27.8081 50.7888 27.9559C50.4681 28.0979 50.125 28.1689 49.7593 28.1689C49.3992 28.1689 49.056 28.1008 48.7297 27.9644C48.409 27.828 48.1249 27.6348 47.8774 27.3848C47.6354 27.1291 47.4442 26.8308 47.3035 26.4899C47.1629 26.1433 47.0925 25.7654 47.0925 25.3563C47.0925 24.9642 47.1629 24.5978 47.3035 24.2568C47.4442 23.9159 47.6354 23.6176 47.8774 23.3619C48.1249 23.1005 48.409 22.8988 48.7297 22.7568C49.056 22.609 49.3992 22.5352 49.7593 22.5352ZM49.6411 22.8164C49.3317 22.8164 49.0673 22.8874 48.8478 23.0295C48.6284 23.1659 48.4484 23.3477 48.3077 23.575C48.1727 23.8023 48.0715 24.0551 48.0039 24.3335C47.9421 24.612 47.9111 24.8904 47.9111 25.1688C47.9111 25.4927 47.9533 25.8166 48.0377 26.1404C48.1277 26.4586 48.2571 26.7513 48.4259 27.0183C48.5947 27.2797 48.8 27.4899 49.0419 27.649C49.2895 27.8081 49.5736 27.8877 49.8943 27.8877C50.2037 27.8877 50.4681 27.8195 50.6876 27.6831C50.907 27.5411 51.087 27.3536 51.2277 27.1206C51.3683 26.8876 51.4696 26.6319 51.5315 26.3535C51.599 26.0694 51.6327 25.7882 51.6327 25.5097C51.6327 25.1859 51.5877 24.8648 51.4977 24.5466C51.4133 24.2284 51.2839 23.9386 51.1095 23.6773C50.9407 23.4159 50.7326 23.2085 50.485 23.0551C50.2431 22.896 49.9618 22.8164 49.6411 22.8164Z" fill="black"/>
<path d="M63.2253 22.5948C63.4109 22.5948 63.6022 22.6175 63.7991 22.663C63.996 22.7028 64.1761 22.771 64.3392 22.8676C64.5024 22.9585 64.6346 23.0835 64.7359 23.2426C64.8371 23.4017 64.8878 23.6005 64.8878 23.8392C64.8878 24.0494 64.8371 24.2398 64.7359 24.4102C64.6402 24.5807 64.5249 24.7199 64.3899 24.8279C64.2605 24.9358 64.1479 25.0097 64.0523 25.0495C64.0354 25.0608 64.0354 25.0722 64.0523 25.0836C64.1536 25.0893 64.2717 25.1233 64.4067 25.1859C64.5418 25.2484 64.674 25.3393 64.8034 25.4586C64.9384 25.5722 65.0481 25.7114 65.1325 25.8762C65.2169 26.041 65.2591 26.2257 65.2591 26.4302C65.2591 26.6689 65.2169 26.8905 65.1325 27.095C65.0537 27.2996 64.9131 27.4871 64.7105 27.6576C64.5136 27.8223 64.2548 27.9388 63.9341 28.007C63.6135 28.0695 63.2956 28.1036 62.9805 28.1093H61.0817C61.0592 28.0866 61.048 28.0468 61.048 27.99C61.0536 27.9331 61.0649 27.8934 61.0817 27.8706C61.1155 27.8706 61.1774 27.8678 61.2674 27.8621C61.3574 27.8507 61.4418 27.8337 61.5206 27.811C61.605 27.7882 61.65 27.7627 61.6556 27.7343C61.6781 27.6661 61.6894 27.578 61.6894 27.47C61.695 27.3621 61.6978 27.2456 61.6978 27.1206V23.5665C61.6978 23.4414 61.695 23.325 61.6894 23.217C61.6894 23.1034 61.6781 23.0125 61.6556 22.9443C61.65 22.9102 61.605 22.8846 61.5206 22.8676C61.4418 22.8505 61.3574 22.8391 61.2674 22.8335C61.1774 22.8221 61.1155 22.8164 61.0817 22.8164C61.0649 22.7937 61.0536 22.7539 61.048 22.6971C61.048 22.6403 61.0592 22.6005 61.0817 22.5778C61.2505 22.5835 61.4165 22.592 61.5797 22.6033C61.7428 22.609 61.9032 22.6119 62.0607 22.6119C62.2238 22.6119 62.3982 22.609 62.5839 22.6033C62.7696 22.5977 62.9833 22.5948 63.2253 22.5948ZM62.4151 25.3222V27.1291C62.4151 27.1689 62.4151 27.2314 62.4151 27.3166C62.4207 27.3962 62.4292 27.4729 62.4404 27.5468C62.4517 27.6206 62.4658 27.6689 62.4826 27.6917C62.5445 27.7598 62.6289 27.8025 62.7358 27.8195C62.8483 27.8365 62.9805 27.8451 63.1324 27.8451C63.3406 27.8451 63.5431 27.8138 63.74 27.7513C63.9426 27.6888 64.1114 27.5695 64.2464 27.3933C64.3814 27.2115 64.4489 26.953 64.4489 26.6177C64.4489 26.4075 64.4095 26.2058 64.3308 26.0126C64.252 25.8137 64.1001 25.6489 63.8751 25.5183C63.6557 25.3876 63.335 25.3222 62.913 25.3222H62.4151ZM62.4151 25.0069H63.0987C63.3462 25.0069 63.5459 24.9586 63.6979 24.862C63.8498 24.7654 63.9595 24.6432 64.027 24.4955C64.1001 24.3421 64.1367 24.1858 64.1367 24.0267C64.1367 23.6574 64.0185 23.3733 63.7822 23.1744C63.5516 22.9698 63.245 22.8676 62.8624 22.8676C62.8118 22.8676 62.733 22.8704 62.6261 22.8761C62.5248 22.8818 62.4658 22.9045 62.4489 22.9443C62.432 22.9897 62.4207 23.0607 62.4151 23.1573C62.4151 23.2539 62.4151 23.3562 62.4151 23.4642C62.4151 23.4869 62.4151 23.5068 62.4151 23.5238C62.4151 23.5409 62.4151 23.5579 62.4151 23.575V25.0069Z" fill="black"/>
<path d="M75.2101 27.1206C75.2101 27.132 75.2101 27.149 75.2101 27.1717C75.2101 27.2229 75.2101 27.2911 75.2101 27.3763C75.2101 27.4558 75.213 27.5297 75.2186 27.5979C75.2242 27.6661 75.2355 27.7059 75.2523 27.7172C75.3086 27.757 75.3761 27.7826 75.4549 27.7939C75.5393 27.7996 75.6687 27.8025 75.8431 27.8025H76.3072C76.4648 27.8025 76.6363 27.7854 76.822 27.7513C77.0133 27.7115 77.1652 27.6519 77.2777 27.5723C77.379 27.4985 77.4718 27.3962 77.5562 27.2655C77.6462 27.1348 77.725 26.9587 77.7925 26.7371C77.8037 26.703 77.8431 26.6859 77.9106 26.6859C78.0119 26.6859 78.0794 26.703 78.1132 26.7371C78.0344 26.9643 77.9472 27.2058 77.8516 27.4615C77.7616 27.7172 77.7025 27.936 77.6743 28.1178C77.2299 28.1178 76.7883 28.1121 76.3494 28.1008C75.9106 28.0894 75.4155 28.0837 74.8641 28.0837C74.6729 28.0837 74.5013 28.0866 74.3494 28.0922C74.1975 28.1036 74.0399 28.1093 73.8768 28.1093C73.8543 28.0866 73.843 28.0468 73.843 27.99C73.8487 27.9331 73.8599 27.8934 73.8768 27.8706C73.9105 27.8706 73.9724 27.8678 74.0624 27.8621C74.1525 27.8507 74.2368 27.8337 74.3156 27.811C74.4 27.7882 74.445 27.7627 74.4506 27.7343C74.4731 27.6661 74.4844 27.578 74.4844 27.47C74.49 27.3621 74.4928 27.2456 74.4928 27.1206V23.5665C74.4928 23.4414 74.49 23.325 74.4844 23.217C74.4844 23.1034 74.4731 23.0125 74.4506 22.9443C74.445 22.9102 74.4 22.8846 74.3156 22.8676C74.2368 22.8505 74.1525 22.8391 74.0624 22.8335C73.9724 22.8221 73.9105 22.8164 73.8768 22.8164C73.8599 22.7937 73.8487 22.7539 73.843 22.6971C73.843 22.6403 73.8543 22.6005 73.8768 22.5778C74.0456 22.5835 74.2115 22.592 74.3747 22.6033C74.5378 22.609 74.6982 22.6119 74.8557 22.6119C75.0189 22.6119 75.1764 22.609 75.3283 22.6033C75.4858 22.592 75.649 22.5835 75.8178 22.5778C75.8403 22.6005 75.8487 22.6403 75.8431 22.6971C75.8431 22.7539 75.8346 22.7937 75.8178 22.8164C75.784 22.8164 75.7221 22.8221 75.6321 22.8335C75.5421 22.8391 75.4577 22.8505 75.3789 22.8676C75.3002 22.8846 75.2552 22.9102 75.2439 22.9443C75.227 23.0011 75.2158 23.075 75.2101 23.1659C75.2101 23.2568 75.2101 23.3562 75.2101 23.4642C75.2101 23.4812 75.2101 23.4983 75.2101 23.5153C75.2101 23.5324 75.2101 23.5494 75.2101 23.5665V27.1206Z" fill="black"/>
<path d="M87.4282 22.6119C87.8164 22.6119 88.244 22.6033 88.711 22.5863C89.1779 22.5692 89.6336 22.5607 90.0781 22.5607C90.1062 22.771 90.1428 22.9642 90.1878 23.1403C90.2328 23.3164 90.275 23.4983 90.3144 23.6858C90.2862 23.7142 90.2384 23.7284 90.1709 23.7284C90.0978 23.7284 90.0584 23.7085 90.0528 23.6687C89.9628 23.3335 89.8362 23.1204 89.673 23.0295C89.5099 22.9386 89.3186 22.8931 89.0992 22.8931H88.3903C88.3565 22.8931 88.2946 22.896 88.2046 22.9017C88.1146 22.9017 88.0302 22.9073 87.9514 22.9187C87.8727 22.9301 87.8277 22.9499 87.8164 22.9784C87.7995 23.0352 87.7883 23.109 87.7827 23.2C87.7827 23.2909 87.7827 23.3846 87.7827 23.4812C87.7827 23.521 87.7827 23.5522 87.7827 23.575V25.1262C87.7827 25.1489 87.8192 25.1631 87.8924 25.1688C87.9655 25.1745 88.0471 25.1773 88.1371 25.1773H88.5675C88.7644 25.1773 88.9163 25.1716 89.0232 25.1603C89.1357 25.1489 89.2173 25.1233 89.2679 25.0836C89.3186 25.0438 89.358 24.9841 89.3861 24.9046C89.4142 24.825 89.4452 24.7171 89.4789 24.5807C89.4845 24.5409 89.5239 24.521 89.5971 24.521C89.6646 24.521 89.7124 24.5353 89.7405 24.5637V26.1319C89.718 26.1546 89.673 26.166 89.6055 26.166C89.538 26.166 89.4958 26.1461 89.4789 26.1063C89.4395 25.9472 89.4058 25.8336 89.3776 25.7654C89.3551 25.6916 89.3326 25.6433 89.3101 25.6205C89.2933 25.5921 89.2708 25.5694 89.2426 25.5523C89.2145 25.5296 89.1498 25.5154 89.0485 25.5097C88.9473 25.4984 88.8347 25.4927 88.711 25.4927C88.5928 25.487 88.4803 25.4842 88.3734 25.4842C88.3003 25.4842 88.2159 25.487 88.1202 25.4927C88.0302 25.4927 87.9514 25.4984 87.8839 25.5097C87.8164 25.5154 87.7827 25.5325 87.7827 25.5609V27.1462C87.7827 27.1575 87.7827 27.1746 87.7827 27.1973C87.7827 27.2769 87.7827 27.3791 87.7827 27.5041C87.7883 27.6291 87.8024 27.7002 87.8249 27.7172C87.8811 27.757 87.9486 27.7826 88.0274 27.7939C88.1118 27.7996 88.2412 27.8025 88.4156 27.8025H88.8122C89.0091 27.8025 89.2032 27.7826 89.3945 27.7428C89.5858 27.703 89.7377 27.6462 89.8502 27.5723C89.9796 27.4928 90.0809 27.3791 90.154 27.2314C90.2272 27.078 90.2975 26.9132 90.365 26.7371C90.3763 26.703 90.4156 26.6859 90.4832 26.6859C90.5844 26.6859 90.6519 26.703 90.6857 26.7371C90.6069 26.9643 90.5197 27.2058 90.4241 27.4615C90.3341 27.7172 90.275 27.936 90.2469 28.1178C89.8024 28.1178 89.3608 28.1121 88.9219 28.1008C88.4831 28.0894 87.988 28.0837 87.4367 28.0837C87.2454 28.0837 87.0738 28.0866 86.9219 28.0922C86.77 28.1036 86.6125 28.1093 86.4493 28.1093C86.4268 28.0866 86.4155 28.0468 86.4155 27.99C86.4212 27.9331 86.4324 27.8934 86.4493 27.8706C86.4831 27.8706 86.5449 27.8678 86.635 27.8621C86.725 27.8507 86.8094 27.8337 86.8881 27.811C86.9725 27.7882 87.0175 27.7627 87.0232 27.7343C87.0457 27.6661 87.0569 27.578 87.0569 27.47C87.0625 27.3621 87.0653 27.2456 87.0653 27.1206V23.5665C87.0653 23.4414 87.0625 23.325 87.0569 23.217C87.0569 23.1034 87.0457 23.0125 87.0232 22.9443C87.0175 22.9102 86.9725 22.8846 86.8881 22.8676C86.8094 22.8505 86.725 22.8391 86.635 22.8335C86.5449 22.8221 86.4831 22.8164 86.4493 22.8164C86.4324 22.7937 86.4212 22.7539 86.4155 22.6971C86.4155 22.6403 86.4268 22.6005 86.4493 22.5778C86.6181 22.5835 86.784 22.592 86.9472 22.6033C87.1104 22.609 87.2707 22.6119 87.4282 22.6119Z" fill="black"/>
<path d="M100.19 22.6119C100.331 22.6119 100.455 22.609 100.561 22.6033C100.668 22.592 100.767 22.5835 100.857 22.5778C100.891 22.6857 100.952 22.8534 101.042 23.0806C101.138 23.3079 101.248 23.5778 101.372 23.8903C101.501 24.1972 101.639 24.5239 101.785 24.8705C101.931 25.2171 102.075 25.5637 102.215 25.9103C102.356 26.2512 102.486 26.5694 102.604 26.8649C102.609 26.8763 102.621 26.882 102.637 26.882C102.654 26.882 102.666 26.8706 102.671 26.8479C102.834 26.4274 102.981 26.0495 103.11 25.7143C103.239 25.3734 103.369 25.0353 103.498 24.7C103.633 24.3591 103.779 23.9841 103.937 23.575C103.988 23.4443 104.041 23.3022 104.097 23.1488C104.154 22.9954 104.201 22.8619 104.241 22.7482C104.28 22.6346 104.3 22.5778 104.3 22.5778C104.564 22.5948 104.781 22.6033 104.95 22.6033C105.096 22.6033 105.259 22.6005 105.439 22.5948C105.625 22.5891 105.768 22.5835 105.87 22.5778C105.875 22.5891 105.881 22.6318 105.886 22.7056C105.892 22.7795 105.895 22.8164 105.895 22.8164C105.855 22.8164 105.791 22.8221 105.701 22.8335C105.616 22.8448 105.535 22.8619 105.456 22.8846C105.377 22.9073 105.329 22.9329 105.313 22.9613C105.296 23.0011 105.284 23.0522 105.279 23.1147C105.273 23.1772 105.27 23.2341 105.27 23.2852C105.276 23.4272 105.282 23.6432 105.287 23.9329C105.293 24.2227 105.299 24.5495 105.304 24.9131C105.315 25.2711 105.324 25.6262 105.329 25.9785C105.341 26.3308 105.349 26.6433 105.355 26.916C105.36 27.0751 105.369 27.2257 105.38 27.3678C105.391 27.5098 105.417 27.6291 105.456 27.7257C105.473 27.7655 105.524 27.7968 105.608 27.8195C105.692 27.8365 105.777 27.8507 105.861 27.8621C105.951 27.8678 106.007 27.8706 106.03 27.8706C106.052 27.9104 106.061 27.9587 106.055 28.0155C106.055 28.0667 106.052 28.0979 106.047 28.1093C105.884 28.0979 105.723 28.0894 105.566 28.0837C105.414 28.0724 105.248 28.0667 105.068 28.0667C104.877 28.0667 104.711 28.0724 104.57 28.0837C104.429 28.0894 104.263 28.0979 104.072 28.1093C104.066 28.0979 104.061 28.0638 104.055 28.007C104.05 27.9502 104.055 27.9047 104.072 27.8706C104.106 27.8706 104.159 27.8678 104.232 27.8621C104.306 27.8507 104.379 27.8394 104.452 27.828C104.525 27.811 104.578 27.7939 104.612 27.7769C104.64 27.7598 104.66 27.7115 104.671 27.632C104.682 27.5524 104.688 27.4843 104.688 27.4274C104.688 27.3649 104.685 27.2854 104.68 27.1888C104.674 27.0865 104.671 27.0041 104.671 26.9416C104.66 26.5382 104.649 26.1518 104.637 25.7825C104.626 25.4075 104.615 25.0268 104.604 24.6404C104.592 24.2483 104.578 23.8278 104.562 23.3789C104.562 23.3619 104.556 23.3306 104.545 23.2852C104.533 23.2397 104.514 23.217 104.486 23.217C104.474 23.217 104.46 23.2369 104.443 23.2767C104.275 23.7028 104.117 24.0977 103.971 24.4614C103.83 24.825 103.692 25.1773 103.557 25.5183C103.422 25.8535 103.284 26.1973 103.144 26.5496C103.009 26.8962 102.862 27.2712 102.705 27.6746C102.694 27.6973 102.668 27.7428 102.629 27.811C102.59 27.8792 102.547 27.9445 102.502 28.007C102.463 28.0638 102.426 28.0951 102.393 28.1008C102.381 28.1064 102.362 28.1036 102.334 28.0922C102.328 28.0866 102.322 28.0837 102.317 28.0837L100.308 23.2255C100.303 23.5892 100.294 23.9642 100.283 24.3506C100.272 24.737 100.26 25.112 100.249 25.4756C100.244 25.8393 100.235 26.1689 100.224 26.4643C100.218 26.7541 100.213 26.9899 100.207 27.1717C100.201 27.3479 100.199 27.4445 100.199 27.4615C100.199 27.5013 100.201 27.5468 100.207 27.5979C100.213 27.6434 100.221 27.6831 100.232 27.7172C100.249 27.757 100.305 27.7882 100.401 27.811C100.502 27.8337 100.604 27.8507 100.705 27.8621C100.806 27.8678 100.868 27.8706 100.891 27.8706C100.913 27.8934 100.921 27.936 100.916 27.9985C100.91 28.061 100.905 28.0979 100.899 28.1093C100.736 28.0979 100.595 28.0894 100.477 28.0837C100.359 28.0724 100.21 28.0667 100.03 28.0667C99.8385 28.0667 99.6781 28.0724 99.5487 28.0837C99.4193 28.0894 99.259 28.0979 99.0677 28.1093C99.0621 28.0979 99.0565 28.0638 99.0508 28.007C99.0452 27.9502 99.0508 27.9047 99.0677 27.8706C99.1015 27.8706 99.1662 27.865 99.2618 27.8536C99.3631 27.8422 99.4615 27.8252 99.5572 27.8025C99.6528 27.7797 99.7119 27.7513 99.7344 27.7172C99.7738 27.6604 99.7991 27.6007 99.8103 27.5382C99.8216 27.47 99.83 27.3905 99.8357 27.2996C99.8525 26.7996 99.8666 26.3194 99.8779 25.8592C99.8947 25.3989 99.906 24.987 99.9116 24.6233C99.9229 24.254 99.9313 23.9557 99.9369 23.7284C99.9425 23.4954 99.9454 23.3591 99.9454 23.3193C99.9454 23.2568 99.9425 23.1971 99.9369 23.1403C99.9369 23.0835 99.9285 23.0323 99.9116 22.9869C99.9004 22.9528 99.8525 22.9244 99.7681 22.9017C99.6894 22.8732 99.605 22.8534 99.515 22.842C99.4306 22.8249 99.3715 22.8164 99.3378 22.8164C99.3321 22.8164 99.3293 22.7795 99.3293 22.7056C99.3293 22.6261 99.3321 22.5835 99.3378 22.5778C99.4671 22.5835 99.5712 22.5891 99.65 22.5948C99.7288 22.6005 99.8075 22.6062 99.8863 22.6119C99.9651 22.6119 100.066 22.6119 100.19 22.6119Z" fill="black"/>
<path d="M116.4 22.5437C116.574 22.5437 116.717 22.555 116.83 22.5778C116.948 22.5948 117.066 22.6204 117.184 22.6545C117.308 22.6886 117.46 22.7283 117.64 22.7738C117.674 22.9897 117.699 23.2142 117.716 23.4471C117.739 23.6744 117.753 23.8449 117.758 23.9585C117.764 23.9869 117.744 24.0097 117.699 24.0267C117.654 24.0381 117.618 24.0438 117.589 24.0438C117.55 24.0438 117.519 24.0324 117.497 24.0097C117.485 23.9074 117.452 23.7881 117.395 23.6517C117.339 23.5153 117.26 23.3846 117.159 23.2596C117.063 23.1346 116.945 23.0323 116.805 22.9528C116.67 22.8676 116.515 22.8249 116.34 22.8249C116.115 22.8249 115.938 22.8732 115.809 22.9698C115.679 23.0664 115.587 23.1858 115.53 23.3278C115.474 23.4699 115.446 23.6091 115.446 23.7454C115.446 23.967 115.502 24.1517 115.615 24.2994C115.733 24.4472 115.879 24.5779 116.054 24.6915C116.234 24.8052 116.414 24.9216 116.594 25.041C116.729 25.1262 116.878 25.2199 117.041 25.3222C117.204 25.4245 117.362 25.5381 117.513 25.6631C117.665 25.7882 117.789 25.933 117.885 26.0978C117.98 26.2569 118.028 26.4388 118.028 26.6433C118.028 26.9445 117.944 27.2115 117.775 27.4445C117.612 27.6718 117.398 27.8507 117.134 27.9814C116.875 28.1064 116.599 28.1689 116.307 28.1689C116.031 28.1689 115.764 28.1377 115.505 28.0752C115.252 28.0127 115.024 27.9616 114.821 27.9218C114.788 27.757 114.757 27.5809 114.729 27.3933C114.706 27.2058 114.686 27.0411 114.67 26.899C114.658 26.7569 114.653 26.6689 114.653 26.6348C114.681 26.6064 114.712 26.5836 114.745 26.5666C114.785 26.5439 114.824 26.5325 114.864 26.5325C114.914 26.5325 114.945 26.5581 114.956 26.6092C114.973 26.6888 115.007 26.7996 115.058 26.9416C115.114 27.078 115.193 27.22 115.294 27.3678C115.401 27.5155 115.536 27.6405 115.699 27.7428C115.868 27.8394 116.076 27.8877 116.324 27.8877C116.588 27.8877 116.819 27.7996 117.016 27.6235C117.212 27.4416 117.311 27.1888 117.311 26.8649C117.311 26.6319 117.257 26.4501 117.151 26.3194C117.049 26.1887 116.914 26.0751 116.746 25.9785C116.582 25.8819 116.405 25.7796 116.214 25.6717C116.006 25.5467 115.789 25.4103 115.564 25.2626C115.345 25.1091 115.159 24.9302 115.007 24.7256C114.855 24.521 114.779 24.2796 114.779 24.0011C114.779 23.7057 114.855 23.45 115.007 23.2341C115.165 23.0125 115.367 22.842 115.615 22.7227C115.862 22.6033 116.124 22.5437 116.4 22.5437Z" fill="black"/>
</svg>
