<svg width="46" height="14" viewBox="0 0 46 14" fill="none" xmlns="http://www.w3.org/2000/svg">
<path fill-rule="evenodd" clip-rule="evenodd" d="M8.97122 11.0457C7.55629 12.0459 5.60414 13.2291 3.8257 13.2291C2.01169 13.2291 0.712646 12.004 0.712646 10.1744C0.712646 9.1805 1.10175 8.21581 1.53919 7.34091C2.38825 5.64279 3.63281 4.11837 5.09609 2.90938C6.22808 1.97667 7.58827 1.26268 9.01624 0.915534C9.4048 0.821059 9.80311 0.772547 10.203 0.770996C10.7144 0.770996 11.261 0.838533 11.7146 1.08923L12.3705 1.44636C12.4959 1.51722 12.6471 1.53001 12.7855 1.53001C13.2743 1.53001 13.6893 1.24707 14.0653 0.970278L14.2262 1.13758C13.3419 1.73569 12.9528 2.37574 12.5893 3.36627L12.4286 3.26011C12.4928 3.04138 12.5445 2.82291 12.5445 2.59114C12.5445 1.45915 11.1296 0.931649 10.171 0.931649C9.45702 0.931649 8.73024 1.15037 8.09351 1.46247C5.78449 2.59447 3.94491 4.63334 2.83542 6.93595C2.30486 8.03265 1.89964 9.27387 1.89964 10.5059C1.89964 11.9753 2.70675 12.9561 4.20865 12.9561C5.83591 12.9561 7.71413 11.7085 9.03594 10.8241C9.24827 10.3481 9.48311 9.9014 9.80135 9.4862C10.7885 8.19023 12.3902 6.83951 14.1109 6.83951C15.0177 6.83951 15.4357 7.27363 15.4616 8.1516L16.0372 7.14828H17.1208L14.5931 11.5862C14.4805 11.7827 14.368 12.0139 14.368 12.2457C14.368 12.5125 14.6317 12.6668 14.8729 12.6668C15.4999 12.6668 16.1947 12.1101 16.6578 11.7469C17.8573 10.8142 18.9476 9.7433 19.6775 8.39565L20.3559 7.14777H21.5007L21.1888 7.7075C21.758 7.36649 22.4045 7.08356 23.0798 7.08356C23.4528 7.08356 23.8291 7.25726 23.8291 7.67527C23.8291 7.97125 23.6682 8.22528 23.4528 8.4087C23.4948 8.43761 23.5362 8.45679 23.5876 8.45679C23.7805 8.45679 23.9767 8.32198 24.1343 8.22553C25.1092 7.6241 25.99 6.7753 26.572 5.78784L27.3635 4.43712H28.4344L27.0678 6.82007H28.6562L28.5697 7.026H26.9903L24.3402 11.6187C24.2407 11.7955 24.1343 12.0014 24.1343 12.2068C24.1343 12.4706 24.4531 12.59 24.6749 12.59C25.1734 12.59 25.6073 12.2813 25.9964 11.9981C26.714 11.4806 27.3699 10.8599 27.9969 10.2357C28.45 9.78551 28.8907 9.31583 29.264 8.79831C29.4633 8.52151 29.6403 8.23218 29.8171 7.9426L30.3026 7.14828H31.3604L28.7398 11.7441C28.6464 11.908 28.5853 12.0943 28.5853 12.2841C28.5853 12.4864 28.7426 12.6732 28.9516 12.6732C29.5756 12.6732 30.2673 12.149 30.7267 11.7499L32.6308 10.094C33.6825 8.8684 35.3998 6.91651 37.146 6.91651C37.7085 6.91651 38.3522 7.20942 38.3522 7.84922C38.3522 8.33144 38.0303 8.78808 37.7185 9.12294C37.0301 9.85944 36.0007 10.3066 35.046 10.567C34.5632 10.699 34.0841 10.7279 33.5855 10.731C33.4315 11.0817 33.2737 11.4419 33.2737 11.8341C33.2737 12.3836 33.7528 12.828 34.2964 12.828C35.6021 12.828 37.5092 11.4803 38.4545 10.7215C39.2547 10.0705 39.9942 9.34814 40.664 8.56347C40.9183 8.26416 41.1981 7.94925 41.391 7.60185L41.6453 7.14854H42.7126L41.9346 8.62154C42.7707 7.86253 43.7903 7.0874 44.9771 7.0874C45.3662 7.0874 45.6716 7.32863 45.6716 7.7272C45.6716 8.09711 45.3467 8.52791 44.9546 8.52791C44.7486 8.52791 44.5394 8.33144 44.5394 8.12269C44.5394 7.79166 44.8937 7.55017 45.1989 7.55017C45.2598 7.55017 45.3214 7.55657 45.3787 7.56296C45.2792 7.35729 45.1313 7.26059 44.8901 7.26059C44.337 7.26059 43.7804 7.53073 43.3173 7.80727C42.269 8.43121 41.4652 9.38311 40.8576 10.4284L39.3332 13.0431H38.2365L40.7093 8.77554C40.1692 9.41202 39.6031 10.0101 38.9666 10.5473C38.2527 11.149 37.4936 11.7021 36.6927 12.1812C35.8692 12.6734 34.9398 13.1201 33.9562 13.1201C33.0138 13.1201 32.1419 12.59 32.1419 11.5701C32.1419 11.2677 32.2159 10.9751 32.2867 10.6827C31.3059 11.5895 29.8749 13.0459 28.4599 13.0459C27.9258 13.0459 27.4886 12.8566 27.4886 12.281C27.4886 11.8919 27.746 11.5476 27.9322 11.2227L28.8135 9.67576C27.9516 10.621 27.0384 11.5315 25.9931 12.271C25.4175 12.6798 24.7455 13.0559 24.0215 13.0559C23.5618 13.0559 23.0729 12.7855 23.0729 12.268C23.0729 11.8367 23.3561 11.422 23.5621 11.0618L25.7969 7.13831C25.3954 7.51623 24.9769 7.87577 24.5429 8.21581C24.1665 8.50872 23.723 8.85229 23.221 8.85229C22.9156 8.85229 22.6485 8.66247 22.6485 8.33119C22.6485 8.00016 22.9412 7.73641 23.2661 7.73641C23.3592 7.73641 23.4367 7.76532 23.517 7.81034C23.5395 7.7492 23.5621 7.68166 23.5621 7.61413C23.5621 7.38901 23.2789 7.25061 23.0893 7.25061C22.536 7.25061 21.9476 7.52075 21.4846 7.80036C21.0182 8.08355 20.7191 8.53661 20.4523 9.00347L18.1303 13.0426H17.0047L18.6578 10.1547C17.545 11.3319 15.744 13.081 14.0556 13.081C13.6023 13.081 13.181 12.8561 13.181 12.3606C13.181 12.0523 13.2999 11.7661 13.4255 11.4893C12.6215 12.3286 11.5217 13.1904 10.3061 13.1904C9.51176 13.1904 8.82668 12.6307 8.82668 11.8108C8.82668 11.5473 8.89729 11.2933 8.97122 11.0457Z" fill="white" fill-opacity="0.6"/>
</svg>
