<svg width="143" height="19" viewBox="0 0 143 19" fill="none" xmlns="http://www.w3.org/2000/svg">
<path d="M8.461 15.48C9.181 15.48 9.789 15.416 10.285 15.288C10.781 15.16 11.197 14.992 11.533 14.784L12.253 17.4C11.933 17.592 11.413 17.784 10.693 17.976C9.989 18.168 9.117 18.264 8.077 18.264C6.893 18.264 5.805 18.08 4.813 17.712C3.821 17.344 2.973 16.824 2.269 16.152C1.565 15.464 1.013 14.64 0.613 13.68C0.229 12.704 0.0370001 11.616 0.0370001 10.416C0.0370001 9.248 0.221 8.184 0.589 7.224C0.973 6.248 1.509 5.424 2.197 4.752C2.901 4.064 3.749 3.536 4.741 3.168C5.749 2.784 6.877 2.592 8.125 2.592C9.181 2.592 10.037 2.696 10.693 2.904C11.365 3.096 11.893 3.296 12.277 3.504L11.461 6.168C11.093 5.96 10.653 5.776 10.141 5.616C9.645 5.456 9.093 5.376 8.485 5.376C7.845 5.376 7.245 5.472 6.685 5.664C6.125 5.84 5.637 6.128 5.221 6.528C4.805 6.928 4.477 7.448 4.237 8.088C3.997 8.712 3.877 9.48 3.877 10.392C3.877 11.24 3.989 11.984 4.213 12.624C4.453 13.264 4.781 13.8 5.197 14.232C5.613 14.648 6.093 14.96 6.637 15.168C7.197 15.376 7.805 15.48 8.461 15.48ZM25.2295 12.168C25.2295 13.112 25.0695 13.96 24.7495 14.712C24.4455 15.464 24.0215 16.104 23.4775 16.632C22.9335 17.16 22.2935 17.568 21.5575 17.856C20.8215 18.128 20.0295 18.264 19.1815 18.264C18.3335 18.264 17.5415 18.136 16.8055 17.88C16.0855 17.608 15.4615 17.224 14.9335 16.728C14.4055 16.232 13.9895 15.624 13.6855 14.904C13.3815 14.168 13.2295 13.336 13.2295 12.408C13.2295 11.432 13.3815 10.56 13.6855 9.792C14.0055 9.024 14.4375 8.376 14.9815 7.848C15.5255 7.32 16.1655 6.92 16.9015 6.648C17.6375 6.36 18.4295 6.216 19.2775 6.216C20.1255 6.216 20.9095 6.344 21.6295 6.6C22.3655 6.856 22.9975 7.24 23.5255 7.752C24.0535 8.248 24.4695 8.864 24.7735 9.6C25.0775 10.336 25.2295 11.192 25.2295 12.168ZM21.5815 12.288C21.5815 11.664 21.5175 11.136 21.3895 10.704C21.2615 10.256 21.0855 9.896 20.8615 9.624C20.6375 9.336 20.3815 9.128 20.0935 9C19.8055 8.872 19.5095 8.808 19.2055 8.808C18.9015 8.808 18.6055 8.864 18.3175 8.976C18.0455 9.088 17.7975 9.28 17.5735 9.552C17.3655 9.824 17.1975 10.184 17.0695 10.632C16.9415 11.064 16.8775 11.616 16.8775 12.288C16.8775 13.456 17.1175 14.312 17.5975 14.856C18.0775 15.4 18.6295 15.672 19.2535 15.672C19.5575 15.672 19.8455 15.616 20.1175 15.504C20.4055 15.376 20.6535 15.184 20.8615 14.928C21.0855 14.656 21.2615 14.304 21.3895 13.872C21.5175 13.44 21.5815 12.912 21.5815 12.288ZM27.4953 18V0.839999H30.9993V18H27.4953ZM33.9406 18V0.839999H37.4446V18H33.9406ZM40.5299 7.488C41.1859 7.104 41.9219 6.8 42.7379 6.576C43.5699 6.336 44.4179 6.216 45.2819 6.216C46.7059 6.216 47.8499 6.56 48.7139 7.248C49.5779 7.936 50.0099 9.032 50.0099 10.536V18H47.2979L46.9859 16.848H46.8899C46.5699 17.264 46.1219 17.608 45.5459 17.88C44.9859 18.136 44.3219 18.264 43.5539 18.264C42.8979 18.264 42.3219 18.168 41.8259 17.976C41.3459 17.784 40.9459 17.528 40.6259 17.208C40.3059 16.888 40.0579 16.512 39.8819 16.08C39.7219 15.632 39.6419 15.16 39.6419 14.664C39.6419 13.992 39.7859 13.416 40.0739 12.936C40.3779 12.456 40.7779 12.064 41.2739 11.76C41.7859 11.456 42.3779 11.232 43.0499 11.088C43.7379 10.944 44.4659 10.872 45.2339 10.872H46.4339V10.248C46.4339 9.816 46.2819 9.488 45.9779 9.264C45.6739 9.024 45.2419 8.904 44.6819 8.904C44.2019 8.904 43.7299 8.976 43.2659 9.12C42.8019 9.264 42.2899 9.496 41.7299 9.816L40.5299 7.488ZM46.4579 13.032L45.6659 13.056C45.2179 13.072 44.8419 13.12 44.5379 13.2C44.2339 13.28 43.9859 13.384 43.7939 13.512C43.6179 13.624 43.4899 13.768 43.4099 13.944C43.3299 14.104 43.2899 14.272 43.2899 14.448C43.2899 14.944 43.4339 15.288 43.7219 15.48C44.0259 15.656 44.3699 15.744 44.7539 15.744C45.1379 15.744 45.4819 15.632 45.7859 15.408C46.1059 15.184 46.3299 14.936 46.4579 14.664V13.032ZM64.2591 12.288C64.2591 13.216 64.1151 14.048 63.8271 14.784C63.5551 15.52 63.1711 16.152 62.6751 16.68C62.1951 17.192 61.6191 17.584 60.9471 17.856C60.2911 18.128 59.5711 18.264 58.7871 18.264C58.0351 18.264 57.3951 18.152 56.8671 17.928C56.3391 17.688 55.8911 17.36 55.5231 16.944H55.4271L55.2111 18H52.6431V0.839999H56.1711V7.272C56.5391 6.968 56.9711 6.72 57.4671 6.528C57.9631 6.32 58.5151 6.216 59.1231 6.216C60.7231 6.216 61.9791 6.752 62.8911 7.824C63.8031 8.88 64.2591 10.368 64.2591 12.288ZM60.6111 12.384C60.6111 11.216 60.3871 10.344 59.9391 9.768C59.4911 9.192 58.8591 8.904 58.0431 8.904C57.6591 8.904 57.2911 9.008 56.9391 9.216C56.6031 9.408 56.3551 9.6 56.1951 9.792V14.976C56.3711 15.184 56.6031 15.352 56.8911 15.48C57.1791 15.608 57.4831 15.672 57.8031 15.672C58.1711 15.672 58.5231 15.608 58.8591 15.48C59.1951 15.352 59.4911 15.152 59.7471 14.88C60.0191 14.608 60.2271 14.264 60.3711 13.848C60.5311 13.432 60.6111 12.944 60.6111 12.384ZM77.8467 12.168C77.8467 13.112 77.6867 13.96 77.3667 14.712C77.0627 15.464 76.6387 16.104 76.0947 16.632C75.5507 17.16 74.9107 17.568 74.1747 17.856C73.4387 18.128 72.6467 18.264 71.7987 18.264C70.9507 18.264 70.1587 18.136 69.4227 17.88C68.7027 17.608 68.0787 17.224 67.5507 16.728C67.0227 16.232 66.6067 15.624 66.3027 14.904C65.9987 14.168 65.8467 13.336 65.8467 12.408C65.8467 11.432 65.9987 10.56 66.3027 9.792C66.6227 9.024 67.0547 8.376 67.5987 7.848C68.1427 7.32 68.7827 6.92 69.5187 6.648C70.2547 6.36 71.0467 6.216 71.8947 6.216C72.7427 6.216 73.5267 6.344 74.2467 6.6C74.9827 6.856 75.6147 7.24 76.1427 7.752C76.6707 8.248 77.0867 8.864 77.3907 9.6C77.6947 10.336 77.8467 11.192 77.8467 12.168ZM74.1987 12.288C74.1987 11.664 74.1347 11.136 74.0067 10.704C73.8787 10.256 73.7027 9.896 73.4787 9.624C73.2547 9.336 72.9987 9.128 72.7107 9C72.4227 8.872 72.1267 8.808 71.8227 8.808C71.5187 8.808 71.2227 8.864 70.9347 8.976C70.6627 9.088 70.4147 9.28 70.1907 9.552C69.9827 9.824 69.8147 10.184 69.6867 10.632C69.5587 11.064 69.4947 11.616 69.4947 12.288C69.4947 13.456 69.7347 14.312 70.2147 14.856C70.6947 15.4 71.2467 15.672 71.8707 15.672C72.1747 15.672 72.4627 15.616 72.7347 15.504C73.0227 15.376 73.2707 15.184 73.4787 14.928C73.7027 14.656 73.8787 14.304 74.0067 13.872C74.1347 13.44 74.1987 12.912 74.1987 12.288ZM80.0404 18V6.48H82.8244L83.1844 8.496C83.3284 8.208 83.5044 7.928 83.7124 7.656C83.9204 7.368 84.1684 7.12 84.4564 6.912C84.7444 6.704 85.0724 6.536 85.4404 6.408C85.8244 6.28 86.2484 6.216 86.7124 6.216C87.0644 6.216 87.3844 6.264 87.6724 6.36C87.9764 6.44 88.2164 6.536 88.3924 6.648L87.8164 9.408C87.6404 9.312 87.4164 9.224 87.1444 9.144C86.8724 9.064 86.5364 9.024 86.1364 9.024C85.4004 9.024 84.7844 9.264 84.2884 9.744C83.8084 10.224 83.5684 11.056 83.5684 12.24V18H80.0404ZM89.4205 7.488C90.0765 7.104 90.8125 6.8 91.6285 6.576C92.4605 6.336 93.3085 6.216 94.1725 6.216C95.5965 6.216 96.7405 6.56 97.6045 7.248C98.4685 7.936 98.9005 9.032 98.9005 10.536V18H96.1885L95.8765 16.848H95.7805C95.4605 17.264 95.0125 17.608 94.4365 17.88C93.8765 18.136 93.2125 18.264 92.4445 18.264C91.7885 18.264 91.2125 18.168 90.7165 17.976C90.2365 17.784 89.8365 17.528 89.5165 17.208C89.1965 16.888 88.9485 16.512 88.7725 16.08C88.6125 15.632 88.5325 15.16 88.5325 14.664C88.5325 13.992 88.6765 13.416 88.9645 12.936C89.2685 12.456 89.6685 12.064 90.1645 11.76C90.6765 11.456 91.2685 11.232 91.9405 11.088C92.6285 10.944 93.3565 10.872 94.1245 10.872H95.3245V10.248C95.3245 9.816 95.1725 9.488 94.8685 9.264C94.5645 9.024 94.1325 8.904 93.5725 8.904C93.0925 8.904 92.6205 8.976 92.1565 9.12C91.6925 9.264 91.1805 9.496 90.6205 9.816L89.4205 7.488ZM95.3485 13.032L94.5565 13.056C94.1085 13.072 93.7325 13.12 93.4285 13.2C93.1245 13.28 92.8765 13.384 92.6845 13.512C92.5085 13.624 92.3805 13.768 92.3005 13.944C92.2205 14.104 92.1805 14.272 92.1805 14.448C92.1805 14.944 92.3245 15.288 92.6125 15.48C92.9165 15.656 93.2605 15.744 93.6445 15.744C94.0285 15.744 94.3725 15.632 94.6765 15.408C94.9965 15.184 95.2205 14.936 95.3485 14.664V13.032ZM108.848 9.024H105.896V13.896C105.896 14.424 106.008 14.792 106.232 15C106.472 15.208 106.8 15.312 107.216 15.312C107.536 15.312 107.856 15.28 108.176 15.216C108.496 15.152 108.744 15.064 108.92 14.952L109.448 17.376C109.176 17.52 108.76 17.664 108.2 17.808C107.656 17.936 107.072 18 106.448 18C104.96 18 103.904 17.712 103.28 17.136C102.672 16.56 102.368 15.688 102.368 14.52V9.024H100.568V6.48H102.368V2.976H105.896V6.48H108.848V9.024ZM111.289 18V6.48H114.841V18H111.289ZM113.065 4.224C112.457 4.224 111.993 4.056 111.673 3.72C111.353 3.368 111.193 2.952 111.193 2.472C111.193 1.992 111.353 1.584 111.673 1.248C112.009 0.895999 112.473 0.719999 113.065 0.719999C113.657 0.719999 114.113 0.887999 114.433 1.224C114.769 1.56 114.937 1.976 114.937 2.472C114.937 2.968 114.777 3.384 114.457 3.72C114.137 4.056 113.673 4.224 113.065 4.224ZM129.292 12.168C129.292 13.112 129.132 13.96 128.812 14.712C128.508 15.464 128.084 16.104 127.54 16.632C126.996 17.16 126.356 17.568 125.62 17.856C124.884 18.128 124.092 18.264 123.244 18.264C122.396 18.264 121.604 18.136 120.868 17.88C120.148 17.608 119.524 17.224 118.996 16.728C118.468 16.232 118.052 15.624 117.748 14.904C117.444 14.168 117.292 13.336 117.292 12.408C117.292 11.432 117.444 10.56 117.748 9.792C118.068 9.024 118.5 8.376 119.044 7.848C119.588 7.32 120.228 6.92 120.964 6.648C121.7 6.36 122.492 6.216 123.34 6.216C124.188 6.216 124.972 6.344 125.692 6.6C126.428 6.856 127.06 7.24 127.588 7.752C128.116 8.248 128.532 8.864 128.836 9.6C129.14 10.336 129.292 11.192 129.292 12.168ZM125.644 12.288C125.644 11.664 125.58 11.136 125.452 10.704C125.324 10.256 125.148 9.896 124.924 9.624C124.7 9.336 124.444 9.128 124.156 9C123.868 8.872 123.572 8.808 123.268 8.808C122.964 8.808 122.668 8.864 122.38 8.976C122.108 9.088 121.86 9.28 121.636 9.552C121.428 9.824 121.26 10.184 121.132 10.632C121.004 11.064 120.94 11.616 120.94 12.288C120.94 13.456 121.18 14.312 121.66 14.856C122.14 15.4 122.692 15.672 123.316 15.672C123.62 15.672 123.908 15.616 124.18 15.504C124.468 15.376 124.716 15.184 124.924 14.928C125.148 14.656 125.324 14.304 125.452 13.872C125.58 13.44 125.644 12.912 125.644 12.288ZM135.038 18H131.486V6.48H134.246L134.654 7.92C135.166 7.392 135.742 6.976 136.382 6.672C137.022 6.368 137.718 6.216 138.47 6.216C139.766 6.216 140.758 6.568 141.446 7.272C142.134 7.976 142.478 9.008 142.478 10.368V18H138.926V10.728C138.926 10.168 138.79 9.728 138.518 9.408C138.262 9.072 137.878 8.904 137.366 8.904C136.982 8.904 136.574 9.016 136.142 9.24C135.726 9.464 135.358 9.76 135.038 10.128V18Z" fill="white"/>
</svg>
