<svg width="15" height="18" viewBox="0 0 15 18" fill="none" xmlns="http://www.w3.org/2000/svg">
<path d="M14.9474 13.2942L11.0231 3.61681C11.004 3.55989 8.83234 -1.60136 3.5936 0.504883C-1.6642 2.61113 0.393198 7.8293 0.412248 7.86725L4.33655 17.5446C4.41275 17.7343 4.5461 17.8672 4.7366 17.9431C4.83185 17.981 4.9271 18 5.02235 18C5.1176 18 5.21285 17.981 5.30809 17.9431L14.5283 14.2239C14.9093 14.0911 15.0998 13.6737 14.9474 13.2942ZM5.44145 16.3112L1.78385 7.31697C1.7267 7.16517 0.259848 3.42706 4.14605 1.8711C4.83185 1.60544 5.44144 1.47262 5.97484 1.47262C8.43229 1.47262 9.49909 3.82554 9.63244 4.14812L13.271 13.1424L5.44145 16.3112Z" fill="#949494"/>
<path d="M5.38431 6.34934C6.16286 6.34934 6.79401 5.72068 6.79401 4.94518C6.79401 4.16968 6.16286 3.54102 5.38431 3.54102C4.60575 3.54102 3.97461 4.16968 3.97461 4.94518C3.97461 5.72068 4.60575 6.34934 5.38431 6.34934Z" fill="#949494"/>
</svg>
