<svg width="86" height="9" viewBox="0 0 86 9" fill="none" xmlns="http://www.w3.org/2000/svg">
<path d="M2.97266 8.65714H0.465576V8.21143H1.18796V0.634288H0.522234V0.188571H4.95566C5.89051 0.188571 7.16529 0.205715 7.17946 0.205715L7.43442 2.84571H7.10864L7.08031 2.74286C6.68371 1.09714 6.40042 0.634288 4.95566 0.634288H2.34943V4.33714H3.87918C5.18229 4.33714 5.55056 4.2 5.55056 3.18857V3.03429H5.87634V6.06857H5.55056V5.91428C5.55056 5.19428 5.18229 4.8 3.87918 4.8H2.34943V8.22857H2.97266V8.65714ZM11.6271 1.95428C9.89901 1.95428 8.89334 3.13714 8.89334 5.19428C8.89334 7.26857 9.85651 8.4 11.6271 8.4C13.3976 8.4 14.3608 7.26857 14.3608 5.19428C14.3608 3.13714 13.3693 1.95428 11.6271 1.95428ZM11.6271 8.81143C9.09164 8.81143 7.7177 6.94285 7.7177 5.19428C7.7177 2.91428 9.70071 1.54286 11.6271 1.54286C14.1625 1.54286 15.5364 3.42857 15.5364 5.19428C15.5222 7.54285 13.5109 8.81143 11.6271 8.81143ZM19.6016 8.81143C18.171 8.81143 16.4712 8.19428 16.4712 5.28V2.10857H15.8905V1.69714H18.1993V2.10857H17.5619V5.28C17.5619 8.00571 18.8367 8.41714 19.6016 8.41714C20.7914 8.41714 22.0803 7.59428 22.0803 5.28V2.10857H21.4996V1.69714H22.916V2.10857H22.3778V5.28C22.3778 7.88571 20.8763 8.81143 19.6016 8.81143ZM25.0973 5.16H27.1653C28.1568 5.16 28.6101 4.68 28.6101 3.63429C28.6101 2.58857 28.1568 2.10857 27.1653 2.10857H25.0973V5.16ZM27.2361 5.57143H25.1115V8.26286H25.6356V8.67428H23.3976V8.26286H24.0633V2.12571H23.3976V1.71428H27.1795C27.831 1.71428 29.7999 1.71428 29.7999 3.65143C29.7999 4.52571 29.3891 5.14286 28.6242 5.4C28.6242 5.4 28.1851 5.57143 27.2361 5.57143ZM41.0888 0.977144L41.2446 3.05143L40.933 3.03429L40.848 2.69143C40.4089 1.13143 39.5166 0.462858 38.1001 0.462858C36.6979 0.462858 35.8622 0.942859 35.8622 1.74857C35.8622 2.62286 37.0236 2.98286 38.2559 3.36C39.7715 3.82286 41.4996 4.35428 41.4996 6.08571C41.4996 7.90285 40.3381 8.82857 38.0576 8.82857C38.0576 8.82857 36.3721 8.76 35.069 8.16L34.6865 5.70857H34.9698L35.0831 6.08571C35.5506 7.49143 36.712 8.38285 38.0435 8.38285C39.0208 8.38285 40.678 8.16 40.678 6.72C40.678 5.69143 39.4457 5.33142 38.1426 4.93714C36.6129 4.49142 35.0406 4.02857 35.0406 2.36571C35.0406 0.85714 36.1455 0 38.086 0C38.6809 0 39.0208 0.0857157 39.5874 0.274287C39.5874 0.308573 40.5647 0.65143 41.0888 0.977144ZM48.3693 8.72571H48.3409C48.3268 8.72571 47.3494 8.67428 46.797 8.67428H42.5052V8.26286H43.1426V2.12571H42.5052V1.71428H46.6695C47.1936 1.71428 47.7319 1.71429 47.8593 1.66286L48.171 1.61143L48.3551 3.56571L48.1001 3.58285L48.0718 3.48C47.7319 2.19428 47.2078 2.10857 46.6554 2.10857H44.1766V4.83429H45.5647C46.5562 4.83429 46.882 4.68 46.882 3.80572V3.65143H47.1795V6.32571H46.882V6.17143C46.882 5.52 46.5562 5.22857 45.5647 5.22857H44.1766V8.24572H46.797C47.746 8.24572 47.9727 7.88571 48.2984 6.96L48.3268 6.85714H48.6384L48.3693 8.72571ZM51.0463 5.96571H54.2899L52.6752 2.41714L51.0463 5.96571ZM54.7432 8.65714V8.24572H55.3381L54.4741 6.36H50.848L49.9698 8.24572H50.5647V8.65714H49.1058V8.24572H49.6157L52.4486 2.10857H51.9387V1.69714H53.4826L53.5109 1.76571L56.4712 8.24572H57.0378V8.65714H54.7432ZM67.8877 1.54286C65.9755 1.54286 63.9783 2.91428 63.9783 5.19428C63.9783 6.94285 65.3523 8.81143 67.8877 8.81143C69.7857 8.81143 71.797 7.54285 71.797 5.19428C71.797 3.42857 70.4231 1.54286 67.8877 1.54286ZM67.8877 8.4C66.1313 8.4 65.154 7.26857 65.154 5.19428C65.154 3.13714 66.1455 1.95428 67.8877 1.95428C69.6299 1.95428 70.6214 3.13714 70.6214 5.19428C70.6214 7.26857 69.6582 8.4 67.8877 8.4ZM72.2786 1.69714V2.10857H72.7319L72.9868 2.4V8.26286H72.3069V8.67428H73.8933V8.26286H73.2843V2.74286L78.7092 8.93143L78.7659 9V2.10857H79.2758V1.69714H77.8452V2.10857H78.4684V6.94286L73.9075 1.71428L73.8933 1.69714H72.2786ZM30.4656 8.41714C29.5874 8.38286 29.5024 7.98857 29.2758 7.45714L28.4826 5.36571H27.3069L28.78 8.82857H30.4797L30.4656 8.41714ZM62.831 2.41714L62.9585 4.11429H62.7035L62.6327 3.82285C62.2786 2.55428 61.5421 2.00572 60.3806 2.00572C59.2333 2.00572 58.5534 2.4 58.5534 3.05143C58.5534 3.77143 59.5024 4.06286 60.5081 4.37143C61.7545 4.74857 63.1568 5.17714 63.1568 6.6C63.1568 8.09143 62.2078 8.84571 60.3523 8.84571C60.3523 8.84571 58.9783 8.79428 57.916 8.29714L57.6044 6.29143H57.8452L57.9443 6.6C58.3268 7.74857 59.2758 8.48571 60.3664 8.48571C61.1738 8.48571 62.5194 8.31429 62.5194 7.13143C62.5194 6.29143 61.5137 5.98286 60.4514 5.67429C59.205 5.31429 57.916 4.93714 57.916 3.58285C57.916 2.34857 58.8225 1.64572 60.4089 1.64572C60.8905 1.64572 61.1738 1.71428 61.6412 1.86857C61.6129 1.86857 62.4061 2.14286 62.831 2.41714ZM85.1398 2.41714L85.2673 4.11429H85.0123L84.9415 3.82285C84.5874 2.55428 83.8509 2.00572 82.6894 2.00572C81.5421 2.00572 80.8622 2.4 80.8622 3.05143C80.8622 3.77143 81.8112 4.06286 82.8169 4.37143C84.0633 4.74857 85.4656 5.17714 85.4656 6.6C85.4656 8.09143 84.5166 8.84571 82.661 8.84571C82.661 8.84571 81.2871 8.79428 80.2248 8.29714L79.9132 6.29143H80.154L80.2531 6.6C80.6356 7.74857 81.5846 8.48571 82.6752 8.48571C83.4826 8.48571 84.8282 8.31429 84.8282 7.13143C84.8282 6.29143 83.8225 5.98286 82.7602 5.67429C81.5137 5.31429 80.2248 4.93714 80.2248 3.58285C80.2248 2.34857 81.1313 1.64572 82.7177 1.64572C83.1993 1.64572 83.4826 1.71428 83.95 1.86857C83.9217 1.86857 84.7149 2.14286 85.1398 2.41714Z" fill="white" fill-opacity="0.6"/>
</svg>
