<svg width="72" height="24" viewBox="0 0 72 24" fill="none" xmlns="http://www.w3.org/2000/svg">
<mask id="mask0_3222_112" style="mask-type:luminance" maskUnits="userSpaceOnUse" x="0" y="0" width="72" height="24">
<path d="M72 0H0V24H72V0Z" fill="white"/>
</mask>
<g mask="url(#mask0_3222_112)">
<path d="M4.54077 17.3722V20.5477L0.837158 20.5238V3.42871H13.5318V6.58032H4.54077V10.4243H12.4841V13.7431H4.54077V17.3722ZM23.1631 13.9102L16.7549 3.50034H21.0677L25.1368 10.2333L29.1815 3.50034H33.4455L26.9886 14.0057V20.5477H23.1631V13.9102ZM40.0717 8.0845V20.5716H37.0503V3.45259H40.0717H41.4362L49.2089 14.1012V3.45259H52.4495V20.5716H49.2089L40.0717 8.0845ZM61.3437 17.3722H71.1627V20.5238H57.64V3.42871H70.3343V6.58032H61.3437V10.4243H69.2866V13.7431H61.3437V17.3722Z" fill="white"/>
</g>
</svg>
