<svg width="14" height="12" viewBox="0 0 14 12" fill="none" xmlns="http://www.w3.org/2000/svg">
<path d="M6.38297 2.09836L7.00114 2.99817L7.61931 2.09836C8.17944 1.28305 9.11131 0.752432 10.1627 0.752293C11.8645 0.754345 13.2495 2.14273 13.25 3.86462C13.248 4.66527 12.9458 5.39195 12.4504 5.94462L12.4463 5.94883L12.4012 5.99469L12.2288 6.16951C12.0798 6.32029 11.8661 6.53587 11.6079 6.79463C11.0913 7.31242 10.3973 8.00191 9.68656 8.69066C8.97411 9.38102 8.25161 10.0639 7.67575 10.5715C7.40216 10.8127 7.1718 11.0053 6.99652 11.1383C6.81663 11.0007 6.57892 10.8001 6.29616 10.5488C5.70807 10.0262 4.96928 9.3233 4.24064 8.61309C3.51364 7.90449 2.80347 7.19514 2.2746 6.66248C2.01029 6.39628 1.79155 6.1745 1.63899 6.01937L1.46241 5.8395L1.42564 5.80193C1.00286 5.27039 0.75 4.59549 0.75 3.85862C0.75 2.13777 2.13827 0.75 3.84139 0.75C4.8916 0.75 5.82194 1.28174 6.38297 2.09836Z" stroke="#282828" stroke-width="1.5"/>
</svg>
