<svg width="49" height="9" viewBox="0 0 49 9" fill="none" xmlns="http://www.w3.org/2000/svg">
<path d="M4.80885 2.15508H5.72842V4.02835H2.45775V2.15508H3.37315V1.05752H0.465576V2.15508H1.39071V7.67254H0.465576V8.76491H3.37315V7.67254H2.45706V5.11256H5.72773V7.67254H4.80885V8.76491H7.72338V7.67254H6.79546V2.15508H7.72408V1.05752H4.80955M39.882 7.67254H37.0161V5.10143H39.4813V4.01351H37.0154V2.15508H39.9035V3.20962H40.9191V1.05752H34.9787V2.15508H35.9477V7.67254H34.9787V8.76491H40.933V6.19677H39.8827M15.0382 6.19677H13.9879V7.67254H11.122V5.10143H13.5879V4.01351H11.122V2.15508H14.0108V3.20962H15.0264V1.05752H9.08604V2.15508H10.055V7.67254H9.08535V8.76491H15.0382M37.2923 0.677076H39.3756L38.8428 0H36.7073M46.7266 4.35761C45.9997 4.13662 45.4864 4.18705 44.7469 3.92378C44.0792 3.68499 43.947 3.24745 43.947 2.95748C43.947 2.66604 44.2419 1.91035 45.2909 1.91035C46.3412 1.91035 47.0285 2.65046 47.0674 3.30232L47.0716 3.29936V3.30232H48.0802V1.05529H47.1043V1.54474L47.1349 1.69751C47.128 1.67526 47.1001 1.61371 46.9972 1.5047L46.9958 1.49876C46.6862 1.20213 46.0964 0.878791 45.2095 0.878791C44.1348 0.878791 42.8688 1.58924 42.8688 2.96267C42.8688 4.30125 43.7759 4.76846 44.5452 4.985C45.3159 5.20303 45.709 5.20303 46.3517 5.38843C46.993 5.57383 47.409 5.98616 47.409 6.59723C47.409 7.17567 47.0751 7.93433 45.7173 7.93433C44.3574 7.93433 43.8204 7.15269 43.6632 6.03436L43.6521 6.03955H42.6922V8.76714H43.6952V8.25692L43.6924 8.25321L43.6563 8.11824C43.6563 8.11824 43.6924 8.20946 43.8065 8.294L43.8162 8.30883C44.324 8.72413 44.9904 9 45.8446 9C46.7975 9 48.4656 8.47866 48.4656 6.63209C48.4628 5.31056 47.8048 4.68837 46.7266 4.35761ZM30.6751 7.67254V8.76491H33.6244V7.67254H32.6576V2.15508H33.6244V1.05752H30.9881L29.2422 5.56196L29.206 5.78296L29.1713 5.55826L27.4253 1.05677H24.7918V2.15433H25.7566V7.6718H24.7904V8.76417H27.7376V7.67254H26.816V2.59855L26.8229 2.26335L26.9085 2.53032L28.9188 7.65845H29.4905L31.5077 2.52884L31.5815 2.2589L31.5926 2.56295V7.67254" fill="white" fill-opacity="0.6"/>
<path d="M22.6548 6.0983C22.6548 5.64593 22.3717 5.11198 21.9828 4.86132C21.8878 4.79982 21.7806 4.76276 21.6698 4.75305C21.7644 4.75898 21.8924 4.75156 22.0128 4.69817C22.0168 4.69647 22.021 4.69547 22.0253 4.6952C22.419 4.50832 22.8962 3.96473 22.8962 3.04886C22.8962 2.37178 22.6228 1.82523 22.1588 1.46555C21.7248 1.13035 21.21 1.05471 20.696 1.05471H16.6477V2.15227H17.5589V7.68086H16.6477V8.77398H19.5225V7.68012H18.6231V5.24472H20.6104C21.2956 5.25362 21.5606 5.73418 21.5745 6.14725L21.6246 8.77249H23.6112V7.68086H22.6826L22.6548 6.0983ZM20.8254 4.18498H18.6238V2.15301H20.7071C20.9228 2.15301 21.1913 2.1456 21.4006 2.25906C21.6566 2.39774 21.8966 2.6966 21.8966 3.18457C21.8966 3.74819 21.4125 4.18498 20.8254 4.18498Z" fill="white" fill-opacity="0.6"/>
</svg>
