<svg width="207" height="66" viewBox="0 0 207 66" fill="none" xmlns="http://www.w3.org/2000/svg">
<path d="M73.7885 35.4944C73.8148 35.6529 73.8281 35.8114 73.8281 35.9698C73.8544 36.102 73.8678 36.2605 73.8678 36.4453C73.8678 36.7623 73.7751 37.053 73.5902 37.317C73.5109 37.4492 73.4053 37.5811 73.273 37.7132C73.1408 37.8188 72.9822 37.9114 72.7972 37.9906C72.1365 38.3605 71.4359 38.4924 70.6959 38.3868C70.3257 38.2813 69.9955 38.1095 69.7046 37.8717C69.6517 37.8188 69.612 37.7925 69.5857 37.7925C69.5594 37.7662 69.5327 37.7265 69.5064 37.6736C69.4801 37.6473 69.4534 37.6207 69.4271 37.5944C69.4008 37.5414 69.3611 37.5018 69.3082 37.4755C69.1759 37.3433 69.0703 37.2245 68.991 37.1189C68.9117 36.9867 68.8324 36.8548 68.7531 36.7227C68.7001 36.5905 68.6341 36.4716 68.5548 36.3661C68.5019 36.2339 68.4359 36.102 68.3566 35.9698C68.3036 35.8643 68.2509 35.7717 68.198 35.6925C68.145 35.5869 68.1054 35.4811 68.079 35.3755C67.9734 35.1378 67.9071 34.9264 67.8808 34.7415L67.0482 32.8C65.2243 32.8 63.4005 32.8133 61.5766 32.8397C59.7791 32.8397 57.9686 32.8264 56.1448 32.8L55.3122 34.7415C55.2592 34.8471 55.2195 34.953 55.1932 35.0585C55.1932 35.1641 55.1669 35.2699 55.1139 35.3755C55.0609 35.4811 55.0083 35.5869 54.9553 35.6925C54.929 35.7717 54.8893 35.8643 54.8364 35.9698C54.7571 36.102 54.6778 36.2339 54.5985 36.3661C54.5455 36.4716 54.4795 36.5905 54.4002 36.7227C54.3473 36.8548 54.2813 36.9867 54.202 37.1189C54.1227 37.2245 54.0171 37.3433 53.8848 37.4755C53.8318 37.5018 53.7922 37.5414 53.7659 37.5944C53.7395 37.6207 53.7129 37.6473 53.6866 37.6736C53.6602 37.7265 53.6336 37.7662 53.6073 37.7925C53.5809 37.7925 53.5413 37.8188 53.4883 37.8717C53.1975 38.1095 52.8672 38.2813 52.4971 38.3868C51.7571 38.4924 51.0564 38.3605 50.3957 37.9906C50.2108 37.9114 50.0522 37.8188 49.9199 37.7132C49.7877 37.5811 49.682 37.4492 49.6027 37.317C49.4178 37.053 49.3252 36.7623 49.3252 36.4453C49.3252 36.2605 49.3252 36.102 49.3252 35.9698C49.3515 35.8114 49.3782 35.6529 49.4045 35.4944C49.4575 35.2566 49.5234 35.0189 49.6027 34.7812C49.682 34.5434 49.7217 34.4246 49.7217 34.4246L57.9686 14.1378L58.2065 13.5038C58.2595 13.3453 58.3255 13.2 58.4048 13.068C58.4841 12.9359 58.55 12.7774 58.603 12.5925C58.7352 12.2491 58.8805 11.9453 59.0391 11.6812C59.1184 11.5227 59.211 11.3774 59.3167 11.2453C59.4223 11.1132 59.5282 10.9812 59.6339 10.8491C59.7925 10.6378 60.017 10.4661 60.3079 10.334C60.678 10.2019 61.1009 10.1359 61.5766 10.1359C62.0788 10.1359 62.5149 10.2019 62.8851 10.334C63.1759 10.4661 63.4005 10.6378 63.5591 10.8491C63.744 11.0868 63.9423 11.3642 64.1538 11.6812C64.3124 11.9453 64.4577 12.2491 64.59 12.5925C64.6429 12.7774 64.7089 12.9359 64.7882 13.068C64.8675 13.2 64.9335 13.3453 64.9864 13.5038L65.2243 14.1378L73.4713 34.4246C73.4713 34.4246 73.5109 34.5434 73.5902 34.7812C73.6695 35.0189 73.7355 35.2566 73.7885 35.4944ZM64.3917 25.7868C64.0482 25.0208 63.6913 24.2283 63.3212 23.4095C62.9777 22.5906 62.6075 21.7585 62.211 20.9132C62.1054 20.6755 61.9995 20.4378 61.8938 20.2C61.7882 19.9359 61.6823 19.6849 61.5766 19.4472C61.4973 19.6849 61.4047 19.9359 61.2991 20.2C61.1935 20.4378 61.0876 20.6755 60.9819 20.9132C60.5854 21.7585 60.2023 22.5906 59.8321 23.4095C59.4886 24.2283 59.1448 25.0208 58.8012 25.7868L58.0876 27.5302H65.1054L64.3917 25.7868ZM97.5072 36.4453C97.5335 36.7094 97.5072 36.9604 97.4279 37.1981C97.3749 37.3566 97.2956 37.4888 97.19 37.5944C97.1107 37.6999 97.0048 37.8058 96.8728 37.9114C96.6349 38.0698 96.3441 38.215 96.0005 38.3472C95.789 38.4001 95.5774 38.4397 95.3661 38.4661C95.1809 38.519 94.9827 38.519 94.7714 38.4661C94.3483 38.4397 93.9784 38.2813 93.6613 37.9906C93.2118 37.6207 92.8417 37.2114 92.5511 36.7623C92.4188 36.5509 92.2735 36.3131 92.115 36.0491C91.9564 35.785 91.8108 35.5077 91.6788 35.217L87.2778 26.8566C87.0662 26.8566 86.8547 26.8699 86.6434 26.8963C86.4319 26.8963 86.2203 26.9096 86.0091 26.9359C85.454 26.9888 84.9252 27.0018 84.4231 26.9755C83.9473 26.9492 83.4449 26.9492 82.9164 26.9755H82.1631V34.1472C82.1631 34.3586 82.1498 34.5567 82.1235 34.7415C82.1235 34.9264 82.1235 35.1245 82.1235 35.3359C82.1235 35.4681 82.1102 35.6396 82.0838 35.851C82.0838 36.0624 82.0705 36.2605 82.0442 36.4453C81.9912 36.736 81.8723 37.0397 81.6873 37.3566C81.5021 37.6473 81.2512 37.8981 80.934 38.1095C80.3789 38.4528 79.7049 38.5453 78.9119 38.3868C78.5681 38.3076 78.2379 38.1754 77.9207 37.9906C77.8148 37.9114 77.7225 37.8188 77.6432 37.7132C77.5639 37.5811 77.4976 37.4492 77.4449 37.317C77.392 37.1848 77.339 37.053 77.2863 36.9208C77.2597 36.7623 77.2201 36.6171 77.1674 36.4849C77.0881 36.2209 77.0484 35.9698 77.0484 35.7321V13.2264C77.0484 13.068 77.0484 12.9095 77.0484 12.751C77.0748 12.5661 77.1011 12.4076 77.1277 12.2755C77.1541 11.9849 77.2467 11.6944 77.4053 11.4038C77.4846 11.0868 77.6165 10.8623 77.8018 10.7302C77.9604 10.5717 78.1982 10.4396 78.5154 10.334C78.859 10.2019 79.3481 10.1491 79.9824 10.1755C81.1719 10.2019 82.3481 10.2151 83.5112 10.2151C84.674 10.2151 85.8371 10.2415 87.0003 10.2944C87.7666 10.3472 88.5729 10.4396 89.4188 10.5717C90.2911 10.6774 91.0971 10.8755 91.8374 11.1661C92.3132 11.351 92.7493 11.5359 93.1458 11.7208C93.6479 12.0114 94.0444 12.2887 94.3353 12.5529C95.2602 13.3982 95.9609 14.4151 96.4367 15.6038C96.9124 16.7925 97.1503 17.9944 97.1503 19.2095C97.1503 20.6359 96.8065 21.9434 96.1195 23.1321C95.4585 24.3208 94.388 25.2057 92.9079 25.7868C92.855 25.8397 92.7757 25.8793 92.67 25.9057C92.5907 25.9057 92.5245 25.9189 92.4718 25.9453L96.1195 33.2755L96.4763 33.9095C96.529 34.015 96.5953 34.1339 96.6746 34.2661C96.7538 34.3982 96.8198 34.5301 96.8728 34.6623C96.9521 34.7945 97.0181 34.9397 97.071 35.0981C97.1503 35.2566 97.2296 35.4018 97.3089 35.534C97.3882 35.9039 97.4542 36.2076 97.5072 36.4453ZM87.595 22.3397C88.0708 22.3397 88.5199 22.2604 88.9431 22.1019C89.3922 21.917 89.7887 21.6793 90.1325 21.3887C90.5024 21.0981 90.8065 20.768 91.0444 20.3981C91.2823 20.0019 91.4143 19.5793 91.4409 19.1302C91.5466 17.8095 91.203 16.8321 90.4101 16.1981C89.6171 15.5378 88.5729 15.1812 87.2778 15.1283C86.5112 15.0755 85.6652 15.0491 84.7403 15.0491C83.8414 15.0491 82.9824 15.0491 82.1631 15.0491C82.1895 16.1321 82.1895 17.2415 82.1631 18.3774C82.1631 19.4868 82.1631 20.8076 82.1631 22.3397H87.595ZM125.169 35.4944C125.196 35.6529 125.209 35.8114 125.209 35.9698C125.235 36.102 125.249 36.2605 125.249 36.4453C125.249 36.7623 125.156 37.053 124.971 37.317C124.892 37.4492 124.786 37.5811 124.654 37.7132C124.522 37.8188 124.363 37.9114 124.178 37.9906C123.517 38.3605 122.817 38.4924 122.077 38.3868C121.706 38.2813 121.376 38.1095 121.085 37.8717C121.032 37.8188 120.993 37.7925 120.966 37.7925C120.94 37.7662 120.914 37.7265 120.887 37.6736C120.861 37.6473 120.834 37.6207 120.808 37.5944C120.781 37.5414 120.742 37.5018 120.689 37.4755C120.557 37.3433 120.451 37.2245 120.372 37.1189C120.292 36.9867 120.213 36.8548 120.134 36.7227C120.081 36.5905 120.015 36.4716 119.936 36.3661C119.883 36.2339 119.817 36.102 119.737 35.9698C119.684 35.8643 119.631 35.7717 119.579 35.6925C119.526 35.5869 119.486 35.4811 119.46 35.3755C119.354 35.1378 119.288 34.9264 119.262 34.7415L118.429 32.8C116.605 32.8 114.781 32.8133 112.957 32.8397C111.16 32.8397 109.349 32.8264 107.526 32.8L106.693 34.7415C106.64 34.8471 106.6 34.953 106.574 35.0585C106.574 35.1641 106.547 35.2699 106.495 35.3755C106.442 35.4811 106.389 35.5869 106.336 35.6925C106.309 35.7717 106.27 35.8643 106.217 35.9698C106.138 36.102 106.059 36.2339 105.979 36.3661C105.926 36.4716 105.86 36.5905 105.781 36.7227C105.728 36.8548 105.662 36.9867 105.583 37.1189C105.503 37.2245 105.398 37.3433 105.266 37.4755C105.213 37.5018 105.173 37.5414 105.147 37.5944C105.12 37.6207 105.094 37.6473 105.067 37.6736C105.041 37.7265 105.014 37.7662 104.988 37.7925C104.961 37.7925 104.922 37.8188 104.869 37.8717C104.578 38.1095 104.248 38.2813 103.878 38.3868C103.138 38.4924 102.437 38.3605 101.776 37.9906C101.591 37.9114 101.433 37.8188 101.301 37.7132C101.168 37.5811 101.063 37.4492 100.984 37.317C100.798 37.053 100.706 36.7623 100.706 36.4453C100.706 36.2605 100.706 36.102 100.706 35.9698C100.732 35.8114 100.759 35.6529 100.785 35.4944C100.838 35.2566 100.904 35.0189 100.984 34.7812C101.063 34.5434 101.102 34.4246 101.102 34.4246L109.349 14.1378L109.587 13.5038C109.64 13.3453 109.706 13.2 109.786 13.068C109.865 12.9359 109.931 12.7774 109.984 12.5925C110.116 12.2491 110.261 11.9453 110.42 11.6812C110.499 11.5227 110.592 11.3774 110.697 11.2453C110.803 11.1132 110.909 10.9812 111.015 10.8491C111.173 10.6378 111.398 10.4661 111.689 10.334C112.059 10.2019 112.482 10.1359 112.957 10.1359C113.46 10.1359 113.896 10.2019 114.266 10.334C114.556 10.4661 114.781 10.6378 114.94 10.8491C115.125 11.0868 115.323 11.3642 115.535 11.6812C115.693 11.9453 115.838 12.2491 115.971 12.5925C116.023 12.7774 116.09 12.9359 116.169 13.068C116.248 13.2 116.314 13.3453 116.367 13.5038L116.605 14.1378L124.852 34.4246C124.852 34.4246 124.892 34.5434 124.971 34.7812C125.05 35.0189 125.116 35.2566 125.169 35.4944ZM115.773 25.7868C115.429 25.0208 115.072 24.2283 114.702 23.4095C114.358 22.5906 113.988 21.7585 113.592 20.9132C113.486 20.6755 113.38 20.4378 113.275 20.2C113.169 19.9359 113.063 19.6849 112.957 19.4472C112.878 19.6849 112.786 19.9359 112.68 20.2C112.574 20.4378 112.468 20.6755 112.363 20.9132C111.966 21.7585 111.583 22.5906 111.213 23.4095C110.869 24.2283 110.526 25.0208 110.182 25.7868L109.468 27.5302H116.486L115.773 25.7868ZM149.284 22.2604C149.337 23.1321 149.324 24.0302 149.245 24.9547C149.192 25.8793 149.099 26.7774 148.967 27.6491C148.703 29.1547 148.214 30.6208 147.5 32.0472C146.786 33.4736 145.742 34.6886 144.368 35.6925C142.94 36.749 141.315 37.4755 139.491 37.8717C137.667 38.2416 135.857 38.4661 134.059 38.5453C133.451 38.5982 132.83 38.6113 132.196 38.5849C131.588 38.5849 130.993 38.519 130.411 38.3868C129.936 38.3076 129.579 38.1624 129.341 37.951C129.209 37.8717 129.103 37.7662 129.024 37.634C128.944 37.5018 128.878 37.3699 128.825 37.2378C128.746 37.1056 128.68 36.9737 128.627 36.8415C128.601 36.6831 128.561 36.5246 128.508 36.3661C128.482 36.2339 128.456 36.115 128.429 36.0095C128.429 35.8773 128.429 35.7584 128.429 35.6529V13.0283C128.429 12.8434 128.429 12.6717 128.429 12.5132C128.429 12.3547 128.456 12.1963 128.508 12.0378C128.561 11.6679 128.64 11.3642 128.746 11.1264C128.852 10.8095 128.997 10.5849 129.182 10.4529C129.341 10.3208 129.499 10.2283 129.658 10.1755C129.817 10.0963 129.962 10.0302 130.094 9.97739C130.253 9.92455 130.411 9.92455 130.57 9.97739C130.755 10.0038 130.953 9.96417 131.165 9.85852L137.786 10.017C139.531 10.0699 141.09 10.4793 142.465 11.2453C143.839 11.9849 145.015 12.9359 145.993 14.0981C146.972 15.2604 147.738 16.568 148.293 18.0208C148.848 19.4472 149.179 20.8604 149.284 22.2604ZM141.91 29.7887C142.412 28.9963 142.782 28.0849 143.02 27.0547C143.258 26.0246 143.363 24.9812 143.337 23.9246C143.311 22.8415 143.165 21.7982 142.901 20.7944C142.636 19.7642 142.266 18.8529 141.791 18.0604C141.421 17.4793 140.945 17.0038 140.363 16.634C139.782 16.2642 139.134 15.9868 138.42 15.8019C137.707 15.5906 136.94 15.4453 136.121 15.3661C135.328 15.2868 134.548 15.2472 133.782 15.2472C133.808 16.0132 133.821 16.7529 133.821 17.4661C133.821 18.1793 133.821 18.9321 133.821 19.7246C133.795 20.6755 133.782 21.6 133.782 22.4981C133.782 23.3962 133.782 24.2679 133.782 25.1132V33.1963C134.601 33.1699 135.381 33.1303 136.121 33.0774C136.887 32.9981 137.614 32.8397 138.301 32.6019C139.015 32.3642 139.663 32.0339 140.244 31.6114C140.852 31.1622 141.407 30.5548 141.91 29.7887ZM153.78 33.9887L153.82 30.8585L153.86 25.034C153.886 24.1887 153.899 23.317 153.899 22.4189C153.899 21.5208 153.899 20.5963 153.899 19.6453C153.899 18.6944 153.899 17.8491 153.899 17.1095C153.899 16.3698 153.926 15.5378 153.979 14.6132V14.4547C154.005 14.1906 154.018 13.9264 154.018 13.6623C154.045 13.3717 154.058 13.0812 154.058 12.7906C154.084 12.3151 154.23 11.8 154.494 11.2453C154.679 10.8755 154.957 10.5585 155.327 10.2944C155.75 10.083 156.159 9.97739 156.556 9.97739C156.767 9.97739 156.952 9.9906 157.111 10.017C157.296 10.017 157.468 10.0302 157.626 10.0566C157.97 10.1095 158.274 10.268 158.538 10.5321C158.697 10.6642 158.842 10.8755 158.974 11.1661C159.027 11.3246 159.067 11.483 159.093 11.6415C159.146 11.7736 159.186 11.9189 159.212 12.0774C159.239 12.2623 159.252 12.434 159.252 12.5925C159.278 12.751 159.292 12.9095 159.292 13.068C159.292 13.2529 159.278 13.4246 159.252 13.583C159.252 13.7151 159.252 13.8604 159.252 14.0189V14.6925L159.014 35.2566V35.6529C159.014 35.7321 159.001 35.8377 158.974 35.9698C158.974 36.0754 158.961 36.2076 158.935 36.3661C158.882 36.4982 158.829 36.6434 158.776 36.8019C158.75 36.9341 158.71 37.0793 158.657 37.2378C158.578 37.3699 158.486 37.5018 158.38 37.634C158.3 37.7396 158.195 37.8454 158.062 37.951C157.851 38.1624 157.507 38.3076 157.032 38.3868C156.318 38.5453 155.644 38.4794 155.009 38.1887C154.692 37.9773 154.468 37.7132 154.335 37.3963C154.256 37.317 154.216 37.2378 154.216 37.1585C154.19 37.1056 154.164 37.066 154.137 37.0397C154.111 37.0133 154.084 36.9737 154.058 36.9208C154.005 36.7886 153.966 36.6567 153.939 36.5246C153.913 36.3661 153.899 36.2076 153.899 36.0491C153.873 35.9169 153.847 35.785 153.82 35.6529C153.82 35.5207 153.807 35.3888 153.78 35.2566C153.754 35.0452 153.754 34.8208 153.78 34.583V33.9887ZM184.202 26.6585C184.334 27.0284 184.427 27.451 184.479 27.9264C184.559 28.3756 184.598 28.8378 184.598 29.3132C184.598 29.7887 184.559 30.2642 184.479 30.7397C184.427 31.1888 184.347 31.585 184.241 31.9283C183.818 33.4077 182.973 34.649 181.704 35.6529C180.435 36.6301 178.981 37.3433 177.342 37.7925C175.73 38.2416 174.052 38.4001 172.307 38.268C170.589 38.1358 169.056 37.6999 167.708 36.9604C166.862 36.4849 166.135 35.9039 165.527 35.217C164.919 34.5301 164.404 33.7643 163.981 32.9189C163.822 32.6282 163.717 32.2982 163.664 31.9283C163.637 31.5321 163.677 31.1622 163.783 30.8189C163.888 30.449 164.06 30.132 164.298 29.868C164.536 29.5773 164.866 29.3792 165.289 29.2736C165.554 29.2207 165.844 29.1944 166.162 29.1944C166.505 29.1944 166.836 29.2473 167.153 29.3529C167.47 29.4321 167.761 29.5773 168.025 29.7887C168.29 29.9735 168.501 30.2379 168.659 30.5812C168.95 31.1359 169.36 31.651 169.888 32.1264C170.444 32.5756 171.025 32.9452 171.633 33.2359C172.505 33.5265 173.378 33.6454 174.25 33.5925C175.149 33.5396 175.955 33.3414 176.668 32.9981C177.409 32.6548 178.003 32.1924 178.453 31.6114C178.902 31.0037 179.127 30.3171 179.127 29.551C179.127 28.917 179.034 28.4019 178.849 28.0057C178.664 27.5831 178.4 27.2396 178.056 26.9755C177.739 26.6848 177.342 26.4471 176.867 26.2623C176.418 26.0774 175.915 25.9189 175.36 25.7868C174.726 25.6547 174.078 25.5623 173.417 25.5095C172.783 25.4566 172.135 25.3906 171.474 25.3114C170.814 25.2321 170.166 25.1265 169.532 24.9944C168.897 24.8623 168.276 24.6642 167.668 24.4C166.452 23.8982 165.527 23.1321 164.893 22.1019C164.258 21.0717 163.875 19.9623 163.743 18.7736C163.637 17.5849 163.783 16.4095 164.179 15.2472C164.576 14.0585 165.21 13.0415 166.082 12.1963C166.928 11.4302 167.933 10.8887 169.096 10.5717C170.285 10.2283 171.593 10.0302 173.021 9.97739C173.814 9.95098 174.607 9.97739 175.4 10.0566C176.219 10.1359 176.999 10.268 177.739 10.4529C178.506 10.6378 179.206 10.8755 179.84 11.1661C180.501 11.4566 181.069 11.8 181.545 12.1963C181.889 12.4604 182.233 12.817 182.576 13.2661C182.92 13.6887 183.184 14.151 183.369 14.6529C183.554 15.1283 183.607 15.5906 183.528 16.0397C183.475 16.4887 183.197 16.8717 182.695 17.1887C182.272 17.4529 181.862 17.5717 181.466 17.5453C181.096 17.4925 180.739 17.3736 180.395 17.1887C180.052 16.9774 179.721 16.7396 179.404 16.4755C179.087 16.2114 178.796 15.9736 178.532 15.7623C177.818 15.234 176.933 14.8774 175.875 14.6925C174.818 14.5076 173.827 14.468 172.902 14.5736C172.32 14.6529 171.779 14.7849 171.276 14.9698C170.774 15.1547 170.338 15.4057 169.968 15.7227C169.624 16.0397 169.347 16.4359 169.135 16.9114C168.95 17.3604 168.884 17.8755 168.937 18.4566C168.964 18.8793 169.082 19.2359 169.294 19.5264C169.532 19.817 169.809 20.0548 170.126 20.2397C170.47 20.4246 170.84 20.5699 171.237 20.6755C171.633 20.7812 172.03 20.8604 172.426 20.9132C173.615 21.0717 174.805 21.1906 175.994 21.2698C177.184 21.3491 178.347 21.6132 179.483 22.0623C180.647 22.5114 181.638 23.1189 182.457 23.8849C183.277 24.651 183.858 25.5755 184.202 26.6585ZM193.218 14.8906L193.139 21.1114H194.724C195.808 21.0849 196.773 21.0717 197.619 21.0717C198.465 21.0717 199.403 21.0849 200.434 21.1114H200.632C200.949 21.1114 201.253 21.1246 201.544 21.151C201.861 21.151 202.165 21.151 202.456 21.151C202.773 21.1774 203.077 21.2302 203.368 21.3095C203.659 21.3623 203.95 21.4283 204.24 21.5076C204.69 21.6661 205.06 21.9038 205.35 22.2208C205.615 22.5642 205.747 22.9472 205.747 23.3698C205.747 23.5019 205.747 23.6604 205.747 23.8453C205.747 24.0038 205.72 24.1491 205.668 24.2812C205.615 24.5717 205.443 24.8359 205.152 25.0736C205.02 25.2585 204.769 25.3906 204.399 25.4698C204.055 25.5755 203.712 25.6416 203.368 25.668C202.998 25.7472 202.628 25.7868 202.258 25.7868H200.394L193.059 25.8264L192.98 33.5925L200.87 33.6717H202.734C202.945 33.6717 203.143 33.6717 203.328 33.6717C203.513 33.6717 203.685 33.685 203.844 33.7114C204.055 33.7643 204.24 33.8039 204.399 33.8302C204.584 33.8302 204.756 33.8565 204.914 33.9095C205.231 34.015 205.496 34.1605 205.707 34.3453C205.972 34.6094 206.143 34.8867 206.223 35.1774C206.249 35.3096 206.262 35.4547 206.262 35.6132C206.289 35.7454 206.289 35.8906 206.262 36.0491C206.262 36.4716 206.13 36.8548 205.866 37.1981C205.549 37.5681 205.179 37.8058 204.756 37.9114C204.201 38.1491 203.593 38.268 202.932 38.268C202.641 38.2943 202.337 38.3076 202.02 38.3076C201.703 38.3076 201.399 38.3209 201.108 38.3472H200.87C198.808 38.4001 196.667 38.4001 194.447 38.3472C193.918 38.3472 193.495 38.3339 193.178 38.3076C192.861 38.3076 192.57 38.3076 192.306 38.3076C192.068 38.3076 191.817 38.3076 191.553 38.3076C191.288 38.3076 190.945 38.3076 190.522 38.3076C189.914 38.3605 189.412 38.2547 189.015 37.9906C188.724 37.8058 188.5 37.5547 188.341 37.2378C188.262 37.1585 188.222 37.0793 188.222 37C188.196 36.9471 188.169 36.9075 188.143 36.8812C188.116 36.8548 188.09 36.8152 188.063 36.7623C188.011 36.6301 187.971 36.4982 187.945 36.3661C187.918 36.2076 187.905 36.0624 187.905 35.9302C187.879 35.7981 187.852 35.6662 187.826 35.534C187.826 35.4018 187.813 35.2699 187.786 35.1378V34.5038C187.786 34.3982 187.786 34.2924 187.786 34.1868C187.813 34.0813 187.826 33.9754 187.826 33.8698V30.7793L187.905 25.0736V19.8038C187.905 18.8529 187.905 18.0076 187.905 17.268C187.931 16.5283 187.958 15.7227 187.984 14.851V14.6529C188.011 14.3623 188.024 14.0981 188.024 13.8604C188.05 13.5963 188.063 13.3321 188.063 13.068C188.09 12.5396 188.235 12.0245 188.5 11.5227C188.606 11.3113 188.711 11.1264 188.817 10.968C188.949 10.8095 189.121 10.6774 189.332 10.5717C189.729 10.334 190.139 10.2151 190.561 10.2151C190.773 10.2151 190.931 10.2283 191.037 10.2547V10.2151C191.513 10.2151 191.896 10.2151 192.187 10.2151C192.478 10.2151 192.755 10.2151 193.02 10.2151C193.31 10.2151 193.614 10.2151 193.931 10.2151C194.249 10.1887 194.685 10.1755 195.24 10.1755C196.297 10.1491 197.302 10.1359 198.253 10.1359C199.205 10.1359 200.183 10.1491 201.187 10.1755H201.346C201.637 10.2019 201.941 10.2151 202.258 10.2151C202.575 10.2151 202.879 10.2283 203.17 10.2547C203.46 10.2547 203.751 10.2944 204.042 10.3736C204.333 10.4265 204.624 10.5057 204.914 10.6114C205.364 10.7434 205.734 10.968 206.024 11.2849C206.262 11.6548 206.381 12.0245 206.381 12.3944C206.381 12.5529 206.381 12.7114 206.381 12.8698C206.381 13.0019 206.355 13.134 206.302 13.2661C206.276 13.5302 206.117 13.8076 205.826 14.0981C205.72 14.151 205.602 14.217 205.469 14.2963C205.364 14.3755 205.231 14.4415 205.073 14.4944C204.914 14.5472 204.743 14.5868 204.557 14.6132C204.399 14.6132 204.24 14.6265 204.082 14.6529C203.87 14.7057 203.672 14.7321 203.487 14.7321C203.328 14.7321 203.143 14.7321 202.932 14.7321H201.148L193.218 14.7717V14.8906Z" fill="white"/>
<path d="M53.1516 51.9796C53.9582 51.9796 54.6198 52.0838 55.1363 52.2921C55.6619 52.4913 56.0516 52.7947 56.3054 53.2023C56.5591 53.6098 56.686 54.1215 56.686 54.7374C56.686 55.2536 56.5909 55.6838 56.4005 56.0279C56.2102 56.3721 55.9655 56.6483 55.6665 56.8566C55.3765 57.0559 55.0684 57.2144 54.7421 57.3321L57.4065 61.6793H55.9791L53.6274 57.6717H51.6971V61.6793H50.4736V51.9796H53.1516ZM53.0836 53.0393H51.6971V56.6393H53.1516C53.6772 56.6393 54.1077 56.5713 54.443 56.4355C54.7783 56.2906 55.023 56.0823 55.1771 55.8106C55.3402 55.5389 55.4218 55.1993 55.4218 54.7917C55.4218 54.3661 55.3357 54.0264 55.1635 53.7728C55.0004 53.5193 54.7466 53.3336 54.4023 53.2159C54.0579 53.0981 53.6183 53.0393 53.0836 53.0393ZM83.1677 56.8159C83.1677 57.5676 83.0725 58.2513 82.8822 58.8672C82.6919 59.474 82.4064 59.9993 82.0258 60.443C81.6542 60.8868 81.1875 61.2264 80.6256 61.4619C80.0728 61.6974 79.4294 61.8151 78.6953 61.8151C77.9341 61.8151 77.2725 61.6974 76.7106 61.4619C76.1487 61.2174 75.682 60.8777 75.3104 60.443C74.9389 59.9993 74.6625 59.4694 74.4812 58.8536C74.3 58.2378 74.2093 57.554 74.2093 56.8023C74.2093 55.8061 74.3725 54.9366 74.6987 54.194C75.025 53.4513 75.5189 52.8717 76.1805 52.4551C76.8511 52.0385 77.6939 51.8302 78.7089 51.8302C79.6786 51.8302 80.4942 52.0385 81.1558 52.4551C81.8174 52.8627 82.3158 53.4423 82.6511 54.194C82.9955 54.9366 83.1677 55.8106 83.1677 56.8159ZM75.5008 56.8159C75.5008 57.631 75.614 58.3328 75.8406 58.9215C76.0672 59.5102 76.4161 59.963 76.8873 60.28C77.3676 60.597 77.9703 60.7555 78.6953 60.7555C79.4294 60.7555 80.0275 60.597 80.4897 60.28C80.961 59.963 81.3099 59.5102 81.5364 58.9215C81.763 58.3328 81.8763 57.631 81.8763 56.8159C81.8763 55.5932 81.6225 54.6377 81.115 53.9494C80.6075 53.2521 79.8055 52.9034 78.7089 52.9034C77.9748 52.9034 77.3676 53.0619 76.8873 53.3789C76.4161 53.6868 76.0672 54.1351 75.8406 54.7238C75.614 55.3034 75.5008 56.0008 75.5008 56.8159ZM103.861 51.9796C104.667 51.9796 105.343 52.0566 105.886 52.2106C106.439 52.3645 106.852 52.6181 107.123 52.9713C107.404 53.3245 107.545 53.7955 107.545 54.3842C107.545 54.7645 107.472 55.1042 107.327 55.403C107.191 55.6928 106.983 55.9374 106.702 56.1366C106.43 56.3268 106.095 56.4581 105.696 56.5306V56.5985C106.104 56.6619 106.471 56.7796 106.797 56.9517C107.133 57.1238 107.395 57.3683 107.586 57.6853C107.776 58.0023 107.871 58.4144 107.871 58.9215C107.871 59.5102 107.735 60.0128 107.463 60.4294C107.191 60.837 106.802 61.1494 106.294 61.3668C105.796 61.5751 105.198 61.6793 104.5 61.6793H101.088V51.9796H103.861ZM104.106 56.1094C104.939 56.1094 105.51 55.9781 105.818 55.7155C106.127 55.4438 106.281 55.0453 106.281 54.52C106.281 53.9857 106.09 53.6053 105.71 53.3789C105.338 53.1434 104.74 53.0257 103.915 53.0257H102.311V56.1094H104.106ZM102.311 57.1283V60.6468H104.269C105.13 60.6468 105.728 60.4793 106.063 60.1442C106.398 59.8091 106.566 59.3698 106.566 58.8264C106.566 58.4823 106.489 58.1834 106.335 57.9298C106.19 57.6762 105.941 57.4815 105.587 57.3457C105.243 57.2008 104.772 57.1283 104.174 57.1283H102.311ZM125.698 61.6793V51.9796H126.921V60.5925H131.163V61.6793H125.698ZM154.02 61.6793H148.596V51.9796H154.02V53.0528H149.819V56.0823H153.775V57.1419H149.819V60.606H154.02V61.6793ZM176.2 61.6793L173.006 53.1751H172.951C172.97 53.3562 172.983 53.5872 172.992 53.8679C173.01 54.1487 173.024 54.4566 173.033 54.7917C173.042 55.1177 173.047 55.4528 173.047 55.797V61.6793H171.918V51.9796H173.726L176.717 59.9268H176.771L179.816 51.9796H181.611V61.6793H180.401V55.7155C180.401 55.3985 180.405 55.086 180.414 54.7781C180.423 54.4611 180.437 54.1668 180.455 53.8951C180.473 53.6144 180.487 53.3789 180.496 53.1887H180.442L177.206 61.6793H176.2ZM205.525 59.0845C205.525 59.6642 205.385 60.1577 205.104 60.5653C204.823 60.9638 204.42 61.2717 203.894 61.4891C203.378 61.7064 202.766 61.8151 202.059 61.8151C201.696 61.8151 201.348 61.797 201.012 61.7608C200.686 61.7245 200.387 61.6747 200.115 61.6113C199.843 61.5389 199.603 61.4528 199.395 61.3532V60.1849C199.721 60.3298 200.124 60.4611 200.604 60.5789C201.094 60.6966 201.597 60.7555 202.113 60.7555C202.594 60.7555 202.997 60.6921 203.323 60.5653C203.649 60.4385 203.894 60.2574 204.057 60.0219C204.22 59.7864 204.302 59.5102 204.302 59.1932C204.302 58.8762 204.234 58.6091 204.098 58.3917C203.962 58.1744 203.726 57.9751 203.391 57.794C203.065 57.6038 202.607 57.4045 202.018 57.1962C201.601 57.0423 201.234 56.8793 200.917 56.7072C200.609 56.5261 200.351 56.3223 200.142 56.0959C199.934 55.8694 199.775 55.6113 199.666 55.3215C199.567 55.0317 199.517 54.6966 199.517 54.3162C199.517 53.8 199.648 53.3608 199.911 52.9985C200.174 52.6272 200.536 52.3419 200.999 52.1427C201.47 51.9434 202.009 51.8438 202.616 51.8438C203.151 51.8438 203.64 51.8936 204.084 51.9932C204.528 52.0928 204.932 52.2242 205.294 52.3872L204.914 53.4332C204.578 53.2883 204.211 53.166 203.813 53.0664C203.423 52.9668 203.015 52.917 202.589 52.917C202.181 52.917 201.841 52.9759 201.57 53.0936C201.298 53.2113 201.094 53.3789 200.958 53.5962C200.822 53.8045 200.754 54.0491 200.754 54.3298C200.754 54.6559 200.822 54.9276 200.958 55.1449C201.094 55.3623 201.316 55.557 201.624 55.7291C201.932 55.9011 202.349 56.0868 202.875 56.2861C203.445 56.4944 203.926 56.7208 204.316 56.9653C204.714 57.2008 205.013 57.486 205.213 57.8211C205.421 58.1562 205.525 58.5774 205.525 59.0845Z" fill="white"/>
<path fill-rule="evenodd" clip-rule="evenodd" d="M5.53636 7.05851C2.30382 10.6296 0.25278 15.2902 0 20.4237H14.9131C15.0818 19.3835 15.491 18.4239 16.0817 17.6038L5.53636 7.05851ZM20.4237 14.9132C19.3835 15.0818 18.4239 15.491 17.6039 16.0817L7.05852 5.53637C10.6296 2.30381 15.2902 0.252781 20.4237 0V14.9132ZM25.4318 16.1076C24.6039 15.5029 23.6318 15.0843 22.5763 14.9132V0C27.7252 0.253543 32.3986 2.31618 35.9738 5.56561L25.4318 16.1076ZM28.0869 20.4237C27.9207 19.3986 27.521 18.4519 26.944 17.6397L37.4929 7.0908C40.7085 10.6577 42.7481 15.3057 43 20.4237H28.0869ZM26.9184 25.3961C27.5091 24.5761 27.9181 23.6165 28.0869 22.5763H43C42.7473 27.71 40.6962 32.3704 37.4638 35.9415L26.9184 25.3961ZM22.5763 28.0869C23.6165 27.9181 24.5761 27.5091 25.3963 26.9184L35.9415 37.4636C32.3704 40.6962 27.71 42.7473 22.5763 43V28.0869ZM17.6397 26.944C18.4518 27.521 19.3986 27.9207 20.4237 28.0869V43C15.3057 42.7481 10.6577 40.7085 7.09081 37.4929L17.6397 26.944ZM14.9131 22.5763C15.0843 23.6318 15.5029 24.6041 16.1075 25.4318L5.5656 35.9738C2.3162 32.3986 0.253546 27.7252 6.44747e-07 22.5763H14.9131Z" fill="white"/>
<path fill-rule="evenodd" clip-rule="evenodd" d="M13 44.3369C7.23343 42.1598 2.54905 37.6874 0 32V59.3338C0 63.0155 2.91015 66 6.5 66C10.0898 66 13 63.0155 13 59.3338V44.3369Z" fill="white"/>
</svg>
