<svg width="180" height="45" viewBox="0 0 180 45" fill="none" xmlns="http://www.w3.org/2000/svg">
<path d="M29.3878 12.5899C29.3878 15.259 28.8202 17.6115 27.685 19.6473C26.5499 21.6379 24.9523 23.1986 22.8922 24.3296C20.8741 25.4154 18.5198 25.9583 15.829 25.9583C15.4927 25.9583 15.0512 25.913 14.5047 25.8226C13.9581 25.7321 13.5167 25.5964 13.1804 25.4154C13.0963 25.3249 12.9281 25.1666 12.6758 24.9404C12.4236 24.6689 12.2975 24.3296 12.2975 23.9225C12.2975 23.651 12.4026 23.5379 12.6128 23.5832C12.9491 23.6737 13.3065 23.7867 13.6849 23.9225C14.0633 24.013 14.4837 24.0582 14.9461 24.0582C17.4266 24.0582 19.5078 23.176 21.1894 21.4117C22.8712 19.602 23.712 17.046 23.712 13.7434C23.712 10.4409 22.8712 7.79441 21.1894 5.80382C19.5078 3.81327 16.9642 2.81798 13.5587 2.81798C13.1804 2.81798 12.5918 2.84061 11.7929 2.88585C11.0362 2.93109 10.5947 3.11205 10.4686 3.42873C10.3004 3.83589 10.1953 4.53711 10.1533 5.53237C10.1533 6.48245 10.1533 7.45508 10.1533 8.45037V36.6802C10.1533 37.6755 10.1533 38.6029 10.1533 39.4624C10.1953 40.3219 10.3004 41.0232 10.4686 41.5661C10.5527 41.7924 10.889 41.9959 11.4776 42.1768C12.0662 42.3578 12.6758 42.4934 13.3065 42.5841C13.9792 42.6294 14.4416 42.6519 14.6939 42.6519C14.82 42.8329 14.8831 43.1495 14.8831 43.6021C14.9251 44.0543 14.8621 44.3709 14.6939 44.5518C13.4326 44.4615 12.2134 44.3937 11.0362 44.3484C9.90104 44.2581 8.72382 44.2128 7.50462 44.2128C6.32739 44.2128 5.1292 44.2581 3.90996 44.3484C2.73277 44.3937 1.51353 44.4615 0.252255 44.5518C0.0840852 44.3709 0 44.0543 0 43.6021C0.0420426 43.1495 0.126128 42.8329 0.252255 42.6519C0.50451 42.6519 0.945956 42.6294 1.5766 42.5841C2.24928 42.4934 2.87992 42.3578 3.46851 42.1768C4.09916 41.9959 4.4355 41.7924 4.47755 41.5661C4.6457 41.0232 4.7298 40.3219 4.7298 39.4624C4.77185 38.6029 4.79285 37.6755 4.79285 36.6802V8.38252C4.79285 7.38723 4.77185 6.45982 4.7298 5.60026C4.7298 4.69545 4.6457 3.97161 4.47755 3.42873C4.4355 3.15729 4.09916 2.95371 3.46851 2.81798C2.87992 2.68226 2.24928 2.59179 1.5766 2.54654C0.945956 2.45606 0.50451 2.41082 0.252255 2.41082C0.126128 2.22986 0.0420426 1.91318 0 1.46078C0 1.00838 0.0840852 0.691703 0.252255 0.510742C1.51353 0.555982 2.73277 0.623842 3.90996 0.714324C5.1292 0.759563 6.32739 0.782183 7.50462 0.782183C8.72382 0.782183 10.0271 0.759563 11.4145 0.714324C12.844 0.669082 14.4627 0.646461 16.2705 0.646461C18.4567 0.646461 20.5378 1.12148 22.5138 2.07152C24.5318 2.97632 26.1715 4.31091 27.4328 6.07526C28.7361 7.83963 29.3878 10.0112 29.3878 12.5899Z" fill="white"/>
<path d="M36.7919 19.6572C36.7919 19.6572 36.8965 19.3862 37.1056 18.8442C37.3382 18.2795 37.6402 17.5229 38.0123 16.5743C38.3841 15.6258 38.8023 14.5755 39.2671 13.4237C39.7552 12.2493 40.2436 11.0523 40.7317 9.83266C41.2197 8.5905 41.6845 7.40477 42.1261 6.27551C42.5909 5.14625 42.9975 4.15251 43.3464 3.29426C43.4394 3.1136 43.6368 2.91032 43.9391 2.68448C44.2644 2.45863 44.5086 2.3457 44.671 2.3457C44.7175 2.3457 44.7408 2.357 44.7408 2.37958C44.764 2.37958 44.7989 2.39087 44.8455 2.41346L51.7833 20.0976C52.2946 21.4076 52.5853 22.1303 52.6551 22.2658C52.7714 22.5143 52.992 22.7288 53.3176 22.9095C53.6661 23.0902 54.003 23.2257 54.3286 23.316C54.6771 23.3838 54.898 23.4176 54.9907 23.4176C55.0837 23.5306 55.1186 23.7113 55.0954 23.9597C55.0721 24.1855 55.0488 24.3211 55.0256 24.3662C54.3518 24.3211 53.7475 24.2872 53.2129 24.2646C52.6783 24.2194 52.0391 24.1968 51.2952 24.1968C50.5052 24.1968 49.8427 24.2194 49.3081 24.2646C48.7968 24.2872 48.1459 24.3211 47.3555 24.3662C47.2629 24.2759 47.2163 24.1178 47.2163 23.8919C47.2396 23.6661 47.2977 23.508 47.3904 23.4176C47.5997 23.4176 47.925 23.3838 48.3669 23.316C48.8084 23.2257 49.1104 23.1127 49.2732 22.9773C49.3663 22.8869 49.4128 22.7288 49.4128 22.503C49.4128 22.2997 49.3314 21.9609 49.1685 21.4866C49.029 20.9897 48.8433 20.4364 48.6107 19.8266C48.3785 19.2168 48.1459 18.6296 47.9133 18.065C47.6811 17.4778 47.4834 17.0035 47.321 16.6421C47.1814 16.2582 47.1117 16.0662 47.1117 16.0662C47.1117 16.0662 47.0884 16.0436 47.0419 15.9984C46.9954 15.9533 46.9489 15.9307 46.9023 15.9307C46.5538 15.9081 46.1239 15.8968 45.6126 15.8968C45.1013 15.8968 44.6249 15.8968 44.183 15.8968C44.067 15.8968 43.9508 15.8968 43.8345 15.8968C43.7182 15.8968 43.6135 15.8968 43.5208 15.8968C42.8235 15.8968 42.2307 15.9081 41.7427 15.9307C41.2546 15.9307 40.627 15.9533 39.8599 15.9984C39.8366 15.9984 39.8017 16.021 39.7552 16.0662C39.7091 16.0888 39.6858 16.1 39.6858 16.1C39.6858 16.1 39.5928 16.3259 39.4067 16.7776C39.2439 17.2293 39.0349 17.7714 38.7791 18.4037C38.5469 19.0135 38.3375 19.5895 38.1515 20.1315C37.9425 20.6961 37.803 21.1704 37.7332 21.5544C37.6867 21.9383 37.6634 22.2432 37.6634 22.4691C37.6634 22.7175 37.8379 22.9208 38.1864 23.0789C38.5585 23.2144 38.9303 23.3047 39.302 23.3499C39.6974 23.3951 39.9413 23.4176 40.0343 23.4176C40.0808 23.4628 40.1157 23.6096 40.139 23.8581C40.1622 24.0839 40.1506 24.2533 40.1041 24.3662C39.6625 24.3437 39.2788 24.3211 38.9535 24.2985C38.6512 24.2759 38.3375 24.2533 38.0123 24.2307C37.7099 24.2081 37.3033 24.1968 36.7919 24.1968C36.2806 24.1968 35.8506 24.2081 35.502 24.2307C35.1533 24.2533 34.8047 24.2759 34.4561 24.2985C34.1074 24.3211 33.6658 24.3437 33.1313 24.3662C33.0847 24.3211 33.0615 24.1855 33.0615 23.9597C33.0615 23.7113 33.0847 23.5306 33.1313 23.4176C33.3404 23.4176 33.6891 23.3725 34.1772 23.2822C34.6885 23.1692 35.0255 22.9998 35.1882 22.774C35.5368 22.3448 35.8274 21.8706 36.0598 21.3511C36.3155 20.8091 36.5595 20.2444 36.7919 19.6572ZM43.4511 6.34327L40.3479 14.4062C40.3479 14.4062 40.3479 14.4288 40.3479 14.4739C40.3712 14.5191 40.3944 14.5417 40.4177 14.5417C40.8592 14.5643 41.3822 14.5868 41.9865 14.6094C42.6141 14.6094 43.1138 14.6094 43.486 14.6094C44.0205 14.6094 44.497 14.5981 44.9152 14.5756C45.3568 14.553 45.8332 14.5304 46.3445 14.5078C46.391 14.5078 46.4143 14.4852 46.4143 14.4401C46.4375 14.3723 46.4492 14.3384 46.4492 14.3384L43.4511 6.34327Z" fill="white"/>
<path d="M66.7578 2.41356C67.4382 2.41356 68.1397 2.53797 68.8614 2.78679C69.5835 3.03561 70.2436 3.39753 70.8415 3.87256C71.4604 4.34755 71.9554 4.94701 72.3266 5.67084C72.6978 6.37206 72.8836 7.1977 72.8836 8.14772C72.8836 8.93942 72.6772 9.70851 72.2647 10.455C71.8729 11.2014 71.3572 11.8574 70.718 12.4229C70.0991 12.9884 69.4493 13.3956 68.7689 13.6444C69.3048 14.617 69.8205 15.5105 70.3155 16.3248C70.8106 17.1391 71.3262 17.9535 71.8625 18.7678C72.3988 19.5595 72.9971 20.4417 73.6569 21.4143C74.0903 22.0477 74.5544 22.5227 75.0494 22.8394C75.5648 23.1561 76.2352 23.3483 77.0602 23.4162C77.1427 23.5067 77.1634 23.6763 77.1221 23.9251C77.0808 24.174 77.0499 24.321 77.0292 24.3662C76.0189 24.3662 75.1729 24.3323 74.4925 24.2644C73.8323 24.174 73.3476 24.0722 73.0384 23.9591C72.832 23.8686 72.5433 23.7329 72.1721 23.5519C71.8006 23.3484 71.4397 22.9977 71.0892 22.5001C70.9654 22.3191 70.7387 21.9685 70.4084 21.4483C70.0785 20.928 69.6867 20.2946 69.2329 19.5482C68.7792 18.8017 68.2945 18.01 67.7788 17.1731C67.2631 16.3135 66.7681 15.4766 66.2937 14.6623C66.1286 14.3908 65.8193 14.2551 65.3656 14.2551H63.7876V20.4303C63.7876 20.4982 63.7876 20.5661 63.7876 20.6339C63.7876 20.7018 63.7876 20.7697 63.7876 20.8375C63.7876 21.2673 63.7876 21.6631 63.7876 22.0251C63.8082 22.3644 63.8495 22.6471 63.9115 22.8733C63.9527 22.9864 64.1175 23.0882 64.4065 23.1787C64.6951 23.2692 65.0044 23.337 65.3346 23.3822C65.6645 23.4049 65.8916 23.4162 66.0151 23.4162C66.077 23.5067 66.108 23.665 66.108 23.8912C66.1286 24.1174 66.0976 24.2758 66.0151 24.3662C65.3965 24.321 64.7983 24.2871 64.2207 24.2644C63.6638 24.2192 63.0862 24.1966 62.4883 24.1966C61.9107 24.1966 61.3228 24.2192 60.7245 24.2644C60.1267 24.2871 59.5181 24.321 58.8992 24.3662C58.8167 24.2758 58.7754 24.1174 58.7754 23.8912C58.796 23.665 58.8373 23.5067 58.8992 23.4162C59.0231 23.4162 59.2498 23.4049 59.58 23.3822C59.9099 23.337 60.2192 23.2692 60.5082 23.1787C60.8174 23.0882 60.9826 22.9864 61.0032 22.8733C61.0858 22.6019 61.1267 22.2513 61.1267 21.8215C61.1473 21.3917 61.1577 20.928 61.1577 20.4303L61.1267 6.28157C61.1267 5.78392 61.1164 5.32024 61.0961 4.89045C61.0961 4.43804 61.0548 4.07612 60.9722 3.80469C60.9516 3.66896 60.7865 3.5672 60.4772 3.49933C60.1882 3.43146 59.879 3.38622 59.5491 3.3636C59.2395 3.31835 59.0231 3.29573 58.8992 3.29573C58.8373 3.20528 58.796 3.04692 58.7754 2.82074C58.7754 2.59452 58.8167 2.43618 58.8992 2.3457C59.5181 2.36832 60.1163 2.40225 60.6936 2.44749C61.2918 2.47011 61.8797 2.48142 62.4573 2.48142C63.0552 2.48142 63.6947 2.47011 64.3755 2.44749C65.0766 2.42487 65.8709 2.41356 66.7578 2.41356ZM70.0682 8.45308C70.0682 7.00541 69.7073 5.81785 68.9852 4.89045C68.2842 3.96301 67.098 3.49933 65.4275 3.49933C65.2417 3.49933 64.9531 3.51064 64.5609 3.53326C64.1898 3.55589 63.9734 3.64634 63.9115 3.80469C63.8289 4.00826 63.7773 4.35886 63.7566 4.85652C63.7566 5.33155 63.7566 5.81785 63.7566 6.3155L63.7876 13.2372H65.3965C66.1802 13.2372 66.9226 13.045 67.624 12.6604C68.3457 12.2533 68.9336 11.699 69.3874 10.9978C69.8411 10.274 70.0682 9.42577 70.0682 8.45308Z" fill="white"/>
<path d="M82.7099 19.6572C82.7099 19.6572 82.8145 19.3862 83.0235 18.8442C83.2561 18.2795 83.5581 17.5229 83.9302 16.5743C84.302 15.6258 84.7203 14.5755 85.185 13.4237C85.6731 12.2493 86.1615 11.0523 86.6496 9.83266C87.1377 8.5905 87.6025 7.40477 88.044 6.27551C88.5088 5.14625 88.9158 4.15251 89.2643 3.29426C89.3574 3.1136 89.5547 2.91032 89.857 2.68448C90.1823 2.45863 90.4265 2.3457 90.5889 2.3457C90.6355 2.3457 90.6587 2.357 90.6587 2.37958C90.682 2.37958 90.7169 2.39087 90.7634 2.41346L97.7012 20.0976C98.2125 21.4076 98.5033 22.1303 98.573 22.2658C98.6893 22.5143 98.9099 22.7288 99.2356 22.9095C99.5841 23.0902 99.9209 23.2257 100.247 23.316C100.595 23.3838 100.816 23.4176 100.909 23.4176C101.002 23.5306 101.037 23.7113 101.013 23.9597C100.99 24.1855 100.967 24.3211 100.944 24.3662C100.27 24.3211 99.6655 24.2872 99.1309 24.2646C98.5963 24.2194 97.9571 24.1968 97.2132 24.1968C96.4231 24.1968 95.7606 24.2194 95.2261 24.2646C94.7147 24.2872 94.0639 24.3211 93.2738 24.3662C93.1808 24.2759 93.1343 24.1178 93.1343 23.8919C93.1575 23.6661 93.2157 23.508 93.3083 23.4176C93.5177 23.4176 93.8429 23.3838 94.2848 23.316C94.7264 23.2257 95.0283 23.1127 95.1912 22.9773C95.2842 22.8869 95.3307 22.7288 95.3307 22.503C95.3307 22.2997 95.2493 21.9609 95.0865 21.4866C94.9469 20.9897 94.7613 20.4364 94.5287 19.8266C94.2965 19.2168 94.0639 18.6296 93.8313 18.065C93.5991 17.4778 93.4014 17.0035 93.2389 16.6421C93.0994 16.2582 93.0296 16.0662 93.0296 16.0662C93.0296 16.0662 93.0063 16.0436 92.9598 15.9984C92.9133 15.9533 92.8668 15.9307 92.8203 15.9307C92.4718 15.9081 92.0419 15.8968 91.5305 15.8968C91.0192 15.8968 90.5428 15.8968 90.1009 15.8968C89.985 15.8968 89.8687 15.8968 89.7524 15.8968C89.6361 15.8968 89.5314 15.8968 89.4388 15.8968C88.7414 15.8968 88.1487 15.9081 87.6606 15.9307C87.1725 15.9307 86.5449 15.9533 85.7778 15.9984C85.7545 15.9984 85.7196 16.021 85.6735 16.0662C85.627 16.0888 85.6037 16.1 85.6037 16.1C85.6037 16.1 85.5107 16.3259 85.3246 16.7776C85.1618 17.2293 84.9528 17.7714 84.697 18.4037C84.4648 19.0135 84.2555 19.5895 84.0694 20.1315C83.8604 20.6961 83.7209 21.1704 83.6511 21.5544C83.6046 21.9383 83.5813 22.2432 83.5813 22.4691C83.5813 22.7175 83.7558 22.9208 84.1043 23.0789C84.4764 23.2144 84.8482 23.3047 85.2199 23.3499C85.6153 23.3951 85.8592 23.4176 85.9522 23.4176C85.9987 23.4628 86.0336 23.6096 86.0569 23.8581C86.0801 24.0839 86.0685 24.2533 86.022 24.3662C85.5805 24.3437 85.1967 24.3211 84.8714 24.2985C84.5695 24.2759 84.2555 24.2533 83.9302 24.2307C83.6278 24.2081 83.2212 24.1968 82.7099 24.1968C82.1986 24.1968 81.7687 24.2081 81.4198 24.2307C81.0713 24.2533 80.7228 24.2759 80.3739 24.2985C80.0254 24.3211 79.5838 24.3437 79.0493 24.3662C79.0027 24.3211 78.9795 24.1855 78.9795 23.9597C78.9795 23.7113 79.0027 23.5306 79.0493 23.4176C79.2582 23.4176 79.6071 23.3725 80.0952 23.2822C80.6065 23.1692 80.9433 22.9998 81.1062 22.774C81.4547 22.3448 81.7454 21.8706 81.9776 21.3511C82.2335 20.8091 82.4773 20.2444 82.7099 19.6572ZM89.369 6.34327L86.2658 14.4062C86.2658 14.4062 86.2658 14.4288 86.2658 14.4739C86.2891 14.5191 86.3123 14.5417 86.3356 14.5417C86.7771 14.5643 87.3005 14.5868 87.9044 14.6094C88.532 14.6094 89.0317 14.6094 89.4039 14.6094C89.9385 14.6094 90.4149 14.5981 90.8332 14.5756C91.2747 14.553 91.7511 14.5304 92.2624 14.5078C92.309 14.5078 92.3322 14.4852 92.3322 14.4401C92.3555 14.3723 92.3671 14.3384 92.3671 14.3384L89.369 6.34327Z" fill="white"/>
<path d="M113.424 2.44749C115.81 2.44749 117.862 2.9225 119.579 3.87256C121.296 4.79996 122.612 6.07801 123.526 7.70662C124.44 9.31265 124.897 11.1449 124.897 13.2033C124.897 14.6057 124.708 15.9742 124.329 17.3088C123.949 18.6434 123.303 19.8422 122.388 20.9054C121.496 21.9685 120.281 22.8168 118.742 23.4501C117.204 24.0609 115.286 24.3662 112.989 24.3662H104.827C104.738 24.2758 104.693 24.1174 104.693 23.8912C104.716 23.665 104.76 23.5067 104.827 23.4162C104.961 23.4162 105.206 23.4049 105.563 23.3822C105.92 23.337 106.254 23.2692 106.567 23.1787C106.901 23.0882 107.08 22.9864 107.102 22.8733C107.191 22.6019 107.236 22.2513 107.236 21.8215C107.258 21.3917 107.269 20.928 107.269 20.4303V6.28157C107.269 5.78392 107.258 5.32024 107.236 4.89045C107.236 4.43804 107.191 4.07612 107.102 3.80469C107.08 3.66896 106.901 3.5672 106.567 3.49933C106.254 3.43146 105.92 3.38622 105.563 3.3636C105.206 3.31835 104.961 3.29573 104.827 3.29573C104.76 3.20528 104.716 3.04692 104.693 2.82074C104.693 2.59452 104.738 2.43618 104.827 2.3457C105.496 2.36832 106.154 2.40225 106.801 2.44749C107.448 2.47011 108.083 2.48142 108.708 2.48142C109.354 2.48142 110.124 2.48142 111.015 2.48142C111.908 2.4588 112.71 2.44749 113.424 2.44749ZM110.146 6.34944V20.4643C110.146 20.6226 110.146 20.8827 110.146 21.2447C110.146 21.584 110.157 21.9233 110.179 22.2626C110.224 22.5793 110.269 22.7715 110.313 22.8394C110.447 23.0203 110.77 23.1448 111.283 23.2126C111.818 23.2805 112.387 23.3144 112.989 23.3144C114.55 23.3144 115.977 22.9751 117.271 22.2965C118.586 21.6179 119.646 20.5887 120.448 19.2089C121.251 17.8065 121.653 16.0308 121.653 13.8819C121.653 12.0044 121.396 10.4097 120.883 9.09774C120.393 7.7858 119.713 6.72267 118.843 5.90834C117.996 5.07139 117.026 4.47198 115.933 4.11006C114.862 3.72552 113.736 3.53326 112.554 3.53326C112.421 3.53326 112.175 3.54458 111.818 3.5672C111.461 3.5672 111.127 3.58978 110.815 3.63503C110.503 3.68027 110.324 3.75945 110.28 3.87256C110.213 4.09875 110.168 4.40411 110.146 4.78865C110.146 5.15057 110.146 5.53511 110.146 5.94227C110.146 6.01014 110.146 6.07801 110.146 6.14584C110.146 6.2137 110.146 6.28157 110.146 6.34944Z" fill="white"/>
<path d="M134.125 2.48142C134.724 2.48142 135.302 2.47011 135.86 2.44749C136.438 2.40225 137.037 2.36832 137.656 2.3457C137.739 2.43618 137.77 2.59452 137.749 2.82074C137.749 3.04692 137.718 3.20528 137.656 3.29573C137.532 3.29573 137.305 3.31835 136.975 3.3636C136.644 3.38622 136.334 3.43146 136.045 3.49933C135.757 3.5672 135.591 3.66896 135.55 3.80469C135.488 4.03088 135.447 4.32493 135.426 4.68685C135.426 5.04877 135.426 5.44462 135.426 5.87441C135.426 5.94227 135.426 6.01014 135.426 6.07801C135.426 6.14584 135.426 6.2137 135.426 6.28157V20.4303C135.426 20.4982 135.426 20.5661 135.426 20.6339C135.426 20.7018 135.426 20.7697 135.426 20.8375C135.426 21.2673 135.426 21.6631 135.426 22.0251C135.447 22.3644 135.488 22.6471 135.55 22.8733C135.591 22.9864 135.757 23.0882 136.045 23.1787C136.334 23.2692 136.644 23.337 136.975 23.3822C137.305 23.4049 137.532 23.4162 137.656 23.4162C137.718 23.5067 137.749 23.665 137.749 23.8912C137.77 24.1174 137.739 24.2758 137.656 24.3662C137.037 24.321 136.438 24.2871 135.86 24.2644C135.302 24.2192 134.724 24.1966 134.125 24.1966C133.547 24.1966 132.958 24.2192 132.36 24.2644C131.761 24.2871 131.151 24.321 130.532 24.3662C130.45 24.2758 130.408 24.1174 130.408 23.8912C130.429 23.665 130.47 23.5067 130.532 23.4162C130.656 23.4162 130.883 23.4049 131.213 23.3822C131.544 23.337 131.854 23.2692 132.143 23.1787C132.452 23.0882 132.618 22.9864 132.638 22.8733C132.721 22.6019 132.762 22.2513 132.762 21.8215C132.783 21.3917 132.793 20.928 132.793 20.4303V6.28157C132.793 5.78392 132.783 5.32024 132.762 4.89045C132.762 4.43804 132.721 4.07612 132.638 3.80469C132.618 3.66896 132.452 3.5672 132.143 3.49933C131.854 3.43146 131.544 3.38622 131.213 3.3636C130.883 3.31835 130.656 3.29573 130.532 3.29573C130.47 3.20528 130.429 3.04692 130.408 2.82074C130.408 2.59452 130.45 2.43618 130.532 2.3457C131.151 2.36832 131.761 2.40225 132.36 2.44749C132.958 2.47011 133.547 2.48142 134.125 2.48142Z" fill="white"/>
<path d="M151.756 2.3457C152.42 2.3457 152.967 2.39019 153.395 2.47916C153.845 2.54589 154.295 2.64598 154.745 2.77944C155.217 2.9129 155.795 3.06859 156.481 3.24655C156.609 4.09176 156.706 4.97037 156.77 5.88232C156.856 6.77205 156.91 7.43934 156.931 7.88421C156.953 7.99543 156.878 8.08438 156.706 8.15111C156.534 8.1956 156.395 8.21785 156.288 8.21785C156.138 8.21785 156.02 8.17336 155.935 8.08438C155.892 7.684 155.763 7.21692 155.549 6.68307C155.335 6.14926 155.034 5.63766 154.649 5.1483C154.285 4.65898 153.835 4.2586 153.299 3.9472C152.785 3.61356 152.195 3.44672 151.531 3.44672C150.674 3.44672 149.999 3.63581 149.506 4.01394C149.013 4.39207 148.66 4.85915 148.446 5.41524C148.231 5.9713 148.124 6.51627 148.124 7.05008C148.124 7.91757 148.338 8.64047 148.767 9.21877C149.217 9.79711 149.774 10.3087 150.438 10.7535C151.124 11.1984 151.81 11.6544 152.495 12.1215C153.009 12.4551 153.577 12.8221 154.199 13.2225C154.82 13.6229 155.42 14.0678 155.999 14.5571C156.577 15.0464 157.049 15.6136 157.413 16.2587C157.777 16.8815 157.96 17.5933 157.96 18.394C157.96 19.5729 157.638 20.6183 156.995 21.5303C156.374 22.42 155.559 23.1207 154.552 23.6322C153.567 24.1216 152.517 24.3662 151.403 24.3662C150.353 24.3662 149.335 24.2439 148.349 23.9992C147.385 23.7546 146.517 23.5544 145.745 23.3987C145.617 22.7536 145.499 22.0641 145.392 21.3301C145.306 20.5961 145.231 19.951 145.167 19.3949C145.124 18.8389 145.103 18.4941 145.103 18.3607C145.21 18.2494 145.328 18.1604 145.456 18.0937C145.606 18.0048 145.756 17.9603 145.906 17.9603C146.099 17.9603 146.217 18.0604 146.26 18.2605C146.324 18.5719 146.453 19.0057 146.645 19.5617C146.86 20.0956 147.16 20.6517 147.545 21.23C147.953 21.8083 148.467 22.2977 149.088 22.698C149.731 23.0762 150.524 23.2652 151.467 23.2652C152.474 23.2652 153.353 22.9204 154.102 22.2309C154.853 21.5191 155.227 20.5293 155.227 19.2615C155.227 18.3495 155.024 17.6378 154.617 17.1262C154.231 16.6146 153.717 16.1697 153.074 15.7916C152.453 15.4134 151.778 15.0131 151.049 14.5904C150.256 14.1011 149.431 13.5673 148.574 12.989C147.738 12.3884 147.031 11.6877 146.453 10.887C145.874 10.0863 145.585 9.14092 145.585 8.05101C145.585 6.8944 145.874 5.89344 146.453 5.04823C147.052 4.18074 147.824 3.51346 148.767 3.04634C149.71 2.57925 150.706 2.3457 151.756 2.3457Z" fill="white"/>
<path d="M165.989 2.54834C167.659 2.54834 169.497 2.51457 171.506 2.44702C173.515 2.37948 175.475 2.3457 177.386 2.3457C177.507 3.1788 177.665 3.94434 177.859 4.64233C178.052 5.34032 178.234 6.06083 178.403 6.80385C178.282 6.91644 178.076 6.9727 177.786 6.9727C177.471 6.9727 177.302 6.89392 177.278 6.7363C176.89 5.40787 176.346 4.56352 175.644 4.20326C174.943 3.84301 174.12 3.66286 173.176 3.66286H170.127C169.982 3.66286 169.715 3.67412 169.328 3.69664C168.941 3.69664 168.578 3.71916 168.239 3.7642C167.9 3.80923 167.707 3.88805 167.659 4.00064C167.586 4.22578 167.538 4.51848 167.513 4.87873C167.513 5.23899 167.513 5.6105 167.513 5.99327C167.513 6.1509 167.513 6.27471 167.513 6.36478V12.5116C167.513 12.6017 167.671 12.658 167.985 12.6805C168.3 12.703 168.651 12.7143 169.038 12.7143H170.889C171.736 12.7143 172.389 12.6918 172.849 12.6467C173.333 12.6017 173.684 12.5004 173.902 12.3428C174.12 12.1851 174.289 11.9487 174.41 11.6335C174.531 11.3183 174.664 10.8905 174.809 10.3501C174.834 10.1925 175.003 10.1137 175.318 10.1137C175.608 10.1137 175.814 10.17 175.935 10.2825V16.4969C175.838 16.587 175.644 16.632 175.354 16.632C175.064 16.632 174.882 16.5532 174.809 16.3956C174.64 15.7652 174.495 15.3148 174.374 15.0446C174.277 14.7519 174.18 14.5606 174.083 14.4705C174.011 14.3579 173.914 14.2678 173.793 14.2003C173.672 14.1103 173.394 14.054 172.958 14.0314C172.523 13.9864 172.039 13.9639 171.506 13.9639C170.998 13.9414 170.514 13.9301 170.054 13.9301C169.74 13.9301 169.377 13.9414 168.965 13.9639C168.578 13.9639 168.239 13.9864 167.949 14.0314C167.659 14.054 167.513 14.1215 167.513 14.2341V20.516C167.513 20.561 167.513 20.6286 167.513 20.7187C167.513 21.0339 167.513 21.4392 167.513 21.9345C167.538 22.4299 167.598 22.7113 167.695 22.7789C167.937 22.9365 168.227 23.0378 168.566 23.0828C168.929 23.1053 169.485 23.1166 170.236 23.1166H171.942C172.789 23.1166 173.624 23.0378 174.447 22.8802C175.269 22.7226 175.923 22.4974 176.406 22.2047C176.963 21.8895 177.399 21.4392 177.713 20.8537C178.028 20.2458 178.33 19.5929 178.621 18.8949C178.669 18.7598 178.839 18.6922 179.129 18.6922C179.565 18.6922 179.855 18.7598 180 18.8949C179.661 19.7955 179.286 20.7524 178.875 21.7657C178.487 22.7789 178.234 23.6457 178.112 24.3662C176.201 24.3662 174.301 24.3437 172.414 24.2987C170.526 24.2537 168.396 24.2311 166.025 24.2311C165.202 24.2311 164.464 24.2424 163.811 24.2649C163.158 24.3099 162.48 24.3325 161.778 24.3325C161.681 24.2424 161.633 24.0848 161.633 23.8596C161.657 23.6345 161.705 23.4768 161.778 23.3868C161.923 23.3868 162.189 23.3755 162.577 23.353C162.964 23.308 163.327 23.2404 163.666 23.1504C164.029 23.0603 164.222 22.959 164.247 22.8464C164.343 22.5762 164.391 22.2272 164.391 21.7994C164.416 21.3716 164.428 20.91 164.428 20.4147V6.33101C164.428 5.83564 164.416 5.3741 164.391 4.94629C164.391 4.49596 164.343 4.13571 164.247 3.86553C164.222 3.73042 164.029 3.62912 163.666 3.56157C163.327 3.49401 162.964 3.44898 162.577 3.42646C162.189 3.38142 161.923 3.35891 161.778 3.35891C161.705 3.26887 161.657 3.11124 161.633 2.8861C161.633 2.66092 161.681 2.50331 161.778 2.41325C162.504 2.43576 163.218 2.46954 163.92 2.51457C164.622 2.53709 165.311 2.54834 165.989 2.54834Z" fill="white"/>
<path d="M40.4085 37.8934C40.4085 38.4495 40.2665 38.9396 39.9829 39.3636C39.6989 39.7785 39.2997 40.1037 38.7846 40.3392C38.2801 40.5655 37.6916 40.6786 37.0187 40.6786C36.9347 40.6786 36.8243 40.6691 36.6878 40.6503C36.5509 40.6315 36.4405 40.6031 36.3565 40.5655C36.3356 40.5467 36.2934 40.5137 36.2307 40.4665C36.1675 40.4098 36.136 40.3392 36.136 40.2545C36.136 40.1977 36.162 40.1743 36.2149 40.1835C36.2989 40.2027 36.388 40.2261 36.4827 40.2545C36.5774 40.2733 36.6823 40.2828 36.7982 40.2828C37.4183 40.2828 37.9385 40.0988 38.359 39.7313C38.7795 39.3543 38.9897 38.8218 38.9897 38.1338C38.9897 37.4457 38.7795 36.8944 38.359 36.4797C37.9385 36.065 37.3027 35.8576 36.4511 35.8576C36.3565 35.8576 36.2094 35.8623 36.0098 35.8718C35.8206 35.8812 35.7102 35.9189 35.6786 35.9849C35.6366 36.0697 35.6103 36.2158 35.5998 36.4231C35.5998 36.6211 35.5998 36.8237 35.5998 37.031V42.9123C35.5998 43.1197 35.5998 43.3127 35.5998 43.4918C35.6103 43.6709 35.6366 43.817 35.6786 43.9301C35.6997 43.9773 35.7838 44.0198 35.9309 44.0574C36.078 44.095 36.2307 44.1234 36.388 44.1422C36.5565 44.1518 36.672 44.1564 36.7351 44.1564C36.7667 44.194 36.7825 44.2599 36.7825 44.3543C36.7927 44.4486 36.7769 44.5146 36.7351 44.5522C36.4196 44.5334 36.1147 44.5192 35.8206 44.5096C35.5368 44.4908 35.2425 44.4816 34.9377 44.4816C34.6433 44.4816 34.3438 44.4908 34.039 44.5096C33.7447 44.5192 33.4399 44.5334 33.1246 44.5522C33.0825 44.5146 33.0615 44.4486 33.0615 44.3543C33.072 44.2599 33.093 44.194 33.1246 44.1564C33.1876 44.1564 33.298 44.1518 33.4557 44.1422C33.6238 44.1234 33.7815 44.095 33.9286 44.0574C34.0863 44.0198 34.1704 43.9773 34.1809 43.9301C34.2229 43.817 34.2439 43.6709 34.2439 43.4918C34.2545 43.3127 34.2597 43.1197 34.2597 42.9123V37.0169C34.2597 36.8095 34.2545 36.6163 34.2439 36.4373C34.2439 36.2488 34.2229 36.098 34.1809 35.9849C34.1704 35.9283 34.0863 35.8859 33.9286 35.8576C33.7815 35.8294 33.6238 35.8105 33.4557 35.8011C33.298 35.7822 33.1876 35.7728 33.1246 35.7728C33.093 35.7351 33.072 35.6691 33.0615 35.5749C33.0615 35.4806 33.0825 35.4147 33.1246 35.377C33.4399 35.3864 33.7447 35.4005 34.039 35.4194C34.3438 35.4288 34.6433 35.4335 34.9377 35.4335C35.2425 35.4335 35.5683 35.4288 35.9151 35.4194C36.2725 35.4099 36.6771 35.4052 37.1292 35.4052C37.6758 35.4052 38.1961 35.5042 38.6899 35.7021C39.1944 35.8906 39.6042 36.1687 39.9198 36.5362C40.2456 36.9038 40.4085 37.3562 40.4085 37.8934Z" fill="white"/>
<path d="M55.4199 35.4052C55.7601 35.4052 56.1107 35.4571 56.4718 35.5607C56.8325 35.6644 57.1626 35.8152 57.4618 36.0131C57.771 36.2111 58.0187 36.4608 58.2044 36.7624C58.3898 37.0546 58.4827 37.3986 58.4827 37.7945C58.4827 38.1243 58.3797 38.4448 58.1735 38.7558C57.9772 39.0667 57.7195 39.3402 57.3998 39.5757C57.0906 39.8115 56.7655 39.981 56.4253 40.0846C56.6935 40.49 56.9513 40.8623 57.1986 41.2017C57.4463 41.5408 57.704 41.8802 57.9722 42.2196C58.2404 42.5494 58.5396 42.9169 58.8693 43.3222C59.086 43.5861 59.3182 43.784 59.5655 43.9159C59.8233 44.0479 60.1584 44.128 60.571 44.1564C60.6124 44.194 60.6228 44.2646 60.6019 44.3685C60.5814 44.472 60.5659 44.5334 60.5555 44.5522C60.0504 44.5522 59.6274 44.538 59.2873 44.5096C58.9571 44.472 58.7149 44.4298 58.5601 44.3827C58.4567 44.3447 58.3124 44.2883 58.127 44.2128C57.9413 44.128 57.7609 43.9819 57.5856 43.7748C57.5237 43.6992 57.4103 43.5531 57.245 43.3364C57.0802 43.1197 56.8843 42.8555 56.6572 42.5448C56.4304 42.2338 56.1881 41.9036 55.9304 41.555C55.6726 41.1968 55.4249 40.8482 55.1877 40.5087C55.1053 40.3956 54.9505 40.3392 54.7237 40.3392H53.935V42.9123C53.935 42.9406 53.935 42.9686 53.935 42.997C53.935 43.0254 53.935 43.0538 53.935 43.0818C53.935 43.2609 53.935 43.4258 53.935 43.5765C53.945 43.718 53.9655 43.8358 53.9965 43.9301C54.0174 43.9773 54.0998 44.0198 54.2442 44.0574C54.3885 44.095 54.5433 44.1234 54.7082 44.1422C54.8731 44.1518 54.9868 44.1564 55.0484 44.1564C55.0793 44.194 55.0948 44.2599 55.0948 44.3543C55.1053 44.4486 55.0898 44.5146 55.0484 44.5522C54.7392 44.5334 54.44 44.5192 54.1513 44.5096C53.873 44.4908 53.5839 44.4816 53.2852 44.4816C52.9965 44.4816 52.7023 44.4908 52.4032 44.5096C52.1044 44.5192 51.7998 44.5334 51.4906 44.5522C51.4492 44.5146 51.4287 44.4486 51.4287 44.3543C51.4392 44.2599 51.4597 44.194 51.4906 44.1564C51.5525 44.1564 51.6659 44.1518 51.8308 44.1422C51.9961 44.1234 52.1505 44.095 52.2952 44.0574C52.4496 44.0198 52.5321 43.9773 52.5425 43.9301C52.5839 43.817 52.6044 43.6709 52.6044 43.4918C52.6149 43.3127 52.6199 43.1197 52.6199 42.9123L52.6044 37.0169C52.6044 36.8095 52.5994 36.6163 52.589 36.4373C52.589 36.2488 52.5684 36.098 52.527 35.9849C52.5166 35.9283 52.4341 35.8859 52.2797 35.8576C52.135 35.8294 51.9806 35.8105 51.8153 35.8011C51.6609 35.7822 51.5525 35.7728 51.4906 35.7728C51.4597 35.7351 51.4392 35.6691 51.4287 35.5749C51.4287 35.4806 51.4492 35.4147 51.4906 35.377C51.7998 35.3864 52.099 35.4005 52.3877 35.4194C52.6869 35.4288 52.981 35.4335 53.2697 35.4335C53.5689 35.4335 53.8885 35.4288 54.2287 35.4194C54.5793 35.4099 54.9764 35.4052 55.4199 35.4052ZM57.0751 37.9217C57.0751 37.3185 56.8944 36.8237 56.5337 36.4373C56.1831 36.0508 55.5898 35.8576 54.7546 35.8576C54.6618 35.8576 54.5174 35.8623 54.3216 35.8718C54.1358 35.8812 54.0275 35.9189 53.9965 35.9849C53.9555 36.0697 53.9295 36.2158 53.9195 36.4231C53.9195 36.6211 53.9195 36.8237 53.9195 37.031L53.935 39.9151H54.7392C55.1312 39.9151 55.5023 39.8349 55.853 39.6746C56.214 39.5051 56.5078 39.2742 56.7346 38.982C56.9617 38.6804 57.0751 38.327 57.0751 37.9217Z" fill="white"/>
<path d="M74.366 35.377C74.9927 35.377 75.581 35.488 76.1303 35.7101C76.6896 35.9322 77.1813 36.2514 77.6057 36.6679C78.0298 37.075 78.3623 37.5609 78.6036 38.1254C78.854 38.6806 78.9796 39.2958 78.9796 39.9714C78.9796 40.61 78.854 41.2068 78.6036 41.7623C78.3623 42.3083 78.0298 42.794 77.6057 43.2195C77.1813 43.636 76.6896 43.9647 76.1303 44.205C75.581 44.4366 74.9927 44.5522 74.366 44.5522C73.7488 44.5522 73.1608 44.4411 72.6014 44.2189C72.0518 43.9971 71.5652 43.6823 71.1408 43.2753C70.7261 42.8588 70.3983 42.373 70.1574 41.8176C69.9164 41.2532 69.7959 40.6379 69.7959 39.9714C69.7959 39.3331 69.9164 38.7361 70.1574 38.1809C70.3983 37.6256 70.7261 37.1398 71.1408 36.7234C71.5652 36.2977 72.0518 35.9692 72.6014 35.7378C73.1608 35.4973 73.7488 35.377 74.366 35.377ZM74.1634 35.835C73.6333 35.835 73.18 35.9507 72.8041 36.182C72.4281 36.4041 72.1195 36.7002 71.8785 37.0704C71.647 37.4406 71.4737 37.8524 71.3579 38.3058C71.2519 38.7593 71.1987 39.2126 71.1987 39.666C71.1987 40.1935 71.271 40.7211 71.4158 41.2486C71.5699 41.7668 71.7917 42.2435 72.0808 42.6784C72.3702 43.1039 72.7219 43.4462 73.1366 43.7053C73.561 43.9647 74.048 44.0943 74.5972 44.0943C75.1277 44.0943 75.581 43.9832 75.9569 43.761C76.3329 43.5298 76.6415 43.2244 76.8825 42.8449C77.1234 42.4653 77.2971 42.0488 77.4031 41.5955C77.5189 41.133 77.5768 40.6748 77.5768 40.2214C77.5768 39.6938 77.4994 39.1712 77.3452 38.6528C77.2005 38.1346 76.9787 37.6627 76.6799 37.237C76.3908 36.8113 76.034 36.4735 75.6096 36.2237C75.1953 35.9646 74.713 35.835 74.1634 35.835Z" fill="white"/>
<path d="M95.6353 35.4052C95.9594 35.4052 96.2931 35.4429 96.6364 35.5183C96.9801 35.5843 97.2943 35.6974 97.579 35.8576C97.8634 36.0084 98.0943 36.2158 98.2707 36.4797C98.4475 36.7436 98.5359 37.0734 98.5359 37.4693C98.5359 37.818 98.4475 38.1338 98.2707 38.4165C98.1039 38.6993 97.9028 38.9302 97.6674 39.1093C97.4416 39.2884 97.2453 39.4107 97.0784 39.4767C97.0489 39.4959 97.0489 39.5146 97.0784 39.5334C97.2548 39.5427 97.4611 39.5994 97.6965 39.703C97.9322 39.8065 98.1628 39.9576 98.3886 40.1555C98.6243 40.3438 98.8155 40.5747 98.9628 40.8482C99.1102 41.1216 99.1839 41.4277 99.1839 41.7671C99.1839 42.1629 99.1102 42.5306 98.9628 42.8697C98.8255 43.2091 98.5801 43.5201 98.2265 43.8028C97.8832 44.0762 97.4317 44.2695 96.8721 44.3827C96.3126 44.4862 95.7583 44.5426 95.2083 44.5522H91.8959C91.8564 44.5146 91.8369 44.4486 91.8369 44.3543C91.8465 44.2599 91.8664 44.194 91.8959 44.1564C91.9548 44.1564 92.0627 44.1518 92.2196 44.1422C92.3765 44.1234 92.5239 44.095 92.6613 44.0574C92.8086 44.0198 92.8871 43.9773 92.897 43.9301C92.936 43.817 92.9559 43.6709 92.9559 43.4918C92.9655 43.3127 92.9707 43.1197 92.9707 42.9123V37.0169C92.9707 36.8095 92.9655 36.6163 92.9559 36.4373C92.9559 36.2488 92.936 36.098 92.897 35.9849C92.8871 35.9283 92.8086 35.8859 92.6613 35.8576C92.5239 35.8294 92.3765 35.8105 92.2196 35.8011C92.0627 35.7822 91.9548 35.7728 91.8959 35.7728C91.8664 35.7351 91.8465 35.6691 91.8369 35.5749C91.8369 35.4806 91.8564 35.4147 91.8959 35.377C92.1902 35.3864 92.4797 35.4005 92.7644 35.4194C93.0491 35.4288 93.3287 35.4335 93.6035 35.4335C93.8882 35.4335 94.1925 35.4288 94.5166 35.4194C94.8404 35.4099 95.2135 35.4052 95.6353 35.4052ZM94.2219 39.9292V42.9264C94.2219 42.9924 94.2219 43.096 94.2219 43.2375C94.2319 43.3694 94.2466 43.4967 94.2661 43.6191C94.2857 43.7418 94.3103 43.8216 94.3398 43.8595C94.4477 43.9727 94.5951 44.0432 94.7814 44.0716C94.9778 44.0996 95.2083 44.1138 95.4735 44.1138C95.8367 44.1138 96.19 44.062 96.5336 43.9585C96.8869 43.8546 97.1812 43.6567 97.4169 43.3648C97.6527 43.063 97.7702 42.6342 97.7702 42.0781C97.7702 41.7295 97.7016 41.3947 97.5643 41.0744C97.4269 40.7446 97.1617 40.4712 96.769 40.2545C96.3863 40.0378 95.8268 39.9292 95.0905 39.9292H94.2219ZM94.2219 39.4061H95.4146C95.8463 39.4061 96.1948 39.326 96.46 39.1657C96.7248 39.0057 96.9163 38.8029 97.0342 38.5579C97.1617 38.3034 97.2254 38.0442 97.2254 37.7803C97.2254 37.1677 97.0195 36.6965 96.6073 36.3666C96.2047 36.0273 95.6699 35.8576 95.0024 35.8576C94.914 35.8576 94.7767 35.8623 94.5899 35.8718C94.4135 35.8812 94.3103 35.9189 94.2809 35.9849C94.2514 36.0603 94.2319 36.1781 94.2219 36.3383C94.2219 36.4985 94.2219 36.6682 94.2219 36.8473C94.2219 36.885 94.2219 36.9179 94.2219 36.9462C94.2219 36.9745 94.2219 37.0028 94.2219 37.031V39.4061Z" fill="white"/>
<path d="M113.805 42.9006C113.805 42.9194 113.805 42.9477 113.805 42.9852C113.805 43.0699 113.805 43.1828 113.805 43.3241C113.805 43.4559 113.809 43.578 113.816 43.691C113.823 43.8039 113.838 43.8698 113.86 43.8886C113.932 43.9544 114.019 43.9969 114.121 44.0157C114.23 44.0253 114.397 44.0299 114.622 44.0299H115.221C115.424 44.0299 115.646 44.0015 115.885 43.9452C116.132 43.8794 116.328 43.7806 116.473 43.6488C116.604 43.5263 116.724 43.3571 116.833 43.1407C116.949 42.924 117.05 42.6326 117.137 42.2653C117.152 42.209 117.203 42.1807 117.29 42.1807C117.42 42.1807 117.508 42.209 117.551 42.2653C117.45 42.6418 117.337 43.0419 117.214 43.4651C117.097 43.8886 117.021 44.2508 116.985 44.5522C116.411 44.5522 115.841 44.5426 115.275 44.5238C114.709 44.5051 114.07 44.4955 113.359 44.4955C113.112 44.4955 112.89 44.5005 112.695 44.5097C112.498 44.5285 112.295 44.538 112.085 44.538C112.056 44.5005 112.041 44.4346 112.041 44.3404C112.048 44.2462 112.063 44.1804 112.085 44.1428C112.128 44.1428 112.208 44.1382 112.324 44.1287C112.44 44.1099 112.549 44.0816 112.651 44.044C112.76 44.0065 112.818 43.964 112.825 43.9169C112.854 43.8039 112.869 43.6581 112.869 43.4792C112.876 43.3004 112.88 43.1078 112.88 42.9006V37.0144C112.88 36.8073 112.876 36.6144 112.869 36.4356C112.869 36.2474 112.854 36.0969 112.825 35.9839C112.818 35.9275 112.76 35.8851 112.651 35.8569C112.549 35.8287 112.44 35.8099 112.324 35.8004C112.208 35.7816 112.128 35.7722 112.085 35.7722C112.063 35.7346 112.048 35.6687 112.041 35.5746C112.041 35.4805 112.056 35.4146 112.085 35.377C112.303 35.3864 112.517 35.4005 112.727 35.4193C112.938 35.4287 113.145 35.4334 113.348 35.4334C113.558 35.4334 113.762 35.4287 113.958 35.4193C114.161 35.4005 114.371 35.3864 114.589 35.377C114.618 35.4146 114.629 35.4805 114.622 35.5746C114.622 35.6687 114.611 35.7346 114.589 35.7722C114.546 35.7722 114.466 35.7816 114.35 35.8004C114.234 35.8099 114.125 35.8287 114.023 35.8569C113.921 35.8851 113.863 35.9275 113.849 35.9839C113.827 36.0781 113.812 36.2004 113.805 36.3509C113.805 36.5015 113.805 36.6662 113.805 36.845C113.805 36.8732 113.805 36.9015 113.805 36.9297C113.805 36.9579 113.805 36.9861 113.805 37.0144V42.9006Z" fill="white"/>
<path d="M130.749 35.4614C131.584 35.4614 132.504 35.4473 133.508 35.4192C134.512 35.391 135.492 35.377 136.448 35.377C136.509 35.7241 136.588 36.043 136.684 36.3339C136.781 36.6247 136.872 36.9249 136.957 37.2345C136.896 37.2814 136.793 37.3049 136.648 37.3049C136.491 37.3049 136.406 37.272 136.394 37.2063C136.2 36.6528 135.928 36.301 135.577 36.1509C135.226 36.0008 134.815 35.9258 134.343 35.9258H132.818C132.746 35.9258 132.613 35.9305 132.419 35.9398C132.225 35.9398 132.044 35.9492 131.875 35.968C131.705 35.9868 131.608 36.0196 131.584 36.0665C131.548 36.1603 131.524 36.2823 131.511 36.4324C131.511 36.5825 131.511 36.7373 131.511 36.8967C131.511 36.9624 131.511 37.014 131.511 37.0515V39.6127C131.511 39.6501 131.59 39.6738 131.748 39.6829C131.905 39.6925 132.08 39.6971 132.274 39.6971H133.2C133.623 39.6971 133.95 39.6879 134.18 39.6692C134.422 39.6501 134.597 39.6081 134.706 39.5424C134.815 39.4768 134.9 39.3783 134.96 39.247C135.021 39.1156 135.087 38.9373 135.159 38.7121C135.172 38.6464 135.257 38.6136 135.414 38.6136C135.559 38.6136 135.662 38.637 135.723 38.684V41.2733C135.674 41.3107 135.577 41.3294 135.432 41.3294C135.287 41.3294 135.196 41.2966 135.159 41.2309C135.075 40.9683 135.002 40.7808 134.942 40.6682C134.893 40.5461 134.845 40.4663 134.797 40.4289C134.76 40.3819 134.712 40.3445 134.651 40.3163C134.591 40.2788 134.452 40.2555 134.234 40.246C134.016 40.2273 133.774 40.2178 133.508 40.2178C133.254 40.2086 133.012 40.2036 132.782 40.2036C132.625 40.2036 132.443 40.2086 132.237 40.2178C132.044 40.2178 131.875 40.2273 131.729 40.246C131.584 40.2555 131.511 40.2834 131.511 40.3304V42.948C131.511 42.9668 131.511 42.9946 131.511 43.0324C131.511 43.1637 131.511 43.3325 131.511 43.539C131.524 43.7452 131.554 43.8627 131.602 43.8906C131.723 43.9563 131.868 43.9986 132.038 44.0174C132.219 44.0269 132.498 44.0315 132.873 44.0315H133.726C134.149 44.0315 134.567 43.9986 134.978 43.933C135.39 43.8673 135.716 43.7734 135.958 43.6516C136.237 43.5203 136.454 43.3325 136.612 43.0885C136.769 42.8354 136.92 42.5633 137.065 42.2724C137.09 42.2162 137.174 42.188 137.32 42.188C137.537 42.188 137.683 42.2162 137.755 42.2724C137.586 42.6476 137.398 43.0465 137.192 43.4684C136.999 43.8906 136.872 44.2518 136.811 44.5522C135.856 44.5522 134.906 44.5426 133.962 44.5239C133.018 44.5052 131.953 44.4957 130.767 44.4957C130.356 44.4957 129.987 44.5006 129.66 44.5098C129.334 44.5285 128.994 44.5381 128.644 44.5381C128.595 44.5006 128.571 44.435 128.571 44.3411C128.583 44.2472 128.608 44.1815 128.644 44.1441C128.717 44.1441 128.85 44.1395 129.043 44.13C129.237 44.1113 129.418 44.083 129.588 44.0456C129.769 44.0082 129.866 43.9658 129.878 43.9189C129.926 43.8062 129.951 43.6608 129.951 43.4825C129.963 43.3042 129.969 43.1122 129.969 42.9057V37.0375C129.969 36.8311 129.963 36.6388 129.951 36.4605C129.951 36.2729 129.926 36.1228 129.878 36.0102C129.866 35.9539 129.769 35.9117 129.588 35.8835C129.418 35.8554 129.237 35.8367 129.043 35.8273C128.85 35.8085 128.717 35.7991 128.644 35.7991C128.608 35.7616 128.583 35.6959 128.571 35.6021C128.571 35.5083 128.595 35.4426 128.644 35.4051C129.007 35.4145 129.364 35.4286 129.715 35.4473C130.066 35.4567 130.41 35.4614 130.749 35.4614Z" fill="white"/>
<path d="M150.57 35.4335C150.791 35.4335 150.986 35.4288 151.154 35.4194C151.322 35.4005 151.477 35.3864 151.619 35.377C151.671 35.556 151.769 35.8341 151.91 36.2111C152.061 36.5881 152.234 37.0357 152.428 37.5541C152.632 38.0631 152.848 38.605 153.078 39.1799C153.308 39.7548 153.534 40.3296 153.755 40.9045C153.976 41.4702 154.18 41.9979 154.366 42.4881C154.374 42.5069 154.392 42.5165 154.419 42.5165C154.445 42.5165 154.463 42.4977 154.472 42.4597C154.728 41.7625 154.958 41.1358 155.162 40.5797C155.365 40.014 155.569 39.4533 155.772 38.8972C155.984 38.3317 156.214 37.7096 156.462 37.031C156.542 36.8143 156.626 36.5786 156.714 36.3242C156.803 36.0697 156.878 35.8482 156.94 35.6597C157.002 35.4712 157.033 35.377 157.033 35.377C157.449 35.4052 157.789 35.4194 158.055 35.4194C158.285 35.4194 158.541 35.4147 158.824 35.4052C159.116 35.3958 159.342 35.3864 159.501 35.377C159.51 35.3958 159.519 35.4665 159.528 35.589C159.536 35.7115 159.541 35.7728 159.541 35.7728C159.479 35.7728 159.377 35.7822 159.236 35.8011C159.103 35.8199 158.975 35.8482 158.851 35.8859C158.727 35.9236 158.652 35.966 158.625 36.0131C158.599 36.0791 158.581 36.1639 158.572 36.2676C158.563 36.3713 158.559 36.4655 158.559 36.5504C158.568 36.786 158.577 37.1441 158.586 37.6248C158.594 38.1055 158.603 38.6474 158.612 39.2508C158.63 39.8445 158.643 40.4336 158.652 41.0177C158.67 41.6022 158.683 42.1207 158.692 42.5728C158.7 42.8367 158.714 43.0867 158.731 43.3222C158.749 43.5577 158.789 43.7556 158.851 43.9159C158.877 43.9819 158.957 44.0337 159.09 44.0716C159.222 44.0996 159.355 44.1234 159.488 44.1422C159.629 44.1518 159.718 44.1564 159.753 44.1564C159.789 44.2224 159.802 44.3025 159.793 44.3968C159.793 44.4816 159.789 44.5334 159.78 44.5522C159.523 44.5334 159.271 44.5192 159.024 44.5096C158.784 44.4908 158.524 44.4816 158.24 44.4816C157.94 44.4816 157.679 44.4908 157.457 44.5096C157.236 44.5192 156.975 44.5334 156.675 44.5522C156.666 44.5334 156.657 44.4766 156.648 44.3827C156.639 44.2883 156.648 44.2128 156.675 44.1564C156.728 44.1564 156.812 44.1518 156.927 44.1422C157.042 44.1234 157.157 44.1046 157.272 44.0858C157.387 44.0574 157.471 44.0291 157.524 44.0007C157.568 43.9727 157.599 43.8925 157.617 43.7606C157.634 43.6287 157.643 43.5155 157.643 43.4212C157.643 43.3176 157.639 43.1857 157.63 43.0254C157.621 42.8555 157.617 42.719 157.617 42.6154C157.599 41.9462 157.581 41.3053 157.564 40.6928C157.546 40.0707 157.528 39.4391 157.511 38.7982C157.493 38.1479 157.471 37.4504 157.444 36.7059C157.444 36.6776 157.435 36.6258 157.418 36.5504C157.4 36.475 157.369 36.4373 157.325 36.4373C157.307 36.4373 157.285 36.4702 157.258 36.5362C156.993 37.2431 156.745 37.8981 156.515 38.5013C156.294 39.1047 156.077 39.6888 155.865 40.2545C155.653 40.8106 155.436 41.3808 155.215 41.965C155.002 42.5399 154.772 43.1619 154.525 43.8312C154.507 43.8688 154.467 43.9443 154.405 44.0574C154.343 44.1706 154.277 44.2787 154.206 44.3827C154.144 44.4766 154.087 44.5288 154.034 44.538C154.016 44.5476 153.985 44.5426 153.941 44.5238C153.932 44.5146 153.923 44.5096 153.914 44.5096L150.756 36.4514C150.747 37.0546 150.734 37.6766 150.716 38.3175C150.698 38.9584 150.681 39.5806 150.663 40.1835C150.654 40.7868 150.641 41.3337 150.623 41.8238C150.614 42.3044 150.605 42.6956 150.597 42.997C150.588 43.2892 150.583 43.4496 150.583 43.4776C150.583 43.5435 150.588 43.6191 150.597 43.7038C150.605 43.7794 150.619 43.8454 150.637 43.9017C150.663 43.9677 150.751 44.0198 150.902 44.0574C151.061 44.095 151.22 44.1234 151.38 44.1422C151.539 44.1518 151.636 44.1564 151.671 44.1564C151.707 44.194 151.72 44.2646 151.711 44.3685C151.703 44.472 151.694 44.5334 151.685 44.5522C151.428 44.5334 151.207 44.5192 151.021 44.5096C150.835 44.4908 150.601 44.4816 150.318 44.4816C150.017 44.4816 149.765 44.4908 149.562 44.5096C149.358 44.5192 149.106 44.5334 148.805 44.5522C148.796 44.5334 148.787 44.4766 148.779 44.3827C148.77 44.2883 148.779 44.2128 148.805 44.1564C148.858 44.1564 148.96 44.1468 149.11 44.128C149.27 44.1092 149.424 44.0808 149.575 44.0432C149.725 44.0057 149.818 43.9585 149.853 43.9017C149.916 43.8078 149.955 43.7088 149.973 43.6049C149.991 43.4918 150.004 43.3598 150.013 43.2091C150.039 42.3796 150.062 41.5834 150.079 40.8198C150.106 40.0566 150.123 39.3731 150.132 38.7699C150.15 38.1573 150.163 37.6625 150.172 37.2855C150.181 36.8991 150.185 36.6729 150.185 36.6069C150.185 36.5032 150.181 36.4043 150.172 36.31C150.172 36.2158 150.159 36.131 150.132 36.0556C150.114 35.999 150.039 35.9519 149.907 35.9142C149.783 35.8671 149.65 35.8341 149.508 35.8152C149.376 35.7869 149.283 35.7728 149.23 35.7728C149.221 35.7728 149.217 35.7115 149.217 35.589C149.217 35.4571 149.221 35.3864 149.23 35.377C149.433 35.3864 149.597 35.3958 149.721 35.4052C149.845 35.4147 149.969 35.4241 150.092 35.4335C150.216 35.4335 150.376 35.4335 150.57 35.4335Z" fill="white"/>
<path d="M175.504 35.377C175.789 35.377 176.023 35.3955 176.206 35.4325C176.399 35.4603 176.592 35.502 176.785 35.5577C176.987 35.6133 177.235 35.6781 177.529 35.7523C177.584 36.1045 177.625 36.4705 177.653 36.8505C177.69 37.2213 177.712 37.4993 177.722 37.6846C177.731 37.731 177.699 37.7681 177.625 37.7959C177.552 37.8144 177.492 37.8237 177.446 37.8237C177.382 37.8237 177.331 37.8051 177.295 37.7681C177.277 37.6013 177.221 37.4066 177.129 37.1842C177.038 36.9618 176.909 36.7486 176.744 36.5447C176.588 36.3408 176.395 36.174 176.165 36.0442C175.945 35.9052 175.692 35.8357 175.408 35.8357C175.04 35.8357 174.751 35.9145 174.54 36.072C174.329 36.2296 174.177 36.4242 174.085 36.6559C173.993 36.8876 173.947 37.1147 173.947 37.3371C173.947 37.6986 174.039 37.9998 174.223 38.2407C174.416 38.4817 174.655 38.6949 174.939 38.8802C175.233 39.0657 175.527 39.2554 175.821 39.45C176.041 39.5892 176.285 39.7423 176.551 39.909C176.817 40.0757 177.074 40.2612 177.322 40.4649C177.57 40.6689 177.772 40.9053 177.928 41.1739C178.085 41.4337 178.163 41.7301 178.163 42.0639C178.163 42.5549 178.025 42.9905 177.749 43.3706C177.483 43.7413 177.134 44.0332 176.702 44.2463C176.28 44.4503 175.83 44.5522 175.352 44.5522C174.902 44.5522 174.466 44.5013 174.044 44.3994C173.63 44.2972 173.259 44.2139 172.928 44.149C172.873 43.8801 172.822 43.5931 172.776 43.2873C172.74 42.9814 172.707 42.7125 172.68 42.481C172.662 42.2491 172.652 42.1054 172.652 42.0499C172.699 42.0035 172.749 41.9666 172.804 41.9387C172.868 41.9017 172.933 41.8829 172.997 41.8829C173.08 41.8829 173.13 41.9247 173.148 42.0081C173.176 42.1378 173.231 42.3185 173.314 42.5504C173.406 42.7729 173.534 43.0044 173.699 43.2454C173.874 43.4864 174.094 43.6904 174.361 43.8571C174.636 44.0148 174.976 44.0936 175.38 44.0936C175.812 44.0936 176.188 43.9499 176.509 43.6625C176.831 43.3657 176.992 42.9535 176.992 42.4252C176.992 42.045 176.904 41.7486 176.73 41.5355C176.565 41.3224 176.344 41.1369 176.069 40.9793C175.803 40.822 175.513 40.6549 175.201 40.4788C174.861 40.2752 174.507 40.0527 174.14 39.8117C173.782 39.5613 173.479 39.2694 173.231 38.9358C172.983 38.6022 172.859 38.2083 172.859 37.7542C172.859 37.2722 172.983 36.8552 173.231 36.503C173.488 36.1415 173.819 35.8635 174.223 35.6689C174.627 35.4743 175.054 35.377 175.504 35.377Z" fill="white"/>
</svg>
