<svg width="570" height="184" viewBox="0 0 570 184" fill="none" xmlns="http://www.w3.org/2000/svg">
<path d="M179.699 94.9531L176.418 104.855C175.598 107.355 174.172 109.445 172.141 111.125C170.109 112.766 167.824 113.586 165.285 113.586C164.66 113.586 164.133 113.41 163.703 113.059C163.312 112.746 163.117 112.277 163.117 111.652C163.117 111.418 163.195 111.066 163.352 110.598L168.977 94.4844C169.25 93.6641 169.543 93.0391 169.855 92.6094C170.168 92.1406 170.598 91.8086 171.145 91.6133C171.73 91.418 172.238 91.3008 172.668 91.2617C173.137 91.2227 173.918 91.2031 175.012 91.2031C175.91 91.2031 176.574 91.2227 177.004 91.2617C177.434 91.2617 177.922 91.3203 178.469 91.4375C179.055 91.5547 179.465 91.7695 179.699 92.082C179.934 92.3555 180.051 92.7461 180.051 93.2539C180.051 93.6055 179.934 94.1719 179.699 94.9531ZM198.977 31.4961L223.938 104.094C224.211 105.344 224.348 106.047 224.348 106.203C224.348 107.883 223.371 109.543 221.418 111.184C219.465 112.785 217.746 113.586 216.262 113.586C214.973 113.586 213.977 112.59 213.273 110.598L188.898 39.4648C188.508 37.707 188.312 36.7695 188.312 36.6523C188.312 34.9336 189.387 33.2344 191.535 31.5547C193.723 29.8359 195.402 28.9766 196.574 28.9766C197.238 28.9766 197.707 29.1523 197.98 29.5039C198.293 29.8164 198.625 30.4805 198.977 31.4961ZM197.922 87.6875H174.133C172.648 87.6875 171.906 87.043 171.906 85.7539C171.906 85.4023 171.984 85.0117 172.141 84.582L184.152 48.6641C184.699 47.1406 185.324 46.3789 186.027 46.3789C186.652 46.3789 187.199 46.7695 187.668 47.5508C188.137 48.293 188.645 49.5039 189.191 51.1836C190.207 54.3477 190.715 56.7109 190.715 58.2734C190.715 59.3672 190.52 60.5195 190.129 61.7305L185.559 75.6758C185.48 75.8711 185.441 76.1445 185.441 76.4961C185.441 77.5508 186.047 78.0781 187.258 78.0781H193.352C195.344 78.0781 196.691 78.1758 197.395 78.3711C198.098 78.5664 198.664 79.1133 199.094 80.0117C199.484 80.793 199.797 81.8086 200.031 83.0586C200.305 84.2695 200.441 85.168 200.441 85.7539C200.441 87.043 199.602 87.6875 197.922 87.6875ZM270.578 58.8008C270.578 55.8711 270.168 53.3125 269.348 51.125C268.566 48.8984 267.512 47.1211 266.184 45.793C264.895 44.4258 263.273 43.332 261.32 42.5117C259.367 41.6523 257.355 41.0664 255.285 40.7539C253.254 40.4414 250.969 40.2852 248.43 40.2852H234.484C233.977 40.2852 233.566 40.2656 233.254 40.2266C232.98 40.1875 232.727 40.0703 232.492 39.875C232.297 39.6406 232.199 39.3281 232.199 38.9375C232.199 37.2578 233.312 35.5 235.539 33.6641C237.766 31.8281 240.012 30.8711 242.277 30.793L253.41 30.6172C255.012 30.6172 256.535 30.6758 257.98 30.793C259.426 30.8711 261.184 31.125 263.254 31.5547C265.324 31.9453 267.219 32.4727 268.938 33.1367C270.656 33.8008 272.414 34.7773 274.211 36.0664C276.047 37.3164 277.57 38.8008 278.781 40.5195C280.031 42.2383 281.047 44.4062 281.828 47.0234C282.648 49.6406 283.059 52.5508 283.059 55.7539C283.059 64.1133 278.898 71.1641 270.578 76.9062C269.367 77.7656 268.762 78.6641 268.762 79.6016C268.762 80.3047 269.094 81.1641 269.758 82.1797L283.469 104.211C284.328 105.617 284.758 106.828 284.758 107.844C284.758 109.406 283.723 110.793 281.652 112.004C279.973 113.059 278.43 113.586 277.023 113.586C275.734 113.586 274.602 112.746 273.625 111.066L257.395 82.6484C256.926 81.9453 256.691 81.2617 256.691 80.5977C256.691 79.5039 257.434 78.5273 258.918 77.668C262.746 75.5195 265.637 72.8047 267.59 69.5234C269.582 66.2422 270.578 62.668 270.578 58.8008ZM232.199 75.2656V47.1406C232.199 45.7344 232.668 44.8164 233.605 44.3867C234.582 43.918 236.066 43.6836 238.059 43.6836C240.246 43.6836 241.77 43.918 242.629 44.3867C243.527 44.8164 243.977 45.7344 243.977 47.1406V68.4688C243.977 70.1484 244.719 70.9883 246.203 70.9883H256.457C258.137 70.9883 258.977 71.4766 258.977 72.4531C258.977 73.3906 258.059 74.4844 256.223 75.7344C254.387 76.9453 252.121 77.9609 249.426 78.7812C247.785 79.2891 243.723 79.543 237.238 79.543C235.246 79.543 233.898 79.1914 233.195 78.4883C232.531 77.7852 232.199 76.7109 232.199 75.2656ZM243.977 86.6914V104.855C243.977 106.77 243.566 108.195 242.746 109.133C241.77 110.305 240.383 111.34 238.586 112.238C236.828 113.137 235.383 113.586 234.25 113.586C232.883 113.586 232.199 112.746 232.199 111.066V86.6914C232.199 85.2852 232.688 84.3281 233.664 83.8203C234.68 83.3125 236.184 83.0586 238.176 83.0586C240.324 83.0586 241.828 83.3125 242.688 83.8203C243.547 84.2891 243.977 85.2461 243.977 86.6914ZM307.551 94.9531L304.27 104.855C303.449 107.355 302.023 109.445 299.992 111.125C297.961 112.766 295.676 113.586 293.137 113.586C292.512 113.586 291.984 113.41 291.555 113.059C291.164 112.746 290.969 112.277 290.969 111.652C290.969 111.418 291.047 111.066 291.203 110.598L296.828 94.4844C297.102 93.6641 297.395 93.0391 297.707 92.6094C298.02 92.1406 298.449 91.8086 298.996 91.6133C299.582 91.418 300.09 91.3008 300.52 91.2617C300.988 91.2227 301.77 91.2031 302.863 91.2031C303.762 91.2031 304.426 91.2227 304.855 91.2617C305.285 91.2617 305.773 91.3203 306.32 91.4375C306.906 91.5547 307.316 91.7695 307.551 92.082C307.785 92.3555 307.902 92.7461 307.902 93.2539C307.902 93.6055 307.785 94.1719 307.551 94.9531ZM326.828 31.4961L351.789 104.094C352.062 105.344 352.199 106.047 352.199 106.203C352.199 107.883 351.223 109.543 349.27 111.184C347.316 112.785 345.598 113.586 344.113 113.586C342.824 113.586 341.828 112.59 341.125 110.598L316.75 39.4648C316.359 37.707 316.164 36.7695 316.164 36.6523C316.164 34.9336 317.238 33.2344 319.387 31.5547C321.574 29.8359 323.254 28.9766 324.426 28.9766C325.09 28.9766 325.559 29.1523 325.832 29.5039C326.145 29.8164 326.477 30.4805 326.828 31.4961ZM325.773 87.6875H301.984C300.5 87.6875 299.758 87.043 299.758 85.7539C299.758 85.4023 299.836 85.0117 299.992 84.582L312.004 48.6641C312.551 47.1406 313.176 46.3789 313.879 46.3789C314.504 46.3789 315.051 46.7695 315.52 47.5508C315.988 48.293 316.496 49.5039 317.043 51.1836C318.059 54.3477 318.566 56.7109 318.566 58.2734C318.566 59.3672 318.371 60.5195 317.98 61.7305L313.41 75.6758C313.332 75.8711 313.293 76.1445 313.293 76.4961C313.293 77.5508 313.898 78.0781 315.109 78.0781H321.203C323.195 78.0781 324.543 78.1758 325.246 78.3711C325.949 78.5664 326.516 79.1133 326.945 80.0117C327.336 80.793 327.648 81.8086 327.883 83.0586C328.156 84.2695 328.293 85.168 328.293 85.7539C328.293 87.043 327.453 87.6875 325.773 87.6875ZM371.828 40.3438H362.336C360.812 40.3438 360.051 39.875 360.051 38.9375C360.051 38.0781 360.363 37.1992 360.988 36.3008C361.613 35.3633 362.414 34.5039 363.391 33.7227C364.406 32.9414 365.52 32.2773 366.73 31.7305C367.98 31.1836 369.191 30.8711 370.363 30.793L375.051 30.6758C381.262 30.6758 387.043 31.457 392.395 33.0195C397.746 34.543 402.395 36.9844 406.34 40.3438C410.285 43.7031 413.371 48.0195 415.598 53.293C417.863 58.5664 418.996 64.9531 418.996 72.4531C418.996 76.0078 418.625 79.4844 417.883 82.8828C417.18 86.2812 416.145 89.4844 414.777 92.4922C413.41 95.5 411.75 98.2539 409.797 100.754C407.883 103.254 405.734 105.422 403.352 107.258C400.969 109.055 398.371 110.461 395.559 111.477C392.746 112.492 389.797 113 386.711 113C385.344 113 384.66 112.551 384.66 111.652C384.66 110.949 385.09 110.402 385.949 110.012C389.27 108.488 392.219 106.711 394.797 104.68C397.375 102.648 399.543 100.227 401.301 97.4141C403.098 94.5625 404.445 91.2422 405.344 87.4531C406.281 83.6641 406.75 79.25 406.75 74.2109C406.75 69.2109 406.145 64.6602 404.934 60.5586C403.762 56.457 401.809 52.9219 399.074 49.9531C396.34 46.9844 392.746 44.6797 388.293 43.0391C383.84 41.3594 378.352 40.4609 371.828 40.3438ZM360.051 110.48V47.375C360.051 45.9688 360.52 45.0312 361.457 44.5625C362.434 44.0938 363.918 43.8594 365.91 43.8594C368.098 43.8594 369.621 44.0938 370.48 44.5625C371.379 44.9922 371.828 45.9297 371.828 47.375V100.988C371.828 102.59 372.629 103.391 374.23 103.391H383.957C385.637 103.391 386.477 103.879 386.477 104.855C386.477 105.441 385.871 106.203 384.66 107.141C383.488 108.078 382.023 108.977 380.266 109.836C378.508 110.695 376.516 111.438 374.289 112.062C372.062 112.688 370.031 113 368.195 113H362.453C360.852 113 360.051 112.16 360.051 110.48ZM444.016 32.1406V104.855C444.016 106.77 443.605 108.195 442.785 109.133C441.809 110.305 440.422 111.34 438.625 112.238C436.867 113.137 435.422 113.586 434.289 113.586C432.922 113.586 432.238 112.746 432.238 111.066V38.3516C432.238 36.7109 432.648 35.4023 433.469 34.4258C434.484 33.2148 435.871 32.1211 437.629 31.1445C439.387 30.1289 440.832 29.6211 441.965 29.6211C443.332 29.6211 444.016 30.4609 444.016 32.1406ZM483.332 66.5352C486.418 67.1211 489.172 67.8438 491.594 68.7031C494.055 69.5625 496.125 70.4805 497.805 71.457C499.484 72.3945 500.93 73.4883 502.141 74.7383C503.352 75.9883 504.289 77.1992 504.953 78.3711C505.656 79.543 506.203 80.8906 506.594 82.4141C506.984 83.9375 507.238 85.3438 507.355 86.6328C507.473 87.8828 507.531 89.3477 507.531 91.0273C507.531 94.1523 506.945 97.1406 505.773 99.9922C504.602 102.844 503.137 105.207 501.379 107.082C499.66 108.918 497.863 110.383 495.988 111.477C494.113 112.57 492.414 113.117 490.891 113.117C490.07 113.117 489.66 112.727 489.66 111.945C489.66 111.438 489.973 110.871 490.598 110.246C492.59 108.332 494.055 106.008 494.992 103.273C495.93 100.539 496.398 98.0586 496.398 95.832C496.398 94.5039 496.379 93.4688 496.34 92.7266C496.301 91.9844 496.164 90.9688 495.93 89.6797C495.734 88.3906 495.422 87.3555 494.992 86.5742C494.602 85.7539 493.996 84.8359 493.176 83.8203C492.355 82.7656 491.359 81.9062 490.188 81.2422C489.016 80.5391 487.512 79.8945 485.676 79.3086C483.879 78.6836 481.809 78.1953 479.465 77.8438C476.496 77.4141 473.82 76.8477 471.438 76.1445C469.094 75.4023 467.141 74.6211 465.578 73.8008C464.055 72.9805 462.727 72.0234 461.594 70.9297C460.5 69.8359 459.66 68.8203 459.074 67.8828C458.488 66.9062 458.039 65.8125 457.727 64.6016C457.414 63.3906 457.219 62.3945 457.141 61.6133C457.062 60.793 457.023 59.875 457.023 58.8594C457.023 57.6875 457.199 56.5742 457.551 55.5195C458.098 53.8398 459.348 52.2383 461.301 50.7148C463.254 49.1914 464.953 48.4297 466.398 48.4297C467.102 48.4297 467.629 48.5859 467.98 48.8984C468.371 49.1719 468.566 49.7773 468.566 50.7148C468.566 53.6836 468.742 56.0273 469.094 57.7461C469.484 59.4648 470.285 60.9102 471.496 62.082C472.707 63.2539 474.172 64.1328 475.891 64.7188C477.609 65.3047 480.09 65.9102 483.332 66.5352ZM473.781 114.816C470.812 114.816 468.195 114.426 465.93 113.645C463.703 112.902 461.262 111.32 458.605 108.898C457.316 107.727 456.672 106.496 456.672 105.207C456.672 104.152 457.102 103.195 457.961 102.336C460.539 99.7578 462.863 98.4688 464.934 98.4688C466.262 98.4688 467.746 99.1523 469.387 100.52C471.652 102.473 473.527 103.742 475.012 104.328C476.535 104.914 478.312 105.207 480.344 105.207C482.062 105.207 483.645 104.875 485.09 104.211C486.574 103.547 487.453 103.215 487.727 103.215C488.703 103.215 489.191 103.84 489.191 105.09C489.191 105.715 488.938 106.516 488.43 107.492C487.922 108.469 487.121 109.543 486.027 110.715C484.973 111.848 483.352 112.805 481.164 113.586C479.016 114.406 476.555 114.816 473.781 114.816ZM502.961 35.9492C502.961 37.4727 501.945 38.9961 499.914 40.5195C497.922 42.043 496.184 42.8047 494.699 42.8047C493.762 42.8047 492.492 42.4531 490.891 41.75C489.289 41.0469 487.473 40.3438 485.441 39.6406C483.449 38.9375 481.496 38.5859 479.582 38.5859C476.301 38.5859 473.234 39.2109 470.383 40.4609C467.57 41.6719 464.562 43.6055 461.359 46.2617C459.25 48.0195 457.922 48.8984 457.375 48.8984C456.516 48.8984 456.086 48.4297 456.086 47.4922C456.086 46.8672 456.457 45.9102 457.199 44.6211C457.941 43.332 458.645 42.2773 459.309 41.457C466.184 33.1367 475.305 28.9766 486.672 28.9766C488.82 28.9766 491.125 29.25 493.586 29.7969C496.047 30.3047 498.215 31.125 500.09 32.2578C502.004 33.3516 502.961 34.582 502.961 35.9492ZM529.68 30.793H561.262C562.941 30.793 563.781 31.3984 563.781 32.6094C563.781 33.1562 563.391 34.1523 562.609 35.5977C561.828 37.0039 560.891 38.1953 559.797 39.1719C558.898 39.9922 557.473 40.4023 555.52 40.4023H521.887C521.301 40.4023 520.871 40.3828 520.598 40.3438C520.324 40.2656 520.07 40.0898 519.836 39.8164C519.641 39.543 519.543 39.1523 519.543 38.6445C519.543 37.1992 520.676 35.5391 522.941 33.6641C525.246 31.75 527.492 30.793 529.68 30.793ZM519.602 110.48V81.5938C519.602 80.1875 520.07 79.2695 521.008 78.8398C521.984 78.3711 523.488 78.1367 525.52 78.1367C527.707 78.1367 529.23 78.3711 530.09 78.8398C530.949 79.2695 531.379 80.1875 531.379 81.5938V100.988C531.379 102.59 532.18 103.391 533.781 103.391H562.434C564.113 103.391 564.953 103.996 564.953 105.207C564.953 105.754 564.562 106.77 563.781 108.254C563 109.699 562.082 110.891 561.027 111.828C560.129 112.609 558.684 113 556.691 113H521.652C520.285 113 519.602 112.16 519.602 110.48ZM519.602 72.2188V47.4336C519.602 46.0273 520.07 45.0898 521.008 44.6211C521.984 44.1523 523.488 43.918 525.52 43.918C527.707 43.918 529.23 44.1523 530.09 44.6211C530.949 45.0508 531.379 45.9883 531.379 47.4336V62.6094C531.379 64.2109 532.18 65.0117 533.781 65.0117H557.629C559.309 65.0117 560.148 65.6172 560.148 66.8281C560.148 67.375 559.758 68.3711 558.977 69.8164C558.195 71.2227 557.277 72.4141 556.223 73.3906C555.324 74.2109 553.879 74.6211 551.887 74.6211H522.004C520.402 74.6211 519.602 73.8203 519.602 72.2188Z" fill="white"/>
<path d="M172.785 171.398V178.928C172.785 179.885 172.58 180.598 172.17 181.066C171.682 181.652 170.988 182.17 170.09 182.619C169.211 183.068 168.488 183.293 167.922 183.293C167.238 183.293 166.896 182.873 166.896 182.033V171.398C166.896 170.695 167.141 170.217 167.629 169.963C168.137 169.709 168.889 169.582 169.885 169.582C170.959 169.582 171.711 169.709 172.141 169.963C172.57 170.197 172.785 170.676 172.785 171.398ZM166.896 165.686V150.07C166.896 149.367 167.131 148.908 167.6 148.693C168.088 148.459 168.83 148.342 169.826 148.342C170.92 148.342 171.682 148.459 172.111 148.693C172.561 148.908 172.785 149.367 172.785 150.07V162.287C172.785 163.127 173.156 163.547 173.898 163.547H178.791C179.631 163.547 180.051 163.791 180.051 164.279C180.051 164.748 179.621 165.295 178.762 165.92C177.922 166.525 176.838 167.033 175.51 167.443C174.689 167.697 172.658 167.824 169.416 167.824C168.42 167.824 167.746 167.648 167.395 167.297C167.062 166.945 166.896 166.408 166.896 165.686ZM185.734 156.428C185.734 149.924 181.877 146.672 174.162 146.672H168.039C167.785 146.672 167.58 146.662 167.424 146.643C167.287 146.623 167.16 146.564 167.043 146.467C166.945 146.35 166.896 146.193 166.896 145.998C166.896 145.178 167.453 144.299 168.566 143.361C169.699 142.424 170.822 141.936 171.936 141.896L175.041 141.867L178.791 141.896C179.846 141.916 180.91 142.043 181.984 142.277C183.078 142.492 184.24 142.912 185.471 143.537C186.701 144.162 187.785 144.953 188.723 145.91C189.66 146.867 190.432 148.156 191.037 149.777C191.662 151.398 191.975 153.234 191.975 155.285C191.975 156.086 191.867 156.965 191.652 157.922C191.457 158.879 191.076 159.943 190.51 161.115C189.963 162.287 189.27 163.361 188.43 164.338C187.609 165.295 186.496 166.154 185.09 166.916C183.684 167.658 182.102 168.137 180.344 168.352H180.168C179.641 168.352 179.377 168.127 179.377 167.678C179.377 167.404 179.602 167.131 180.051 166.857C183.84 164.514 185.734 161.037 185.734 156.428ZM236.399 155.9C236.399 154.436 236.194 153.156 235.784 152.062C235.393 150.949 234.866 150.061 234.202 149.396C233.557 148.713 232.747 148.166 231.77 147.756C230.794 147.326 229.788 147.033 228.753 146.877C227.737 146.721 226.595 146.643 225.325 146.643H218.352C218.098 146.643 217.893 146.633 217.737 146.613C217.6 146.594 217.473 146.535 217.356 146.438C217.259 146.32 217.21 146.164 217.21 145.969C217.21 145.129 217.766 144.25 218.88 143.332C219.993 142.414 221.116 141.936 222.249 141.896L227.815 141.809C228.616 141.809 229.378 141.838 230.1 141.896C230.823 141.936 231.702 142.062 232.737 142.277C233.772 142.473 234.72 142.736 235.579 143.068C236.438 143.4 237.317 143.889 238.216 144.533C239.134 145.158 239.895 145.9 240.501 146.76C241.126 147.619 241.634 148.703 242.024 150.012C242.434 151.32 242.639 152.775 242.639 154.377C242.639 158.557 240.559 162.082 236.399 164.953C235.794 165.383 235.491 165.832 235.491 166.301C235.491 166.652 235.657 167.082 235.989 167.59L242.845 178.605C243.274 179.309 243.489 179.914 243.489 180.422C243.489 181.203 242.971 181.896 241.936 182.502C241.096 183.029 240.325 183.293 239.622 183.293C238.977 183.293 238.411 182.873 237.923 182.033L229.807 167.824C229.573 167.473 229.456 167.131 229.456 166.799C229.456 166.252 229.827 165.764 230.569 165.334C232.483 164.26 233.929 162.902 234.905 161.262C235.901 159.621 236.399 157.834 236.399 155.9ZM217.21 164.133V150.07C217.21 149.367 217.444 148.908 217.913 148.693C218.401 148.459 219.143 148.342 220.139 148.342C221.233 148.342 221.995 148.459 222.425 148.693C222.874 148.908 223.098 149.367 223.098 150.07V160.734C223.098 161.574 223.47 161.994 224.212 161.994H229.339C230.179 161.994 230.598 162.238 230.598 162.727C230.598 163.195 230.139 163.742 229.221 164.367C228.304 164.973 227.171 165.48 225.823 165.891C225.003 166.145 222.971 166.271 219.729 166.271C218.733 166.271 218.059 166.096 217.708 165.744C217.376 165.393 217.21 164.855 217.21 164.133ZM223.098 169.846V178.928C223.098 179.885 222.893 180.598 222.483 181.066C221.995 181.652 221.302 182.17 220.403 182.619C219.524 183.068 218.802 183.293 218.235 183.293C217.552 183.293 217.21 182.873 217.21 182.033V169.846C217.21 169.143 217.454 168.664 217.942 168.41C218.45 168.156 219.202 168.029 220.198 168.029C221.272 168.029 222.024 168.156 222.454 168.41C222.884 168.645 223.098 169.123 223.098 169.846ZM301.068 161.174C301.068 163.811 300.931 166.164 300.658 168.234C300.384 170.305 299.984 172.15 299.457 173.771C298.949 175.373 298.314 176.77 297.552 177.961C296.81 179.133 295.951 180.139 294.974 180.979C293.802 182.014 292.796 182.531 291.957 182.531C291.546 182.531 291.341 182.287 291.341 181.799C291.341 181.643 291.488 181.379 291.781 181.008C292.074 180.617 292.357 180.158 292.63 179.631C294.193 176.682 294.974 172.209 294.974 166.213C294.974 165.139 294.974 163.889 294.974 162.463C294.974 161.037 294.877 159.572 294.681 158.068C294.505 156.545 294.193 155.051 293.744 153.586C293.295 152.121 292.611 150.812 291.693 149.66C290.775 148.508 289.574 147.58 288.089 146.877C286.625 146.154 284.789 145.793 282.582 145.793C280.863 145.793 279.183 146.115 277.543 146.76C275.902 147.404 274.271 148.361 272.65 149.631L271.713 150.363C271.537 150.52 271.341 150.656 271.127 150.773C270.912 150.891 270.755 150.949 270.658 150.949C270.248 150.949 270.043 150.754 270.043 150.363C270.043 149.758 270.463 148.918 271.302 147.844C273.06 145.598 275.13 143.898 277.513 142.746C279.896 141.574 282.406 140.988 285.043 140.988C287.699 140.988 290.023 141.389 292.015 142.189C294.027 142.99 295.697 144.221 297.025 145.881C298.373 147.521 299.379 149.611 300.043 152.15C300.726 154.689 301.068 157.697 301.068 161.174ZM275.99 151.975C275.99 152.15 275.892 152.766 275.697 153.82C275.502 154.855 275.306 156.232 275.111 157.951C274.916 159.67 274.818 161.438 274.818 163.254C274.818 164.66 274.857 165.939 274.935 167.092C275.033 168.244 275.189 169.455 275.404 170.725C275.619 171.994 275.951 173.107 276.4 174.064C276.849 175.002 277.406 175.871 278.07 176.672C278.734 177.453 279.584 178.059 280.619 178.488C281.654 178.898 282.836 179.104 284.164 179.104C285.336 179.104 286.371 178.986 287.269 178.752C288.168 178.498 288.861 178.254 289.349 178.02C289.838 177.785 290.17 177.668 290.345 177.668C290.775 177.668 290.99 177.902 290.99 178.371C290.99 178.859 290.804 179.406 290.433 180.012C290.062 180.617 289.545 181.223 288.88 181.828C288.216 182.414 287.318 182.902 286.185 183.293C285.052 183.703 283.832 183.908 282.523 183.908C279.886 183.908 277.66 183.479 275.843 182.619C274.027 181.74 272.601 180.422 271.566 178.664C270.55 176.906 269.818 174.875 269.369 172.57C268.939 170.266 268.724 167.521 268.724 164.338C268.724 159.514 269.213 156.174 270.189 154.318C270.736 153.303 271.517 152.482 272.533 151.857C273.548 151.213 274.398 150.891 275.082 150.891C275.687 150.891 275.99 151.252 275.99 151.975ZM334.418 146.643H328.354C328.1 146.643 327.895 146.633 327.739 146.613C327.602 146.594 327.475 146.535 327.358 146.438C327.26 146.32 327.211 146.164 327.211 145.969C327.211 145.148 327.768 144.279 328.881 143.361C329.995 142.443 331.118 141.955 332.25 141.896C333.52 141.838 335.161 141.809 337.172 141.809C337.993 141.809 338.735 141.828 339.399 141.867C340.082 141.906 340.893 142.004 341.83 142.16C342.788 142.316 343.627 142.531 344.35 142.805C345.073 143.078 345.815 143.479 346.577 144.006C347.358 144.533 348.002 145.158 348.51 145.881C349.018 146.584 349.438 147.482 349.77 148.576C350.102 149.65 350.268 150.861 350.268 152.209C350.268 155.1 349.086 157.482 346.723 159.357C346.391 159.611 346.225 159.836 346.225 160.031C346.225 160.285 346.371 160.461 346.664 160.559C349.282 161.418 351.235 162.697 352.524 164.396C353.813 166.096 354.457 168.4 354.457 171.311C354.457 172.385 354.301 173.459 353.989 174.533C353.696 175.588 353.207 176.633 352.524 177.668C351.86 178.684 351.039 179.592 350.063 180.393C349.106 181.174 347.905 181.809 346.459 182.297C345.014 182.766 343.422 183 341.684 183C341 183 340.659 182.814 340.659 182.443C340.659 182.189 340.815 181.984 341.127 181.828C343.549 180.754 345.336 179.377 346.489 177.697C347.641 176.018 348.217 173.928 348.217 171.428C348.217 166.447 345.776 163.566 340.893 162.785C340.58 162.727 340.424 162.561 340.424 162.287C340.424 162.033 340.659 161.74 341.127 161.408C342.163 160.646 343.002 159.66 343.647 158.449C344.291 157.219 344.614 155.861 344.614 154.377C344.614 153.049 344.418 151.906 344.028 150.949C343.657 149.973 343.168 149.221 342.563 148.693C341.977 148.146 341.205 147.717 340.248 147.404C339.311 147.072 338.403 146.867 337.524 146.789C336.645 146.691 335.61 146.643 334.418 146.643ZM327.211 181.74V150.158C327.211 149.455 327.446 148.986 327.914 148.752C328.403 148.518 329.145 148.4 330.141 148.4C331.235 148.4 331.996 148.518 332.426 148.752C332.875 148.967 333.1 149.436 333.1 150.158V157.072C333.1 157.873 333.5 158.273 334.301 158.273H339.457C340.297 158.273 340.717 158.537 340.717 159.064C340.717 159.299 340.502 159.68 340.073 160.207C339.643 160.734 339.116 161.174 338.491 161.525C337.807 161.916 336.411 162.297 334.301 162.668C333.5 162.824 333.1 163.342 333.1 164.221V176.994C333.1 177.795 333.5 178.195 334.301 178.195H340.6C341.44 178.195 341.86 178.439 341.86 178.928C341.86 179.338 341.391 179.865 340.454 180.51C339.516 181.154 338.325 181.73 336.879 182.238C335.454 182.746 334.145 183 332.954 183H328.413C327.612 183 327.211 182.58 327.211 181.74ZM380.279 175.002V145.676C380.279 144.855 380.484 144.201 380.894 143.713C381.402 143.107 382.095 142.561 382.974 142.072C383.853 141.564 384.575 141.311 385.142 141.311C385.825 141.311 386.167 141.73 386.167 142.57V175.002C386.167 175.705 385.923 176.174 385.435 176.408C384.966 176.623 384.234 176.73 383.238 176.73C382.144 176.73 381.372 176.623 380.923 176.408C380.493 176.174 380.279 175.705 380.279 175.002ZM381.48 178.195H401.343C402.183 178.195 402.603 178.498 402.603 179.104C402.603 179.377 402.398 179.875 401.988 180.598C401.597 181.32 401.138 181.926 400.611 182.414C400.181 182.805 399.468 183 398.472 183H381.48C380.679 183 380.279 182.58 380.279 181.74V179.455C380.279 178.615 380.679 178.195 381.48 178.195ZM431.969 141.896H447.76C448.6 141.896 449.02 142.199 449.02 142.805C449.02 143.078 448.824 143.576 448.434 144.299C448.043 145.002 447.574 145.598 447.027 146.086C446.578 146.496 445.865 146.701 444.889 146.701H428.072C427.779 146.701 427.564 146.691 427.428 146.672C427.291 146.633 427.164 146.545 427.047 146.408C426.949 146.271 426.9 146.076 426.9 145.822C426.9 145.1 427.467 144.27 428.6 143.332C429.752 142.375 430.875 141.896 431.969 141.896ZM426.93 181.74V167.297C426.93 166.594 427.164 166.135 427.633 165.92C428.121 165.686 428.873 165.568 429.889 165.568C430.982 165.568 431.744 165.686 432.174 165.92C432.604 166.135 432.818 166.594 432.818 167.297V176.994C432.818 177.795 433.219 178.195 434.02 178.195H448.346C449.186 178.195 449.605 178.498 449.605 179.104C449.605 179.377 449.41 179.885 449.02 180.627C448.629 181.35 448.17 181.945 447.643 182.414C447.193 182.805 446.471 183 445.475 183H427.955C427.271 183 426.93 182.58 426.93 181.74ZM426.93 162.609V150.217C426.93 149.514 427.164 149.045 427.633 148.811C428.121 148.576 428.873 148.459 429.889 148.459C430.982 148.459 431.744 148.576 432.174 148.811C432.604 149.025 432.818 149.494 432.818 150.217V157.805C432.818 158.605 433.219 159.006 434.02 159.006H445.943C446.783 159.006 447.203 159.309 447.203 159.914C447.203 160.188 447.008 160.686 446.617 161.408C446.227 162.111 445.768 162.707 445.24 163.195C444.791 163.605 444.068 163.811 443.072 163.811H428.131C427.33 163.811 426.93 163.41 426.93 162.609ZM479.499 162.492C479.694 163.312 479.792 164.357 479.792 165.627V179.104C479.792 180.041 479.596 180.764 479.206 181.271C478.737 181.818 478.141 182.297 477.419 182.707C476.696 183.098 476.188 183.293 475.895 183.293C475.212 183.293 474.87 182.873 474.87 182.033V154.289C474.87 154.055 474.929 153.869 475.046 153.732C475.163 153.576 475.309 153.498 475.485 153.498C475.778 153.498 476.071 153.791 476.364 154.377C476.677 154.963 477.223 156.213 478.005 158.127C478.825 160.178 479.323 161.633 479.499 162.492ZM486.706 175.822L475.046 145.5C474.889 145.129 474.811 144.768 474.811 144.416C474.811 143.947 474.997 143.508 475.368 143.098C475.817 142.551 476.413 142.121 477.155 141.809C477.897 141.477 478.473 141.311 478.884 141.311C479.313 141.311 479.645 141.408 479.88 141.604C480.134 141.799 480.368 142.16 480.583 142.688L490.485 169.318C490.837 170.275 491.013 171.057 491.013 171.662C491.013 172.15 490.895 172.736 490.661 173.42C490.192 174.611 489.733 175.549 489.284 176.232C488.874 176.877 488.434 177.199 487.966 177.199C487.731 177.199 487.516 177.102 487.321 176.906C487.126 176.711 486.921 176.35 486.706 175.822ZM502.35 162.111L496.227 178.02C495.583 179.621 494.567 180.9 493.18 181.857C491.833 182.814 490.788 183.293 490.046 183.293C489.46 183.293 489.167 183.02 489.167 182.473C489.167 182.238 489.264 181.896 489.46 181.447L501.442 149.689C501.794 148.967 502.077 148.557 502.292 148.459C502.409 148.4 502.526 148.371 502.643 148.371C503.093 148.371 503.376 148.752 503.493 149.514C503.61 150.197 503.669 151.779 503.669 154.26C503.669 155.803 503.581 157.16 503.405 158.332C503.249 159.484 502.897 160.744 502.35 162.111ZM511.315 142.57V178.928C511.315 179.885 511.12 180.598 510.729 181.066C510.241 181.652 509.538 182.17 508.62 182.619C507.721 183.068 506.989 183.293 506.423 183.293C505.759 183.293 505.427 182.873 505.427 182.033V145.676C505.427 144.855 505.622 144.201 506.013 143.713C506.52 143.107 507.223 142.561 508.122 142.072C509.02 141.564 509.743 141.311 510.29 141.311C510.973 141.311 511.315 141.73 511.315 142.57ZM550.73 159.768C552.273 160.061 553.65 160.422 554.861 160.852C556.091 161.281 557.127 161.74 557.966 162.229C558.806 162.697 559.529 163.244 560.134 163.869C560.74 164.494 561.209 165.1 561.541 165.686C561.892 166.271 562.166 166.945 562.361 167.707C562.556 168.469 562.683 169.172 562.742 169.816C562.8 170.441 562.83 171.174 562.83 172.014C562.83 173.576 562.537 175.07 561.951 176.496C561.365 177.922 560.632 179.104 559.754 180.041C558.894 180.959 557.996 181.691 557.058 182.238C556.121 182.785 555.271 183.059 554.509 183.059C554.099 183.059 553.894 182.863 553.894 182.473C553.894 182.219 554.05 181.936 554.363 181.623C555.359 180.666 556.091 179.504 556.56 178.137C557.029 176.77 557.263 175.529 557.263 174.416C557.263 173.752 557.254 173.234 557.234 172.863C557.214 172.492 557.146 171.984 557.029 171.34C556.931 170.695 556.775 170.178 556.56 169.787C556.365 169.377 556.062 168.918 555.652 168.41C555.242 167.883 554.744 167.453 554.158 167.121C553.572 166.77 552.82 166.447 551.902 166.154C551.004 165.842 549.968 165.598 548.796 165.422C547.312 165.207 545.974 164.924 544.783 164.572C543.611 164.201 542.634 163.811 541.853 163.4C541.091 162.99 540.427 162.512 539.861 161.965C539.314 161.418 538.894 160.91 538.601 160.441C538.308 159.953 538.084 159.406 537.927 158.801C537.771 158.195 537.673 157.697 537.634 157.307C537.595 156.896 537.576 156.438 537.576 155.93C537.576 155.344 537.664 154.787 537.839 154.26C538.113 153.42 538.738 152.619 539.714 151.857C540.691 151.096 541.541 150.715 542.263 150.715C542.615 150.715 542.879 150.793 543.054 150.949C543.25 151.086 543.347 151.389 543.347 151.857C543.347 153.342 543.435 154.514 543.611 155.373C543.806 156.232 544.207 156.955 544.812 157.541C545.418 158.127 546.15 158.566 547.009 158.859C547.869 159.152 549.109 159.455 550.73 159.768ZM545.955 183.908C544.47 183.908 543.162 183.713 542.029 183.322C540.916 182.951 539.695 182.16 538.367 180.949C537.722 180.363 537.4 179.748 537.4 179.104C537.4 178.576 537.615 178.098 538.045 177.668C539.334 176.379 540.496 175.734 541.531 175.734C542.195 175.734 542.937 176.076 543.757 176.76C544.89 177.736 545.828 178.371 546.57 178.664C547.332 178.957 548.22 179.104 549.236 179.104C550.095 179.104 550.886 178.938 551.609 178.605C552.351 178.273 552.791 178.107 552.927 178.107C553.416 178.107 553.66 178.42 553.66 179.045C553.66 179.357 553.533 179.758 553.279 180.246C553.025 180.734 552.625 181.271 552.078 181.857C551.55 182.424 550.74 182.902 549.646 183.293C548.572 183.703 547.341 183.908 545.955 183.908ZM560.545 144.475C560.545 145.236 560.037 145.998 559.021 146.76C558.025 147.521 557.156 147.902 556.414 147.902C555.945 147.902 555.31 147.727 554.509 147.375C553.709 147.023 552.8 146.672 551.785 146.32C550.789 145.969 549.812 145.793 548.855 145.793C547.214 145.793 545.681 146.105 544.255 146.73C542.849 147.336 541.345 148.303 539.744 149.631C538.689 150.51 538.025 150.949 537.752 150.949C537.322 150.949 537.107 150.715 537.107 150.246C537.107 149.934 537.293 149.455 537.664 148.811C538.035 148.166 538.386 147.639 538.718 147.229C542.156 143.068 546.716 140.988 552.4 140.988C553.474 140.988 554.627 141.125 555.857 141.398C557.087 141.652 558.171 142.062 559.109 142.629C560.066 143.176 560.545 143.791 560.545 144.475Z" fill="white"/>
<path fill-rule="evenodd" clip-rule="evenodd" d="M4.1572 117.992C3.02892 116.21 0 116.981 0 119.09V175.137C0 180.736 2.27865 183.535 6.83594 183.535C10.612 183.535 15.4297 182.038 21.2891 179.043C27.2786 176.048 31.901 172.598 35.1562 168.691C37.8906 165.566 39.2578 160.814 39.2578 154.434V150.754C39.2578 150.03 38.8665 149.363 38.237 149.007C35.9028 147.683 33.7141 146.388 31.6489 145.094C30.1292 144.162 28.6411 143.183 27.1866 142.161C20.6267 137.621 15.3527 132.84 10.4489 126.669C8.17644 123.917 6.07384 121.019 4.1572 117.992Z" fill="white"/>
<path fill-rule="evenodd" clip-rule="evenodd" d="M54.3964 3.74704C53.3134 4.10282 52.7793 5.30835 53.2127 6.36266L70.9789 49.5811C71.3599 50.5081 72.367 51.0011 73.3519 50.8149C74.8653 50.5289 76.4269 50.3792 78.0234 50.3792C79.1222 50.3792 80.2043 50.4501 81.2656 50.5875C82.2081 50.7096 83.14 50.2202 83.5063 49.3433L101.561 6.12242C102.006 5.05839 101.462 3.83749 100.362 3.49038C85.8094 -1.10308 69.7878 -1.30933 54.3964 3.74704ZM100.31 60.8478C99.431 61.2093 98.4255 60.8962 97.8455 60.1428C96.369 58.2248 94.6203 56.5271 92.6573 55.1075C91.8635 54.5335 91.5253 53.496 91.9029 52.5921L109.877 9.56466C110.32 8.50383 111.566 8.0319 112.585 8.56396C125.847 15.4875 137.111 26.3852 144.4 40.4318C144.931 41.4545 144.453 42.7019 143.387 43.1399L100.31 60.8478ZM103.969 81.5041C103.074 81.1307 102.584 80.1695 102.732 79.2106C102.924 77.9615 103.023 76.682 103.023 75.3792C103.023 74.0226 102.915 72.6913 102.707 71.3933C102.552 70.4262 103.047 69.4538 103.952 69.0814L146.826 51.4569C147.89 51.0197 149.105 51.5672 149.449 52.6643C154.238 67.9101 153.888 83.7337 149.249 98.101C148.896 99.1931 147.681 99.7307 146.622 99.289L103.969 81.5041ZM91.1586 98.6709C90.7776 97.7441 91.1466 96.6855 91.9776 96.1255C94.2619 94.5861 96.2781 92.6793 97.9417 90.4899C98.5224 89.7256 99.5391 89.4079 100.425 89.7773L143.099 107.571C144.165 108.016 144.636 109.27 144.095 110.29C136.975 123.712 125.767 135.057 111.334 142.255C110.314 142.763 109.086 142.282 108.653 141.228L91.1586 98.6709ZM71.5681 101.27C71.9457 100.366 72.9215 99.8779 73.888 100.039C75.2332 100.263 76.6147 100.379 78.0234 100.379C78.8354 100.379 79.6382 100.34 80.4303 100.265C81.3539 100.177 82.25 100.671 82.6027 101.529L100.259 144.479C100.7 145.554 100.136 146.78 99.0224 147.111C84.1913 151.514 68.8659 151.101 54.9057 146.645C53.8095 146.295 53.2685 145.077 53.712 144.015L71.5681 101.27ZM55.1637 89.1374C56.0694 88.765 57.1046 89.1088 57.6743 89.9054C59.08 91.871 60.7634 93.6244 62.6671 95.1084C63.4167 95.6927 63.7238 96.6997 63.3574 97.5767L45.4121 140.535C44.968 141.598 43.7186 142.069 42.699 141.533C29.4678 134.572 18.2415 123.646 10.995 109.58C10.4684 108.558 10.947 107.314 12.0106 106.877L55.1637 89.1374ZM52.027 69.5966C52.9129 69.966 53.4027 70.9117 53.2689 71.8622C53.1071 73.0113 53.0234 74.1855 53.0234 75.3792C53.0234 76.4326 53.0886 77.4707 53.2151 78.4899C53.3322 79.4333 52.8375 80.3628 51.9583 80.7243L8.60606 98.5454C7.54045 98.9835 6.32336 98.4329 5.98135 97.3327C1.33027 82.3709 1.62086 66.8623 6.05096 52.727C6.39614 51.6256 7.61769 51.0791 8.68299 51.5233L52.027 69.5966ZM62.8879 53.5702C63.2408 54.4285 62.9511 55.4104 62.232 55.997C60.6115 57.3189 59.1599 58.84 57.9145 60.5229C57.3374 61.3028 56.31 61.6314 55.4145 61.258L12.1035 43.1985C11.0433 42.7564 10.5703 41.513 11.0998 40.4938C17.8863 27.4297 28.5251 16.2879 42.2289 8.95336C43.2533 8.40504 44.5168 8.88011 44.9586 9.95482L62.8879 53.5702Z" fill="white"/>
</svg>
