<svg width="59" height="17" viewBox="0 0 59 17" fill="none" xmlns="http://www.w3.org/2000/svg">
<path fill-rule="evenodd" clip-rule="evenodd" d="M39.3039 15.8292C39.3039 15.7786 39.3039 15.7281 39.3039 15.6775C39.3039 15.6269 39.2634 15.6775 39.2229 15.6775C38.4942 16.2844 37.7249 16.9418 36.7532 16.8912C36.5913 16.8407 36.4698 16.7395 36.3888 16.5372C36.2269 16.0821 36.4293 15.3741 36.4293 15.3741C35.7005 15.9304 34.9718 16.4867 34.162 16.8407C34.081 16.8407 33.8786 16.9924 33.9191 16.7901C35.5386 15.7786 37.1581 14.312 38.5347 12.6431C38.899 12.6431 39.6683 12.6431 39.6683 12.6431C38.9395 13.5029 37.8059 14.9189 37.0771 15.8292C36.9556 15.9809 36.7937 16.1326 36.8747 16.3349C37.1176 16.6384 37.563 16.4361 37.8059 16.3349C38.6561 15.7786 39.5064 15.0201 40.1137 14.1097C40.802 13.25 41.7332 12.6937 42.6644 12.4914C42.9883 12.4408 43.2717 12.5926 43.4337 12.896C43.4337 12.9466 43.4337 12.9466 43.4741 12.9971C43.5956 12.9971 43.7576 12.7949 43.8385 12.6431C44.2029 12.6431 44.5268 12.6431 44.8912 12.6431C44.6888 12.9971 43.0288 15.2729 42.4215 16.0821C42.381 16.1326 42.381 16.2338 42.4215 16.3349C42.5429 16.4361 42.6239 16.4361 42.7859 16.3855C43.4337 16.2844 43.9195 15.6269 44.4458 15.1212C45.1746 14.1603 45.9844 13.0983 46.9156 12.4914C47.199 12.3397 47.6444 12.2891 47.9278 12.542C48.1707 12.7949 48.1302 13.1489 48.2112 13.4017C48.4541 13.3512 48.6566 13.0477 48.859 12.8454C49.0209 12.6937 49.1829 12.6431 49.3044 12.542C49.6283 12.3903 50.0736 12.2891 50.3975 12.542C50.6404 12.8454 50.6404 13.3512 50.5595 13.7557C50.519 13.8569 50.4785 14.0086 50.3975 14.1097C49.8712 14.7672 49.3853 15.4246 48.859 16.0821C48.778 16.1832 48.7375 16.2338 48.7375 16.3855C48.8995 16.5878 49.1424 16.3855 49.3044 16.3349C49.8712 16.0315 50.357 15.5763 50.8429 15.0201C51.5312 13.604 52.7863 12.6431 54.0819 12.3903C54.4058 12.3397 54.6892 12.4914 54.8512 12.7949C54.8512 12.8454 54.8512 12.8454 54.8916 12.896C55.0131 12.896 55.1751 12.6937 55.256 12.542C55.6204 12.542 55.9443 12.542 56.3087 12.542C56.1063 12.896 54.4463 15.1718 53.839 15.9809C53.7985 16.0315 53.7985 16.1326 53.839 16.2338C53.9604 16.3349 54.1629 16.2844 54.2843 16.2338C55.8229 15.6269 57.0375 13.9075 58.2116 12.3903C58.2521 12.2891 58.3736 12.2386 58.4545 12.2891C58.495 12.3903 58.4141 12.542 58.3736 12.6431C57.2399 14.3626 55.8229 16.1326 54.2034 16.8407C53.8794 16.9418 53.4746 16.9418 53.2721 16.5878C53.1507 16.4867 53.2317 16.2844 53.1102 16.2844C52.6243 16.6889 52.0575 16.8912 51.4502 16.8407C51.1668 16.7901 50.8834 16.4361 50.8429 16.0821C50.8429 15.9809 50.8429 15.8798 50.8024 15.7786C50.1141 16.3855 49.3853 16.9924 48.4946 16.8407C48.3731 16.8407 48.2112 16.5878 48.2112 16.3855C48.1302 15.8798 48.4946 15.5763 48.7375 15.2223C49.2639 14.5649 49.7902 13.9075 50.2761 13.25C50.357 13.1489 50.3165 13.0477 50.2761 12.9466C50.2356 12.7949 50.1141 12.7949 49.9926 12.7443C49.5878 12.7443 49.3044 13.0983 48.9804 13.4017C48.0897 14.5649 47.1585 15.6269 46.2678 16.7901C45.9034 16.7901 45.0936 16.7901 45.0936 16.7901C45.8629 15.8292 46.7536 14.8178 47.4824 13.8063C47.6444 13.5534 47.8873 13.3006 47.8468 12.896C47.7658 12.6937 47.5634 12.7443 47.4014 12.7949C46.5107 13.1994 45.7819 14.2615 45.1341 15.0706C44.6888 15.6775 44.2029 16.2338 43.6361 16.5878C43.4337 16.7395 43.1907 16.8407 42.9883 16.9418C42.6644 17.043 42.2595 17.043 42.0571 16.6889C41.9356 16.5878 42.0166 16.3855 41.8951 16.3855C41.4093 16.7901 40.8424 16.9924 40.2351 16.9418C39.9517 16.8912 39.6683 16.5372 39.6278 16.1832C39.3444 16.0821 39.3039 15.9304 39.3039 15.8292ZM40.7615 14.4638C40.3971 14.9695 39.7898 15.7281 39.8707 16.2844C39.9112 16.3855 39.9517 16.4361 40.0327 16.4867C41.1259 16.6384 41.7737 15.3235 42.5024 14.4638C42.7454 14.1097 43.0288 13.8063 43.1907 13.4523C43.2312 13.3006 43.1502 13.1489 43.1098 13.0477C42.9478 12.8454 42.6644 12.8454 42.5024 12.9466C41.8142 13.25 41.2473 13.8063 40.7615 14.4638ZM52.017 14.4638C51.6526 14.9695 51.0453 15.7281 51.1263 16.2844C51.1668 16.3855 51.2073 16.4361 51.2882 16.4867C52.3814 16.6384 53.0292 15.3235 53.758 14.4638C54.0009 14.1097 54.2843 13.8063 54.4058 13.4523C54.4463 13.3006 54.3653 13.1489 54.3248 13.0477C54.1629 12.8454 53.8795 12.8454 53.7175 12.9466C53.1102 13.25 52.5434 13.8063 52.017 14.4638ZM39.9112 10.5191C40.0732 10.4179 40.2756 10.2662 40.5186 10.3674C40.64 10.4179 40.721 10.5697 40.7615 10.6708C40.802 11.0754 40.721 11.4294 40.4376 11.6823C40.2351 11.8846 39.9112 11.8846 39.7088 11.7328C39.6278 11.6317 39.5873 11.6317 39.5468 11.3788C39.5064 11.0754 39.6683 10.7214 39.9112 10.5191ZM29.425 13.4017C29.5464 13.3512 29.6679 13.4017 29.7489 13.5029C29.9513 13.8063 29.9108 14.312 29.7489 14.6155C29.6679 14.8683 29.4655 15.02 29.263 15.1718C29.5059 15.8798 30.1132 16.1832 30.7206 16.1832C34.2025 16.1326 36.1054 11.5305 38.0488 8.64791C39.061 6.82729 40.1946 5.10783 41.4498 3.43893C39.7493 2.17462 37.32 2.73092 35.7005 3.84351C34.1215 4.80439 32.6235 6.32157 31.4898 8.14218C31.1659 8.74905 30.8825 9.50764 31.1659 10.2662C31.5303 11.0248 32.2591 11.126 32.9474 11.0754C35.5791 10.5697 38.0083 7.7376 39.061 4.75382C39.1825 4.34924 39.3039 3.89409 39.3849 3.48951C39.3849 4.90554 38.8181 6.06871 38.2108 7.23187C37.0366 9.35592 35.2957 11.2777 33.1903 11.5305C32.2996 11.6317 31.4088 11.3283 30.8825 10.4179C30.5181 9.45707 30.761 8.34447 31.1659 7.48474C32.7854 4.55153 35.3361 2.88264 38.0083 2.37691C39.3039 2.12405 40.5995 2.32634 41.6522 3.08493C41.6522 3.08493 43.9195 0.354008 45.4985 0C45.539 0 45.5795 0 45.5795 0C44.3244 0.657443 43.1502 1.66889 42.1785 2.93321C42.0976 3.08493 41.9356 3.18607 41.9761 3.33779C42.8668 4.29867 43.3932 5.66413 42.9883 7.08016C42.7049 8.09161 41.9356 9.05249 41.0449 9.25478C40.64 9.30535 40.1947 9.15363 39.9922 8.69848C39.7088 7.93989 40.1137 7.1813 40.559 6.57443C40.9639 6.11928 41.4498 5.76527 42.0166 5.76527C42.0571 5.76527 42.1785 5.81584 42.1785 5.86642C42.0166 5.86642 41.7332 5.96756 41.5712 6.11928C40.9234 6.57443 40.2351 7.43417 40.2756 8.39504C40.3161 8.59733 40.5186 8.79962 40.6805 8.8502C41.0449 8.90077 41.2878 8.64791 41.5307 8.39504C42.462 7.38359 42.9073 6.01813 42.462 4.65267C42.3 4.24809 42.0976 3.89409 41.7737 3.64122C40.64 5.10783 39.2634 8.39504 39.2634 8.39504C38.6966 9.60878 38.0893 10.8225 37.2795 11.8846C35.903 13.958 34.1215 15.3741 32.2591 16.1832C31.3684 16.4867 30.1537 16.6889 29.3845 15.8798C28.9391 15.3741 28.6962 14.6155 28.9391 13.9075C29.0201 13.7557 29.2225 13.5029 29.425 13.4017ZM21.3274 14.9695C21.125 15.2729 20.9226 15.5258 20.8011 15.8798C20.7606 16.0821 20.8011 16.2338 20.9226 16.3855C21.206 16.5878 21.6109 16.5878 21.8943 16.4361C22.5016 16.0821 23.1494 15.6269 23.6352 14.9695C23.6352 14.7166 23.6757 14.5143 23.7567 14.312C23.9186 14.0086 24.1211 13.8063 24.4045 13.7557C24.4855 13.7052 24.445 13.5534 24.445 13.4017C24.445 13.25 24.364 13.0477 24.2426 12.9466C24.0806 12.896 23.8782 12.8454 23.7162 12.896C22.8255 13.1489 22.0157 14.0086 21.3274 14.9695ZM12.3392 15.6775C12.2582 15.8292 12.1773 15.9809 12.2177 16.1832C12.3797 16.4867 12.7036 16.4867 12.9465 16.4361C13.7563 16.1832 14.4041 15.5258 15.0519 14.8178C15.0519 14.7166 15.0519 14.5649 15.0519 14.4638C15.1328 14.0592 15.4567 13.6546 15.8211 13.5534C15.8616 13.4523 15.8616 13.3006 15.8616 13.1489C15.8616 12.9971 15.8211 12.8454 15.6592 12.7443C15.0924 12.542 14.485 12.896 14.0397 13.4017C13.4729 14.1097 12.8655 14.9189 12.3392 15.6775ZM14.8494 4.14695C13.7158 5.76527 12.7036 7.43417 11.8534 9.20421C12.0153 9.20421 12.1773 9.10306 12.3392 9.05249C14.485 7.93989 16.5499 6.625 18.2504 4.34924C18.5743 3.79294 19.0601 3.23664 18.8982 2.47806C18.8172 2.12405 18.5338 2.0229 18.2909 1.92176C16.8738 1.77004 15.8211 2.93321 14.8494 4.14695ZM1.04317 16.0315C0.962196 16.0821 0.840734 16.1326 0.881221 16.2844C0.921709 16.4361 1.04317 16.4361 1.16463 16.4867C1.77195 16.6384 2.46024 16.5878 3.02706 16.5372C3.39145 16.5372 3.79633 16.4361 4.07974 16.2338C3.14852 15.8292 2.01487 15.5258 1.04317 16.0315ZM0.597808 15.8798C1.61 15.1212 2.98657 15.4246 4.16071 15.5763C4.44413 15.6269 4.72754 15.6775 5.01096 15.7281C5.33486 15.6269 5.65875 15.3235 5.94217 15.1718C6.46851 14.7672 6.99484 14.2615 7.52118 13.7557C7.56167 13.7557 8.29045 12.7949 8.29045 12.7949C8.7763 12.0363 9.26215 11.2777 9.748 10.4685V10.4179C9.18117 10.4685 8.61435 10.4685 7.92606 10.3674C7.11631 10.2157 6.42802 9.81108 5.73973 9.00191C4.849 7.99046 5.01095 6.22042 5.45632 5.41126C6.30656 3.84351 7.35923 2.93321 8.93825 2.17462C9.58605 1.87118 10.3553 1.66889 10.7197 1.61832C11.7724 1.4666 12.9465 1.26431 13.9992 1.56775C14.0397 1.56775 13.9992 1.61832 13.9992 1.61832C13.9992 1.66889 13.9587 1.61832 13.9182 1.66889C10.9626 1.41603 8.16898 2.32634 6.34704 5.25955C5.86119 6.11928 5.49681 7.38359 5.98266 8.39504C6.91387 10.0134 8.69532 10.2157 10.1934 9.7605C10.4768 9.4065 10.6792 9.00191 10.9626 8.59733C12.4607 6.271 14.2016 3.74237 16.226 2.17462C16.9953 1.66889 18.0075 1.16317 18.8982 1.71947C19.2626 2.0229 19.4245 2.5792 19.3031 3.08493C18.7362 5.05726 16.9953 6.47329 15.6592 7.53531C14.3231 8.54676 12.906 9.25478 11.4485 9.86165C10.0314 12.3903 7.88557 14.2615 5.8207 15.7786C5.8207 15.8292 5.86119 15.8292 5.90168 15.8292C6.95436 15.9304 8.08801 15.9809 9.14069 15.9304C10.2743 15.7281 11.327 15.3741 12.2177 14.4638C12.987 13.1994 14.0397 12.2386 15.3353 12.2386C15.6997 12.2891 16.1045 12.4409 16.226 12.896C16.307 13.25 16.1855 13.6546 16.1855 14.0592C16.1855 14.1097 16.145 14.1603 16.145 14.2109C16.1855 14.312 16.2665 14.2109 16.307 14.2109C16.8738 13.7557 17.4406 13.1994 17.967 12.5926C17.967 12.1374 18.048 11.6317 18.4123 11.3788C18.4933 11.3788 18.5743 11.2777 18.6553 11.3283C18.7362 11.3283 18.8172 11.4294 18.8172 11.5305C18.8172 11.9857 18.5338 12.2386 18.3314 12.542C18.6958 12.7949 19.3031 12.4914 19.384 13.1489C19.465 13.958 18.8982 14.4132 18.4933 14.9695C18.1694 15.3741 17.7645 15.7786 17.4406 16.2338C17.4002 16.3349 17.4406 16.4867 17.5216 16.4867C18.1289 16.6384 18.8172 16.1832 19.384 15.8292C20.0318 15.2729 20.5582 14.5143 21.0845 13.8063C21.9348 12.7443 23.0279 12.0868 24.2426 12.3903C24.445 12.4914 24.6879 12.7443 24.7689 13.0477C24.8904 13.5029 24.6474 13.8569 24.6879 14.312C24.7689 14.4132 24.8499 14.312 24.9308 14.312C25.8621 13.3006 26.6718 12.1374 27.4816 10.9742C27.5625 10.9237 27.5625 11.0248 27.603 11.0754C27.4411 11.5305 27.1577 11.8846 26.9552 12.2891C26.186 13.3006 25.4977 14.6155 24.445 15.1212C24.2425 15.2223 24.1211 15.1212 23.9996 15.1718C23.2304 16.0315 22.4206 16.7901 21.4084 16.8912C21.0035 16.9418 20.6796 16.7395 20.4772 16.3349C20.3557 16.0821 20.3557 15.5258 20.3557 15.5258C19.6675 16.2338 18.8982 16.7395 18.0075 16.8912C17.6431 16.9418 17.2382 16.8912 17.0358 16.4867C16.7928 15.2223 17.967 14.4638 18.6148 13.6546C18.6958 13.4523 18.9792 13.3512 18.9387 13.0983C18.6958 12.9971 18.4123 12.9466 18.1289 12.9466C17.805 13.1489 17.5216 13.604 17.2382 13.8569C16.7523 14.312 16.2665 14.7166 15.7402 14.9695C15.3353 14.8683 15.2138 15.4752 14.8899 15.6269C14.0802 16.3349 13.149 17.2452 12.1368 16.6384C11.7724 16.3855 11.7724 15.8292 11.8129 15.3235L11.7319 15.3741C11.1651 15.6775 10.5982 16.0821 9.99092 16.2844C8.41191 16.8407 6.46851 16.9418 4.80852 16.4361C3.75584 16.9418 2.46024 17.0935 1.24561 16.8912C0.962196 16.7901 0.55732 16.7395 0.476345 16.3349C0.435858 16.1326 0.516833 15.9809 0.597808 15.8798Z" fill="white" fill-opacity="0.6"/>
</svg>
