<svg width="69" height="9" viewBox="0 0 69 9" fill="none" xmlns="http://www.w3.org/2000/svg">
<path d="M61.9273 0.736816C63.7953 2.67138 65.6486 4.61891 67.4984 6.5699C67.4958 4.75636 67.5062 2.94194 67.5045 1.1284C67.8243 1.12926 68.1442 1.1258 68.4648 1.12148C68.4657 3.71041 68.4657 6.3002 68.4648 8.88913C66.5951 6.96407 64.753 5.01309 62.8928 3.07852C62.8954 4.90331 62.8885 6.72895 62.8876 8.5546C62.5669 8.55719 62.2471 8.55633 61.9273 8.55633C61.9264 5.94925 61.9255 3.34303 61.9273 0.736816Z" fill="white" fill-opacity="0.6"/>
<path d="M7.54733 1.00072C9.60551 0.68434 11.783 2.29561 11.9662 4.39442C12.1391 5.59509 11.6732 6.84677 10.7941 7.67401C9.34877 9.0882 6.74948 9.06226 5.34653 7.59794C4.58843 6.86319 4.15623 5.80428 4.20204 4.7471C4.22279 2.90762 5.74329 1.26436 7.54733 1.00072ZM7.5482 1.95157C6.35012 2.14693 5.37505 3.19893 5.20736 4.39096C4.97915 5.7455 5.81504 7.2029 7.1229 7.64548C8.26739 8.07769 9.65997 7.67055 10.3947 6.69376C11.3447 5.50173 11.1839 3.57841 10.0152 2.58865C9.35828 1.99134 8.40829 1.79425 7.5482 1.95157Z" fill="white" fill-opacity="0.6"/>
<path d="M22.4103 1.40208C23.4649 0.61027 25.1877 0.937881 25.7962 2.13423C25.5421 2.27773 25.288 2.42209 25.0338 2.56558C24.5765 1.85071 23.4623 1.6761 22.8477 2.28292C22.5875 2.47309 22.616 2.82145 22.6437 3.10757C22.718 3.481 23.1157 3.63918 23.4087 3.81466C24.1642 4.21229 25.0718 4.44136 25.6026 5.16229C26.1947 5.96706 26.097 7.16514 25.4513 7.91026C24.7762 8.72714 23.5418 8.92596 22.5979 8.49807C21.8735 8.1402 21.4257 7.38383 21.2805 6.60845C21.6047 6.53152 21.9306 6.46064 22.2556 6.38803C22.2884 7.09512 22.8373 7.81 23.5842 7.82296C24.5921 7.93274 25.3934 6.62228 24.8065 5.78639C24.1798 4.93321 22.9713 4.92111 22.2504 4.18377C21.4015 3.48964 21.4871 1.99334 22.4103 1.40208Z" fill="white" fill-opacity="0.6"/>
<path d="M56.8204 0.99515C58.1689 0.826589 59.5623 1.44897 60.3904 2.51566C61.5842 4.00937 61.3931 6.39256 59.9764 7.67709C59.1673 8.47667 57.9778 8.80602 56.861 8.68759C55.7571 8.61498 54.7242 7.99606 54.0871 7.10052C53.4007 6.14534 53.2227 4.8686 53.5477 3.74572C53.9721 2.29091 55.3258 1.18532 56.8204 0.99515ZM56.6553 1.96416C55.1685 2.21744 54.1052 3.80105 54.3663 5.27401C54.5314 6.69079 55.8756 7.84392 57.2975 7.81712C58.2674 7.83355 59.1923 7.28378 59.7153 6.47987C60.5097 5.32847 60.3005 3.6273 59.277 2.6799C58.6071 2.00133 57.5724 1.77226 56.6553 1.96416Z" fill="white" fill-opacity="0.6"/>
<path d="M0.958984 1.12386C1.26585 1.12213 1.57272 1.12213 1.87959 1.12386C1.88045 3.31861 1.87872 5.51422 1.88045 7.70898C2.64287 7.71071 3.40442 7.70898 4.16683 7.70984C4.16856 7.99164 4.16856 8.27344 4.1677 8.5561C3.09755 8.55697 2.02827 8.55783 0.958984 8.5561C0.959849 6.07869 0.959849 3.60127 0.958984 1.12386Z" fill="white" fill-opacity="0.6"/>
<path d="M12.7092 1.12735C13.0343 1.12476 13.3593 1.12562 13.6852 1.12649C13.6878 2.58908 13.6808 4.05254 13.6886 5.51513C13.7033 6.15826 13.7828 6.86535 14.2375 7.36066C14.961 8.07034 16.3821 7.96921 16.887 7.04947C17.142 6.61726 17.2163 6.10552 17.2094 5.61108C17.2033 4.1165 17.2033 2.62193 17.2042 1.12649C17.5292 1.12476 17.8542 1.12562 18.1793 1.12649C18.1793 2.65218 18.1827 4.17788 18.1784 5.70357C18.1801 6.39597 18.06 7.12813 17.6174 7.68481C16.6657 9.00305 14.4597 9.07825 13.4172 7.83263C12.9219 7.31398 12.7179 6.58268 12.711 5.87905C12.7066 4.29543 12.7101 2.71096 12.7092 1.12735Z" fill="white" fill-opacity="0.6"/>
<path d="M19.3812 1.12005C19.7011 1.1166 20.0218 1.11746 20.3425 1.11919C20.3425 3.59661 20.3433 6.07402 20.3416 8.5523C20.0218 8.5523 19.7011 8.55317 19.3804 8.55057C19.3821 6.07402 19.3821 3.59661 19.3812 1.12005Z" fill="white" fill-opacity="0.6"/>
<path d="M29.0066 1.12764C29.3584 1.11813 29.712 1.11812 30.0646 1.11985C30.8028 2.92648 31.5298 4.73743 32.2551 6.54925C32.9786 4.74349 33.7228 2.94636 34.4299 1.13455C34.7921 1.10429 35.1552 1.12504 35.5182 1.11985C34.4386 3.74854 33.3546 6.3755 32.2654 8.99987C31.1573 6.38501 30.0888 3.75287 29.0066 1.12764Z" fill="white" fill-opacity="0.6"/>
<path d="M35.958 1.11768C36.2779 1.122 36.5977 1.12546 36.9184 1.12459C36.9296 2.56471 36.9167 4.00569 36.9288 5.44581C36.9512 6.12956 37.004 6.90494 37.5261 7.41149C38.1286 7.92755 39.0881 7.95953 39.7312 7.50053C40.1055 7.23429 40.3112 6.79171 40.3925 6.35086C40.5204 5.5919 40.4746 4.81997 40.4832 4.0541C40.4884 3.07817 40.4893 2.10225 40.4876 1.12632C40.7953 1.12287 41.1039 1.12373 41.4125 1.12459C41.4263 2.47827 41.4151 3.83108 41.4185 5.18475C41.4402 6.0241 41.4134 6.9352 40.9025 7.64402C40.0078 8.93459 37.9488 9.07377 36.8164 8.02523C36.2502 7.50139 35.9658 6.7286 35.9615 5.96619C35.9528 4.34973 35.9598 2.73413 35.958 1.11768Z" fill="white" fill-opacity="0.6"/>
<path d="M42.6182 1.12861C42.9518 1.12947 43.2855 1.12602 43.62 1.12256C43.62 3.59998 43.6192 6.07739 43.62 8.55567C43.2838 8.55654 42.9484 8.55654 42.613 8.55567C42.6095 6.07998 42.6208 3.6043 42.6182 1.12861Z" fill="white" fill-opacity="0.6"/>
<path d="M44.2209 1.12695C47.2178 1.12954 50.2139 1.12176 53.2108 1.12263C53.2099 1.41912 53.2099 1.71561 53.2108 2.01297C52.636 2.01557 52.062 2.01297 51.488 2.01384C51.4854 4.1939 51.4871 6.37395 51.4871 8.55401C51.1526 8.55487 50.8189 8.55487 50.4844 8.55401C50.4827 6.37395 50.4905 4.1939 50.481 2.01384C49.3045 2.01557 48.128 2.01298 46.9516 2.0147C46.9498 4.19476 46.9516 6.37395 46.9507 8.55401C46.6438 8.55487 46.337 8.55487 46.031 8.55401C46.0301 6.37395 46.0318 4.19476 46.0301 2.0147C45.4267 2.01298 44.8242 2.01557 44.2209 2.01297C44.22 1.71734 44.22 1.42171 44.2209 1.12695Z" fill="white" fill-opacity="0.6"/>
</svg>
