<svg width="30" height="30" viewBox="0 0 30 30" fill="none" xmlns="http://www.w3.org/2000/svg">
<g opacity="0.5">
<path d="M20.063 18.0467L20.4718 18.3346C22.0162 16.1415 22.0454 13.2884 20.553 11.0677L20.553 11.0677L20.5504 11.0639C20.5305 11.0349 20.5279 11.0082 20.5337 10.9841C20.5398 10.9589 20.5581 10.9266 20.6008 10.9015C20.6464 10.8746 20.7021 10.866 20.755 10.8771C20.8076 10.8881 20.8435 10.915 20.8632 10.9446L20.8632 10.9446L20.8641 10.9459C22.4082 13.2439 22.375 16.1836 20.7862 18.4562C20.7519 18.5027 20.6937 18.5333 20.6255 18.5333C20.5913 18.5333 20.5502 18.522 20.5213 18.5039L20.518 18.5018C20.4795 18.4781 20.4613 18.4468 20.4551 18.4184C20.449 18.3903 20.4535 18.3609 20.4731 18.3327L20.063 18.0467ZM20.063 18.0467C19.8594 18.3386 19.9451 18.7363 20.2559 18.9276L21.2791 10.667C21.0809 10.37 20.663 10.2844 20.3469 10.4707C20.0308 10.657 19.9344 11.0496 20.138 11.3466C21.5148 13.3954 21.4881 16.0231 20.063 18.0467ZM18.2378 12.2576L18.2378 12.2576L18.2411 12.2556C18.281 12.231 18.3337 12.2213 18.3872 12.2323C18.4405 12.2432 18.4764 12.2704 18.4953 12.2987L18.4952 12.2987L18.4988 12.3039C19.4602 13.7061 19.4745 15.5175 18.5333 16.9327C18.5055 16.9735 18.4486 17.008 18.3754 17.008C18.3353 17.008 18.3002 16.9987 18.2691 16.9809C18.2274 16.9559 18.2086 16.9237 18.2021 16.897C18.1957 16.8708 18.1988 16.8429 18.218 16.8141L18.2185 16.8134C19.1076 15.4767 19.0959 13.757 18.1902 12.4316C18.169 12.399 18.1659 12.3677 18.1719 12.3414C18.1779 12.3151 18.1954 12.2833 18.2378 12.2576Z" fill="#FFFEFE" stroke="#FFFEFE"/>
<path d="M15.07 8.81964C15.6647 8.39176 16.5219 8.78944 16.5165 9.48915V19.7935C16.5165 20.4982 15.6593 20.8959 15.0647 20.463L11.1323 17.6088H8.40004C7.90181 17.6088 7.5 17.2312 7.5 16.7631V12.5246C7.5 12.0564 7.90181 11.6789 8.4054 11.6738M15.07 8.81964L11.1377 11.6738H8.4054M15.07 8.81964L15.362 9.2255L11.4314 12.0785L11.3 12.1738H11.1377H8.40829M15.07 8.81964L15.3637 9.22429L15.3627 9.22501C15.4998 9.12674 15.6683 9.12049 15.8081 9.18523C15.9468 9.24949 16.0175 9.36142 16.0165 9.48532L16.0165 9.48532V9.48915V19.7935C16.0165 19.9231 15.9422 20.037 15.8038 20.101C15.6644 20.1654 15.4964 20.1589 15.3589 20.0588L15.3584 20.0583L11.426 17.2041L11.2947 17.1088H11.1323H8.40004C8.14815 17.1088 8 16.9262 8 16.7631V12.5246C8 12.3643 8.1457 12.1775 8.40829 12.1738M8.4054 11.6738V12.1738H8.40829M8.4054 11.6738L8.4104 12.1738C8.4097 12.1738 8.40899 12.1738 8.40829 12.1738" fill="#FFFEFE" stroke="#FFFEFE"/>
<circle cx="15" cy="15" r="14.5" stroke="#FFFEFE"/>
</g>
<path d="M6.99017 6.32788L22.9902 22.3279" stroke="#FFFEFE" stroke-linecap="round"/>
</svg>
