<svg width="20" height="20" viewBox="0 0 20 20" fill="none" xmlns="http://www.w3.org/2000/svg">
<path fill-rule="evenodd" clip-rule="evenodd" d="M5.62508 9.99984C5.62508 7.58359 7.58384 5.62484 10.0001 5.62484C12.4163 5.62484 14.3751 7.58359 14.3751 9.99984C14.3751 10.5271 14.2821 11.0312 14.1122 11.4976C14.0827 11.5785 14.0246 11.6656 13.932 11.7511L13.8649 11.813C13.6142 12.0442 13.2378 12.0738 12.9541 11.8847C12.7485 11.7477 12.6251 11.517 12.6251 11.2699V9.99984C12.6251 8.55009 11.4498 7.37484 10.0001 7.37484C8.55033 7.37484 7.37508 8.55009 7.37508 9.99984C7.37508 11.4496 8.55033 12.6248 10.0001 12.6248C10.5849 12.6248 11.125 12.4336 11.5613 12.1103C11.7132 12.436 11.9527 12.7194 12.2607 12.9247C13.0245 13.434 14.0377 13.3542 14.7124 12.7317L14.7796 12.6698C14.988 12.4775 15.1759 12.2295 15.2867 11.9255C15.5058 11.3239 15.6251 10.6751 15.6251 9.99984C15.6251 6.89324 13.1067 4.37484 10.0001 4.37484C6.89348 4.37484 4.37508 6.89324 4.37508 9.99984C4.37508 13.1064 6.89348 15.6248 10.0001 15.6248C10.3453 15.6248 10.6251 15.345 10.6251 14.9998C10.6251 14.6547 10.3453 14.3748 10.0001 14.3748C7.58384 14.3748 5.62508 12.4161 5.62508 9.99984ZM10.0001 8.62484C10.7595 8.62484 11.3751 9.24045 11.3751 9.99984C11.3751 10.7592 10.7595 11.3748 10.0001 11.3748C9.24069 11.3748 8.62508 10.7592 8.62508 9.99984C8.62508 9.24045 9.24069 8.62484 10.0001 8.62484Z" fill="#949494"/>
<path fill-rule="evenodd" clip-rule="evenodd" d="M10.0001 1.0415C5.05253 1.0415 1.04175 5.05229 1.04175 9.99984C1.04175 14.9474 5.05253 18.9582 10.0001 18.9582C14.9476 18.9582 18.9584 14.9474 18.9584 9.99984C18.9584 5.05229 14.9476 1.0415 10.0001 1.0415ZM2.29175 9.99984C2.29175 5.74264 5.74289 2.2915 10.0001 2.2915C14.2573 2.2915 17.7084 5.74264 17.7084 9.99984C17.7084 14.257 14.2573 17.7082 10.0001 17.7082C5.74289 17.7082 2.29175 14.257 2.29175 9.99984Z" fill="#949494"/>
</svg>
