<svg width="46" height="10" viewBox="0 0 46 10" fill="none" xmlns="http://www.w3.org/2000/svg">
<path d="M6.32513 9.35543C5.63316 9.45317 4.92901 9.48248 4.2006 9.56053L1.97885 4.3262V9.78518C1.28688 9.84375 0.65559 9.92188 0 10V0H1.84539L4.37054 5.67391V0H6.32513V9.35543ZM10.1494 3.66211C10.9021 3.66211 12.0555 3.63281 12.7474 3.63281V5.19527C11.8854 5.19527 10.8778 5.19527 10.1494 5.22458V7.54884C11.2906 7.49026 12.4318 7.41207 13.5851 7.38276V8.88658L8.20687 9.22845V0H13.5851V1.5625H10.1494V3.66211ZM20.8086 1.56254H18.7933V8.75003C18.1377 8.75003 17.4822 8.75003 16.851 8.7695V1.56254H14.8357V0H20.8087L20.8086 1.56254ZM23.9651 3.55472H26.6239V5.11718H23.9651V8.66215H22.0589V0H27.4859V1.5625H23.9651V3.55472ZM30.6423 7.29492C31.7471 7.31439 32.864 7.38287 33.9445 7.43161V8.9746C32.2085 8.88665 30.4724 8.79888 28.6999 8.7695V0H30.6423V7.29492ZM35.5835 9.08203C36.2026 9.11137 36.8582 9.14068 37.4895 9.19918V0H35.5835V9.08203ZM46 0L43.5355 4.75587L46 10C45.2715 9.92188 44.5431 9.81445 43.8146 9.71678L42.4186 6.82621L40.9983 9.48248C40.294 9.38473 39.6141 9.35543 38.9101 9.27731L41.411 4.69723L39.1528 0H41.2409L42.5156 2.62696L43.8754 0L46 0Z" fill="white" fill-opacity="0.53"/>
</svg>
