<svg width="90" height="21" viewBox="0 0 90 21" fill="none" xmlns="http://www.w3.org/2000/svg">
<path d="M15 5.75963C15 7.03236 14.7103 8.15408 14.1309 9.12481C13.5515 10.074 12.736 10.8182 11.6845 11.3575C10.6545 11.8752 9.45278 12.1341 8.07939 12.1341C7.90772 12.1341 7.6824 12.1125 7.40343 12.0693C7.12446 12.0262 6.89914 11.9615 6.72746 11.8752C6.68455 11.832 6.59871 11.7565 6.46995 11.6487C6.3412 11.5193 6.27682 11.3575 6.27682 11.1633C6.27682 11.0339 6.33047 10.98 6.43776 11.0015C6.60944 11.0447 6.79184 11.0986 6.98497 11.1633C7.17811 11.2065 7.3927 11.228 7.62875 11.228C8.89484 11.228 9.95707 10.8074 10.8154 9.9661C11.6738 9.10324 12.103 7.88444 12.103 6.30971C12.103 4.73498 11.6738 3.47304 10.8154 2.52388C9.95707 1.57473 8.65879 1.10015 6.9206 1.10015C6.72746 1.10015 6.42703 1.11094 6.01931 1.13251C5.63304 1.15408 5.40772 1.24037 5.34334 1.39137C5.25751 1.58552 5.20386 1.91988 5.1824 2.39445C5.1824 2.84746 5.1824 3.31125 5.1824 3.78582V17.2465C5.1824 17.7211 5.1824 18.1633 5.1824 18.5732C5.20386 18.9831 5.25751 19.3174 5.34334 19.5763C5.38626 19.6841 5.55794 19.7812 5.85837 19.8675C6.15879 19.9538 6.46995 20.0185 6.79184 20.0616C7.13519 20.0832 7.37124 20.094 7.49999 20.094C7.56437 20.1803 7.59656 20.3313 7.59656 20.547C7.61802 20.7627 7.58583 20.9137 7.49999 21C6.85622 20.9569 6.2339 20.9245 5.63304 20.9029C5.05364 20.8598 4.45279 20.8382 3.83047 20.8382C3.22961 20.8382 2.61802 20.8598 1.99571 20.9029C1.39485 20.9245 0.772532 20.9569 0.128755 21C0.0429184 20.9137 0 20.7627 0 20.547C0.0214592 20.3313 0.0643776 20.1803 0.128755 20.094C0.25751 20.094 0.482832 20.0832 0.804721 20.0616C1.14807 20.0185 1.46996 19.9538 1.77039 19.8675C2.09227 19.7812 2.26395 19.6841 2.28541 19.5763C2.37124 19.3174 2.41416 18.9831 2.41416 18.5732C2.43562 18.1633 2.44635 17.7211 2.44635 17.2465V3.75347C2.44635 3.27889 2.43562 2.83667 2.41416 2.42681C2.41416 1.99538 2.37124 1.65023 2.28541 1.39137C2.26395 1.26194 2.09227 1.16487 1.77039 1.10015C1.46996 1.03544 1.14807 0.992296 0.804721 0.970723C0.482832 0.927581 0.25751 0.906009 0.128755 0.906009C0.0643776 0.819722 0.0214592 0.668721 0 0.453005C0 0.237288 0.0429184 0.0862868 0.128755 0C0.772532 0.0215714 1.39485 0.0539291 1.99571 0.0970731C2.61802 0.118644 3.22961 0.12943 3.83047 0.12943C4.45279 0.12943 5.11802 0.118644 5.82618 0.0970731C6.55579 0.0755004 7.38197 0.0647141 8.30472 0.0647141C9.42059 0.0647141 10.4828 0.291217 11.4914 0.744222C12.5215 1.17565 13.3584 1.81202 14.0021 2.65331C14.6674 3.49461 15 4.53005 15 5.75963Z" fill="white"/>
<path d="M18.0761 9.78673C18.0761 9.78673 18.1268 9.6671 18.2282 9.42782C18.3409 9.17858 18.4874 8.8446 18.6677 8.42587C18.848 8.00714 19.0508 7.54355 19.2762 7.0351C19.5128 6.51667 19.7495 5.98828 19.9861 5.44992C20.2227 4.90158 20.4481 4.37817 20.6622 3.87969C20.8875 3.3812 21.0847 2.94254 21.2538 2.56369C21.2988 2.48393 21.3946 2.3942 21.5411 2.29451C21.6989 2.19481 21.8172 2.14496 21.896 2.14496C21.9186 2.14496 21.9298 2.14995 21.9298 2.15992C21.9411 2.15992 21.958 2.1649 21.9806 2.17487L25.3441 9.98114C25.592 10.5594 25.7329 10.8784 25.7667 10.9382C25.823 11.0479 25.9301 11.1426 26.0878 11.2224C26.2568 11.3021 26.4202 11.3619 26.578 11.4018C26.747 11.4317 26.8541 11.4467 26.8991 11.4467C26.9442 11.4965 26.9611 11.5763 26.9498 11.686C26.9386 11.7857 26.9273 11.8455 26.916 11.8654C26.5893 11.8455 26.2963 11.8305 26.0371 11.8206C25.7779 11.8006 25.4681 11.7906 25.1075 11.7906C24.7244 11.7906 24.4032 11.8006 24.1441 11.8206C23.8962 11.8305 23.5806 11.8455 23.1975 11.8654C23.1525 11.8255 23.1299 11.7557 23.1299 11.6561C23.1412 11.5564 23.1694 11.4866 23.2144 11.4467C23.3158 11.4467 23.4736 11.4317 23.6877 11.4018C23.9018 11.3619 24.0483 11.3121 24.1271 11.2523C24.1722 11.2124 24.1948 11.1426 24.1948 11.0429C24.1948 10.9532 24.1553 10.8036 24.0764 10.5943C24.0088 10.3749 23.9187 10.1307 23.806 9.86151C23.6933 9.59232 23.5806 9.33311 23.468 9.08387C23.3553 8.82466 23.2595 8.61529 23.1806 8.45578C23.113 8.28629 23.0792 8.20155 23.0792 8.20155C23.0792 8.20155 23.0679 8.19158 23.0454 8.17164C23.0229 8.1517 23.0003 8.14173 22.9778 8.14173C22.8088 8.13176 22.6003 8.12678 22.3524 8.12678C22.1045 8.12678 21.8735 8.12678 21.6594 8.12678C21.6031 8.12678 21.5467 8.12678 21.4904 8.12678C21.434 8.12678 21.3833 8.12678 21.3383 8.12678C21.0002 8.12678 20.7129 8.13176 20.4763 8.14173C20.2396 8.14173 19.9354 8.1517 19.5635 8.17164C19.5523 8.17164 19.5354 8.18161 19.5128 8.20155C19.4903 8.21152 19.479 8.21651 19.479 8.21651C19.479 8.21651 19.4339 8.3162 19.3438 8.5156C19.2649 8.71499 19.1635 8.95426 19.0396 9.23342C18.9269 9.5026 18.8255 9.75682 18.7353 9.9961C18.6339 10.2453 18.5663 10.4547 18.5325 10.6242C18.51 10.7937 18.4987 10.9283 18.4987 11.028C18.4987 11.1376 18.5832 11.2274 18.7522 11.2971C18.9325 11.357 19.1128 11.3968 19.2931 11.4168C19.4846 11.4367 19.603 11.4467 19.648 11.4467C19.6706 11.4666 19.6875 11.5314 19.6987 11.6411C19.71 11.7408 19.7044 11.8156 19.6818 11.8654C19.4677 11.8554 19.2818 11.8455 19.1241 11.8355C18.9776 11.8255 18.8255 11.8156 18.6677 11.8056C18.5212 11.7956 18.324 11.7906 18.0761 11.7906C17.8282 11.7906 17.6198 11.7956 17.4507 11.8056C17.2817 11.8156 17.1127 11.8255 16.9437 11.8355C16.7746 11.8455 16.5606 11.8554 16.3014 11.8654C16.2788 11.8455 16.2676 11.7857 16.2676 11.686C16.2676 11.5763 16.2788 11.4965 16.3014 11.4467C16.4028 11.4467 16.5718 11.4267 16.8085 11.3869C17.0564 11.337 17.2197 11.2622 17.2986 11.1626C17.4676 10.9731 17.6085 10.7638 17.7212 10.5345C17.8451 10.2952 17.9634 10.0459 18.0761 9.78673ZM21.3045 3.9096L19.8002 7.46878C19.8002 7.46878 19.8002 7.47875 19.8002 7.49869C19.8114 7.51863 19.8227 7.5286 19.834 7.5286C20.0481 7.53857 20.3016 7.54854 20.5946 7.55851C20.8988 7.55851 21.1411 7.55851 21.3214 7.55851C21.5805 7.55851 21.8115 7.55352 22.0144 7.54355C22.2285 7.53358 22.4595 7.52361 22.7074 7.51364C22.7299 7.51364 22.7412 7.50367 22.7412 7.48373C22.7524 7.45382 22.7581 7.43887 22.7581 7.43887L21.3045 3.9096Z" fill="white"/>
<path d="M33.2426 2.18982C33.6145 2.18982 33.9976 2.24466 34.392 2.35433C34.7864 2.46399 35.147 2.62351 35.4737 2.83287C35.8118 3.04223 36.0822 3.30643 36.2851 3.62546C36.4879 3.93452 36.5893 4.29842 36.5893 4.71714C36.5893 5.06608 36.4766 5.40505 36.2513 5.73405C36.0372 6.06305 35.7554 6.35217 35.4061 6.60142C35.0681 6.85066 34.7131 7.03011 34.3413 7.13978C34.6343 7.56848 34.916 7.96228 35.1864 8.32119C35.4568 8.6801 35.7385 9.03901 36.0315 9.39792C36.3245 9.74685 36.6513 10.1357 37.0119 10.5644C37.2485 10.8435 37.502 11.0529 37.7725 11.1925C38.0542 11.332 38.4204 11.4168 38.8711 11.4467C38.9162 11.4866 38.9274 11.5613 38.9049 11.671C38.8824 11.7807 38.8655 11.8455 38.8542 11.8654C38.3021 11.8654 37.8401 11.8505 37.4682 11.8206C37.1076 11.7807 36.8428 11.7358 36.6738 11.686C36.5611 11.6461 36.4034 11.5863 36.2005 11.5065C35.9977 11.4168 35.8005 11.2622 35.609 11.0429C35.5414 10.9632 35.4174 10.8086 35.2371 10.5793C35.0568 10.35 34.8427 10.0709 34.5948 9.74187C34.3469 9.41287 34.0821 9.06393 33.8004 8.69505C33.5187 8.3162 33.2483 7.94732 32.9891 7.58842C32.899 7.46878 32.7299 7.40896 32.482 7.40896H31.62V10.1307C31.62 10.1606 31.62 10.1905 31.62 10.2204C31.62 10.2503 31.62 10.2802 31.62 10.3101C31.62 10.4996 31.62 10.674 31.62 10.8336C31.6313 10.9831 31.6538 11.1077 31.6876 11.2074C31.7102 11.2573 31.8003 11.3021 31.9581 11.342C32.1158 11.3819 32.2848 11.4118 32.4651 11.4317C32.6454 11.4417 32.7694 11.4467 32.837 11.4467C32.8708 11.4866 32.8877 11.5564 32.8877 11.6561C32.899 11.7557 32.8821 11.8255 32.837 11.8654C32.4989 11.8455 32.1722 11.8305 31.8567 11.8206C31.5524 11.8006 31.2369 11.7906 30.9101 11.7906C30.5946 11.7906 30.2735 11.8006 29.9467 11.8206C29.6199 11.8305 29.2875 11.8455 28.9495 11.8654C28.9044 11.8255 28.8818 11.7557 28.8818 11.6561C28.8931 11.5564 28.9157 11.4866 28.9495 11.4467C29.0171 11.4467 29.141 11.4417 29.3213 11.4317C29.5016 11.4118 29.6706 11.3819 29.8284 11.342C29.9974 11.3021 30.0875 11.2573 30.0988 11.2074C30.1439 11.0878 30.1664 10.9332 30.1664 10.7438C30.1777 10.5544 30.1833 10.35 30.1833 10.1307L30.1664 3.89464C30.1664 3.67531 30.1608 3.47093 30.1495 3.28151C30.1495 3.08211 30.127 2.9226 30.0819 2.80296C30.0706 2.74314 29.9805 2.69828 29.8115 2.66837C29.6537 2.63846 29.4847 2.61852 29.3044 2.60855C29.1354 2.58861 29.0171 2.57864 28.9495 2.57864C28.9157 2.53876 28.8931 2.46898 28.8818 2.36928C28.8818 2.26958 28.9044 2.19979 28.9495 2.15992C29.2875 2.16989 29.6143 2.18484 29.9298 2.20478C30.2566 2.21475 30.5777 2.21973 30.8932 2.21973C31.22 2.21973 31.5693 2.21475 31.9412 2.20478C32.3243 2.19481 32.7581 2.18982 33.2426 2.18982ZM35.0512 4.85173C35.0512 4.21367 34.854 3.69026 34.4596 3.28151C34.0765 2.87275 33.4286 2.66837 32.5158 2.66837C32.4144 2.66837 32.2567 2.67336 32.0426 2.68333C31.8397 2.69329 31.7214 2.73317 31.6876 2.80296C31.6426 2.89269 31.6144 3.04722 31.6031 3.26655C31.6031 3.47592 31.6031 3.69026 31.6031 3.9096L31.62 6.96032H32.4989C32.9271 6.96032 33.3328 6.87558 33.7159 6.7061C34.1103 6.52664 34.4314 6.28239 34.6793 5.97332C34.9272 5.65429 35.0512 5.28043 35.0512 4.85173Z" fill="white"/>
<path d="M41.3802 9.78673C41.3802 9.78673 41.4309 9.6671 41.5323 9.42782C41.645 9.17858 41.7915 8.8446 41.9718 8.42587C42.152 8.00714 42.3549 7.54355 42.5802 7.0351C42.8169 6.51667 43.0535 5.98828 43.2901 5.44992C43.5268 4.90158 43.7521 4.37817 43.9662 3.87969C44.1916 3.3812 44.3888 2.94254 44.5578 2.56369C44.6029 2.48393 44.6987 2.3942 44.8451 2.29451C45.0029 2.19481 45.1212 2.14496 45.2001 2.14496C45.2226 2.14496 45.2339 2.14995 45.2339 2.15992C45.2452 2.15992 45.2621 2.1649 45.2846 2.17487L48.6482 9.98114C48.8961 10.5594 49.0369 10.8784 49.0707 10.9382C49.1271 11.0479 49.2341 11.1426 49.3919 11.2224C49.5609 11.3021 49.7243 11.3619 49.882 11.4018C50.0511 11.4317 50.1581 11.4467 50.2032 11.4467C50.2483 11.4965 50.2652 11.5763 50.2539 11.686C50.2426 11.7857 50.2313 11.8455 50.2201 11.8654C49.8933 11.8455 49.6003 11.8305 49.3412 11.8206C49.082 11.8006 48.7721 11.7906 48.4115 11.7906C48.0284 11.7906 47.7073 11.8006 47.4481 11.8206C47.2002 11.8305 46.8847 11.8455 46.5016 11.8654C46.4565 11.8255 46.434 11.7557 46.434 11.6561C46.4452 11.5564 46.4734 11.4866 46.5185 11.4467C46.6199 11.4467 46.7776 11.4317 46.9917 11.4018C47.2058 11.3619 47.3523 11.3121 47.4312 11.2523C47.4763 11.2124 47.4988 11.1426 47.4988 11.0429C47.4988 10.9532 47.4594 10.8036 47.3805 10.5943C47.3129 10.3749 47.2227 10.1307 47.1101 9.86151C46.9974 9.59232 46.8847 9.33311 46.772 9.08387C46.6593 8.82466 46.5635 8.61529 46.4847 8.45578C46.4171 8.28629 46.3833 8.20155 46.3833 8.20155C46.3833 8.20155 46.372 8.19158 46.3495 8.17164C46.3269 8.1517 46.3044 8.14173 46.2818 8.14173C46.1128 8.13176 45.9044 8.12678 45.6565 8.12678C45.4086 8.12678 45.1776 8.12678 44.9635 8.12678C44.9071 8.12678 44.8508 8.12678 44.7944 8.12678C44.7381 8.12678 44.6874 8.12678 44.6423 8.12678C44.3043 8.12678 44.0169 8.13176 43.7803 8.14173C43.5437 8.14173 43.2394 8.1517 42.8676 8.17164C42.8563 8.17164 42.8394 8.18161 42.8169 8.20155C42.7943 8.21152 42.7831 8.21651 42.7831 8.21651C42.7831 8.21651 42.738 8.3162 42.6478 8.5156C42.569 8.71499 42.4676 8.95426 42.3436 9.23342C42.2309 9.5026 42.1295 9.75682 42.0394 9.9961C41.938 10.2453 41.8703 10.4547 41.8365 10.6242C41.814 10.7937 41.8027 10.9283 41.8027 11.028C41.8027 11.1376 41.8872 11.2274 42.0563 11.2971C42.2366 11.357 42.4168 11.3968 42.5971 11.4168C42.7887 11.4367 42.907 11.4467 42.9521 11.4467C42.9746 11.4666 42.9915 11.5314 43.0028 11.6411C43.0141 11.7408 43.0084 11.8156 42.9859 11.8654C42.7718 11.8554 42.5859 11.8455 42.4281 11.8355C42.2816 11.8255 42.1295 11.8156 41.9718 11.8056C41.8253 11.7956 41.6281 11.7906 41.3802 11.7906C41.1323 11.7906 40.9238 11.7956 40.7548 11.8056C40.5858 11.8156 40.4167 11.8255 40.2477 11.8355C40.0787 11.8455 39.8646 11.8554 39.6054 11.8654C39.5829 11.8455 39.5716 11.7857 39.5716 11.686C39.5716 11.5763 39.5829 11.4965 39.6054 11.4467C39.7068 11.4467 39.8759 11.4267 40.1125 11.3869C40.3604 11.337 40.5238 11.2622 40.6027 11.1626C40.7717 10.9731 40.9125 10.7638 41.0252 10.5345C41.1492 10.2952 41.2675 10.0459 41.3802 9.78673ZM44.6085 3.9096L43.1042 7.46878C43.1042 7.46878 43.1042 7.47875 43.1042 7.49869C43.1155 7.51863 43.1267 7.5286 43.138 7.5286C43.3521 7.53857 43.6056 7.54854 43.8986 7.55851C44.2029 7.55851 44.4451 7.55851 44.6254 7.55851C44.8846 7.55851 45.1156 7.55352 45.3184 7.54355C45.5325 7.53358 45.7635 7.52361 46.0114 7.51364C46.0339 7.51364 46.0452 7.50367 46.0452 7.48373C46.0565 7.45382 46.0621 7.43887 46.0621 7.43887L44.6085 3.9096Z" fill="white"/>
<path d="M56.5974 2.20478C57.8031 2.20478 58.8398 2.41414 59.7074 2.83287C60.5751 3.24163 61.2399 3.80492 61.7019 4.52273C62.1639 5.23058 62.3949 6.03813 62.3949 6.94537C62.3949 7.56349 62.2991 8.16666 62.1075 8.75487C61.916 9.34308 61.5892 9.87148 61.1272 10.3401C60.6765 10.8086 60.0624 11.1825 59.2849 11.4616C58.5074 11.7308 57.5383 11.8654 56.3777 11.8654H52.2535C52.2084 11.8255 52.1859 11.7557 52.1859 11.6561C52.1972 11.5564 52.2197 11.4866 52.2535 11.4467C52.3211 11.4467 52.4451 11.4417 52.6254 11.4317C52.8056 11.4118 52.9747 11.3819 53.1324 11.342C53.3014 11.3021 53.3916 11.2573 53.4029 11.2074C53.4479 11.0878 53.4705 10.9332 53.4705 10.7438C53.4817 10.5544 53.4874 10.35 53.4874 10.1307V3.89464C53.4874 3.67531 53.4817 3.47093 53.4705 3.28151C53.4705 3.08211 53.4479 2.9226 53.4029 2.80296C53.3916 2.74314 53.3014 2.69828 53.1324 2.66837C52.9747 2.63846 52.8056 2.61852 52.6254 2.60855C52.4451 2.58861 52.3211 2.57864 52.2535 2.57864C52.2197 2.53876 52.1972 2.46898 52.1859 2.36928C52.1859 2.26958 52.2084 2.19979 52.2535 2.15992C52.5915 2.16989 52.924 2.18484 53.2507 2.20478C53.5775 2.21475 53.8987 2.21973 54.2142 2.21973C54.5409 2.21973 54.9297 2.21973 55.3804 2.21973C55.8312 2.20976 56.2368 2.20478 56.5974 2.20478ZM54.941 3.92455V10.1456C54.941 10.2154 54.941 10.3301 54.941 10.4896C54.941 10.6391 54.9466 10.7887 54.9579 10.9382C54.9804 11.0778 55.0029 11.1626 55.0255 11.1925C55.0931 11.2722 55.2565 11.3271 55.5156 11.357C55.7861 11.3869 56.0734 11.4018 56.3777 11.4018C57.1664 11.4018 57.8876 11.2523 58.5412 10.9532C59.206 10.6541 59.7412 10.2005 60.1469 9.59232C60.5525 8.9742 60.7554 8.19158 60.7554 7.24446C60.7554 6.41698 60.6258 5.71411 60.3666 5.13587C60.1187 4.55763 59.775 4.08905 59.3356 3.73014C58.9074 3.36126 58.4172 3.09707 57.8651 2.93755C57.3242 2.76807 56.7551 2.68333 56.1579 2.68333C56.0903 2.68333 55.9664 2.68831 55.7861 2.69828C55.6058 2.69828 55.4368 2.70825 55.279 2.72819C55.1213 2.74813 55.0311 2.78302 55.0086 2.83287C54.9748 2.93257 54.9522 3.06716 54.941 3.23664C54.941 3.39616 54.941 3.56564 54.941 3.7451C54.941 3.77501 54.941 3.80492 54.941 3.83482C54.941 3.86473 54.941 3.89464 54.941 3.92455Z" fill="white"/>
<path d="M67.1372 2.21973C67.4639 2.21973 67.7795 2.21475 68.0837 2.20478C68.3992 2.18484 68.726 2.16989 69.064 2.15992C69.1091 2.19979 69.126 2.26958 69.1147 2.36928C69.1147 2.46898 69.0978 2.53876 69.064 2.57864C68.9964 2.57864 68.8725 2.58861 68.6922 2.60855C68.5119 2.61852 68.3429 2.63846 68.1851 2.66837C68.0274 2.69828 67.9372 2.74314 67.9147 2.80296C67.8809 2.90266 67.8583 3.03226 67.8471 3.19178C67.8471 3.35129 67.8471 3.52576 67.8471 3.71519C67.8471 3.7451 67.8471 3.77501 67.8471 3.80492C67.8471 3.83482 67.8471 3.86473 67.8471 3.89464V10.1307C67.8471 10.1606 67.8471 10.1905 67.8471 10.2204C67.8471 10.2503 67.8471 10.2802 67.8471 10.3101C67.8471 10.4996 67.8471 10.674 67.8471 10.8336C67.8583 10.9831 67.8809 11.1077 67.9147 11.2074C67.9372 11.2573 68.0274 11.3021 68.1851 11.342C68.3429 11.3819 68.5119 11.4118 68.6922 11.4317C68.8725 11.4417 68.9964 11.4467 69.064 11.4467C69.0978 11.4866 69.1147 11.5564 69.1147 11.6561C69.126 11.7557 69.1091 11.8255 69.064 11.8654C68.726 11.8455 68.3992 11.8305 68.0837 11.8206C67.7795 11.8006 67.4639 11.7906 67.1372 11.7906C66.8217 11.7906 66.5005 11.8006 66.1737 11.8206C65.847 11.8305 65.5145 11.8455 65.1765 11.8654C65.1314 11.8255 65.1089 11.7557 65.1089 11.6561C65.1202 11.5564 65.1427 11.4866 65.1765 11.4467C65.2441 11.4467 65.3681 11.4417 65.5484 11.4317C65.7286 11.4118 65.8977 11.3819 66.0554 11.342C66.2244 11.3021 66.3146 11.2573 66.3259 11.2074C66.3709 11.0878 66.3935 10.9332 66.3935 10.7438C66.4047 10.5544 66.4104 10.35 66.4104 10.1307V3.89464C66.4104 3.67531 66.4047 3.47093 66.3935 3.28151C66.3935 3.08211 66.3709 2.9226 66.3259 2.80296C66.3146 2.74314 66.2244 2.69828 66.0554 2.66837C65.8977 2.63846 65.7286 2.61852 65.5484 2.60855C65.3681 2.58861 65.2441 2.57864 65.1765 2.57864C65.1427 2.53876 65.1202 2.46898 65.1089 2.36928C65.1089 2.26958 65.1314 2.19979 65.1765 2.15992C65.5145 2.16989 65.847 2.18484 66.1737 2.20478C66.5005 2.21475 66.8217 2.21973 67.1372 2.21973Z" fill="white"/>
<path d="M75.4431 2.1001C75.7924 2.1001 76.0797 2.12004 76.3051 2.15992C76.5417 2.18983 76.7783 2.23469 77.015 2.29451C77.2629 2.35432 77.5671 2.42411 77.9277 2.50387C77.9953 2.88272 78.046 3.27652 78.0798 3.68528C78.1249 4.08407 78.1531 4.38316 78.1643 4.58255C78.1756 4.6324 78.1362 4.67228 78.046 4.70219C77.9559 4.72213 77.8826 4.7321 77.8263 4.7321C77.7474 4.7321 77.6854 4.71216 77.6404 4.67228C77.6178 4.49283 77.5502 4.28346 77.4375 4.04419C77.3249 3.80492 77.1671 3.57561 76.9643 3.35628C76.7727 3.13695 76.5361 2.95749 76.2544 2.81792C75.9839 2.66837 75.6741 2.5936 75.3247 2.5936C74.874 2.5936 74.5191 2.67834 74.2599 2.84783C74.0007 3.01731 73.8148 3.22667 73.7021 3.47592C73.5894 3.72516 73.5331 3.96942 73.5331 4.20869C73.5331 4.59751 73.6458 4.92152 73.8712 5.18073C74.1078 5.43995 74.4008 5.66925 74.7501 5.86864C75.1107 6.06804 75.4712 6.27242 75.8318 6.48178C76.1023 6.63132 76.4009 6.79583 76.7276 6.97528C77.0544 7.15473 77.3699 7.35413 77.6742 7.57346C77.9784 7.79279 78.2263 8.04702 78.4179 8.33614C78.6094 8.61529 78.7052 8.93433 78.7052 9.29323C78.7052 9.82163 78.5362 10.2902 78.1981 10.699C77.8714 11.0977 77.4432 11.4118 76.9136 11.6411C76.3952 11.8604 75.8431 11.9701 75.2571 11.9701C74.705 11.9701 74.1698 11.9153 73.6514 11.8056C73.1444 11.6959 72.688 11.6062 72.2823 11.5364C72.2147 11.2473 72.1528 10.9382 72.0964 10.6092C72.0513 10.2802 72.0119 9.99111 71.9781 9.74187C71.9556 9.49263 71.9443 9.3381 71.9443 9.27828C72.0006 9.22843 72.0626 9.18855 72.1302 9.15864C72.2091 9.11876 72.288 9.09882 72.3668 9.09882C72.4683 9.09882 72.5302 9.14369 72.5528 9.23342C72.5866 9.37299 72.6542 9.5674 72.7556 9.81664C72.8683 10.0559 73.026 10.3052 73.2289 10.5644C73.443 10.8236 73.7134 11.0429 74.0402 11.2224C74.3782 11.3919 74.7951 11.4766 75.2909 11.4766C75.8205 11.4766 76.2826 11.3221 76.6769 11.013C77.0713 10.694 77.2685 10.2503 77.2685 9.68205C77.2685 9.27329 77.1615 8.95426 76.9474 8.72496C76.7445 8.49566 76.4741 8.29626 76.1361 8.12678C75.8093 7.95729 75.4543 7.77784 75.0712 7.58842C74.6543 7.36908 74.2205 7.12981 73.7697 6.8706C73.3303 6.60142 72.9584 6.28737 72.6542 5.92846C72.3499 5.56955 72.1978 5.14584 72.1978 4.65732C72.1978 4.1389 72.3499 3.69026 72.6542 3.31142C72.9697 2.9226 73.3754 2.62351 73.8712 2.41414C74.367 2.20478 74.8909 2.1001 75.4431 2.1001Z" fill="white"/>
<path d="M83.4756 2.21973C84.2531 2.21973 85.1095 2.20478 86.0448 2.17487C86.98 2.14496 87.8928 2.13001 88.7829 2.13001C88.8393 2.49889 88.9125 2.83786 89.0027 3.14692C89.0928 3.45598 89.1773 3.77501 89.2562 4.10401C89.1999 4.15386 89.1041 4.17878 88.9689 4.17878C88.8224 4.17878 88.7435 4.14389 88.7322 4.0741C88.5519 3.48589 88.2984 3.11202 87.9716 2.95251C87.6449 2.79299 87.2617 2.71323 86.8223 2.71323H85.4025C85.3349 2.71323 85.2109 2.71822 85.0306 2.72819C84.8503 2.72819 84.6813 2.73816 84.5236 2.7581C84.3658 2.77804 84.2757 2.81293 84.2531 2.86278C84.2193 2.96248 84.1968 3.09208 84.1855 3.2516C84.1855 3.41111 84.1855 3.57561 84.1855 3.7451C84.1855 3.81489 84.1855 3.86972 84.1855 3.9096V6.63132C84.1855 6.6712 84.2588 6.69613 84.4053 6.7061C84.5517 6.71607 84.7151 6.72105 84.8954 6.72105H85.7574C86.1518 6.72105 86.4561 6.71108 86.6702 6.69114C86.8955 6.6712 87.0589 6.62634 87.1603 6.55655C87.2617 6.48676 87.3406 6.38208 87.397 6.24251C87.4533 6.10293 87.5153 5.91351 87.5829 5.67423C87.5942 5.60445 87.673 5.56955 87.8195 5.56955C87.9547 5.56955 88.0505 5.59448 88.1068 5.64432V8.39596C88.0618 8.43584 87.9716 8.45578 87.8364 8.45578C87.7012 8.45578 87.6167 8.42089 87.5829 8.3511C87.504 8.07195 87.4364 7.87255 87.3801 7.75292C87.335 7.62331 87.2899 7.53857 87.2448 7.49869C87.211 7.44884 87.166 7.40896 87.1096 7.37905C87.0533 7.33917 86.9237 7.31425 86.7209 7.30428C86.518 7.28434 86.2927 7.27437 86.0448 7.27437C85.8081 7.2644 85.5828 7.25942 85.3687 7.25942C85.2222 7.25942 85.0532 7.2644 84.8616 7.27437C84.6813 7.27437 84.5236 7.28434 84.3883 7.30428C84.2531 7.31425 84.1855 7.34416 84.1855 7.39401V10.1756C84.1855 10.1955 84.1855 10.2254 84.1855 10.2653C84.1855 10.4049 84.1855 10.5843 84.1855 10.8036C84.1968 11.023 84.225 11.1476 84.27 11.1775C84.3827 11.2473 84.5179 11.2922 84.6757 11.3121C84.8447 11.3221 85.1039 11.3271 85.4532 11.3271H86.2476C86.642 11.3271 87.0307 11.2922 87.4139 11.2224C87.797 11.1526 88.1012 11.0529 88.3266 10.9233C88.5858 10.7837 88.7886 10.5843 88.9351 10.3251C89.0816 10.0559 89.2224 9.76679 89.3576 9.45773C89.3802 9.39792 89.459 9.36801 89.5943 9.36801C89.7971 9.36801 89.9323 9.39792 89.9999 9.45773C89.8422 9.85652 89.6675 10.2802 89.4759 10.7289C89.2956 11.1775 89.1773 11.5613 89.121 11.8804C88.2308 11.8804 87.3462 11.8704 86.4673 11.8505C85.5884 11.8305 84.5968 11.8206 83.4925 11.8206C83.1094 11.8206 82.7657 11.8255 82.4615 11.8355C82.1572 11.8554 81.8417 11.8654 81.515 11.8654C81.4699 11.8255 81.4473 11.7557 81.4473 11.6561C81.4586 11.5564 81.4812 11.4866 81.515 11.4467C81.5826 11.4467 81.7065 11.4417 81.8868 11.4317C82.0671 11.4118 82.2361 11.3819 82.3939 11.342C82.5629 11.3021 82.653 11.2573 82.6643 11.2074C82.7094 11.0878 82.7319 10.9332 82.7319 10.7438C82.7432 10.5544 82.7488 10.35 82.7488 10.1307V3.89464C82.7488 3.67531 82.7432 3.47093 82.7319 3.28151C82.7319 3.08211 82.7094 2.9226 82.6643 2.80296C82.653 2.74314 82.5629 2.69828 82.3939 2.66837C82.2361 2.63846 82.0671 2.61852 81.8868 2.60855C81.7065 2.58861 81.5826 2.57864 81.515 2.57864C81.4812 2.53876 81.4586 2.46898 81.4473 2.36928C81.4473 2.26958 81.4699 2.19979 81.515 2.15992C81.853 2.16989 82.1854 2.18484 82.5122 2.20478C82.839 2.21475 83.1601 2.21973 83.4756 2.21973Z" fill="white"/>
<path d="M19.217 17.9626C19.217 18.2125 19.1601 18.4328 19.0461 18.6234C18.9322 18.8098 18.7719 18.9559 18.5651 19.0618C18.3626 19.1635 18.1263 19.2143 17.8562 19.2143C17.8225 19.2143 17.7782 19.2101 17.7233 19.2016C17.6685 19.1931 17.6242 19.1804 17.5904 19.1635C17.582 19.155 17.5651 19.1402 17.5398 19.119C17.5144 19.0936 17.5018 19.0618 17.5018 19.0237C17.5018 18.9983 17.5123 18.9877 17.5334 18.9919C17.5672 19.0004 17.6031 19.011 17.641 19.0237C17.679 19.0322 17.7212 19.0364 17.7676 19.0364C18.0166 19.0364 18.2254 18.9538 18.3942 18.7886C18.563 18.6192 18.6474 18.3798 18.6474 18.0706C18.6474 17.7614 18.563 17.5136 18.3942 17.3272C18.2254 17.1408 17.9702 17.0476 17.6284 17.0476C17.5904 17.0476 17.5313 17.0497 17.4512 17.054C17.3752 17.0582 17.3309 17.0751 17.3182 17.1048C17.3014 17.1429 17.2908 17.2086 17.2866 17.3018C17.2866 17.3907 17.2866 17.4818 17.2866 17.575V20.2183C17.2866 20.3115 17.2866 20.3983 17.2866 20.4788C17.2908 20.5593 17.3014 20.6249 17.3182 20.6758C17.3267 20.6969 17.3604 20.716 17.4195 20.7329C17.4786 20.7499 17.5398 20.7626 17.6031 20.7711C17.6706 20.7753 17.717 20.7774 17.7423 20.7774C17.755 20.7944 17.7613 20.824 17.7613 20.8664C17.7655 20.9087 17.7592 20.9384 17.7423 20.9553C17.6157 20.9469 17.4934 20.9405 17.3752 20.9363C17.2613 20.9278 17.1431 20.9236 17.0208 20.9236C16.9026 20.9236 16.7824 20.9278 16.66 20.9363C16.5418 20.9405 16.4195 20.9469 16.2929 20.9553C16.276 20.9384 16.2676 20.9087 16.2676 20.8664C16.2718 20.824 16.2802 20.7944 16.2929 20.7774C16.3182 20.7774 16.3625 20.7753 16.4258 20.7711C16.4933 20.7626 16.5566 20.7499 16.6157 20.7329C16.679 20.716 16.7127 20.6969 16.717 20.6758C16.7338 20.6249 16.7423 20.5593 16.7423 20.4788C16.7465 20.3983 16.7486 20.3115 16.7486 20.2183V17.5686C16.7486 17.4754 16.7465 17.3886 16.7423 17.3081C16.7423 17.2234 16.7338 17.1556 16.717 17.1048C16.7127 17.0794 16.679 17.0603 16.6157 17.0476C16.5566 17.0349 16.4933 17.0264 16.4258 17.0222C16.3625 17.0137 16.3182 17.0095 16.2929 17.0095C16.2802 16.9925 16.2718 16.9629 16.2676 16.9205C16.2676 16.8782 16.276 16.8485 16.2929 16.8316C16.4195 16.8358 16.5418 16.8422 16.66 16.8506C16.7824 16.8549 16.9026 16.857 17.0208 16.857C17.1431 16.857 17.2739 16.8549 17.4132 16.8506C17.5566 16.8464 17.7191 16.8443 17.9005 16.8443C18.1199 16.8443 18.3288 16.8888 18.5271 16.9777C18.7297 17.0624 18.8942 17.1874 19.0208 17.3526C19.1516 17.5178 19.217 17.7211 19.217 17.9626Z" fill="white"/>
<path d="M27.2063 16.8443C27.3456 16.8443 27.489 16.8676 27.6367 16.9142C27.7844 16.9608 27.9194 17.0285 28.0418 17.1175C28.1684 17.2065 28.2696 17.3187 28.3456 17.4543C28.4215 17.5856 28.4595 17.7402 28.4595 17.9181C28.4595 18.0664 28.4173 18.2104 28.3329 18.3502C28.2528 18.49 28.1473 18.6128 28.0165 18.7187C27.8899 18.8246 27.757 18.9009 27.6177 18.9475C27.7274 19.1296 27.8329 19.2969 27.9342 19.4494C28.0355 19.6019 28.1409 19.7544 28.2507 19.9069C28.3604 20.0552 28.4827 20.2204 28.6177 20.4025C28.7064 20.5211 28.8013 20.6101 28.9026 20.6694C29.0081 20.7287 29.1452 20.7647 29.314 20.7774C29.3308 20.7944 29.3351 20.8261 29.3266 20.8727C29.3182 20.9193 29.3119 20.9469 29.3076 20.9553C29.1009 20.9553 28.9279 20.949 28.7886 20.9363C28.6536 20.9193 28.5545 20.9003 28.4912 20.8791C28.449 20.8621 28.3899 20.8367 28.3139 20.8028C28.238 20.7647 28.1642 20.699 28.0924 20.6059C28.0671 20.572 28.0207 20.5063 27.9532 20.4089C27.8857 20.3115 27.8055 20.1928 27.7127 20.0531C27.6198 19.9133 27.5207 19.765 27.4152 19.6083C27.3097 19.4473 27.2084 19.2906 27.1114 19.1381C27.0776 19.0872 27.0143 19.0618 26.9215 19.0618H26.5987V20.2183C26.5987 20.231 26.5987 20.2437 26.5987 20.2564C26.5987 20.2691 26.5987 20.2818 26.5987 20.2945C26.5987 20.375 26.5987 20.4491 26.5987 20.5169C26.6029 20.5804 26.6114 20.6334 26.624 20.6758C26.6325 20.6969 26.6662 20.716 26.7253 20.7329C26.7844 20.7499 26.8477 20.7626 26.9152 20.7711C26.9827 20.7753 27.0291 20.7774 27.0544 20.7774C27.0671 20.7944 27.0734 20.824 27.0734 20.8664C27.0776 20.9087 27.0713 20.9384 27.0544 20.9553C26.9278 20.9469 26.8055 20.9405 26.6873 20.9363C26.5734 20.9278 26.4552 20.9236 26.3329 20.9236C26.2147 20.9236 26.0945 20.9278 25.9721 20.9363C25.8497 20.9405 25.7253 20.9469 25.5987 20.9553C25.5818 20.9384 25.5734 20.9087 25.5734 20.8664C25.5776 20.824 25.586 20.7944 25.5987 20.7774C25.624 20.7774 25.6704 20.7753 25.7379 20.7711C25.8054 20.7626 25.8687 20.7499 25.9278 20.7329C25.9911 20.716 26.0249 20.6969 26.0291 20.6758C26.0459 20.6249 26.0544 20.5593 26.0544 20.4788C26.0586 20.3983 26.0607 20.3115 26.0607 20.2183L26.0544 17.5686C26.0544 17.4754 26.0523 17.3886 26.0481 17.3081C26.0481 17.2234 26.0396 17.1556 26.0227 17.1048C26.0185 17.0794 25.9848 17.0603 25.9215 17.0476C25.8624 17.0349 25.7991 17.0264 25.7316 17.0222C25.6683 17.0137 25.624 17.0095 25.5987 17.0095C25.586 16.9925 25.5776 16.9629 25.5734 16.9205C25.5734 16.8782 25.5818 16.8485 25.5987 16.8316C25.7253 16.8358 25.8476 16.8422 25.9658 16.8506C26.0881 16.8549 26.2084 16.857 26.3265 16.857C26.4489 16.857 26.5797 16.8549 26.719 16.8506C26.8624 16.8464 27.0249 16.8443 27.2063 16.8443ZM27.8836 17.9753C27.8836 17.7042 27.8097 17.4818 27.662 17.3081C27.5186 17.1344 27.2759 17.0476 26.9342 17.0476C26.8962 17.0476 26.8371 17.0497 26.7569 17.054C26.681 17.0582 26.6367 17.0751 26.624 17.1048C26.6071 17.1429 26.5966 17.2086 26.5924 17.3018C26.5924 17.3907 26.5924 17.4818 26.5924 17.575L26.5987 18.8712H26.9278C27.0882 18.8712 27.2401 18.8352 27.3835 18.7632C27.5312 18.6869 27.6515 18.5832 27.7443 18.4518C27.8371 18.3163 27.8836 18.1574 27.8836 17.9753Z" fill="white"/>
<path d="M37.3192 16.7998C37.5935 16.7998 37.8509 16.8506 38.0914 16.9523C38.3361 17.054 38.5513 17.2001 38.737 17.3907C38.9227 17.5771 39.0682 17.7995 39.1737 18.0579C39.2834 18.3121 39.3383 18.5938 39.3383 18.903C39.3383 19.1953 39.2834 19.4685 39.1737 19.7226C39.0682 19.9726 38.9227 20.195 38.737 20.3898C38.5513 20.5804 38.3361 20.7308 38.0914 20.841C37.8509 20.9469 37.5935 20.9998 37.3192 20.9998C37.0492 20.9998 36.7918 20.949 36.5471 20.8473C36.3065 20.7456 36.0935 20.6016 35.9078 20.4152C35.7264 20.2246 35.5829 20.0022 35.4774 19.7481C35.3719 19.4897 35.3192 19.208 35.3192 18.903C35.3192 18.6107 35.3719 18.3375 35.4774 18.0833C35.5829 17.8292 35.7264 17.6068 35.9078 17.4161C36.0935 17.2213 36.3065 17.0709 36.5471 16.965C36.7918 16.8549 37.0492 16.7998 37.3192 16.7998ZM37.2306 17.0095C36.9986 17.0095 36.8002 17.0624 36.6357 17.1683C36.4711 17.27 36.3361 17.4056 36.2306 17.575C36.1293 17.7444 36.0534 17.9329 36.0027 18.1405C35.9563 18.3481 35.9331 18.5556 35.9331 18.7632C35.9331 19.0046 35.9648 19.2461 36.0281 19.4876C36.0956 19.7248 36.1926 19.9429 36.3192 20.142C36.4458 20.3369 36.5998 20.4936 36.7812 20.6122C36.9669 20.7308 37.18 20.7901 37.4205 20.7901C37.6526 20.7901 37.8509 20.7393 38.0155 20.6376C38.18 20.5317 38.315 20.3919 38.4205 20.2183C38.526 20.0446 38.602 19.854 38.6484 19.6464C38.699 19.4346 38.7243 19.2249 38.7243 19.0174C38.7243 18.7759 38.6906 18.5366 38.6231 18.2994C38.5598 18.0621 38.4627 17.8461 38.3319 17.6512C38.2053 17.4564 38.0492 17.3018 37.8636 17.1874C37.6821 17.0688 37.4711 17.0095 37.2306 17.0095Z" fill="white"/>
<path d="M47.4188 16.8443C47.558 16.8443 47.7015 16.8612 47.8491 16.8951C47.9968 16.9248 48.1319 16.9756 48.2542 17.0476C48.3766 17.1154 48.4757 17.2086 48.5517 17.3272C48.6276 17.4458 48.6656 17.5941 48.6656 17.772C48.6656 17.9287 48.6276 18.0706 48.5517 18.1977C48.48 18.3248 48.3935 18.4285 48.2922 18.509C48.1951 18.5895 48.1108 18.6446 48.039 18.6742C48.0264 18.6827 48.0264 18.6912 48.039 18.6997C48.115 18.7039 48.2036 18.7293 48.3049 18.7759C48.4061 18.8225 48.5053 18.8903 48.6023 18.9792C48.7036 19.0639 48.7859 19.1677 48.8492 19.2906C48.9125 19.4134 48.9441 19.5511 48.9441 19.7036C48.9441 19.8815 48.9125 20.0467 48.8492 20.1992C48.7901 20.3517 48.6846 20.4915 48.5327 20.6186C48.385 20.7414 48.1909 20.8282 47.9504 20.8791C47.7099 20.9257 47.4715 20.9511 47.2352 20.9553H45.8111C45.7942 20.9384 45.7858 20.9087 45.7858 20.8664C45.79 20.824 45.7985 20.7944 45.8111 20.7774C45.8364 20.7774 45.8828 20.7753 45.9504 20.7711C46.0179 20.7626 46.0812 20.7499 46.1402 20.7329C46.2035 20.716 46.2373 20.6969 46.2415 20.6758C46.2584 20.6249 46.2668 20.5593 46.2668 20.4788C46.271 20.3983 46.2731 20.3115 46.2731 20.2183V17.5686C46.2731 17.4754 46.271 17.3886 46.2668 17.3081C46.2668 17.2234 46.2584 17.1556 46.2415 17.1048C46.2373 17.0794 46.2035 17.0603 46.1402 17.0476C46.0812 17.0349 46.0179 17.0264 45.9504 17.0222C45.8828 17.0137 45.8364 17.0095 45.8111 17.0095C45.7985 16.9925 45.79 16.9629 45.7858 16.9205C45.7858 16.8782 45.7942 16.8485 45.8111 16.8316C45.9377 16.8358 46.0622 16.8422 46.1845 16.8506C46.3069 16.8549 46.4272 16.857 46.5453 16.857C46.6677 16.857 46.7985 16.8549 46.9377 16.8506C47.077 16.8464 47.2373 16.8443 47.4188 16.8443ZM46.8111 18.8776V20.2246C46.8111 20.2543 46.8111 20.3009 46.8111 20.3644C46.8154 20.4237 46.8217 20.4809 46.8301 20.536C46.8386 20.591 46.8491 20.627 46.8618 20.644C46.9082 20.6948 46.9715 20.7266 47.0517 20.7393C47.136 20.752 47.2352 20.7584 47.3491 20.7584C47.5053 20.7584 47.6572 20.7351 47.8048 20.6885C47.9567 20.6419 48.0833 20.5529 48.1846 20.4216C48.2859 20.286 48.3365 20.0933 48.3365 19.8434C48.3365 19.6866 48.307 19.5363 48.2479 19.3922C48.1888 19.244 48.0749 19.1211 47.9061 19.0237C47.7415 18.9263 47.501 18.8776 47.1846 18.8776H46.8111ZM46.8111 18.6425H47.3238C47.5095 18.6425 47.6593 18.6065 47.7732 18.5344C47.8871 18.4624 47.9694 18.3714 48.02 18.2612C48.0749 18.1469 48.1023 18.0304 48.1023 17.9118C48.1023 17.6364 48.0137 17.4246 47.8365 17.2764C47.6635 17.1239 47.4335 17.0476 47.1466 17.0476C47.1086 17.0476 47.0495 17.0497 46.9694 17.054C46.8934 17.0582 46.8491 17.0751 46.8365 17.1048C46.8238 17.1387 46.8154 17.1916 46.8111 17.2636C46.8111 17.3357 46.8111 17.4119 46.8111 17.4924C46.8111 17.5093 46.8111 17.5242 46.8111 17.5369C46.8111 17.5496 46.8111 17.5623 46.8111 17.575V18.6425Z" fill="white"/>
<path d="M56.4074 20.2183C56.4074 20.2267 56.4074 20.2394 56.4074 20.2564C56.4074 20.2945 56.4074 20.3453 56.4074 20.4089C56.4074 20.4682 56.4095 20.5233 56.4138 20.5741C56.418 20.6249 56.4264 20.6546 56.4391 20.663C56.4813 20.6927 56.5319 20.7118 56.591 20.7202C56.6543 20.7245 56.7513 20.7266 56.8821 20.7266H57.2302C57.3484 20.7266 57.4771 20.7139 57.6163 20.6885C57.7598 20.6588 57.8737 20.6143 57.9581 20.555C58.0341 20.5 58.1037 20.4237 58.167 20.3263C58.2345 20.2289 58.2936 20.0975 58.3442 19.9323C58.3526 19.9069 58.3822 19.8942 58.4328 19.8942C58.5088 19.8942 58.5594 19.9069 58.5847 19.9323C58.5256 20.1018 58.4602 20.2818 58.3885 20.4724C58.321 20.663 58.2767 20.8261 58.2556 20.9617C57.9222 20.9617 57.591 20.9574 57.2619 20.949C56.9328 20.9405 56.5614 20.9363 56.1479 20.9363C56.0045 20.9363 55.8758 20.9384 55.7618 20.9426C55.6479 20.9511 55.5298 20.9553 55.4074 20.9553C55.3905 20.9384 55.3821 20.9087 55.3821 20.8664C55.3863 20.824 55.3947 20.7944 55.4074 20.7774C55.4327 20.7774 55.4791 20.7753 55.5466 20.7711C55.6142 20.7626 55.6774 20.7499 55.7365 20.7329C55.7998 20.716 55.8336 20.6969 55.8378 20.6758C55.8547 20.6249 55.8631 20.5593 55.8631 20.4788C55.8673 20.3983 55.8694 20.3115 55.8694 20.2183V17.5686C55.8694 17.4754 55.8673 17.3886 55.8631 17.3081C55.8631 17.2234 55.8547 17.1556 55.8378 17.1048C55.8336 17.0794 55.7998 17.0603 55.7365 17.0476C55.6774 17.0349 55.6142 17.0264 55.5466 17.0222C55.4791 17.0137 55.4327 17.0095 55.4074 17.0095C55.3947 16.9925 55.3863 16.9629 55.3821 16.9205C55.3821 16.8782 55.3905 16.8485 55.4074 16.8316C55.534 16.8358 55.6585 16.8422 55.7808 16.8506C55.9032 16.8549 56.0235 16.857 56.1416 16.857C56.264 16.857 56.3821 16.8549 56.496 16.8506C56.6142 16.8422 56.7365 16.8358 56.8631 16.8316C56.88 16.8485 56.8863 16.8782 56.8821 16.9205C56.8821 16.9629 56.8758 16.9925 56.8631 17.0095C56.8378 17.0095 56.7914 17.0137 56.7239 17.0222C56.6564 17.0264 56.5931 17.0349 56.534 17.0476C56.4749 17.0603 56.4412 17.0794 56.4327 17.1048C56.4201 17.1472 56.4116 17.2022 56.4074 17.27C56.4074 17.3378 56.4074 17.4119 56.4074 17.4924C56.4074 17.5051 56.4074 17.5178 56.4074 17.5305C56.4074 17.5432 56.4074 17.5559 56.4074 17.5686V20.2183Z" fill="white"/>
<path d="M65.571 16.857C65.8621 16.857 66.1828 16.8506 66.5331 16.8379C66.8833 16.8252 67.2251 16.8189 67.5584 16.8189C67.5795 16.9756 67.6069 17.1196 67.6407 17.2509C67.6744 17.3823 67.7061 17.5178 67.7356 17.6576C67.7145 17.6788 67.6787 17.6894 67.628 17.6894C67.5732 17.6894 67.5436 17.6745 67.5394 17.6449C67.4719 17.395 67.377 17.2361 67.2546 17.1683C67.1322 17.1006 66.9888 17.0667 66.8242 17.0667H66.2925C66.2672 17.0667 66.2208 17.0688 66.1533 17.073C66.0858 17.073 66.0225 17.0773 65.9634 17.0857C65.9043 17.0942 65.8706 17.109 65.8621 17.1302C65.8495 17.1726 65.841 17.2276 65.8368 17.2954C65.8368 17.3632 65.8368 17.4331 65.8368 17.5051C65.8368 17.5348 65.8368 17.558 65.8368 17.575V18.7314C65.8368 18.7484 65.8643 18.759 65.9191 18.7632C65.974 18.7674 66.0351 18.7695 66.1027 18.7695H66.4255C66.5731 18.7695 66.6871 18.7653 66.7672 18.7568C66.8516 18.7484 66.9128 18.7293 66.9508 18.6997C66.9888 18.67 67.0183 18.6255 67.0394 18.5662C67.0605 18.5069 67.0837 18.4264 67.109 18.3248C67.1132 18.2951 67.1428 18.2803 67.1976 18.2803C67.2483 18.2803 67.2841 18.2909 67.3052 18.3121V19.4812C67.2883 19.4981 67.2546 19.5066 67.204 19.5066C67.1533 19.5066 67.1217 19.4918 67.109 19.4621C67.0795 19.3435 67.0542 19.2588 67.0331 19.208C67.0162 19.1529 66.9993 19.1169 66.9824 19.1C66.9698 19.0788 66.9529 19.0618 66.9318 19.0491C66.9107 19.0322 66.8622 19.0216 66.7862 19.0174C66.7103 19.0089 66.6259 19.0046 66.5331 19.0046C66.4444 19.0004 66.3601 18.9983 66.2799 18.9983C66.225 18.9983 66.1617 19.0004 66.09 19.0046C66.0225 19.0046 65.9634 19.0089 65.9128 19.0174C65.8621 19.0216 65.8368 19.0343 65.8368 19.0555V20.2373C65.8368 20.2458 65.8368 20.2585 65.8368 20.2754C65.8368 20.3348 65.8368 20.411 65.8368 20.5042C65.841 20.5974 65.8516 20.6503 65.8685 20.663C65.9107 20.6927 65.9613 20.7118 66.0204 20.7202C66.0837 20.7245 66.1807 20.7266 66.3115 20.7266H66.609C66.7567 20.7266 66.9023 20.7118 67.0457 20.6821C67.1892 20.6525 67.3031 20.6101 67.3875 20.555C67.4846 20.4957 67.5605 20.411 67.6154 20.3009C67.6702 20.1865 67.723 20.0636 67.7736 19.9323C67.782 19.9069 67.8116 19.8942 67.8622 19.8942C67.9382 19.8942 67.9888 19.9069 68.0141 19.9323C67.955 20.1018 67.8896 20.2818 67.8179 20.4724C67.7504 20.663 67.7061 20.8261 67.685 20.9617C67.3516 20.9617 67.0204 20.9574 66.6913 20.949C66.3622 20.9405 65.9908 20.9363 65.5773 20.9363C65.4339 20.9363 65.3052 20.9384 65.1912 20.9426C65.0773 20.9511 64.9592 20.9553 64.8368 20.9553C64.8199 20.9384 64.8115 20.9087 64.8115 20.8664C64.8157 20.824 64.8241 20.7944 64.8368 20.7774C64.8621 20.7774 64.9085 20.7753 64.976 20.7711C65.0436 20.7626 65.1068 20.7499 65.1659 20.7329C65.2292 20.716 65.263 20.6969 65.2672 20.6758C65.2841 20.6249 65.2925 20.5593 65.2925 20.4788C65.2967 20.3983 65.2988 20.3115 65.2988 20.2183V17.5686C65.2988 17.4754 65.2967 17.3886 65.2925 17.3081C65.2925 17.2234 65.2841 17.1556 65.2672 17.1048C65.263 17.0794 65.2292 17.0603 65.1659 17.0476C65.1068 17.0349 65.0436 17.0264 64.976 17.0222C64.9085 17.0137 64.8621 17.0095 64.8368 17.0095C64.8241 16.9925 64.8157 16.9629 64.8115 16.9205C64.8115 16.8782 64.8199 16.8485 64.8368 16.8316C64.9634 16.8358 65.0879 16.8422 65.2102 16.8506C65.3326 16.8549 65.4529 16.857 65.571 16.857Z" fill="white"/>
<path d="M75.1424 16.857C75.2479 16.857 75.3407 16.8549 75.4209 16.8506C75.5011 16.8422 75.5749 16.8358 75.6424 16.8316C75.6677 16.9121 75.7142 17.037 75.7817 17.2065C75.8534 17.3759 75.9357 17.5771 76.0285 17.8101C76.1256 18.0388 76.2289 18.2824 76.3386 18.5408C76.4484 18.7992 76.556 19.0576 76.6614 19.316C76.7669 19.5702 76.864 19.8074 76.9526 20.0276C76.9568 20.0361 76.9652 20.0403 76.9779 20.0403C76.9906 20.0403 76.999 20.0319 77.0032 20.0149C77.1256 19.7015 77.2353 19.4198 77.3323 19.1698C77.4294 18.9157 77.5264 18.6636 77.6235 18.4137C77.7248 18.1596 77.8345 17.88 77.9526 17.575C77.9906 17.4776 78.0307 17.3717 78.0729 17.2573C78.1151 17.1429 78.1509 17.0434 78.1805 16.9587C78.21 16.8739 78.2248 16.8316 78.2248 16.8316C78.4231 16.8443 78.5855 16.8506 78.7121 16.8506C78.8218 16.8506 78.9442 16.8485 79.0792 16.8443C79.2185 16.84 79.3261 16.8358 79.402 16.8316C79.4062 16.84 79.4105 16.8718 79.4147 16.9269C79.4189 16.982 79.421 17.0095 79.421 17.0095C79.3915 17.0095 79.3429 17.0137 79.2754 17.0222C79.2121 17.0307 79.151 17.0434 79.0919 17.0603C79.0328 17.0773 78.997 17.0963 78.9843 17.1175C78.9716 17.1472 78.9632 17.1853 78.959 17.2319C78.9548 17.2785 78.9526 17.3208 78.9526 17.359C78.9569 17.4649 78.9611 17.6258 78.9653 17.8419C78.9695 18.0579 78.9737 18.3015 78.978 18.5726C78.9864 18.8394 78.9927 19.1042 78.997 19.3668C79.0054 19.6295 79.0117 19.8624 79.0159 20.0658C79.0202 20.1844 79.0265 20.2966 79.0349 20.4025C79.0434 20.5084 79.0624 20.5974 79.0919 20.6694C79.1045 20.699 79.1425 20.7223 79.2058 20.7393C79.2691 20.752 79.3324 20.7626 79.3957 20.7711C79.4632 20.7753 79.5054 20.7774 79.5223 20.7774C79.5392 20.8071 79.5455 20.8431 79.5413 20.8854C79.5413 20.9236 79.5392 20.9469 79.5349 20.9553C79.4126 20.9469 79.2923 20.9405 79.1742 20.9363C79.0602 20.9278 78.9358 20.9236 78.8007 20.9236C78.6573 20.9236 78.5328 20.9278 78.4273 20.9363C78.3218 20.9405 78.1974 20.9469 78.0539 20.9553C78.0497 20.9469 78.0454 20.9214 78.0412 20.8791C78.037 20.8367 78.0412 20.8028 78.0539 20.7774C78.0792 20.7774 78.1193 20.7753 78.1741 20.7711C78.229 20.7626 78.2838 20.7541 78.3387 20.7456C78.3936 20.7329 78.4336 20.7202 78.459 20.7075C78.4801 20.6948 78.4948 20.6588 78.5033 20.5995C78.5117 20.5402 78.5159 20.4894 78.5159 20.447C78.5159 20.4004 78.5138 20.3411 78.5096 20.2691C78.5054 20.1928 78.5033 20.1314 78.5033 20.0848C78.4948 19.7841 78.4864 19.496 78.4779 19.2207C78.4695 18.9411 78.4611 18.6573 78.4526 18.3692C78.4442 18.077 78.4336 17.7635 78.421 17.4289C78.421 17.4161 78.4168 17.3928 78.4083 17.359C78.3999 17.3251 78.3851 17.3081 78.364 17.3081C78.3556 17.3081 78.345 17.323 78.3324 17.3526C78.2058 17.6703 78.0876 17.9647 77.9779 18.2358C77.8724 18.5069 77.7691 18.7695 77.6678 19.0237C77.5665 19.2736 77.4632 19.5299 77.3577 19.7925C77.2564 20.0509 77.1467 20.3305 77.0285 20.6313C77.0201 20.6482 77.0011 20.6821 76.9716 20.7329C76.942 20.7838 76.9104 20.8325 76.8766 20.8791C76.8471 20.9214 76.8197 20.9447 76.7944 20.949C76.7859 20.9532 76.7711 20.9511 76.75 20.9426C76.7458 20.9384 76.7416 20.9363 76.7374 20.9363L75.231 17.3145C75.2268 17.5856 75.2205 17.8652 75.212 18.1532C75.2036 18.4413 75.1952 18.7208 75.1867 18.9919C75.1825 19.263 75.1762 19.5087 75.1677 19.729C75.1635 19.945 75.1593 20.1208 75.1551 20.2564C75.1509 20.3877 75.1487 20.4597 75.1487 20.4724C75.1487 20.5021 75.1509 20.536 75.1551 20.5741C75.1593 20.608 75.1656 20.6376 75.1741 20.663C75.1867 20.6927 75.2289 20.716 75.3006 20.7329C75.3766 20.7499 75.4526 20.7626 75.5285 20.7711C75.6045 20.7753 75.6509 20.7774 75.6677 20.7774C75.6846 20.7944 75.691 20.8261 75.6867 20.8727C75.6825 20.9193 75.6783 20.9469 75.6741 20.9553C75.5517 20.9469 75.4462 20.9405 75.3576 20.9363C75.269 20.9278 75.1572 20.9236 75.0222 20.9236C74.8787 20.9236 74.7584 20.9278 74.6614 20.9363C74.5643 20.9405 74.4441 20.9469 74.3006 20.9553C74.2964 20.9469 74.2922 20.9214 74.288 20.8791C74.2837 20.8367 74.288 20.8028 74.3006 20.7774C74.3259 20.7774 74.3745 20.7732 74.4462 20.7647C74.5221 20.7562 74.596 20.7435 74.6677 20.7266C74.7394 20.7096 74.7838 20.6885 74.8006 20.663C74.8302 20.6207 74.8492 20.5762 74.8576 20.5296C74.866 20.4788 74.8724 20.4195 74.8766 20.3517C74.8892 19.9789 74.8998 19.621 74.9082 19.2779C74.9209 18.9348 74.9293 18.6276 74.9335 18.3565C74.942 18.0812 74.9483 17.8588 74.9525 17.6894C74.9568 17.5157 74.9589 17.414 74.9589 17.3844C74.9589 17.3378 74.9568 17.2933 74.9525 17.2509C74.9525 17.2086 74.9462 17.1705 74.9335 17.1366C74.9251 17.1112 74.8892 17.09 74.8259 17.073C74.7669 17.0518 74.7036 17.037 74.6361 17.0285C74.5728 17.0158 74.5285 17.0095 74.5032 17.0095C74.4989 17.0095 74.4968 16.982 74.4968 16.9269C74.4968 16.8676 74.4989 16.8358 74.5032 16.8316C74.6002 16.8358 74.6783 16.84 74.7373 16.8443C74.7964 16.8485 74.8555 16.8528 74.9146 16.857C74.9736 16.857 75.0496 16.857 75.1424 16.857Z" fill="white"/>
<path d="M87.2995 16.8062C87.4303 16.8062 87.5379 16.8146 87.6223 16.8316C87.7109 16.8443 87.7995 16.8633 87.8881 16.8888C87.9809 16.9142 88.0949 16.9438 88.2299 16.9777C88.2552 17.1387 88.2742 17.306 88.2869 17.4797C88.3037 17.6491 88.3143 17.7762 88.3185 17.8609C88.3227 17.8821 88.308 17.899 88.2742 17.9118C88.2404 17.9202 88.213 17.9245 88.1919 17.9245C88.1624 17.9245 88.1392 17.916 88.1223 17.899C88.1139 17.8228 88.0885 17.7338 88.0463 17.6322C88.0042 17.5305 87.9451 17.4331 87.8691 17.3399C87.7974 17.2467 87.7088 17.1705 87.6033 17.1112C87.502 17.0476 87.386 17.0158 87.2552 17.0158C87.0864 17.0158 86.9535 17.0518 86.8564 17.1239C86.7594 17.1959 86.6898 17.2848 86.6476 17.3907C86.6054 17.4966 86.5843 17.6004 86.5843 17.7021C86.5843 17.8673 86.6265 18.0049 86.7109 18.1151C86.7995 18.2252 86.9092 18.3226 87.04 18.4074C87.175 18.4921 87.31 18.5789 87.4451 18.6679C87.5463 18.7314 87.6582 18.8013 87.7805 18.8776C87.9029 18.9538 88.021 19.0385 88.135 19.1317C88.2489 19.2249 88.3417 19.3329 88.4135 19.4558C88.4852 19.5744 88.521 19.7099 88.521 19.8624C88.521 20.0869 88.4578 20.286 88.3312 20.4597C88.2088 20.6292 88.0485 20.7626 87.8501 20.86C87.656 20.9532 87.4493 20.9998 87.2299 20.9998C87.0231 20.9998 86.8227 20.9765 86.6286 20.9299C86.4387 20.8833 86.2678 20.8452 86.1159 20.8155C86.0906 20.6927 86.0674 20.5614 86.0463 20.4216C86.0294 20.2818 86.0146 20.159 86.002 20.0531C85.9936 19.9472 85.9893 19.8815 85.9893 19.8561C86.0104 19.8349 86.0336 19.818 86.059 19.8053C86.0885 19.7883 86.118 19.7798 86.1476 19.7798C86.1855 19.7798 86.2087 19.7989 86.2172 19.837C86.2298 19.8963 86.2552 19.9789 86.2931 20.0848C86.3353 20.1865 86.3944 20.2924 86.4704 20.4025C86.5505 20.5127 86.6518 20.6059 86.7742 20.6821C86.9007 20.7541 87.0569 20.7901 87.2425 20.7901C87.4408 20.7901 87.6138 20.7245 87.7615 20.5931C87.9092 20.4576 87.9831 20.2691 87.9831 20.0276C87.9831 19.854 87.943 19.7184 87.8628 19.621C87.7868 19.5236 87.6856 19.4388 87.559 19.3668C87.4366 19.2948 87.3037 19.2186 87.1602 19.1381C87.0041 19.0449 86.8417 18.9432 86.6729 18.8331C86.5083 18.7187 86.3691 18.5853 86.2552 18.4328C86.1412 18.2803 86.0843 18.1003 86.0843 17.8927C86.0843 17.6724 86.1412 17.4818 86.2552 17.3208C86.3733 17.1556 86.5252 17.0285 86.7109 16.9396C86.8965 16.8506 87.0927 16.8062 87.2995 16.8062Z" fill="white"/>
</svg>
