<svg width="30" height="30" viewBox="0 0 30 30" fill="none" xmlns="http://www.w3.org/2000/svg">
<g opacity="0.8">
<circle cx="15" cy="15" r="14.5" stroke="#FFFEFE"/>
</g>
<path d="M8.62164 9.12164C8.62163 8.8455 8.84549 8.62164 9.12163 8.62164L13.6216 8.62159C13.8978 8.62159 14.1216 8.84544 14.1216 9.12158C14.1216 9.39773 13.8978 9.62159 13.6216 9.62159L9.62164 9.62163L9.62168 13.6216C9.62169 13.8978 9.39783 14.1216 9.12169 14.1216C8.84555 14.1216 8.62169 13.8978 8.62168 13.6216L8.62164 9.12164ZM13.8536 13.1464C14.0489 13.3417 14.0489 13.6583 13.8536 13.8535C13.6584 14.0488 13.3418 14.0488 13.1465 13.8536L13.8536 13.1464ZM9.47519 8.76808L13.8536 13.1464L13.1465 13.8536L8.76809 9.47519L9.47519 8.76808Z" fill="white"/>
<path d="M21.2838 21.7838C21.5599 21.7838 21.7838 21.5599 21.7838 21.2838V16.7838C21.7838 16.5076 21.5599 16.2838 21.2838 16.2838C21.0076 16.2838 20.7838 16.5076 20.7838 16.7838V20.7838H16.7838C16.5076 20.7838 16.2838 21.0076 16.2838 21.2838C16.2838 21.5599 16.5076 21.7838 16.7838 21.7838H21.2838ZM16.8536 16.1464C16.6583 15.9512 16.3417 15.9512 16.1464 16.1464C15.9512 16.3417 15.9512 16.6583 16.1464 16.8536L16.8536 16.1464ZM21.6373 20.9302L16.8536 16.1464L16.1464 16.8536L20.9302 21.6373L21.6373 20.9302Z" fill="white"/>
</svg>
