<svg width="27" height="27" viewBox="0 0 27 27" fill="none" xmlns="http://www.w3.org/2000/svg">
<path d="M13.5 0C10.83 0 8.21987 0.791761 5.99981 2.27516C3.77974 3.75856 2.04942 5.86697 1.02763 8.33377C0.00584933 10.8006 -0.261496 13.515 0.259405 16.1337C0.780305 18.7525 2.06606 21.1579 3.95406 23.0459C5.84207 24.9339 8.24754 26.2197 10.8663 26.7406C13.485 27.2615 16.1994 26.9942 18.6662 25.9724C21.133 24.9506 23.2414 23.2203 24.7248 21.0002C26.2082 18.7801 27 16.17 27 13.5C27 11.7272 26.6508 9.97167 25.9724 8.33377C25.2939 6.69588 24.2995 5.20765 23.0459 3.95406C21.7924 2.70047 20.3041 1.70606 18.6662 1.02763C17.0283 0.349188 15.2728 0 13.5 0ZM20.0205 10.1925L14.6205 18.2925C14.5224 18.4409 14.396 18.5684 14.2485 18.6678C14.1009 18.7672 13.9352 18.8364 13.7608 18.8716C13.5865 18.9067 13.4069 18.907 13.2324 18.8725C13.0578 18.838 12.8919 18.7694 12.744 18.6705L8.694 15.9705C8.41822 15.7631 8.23234 15.4579 8.17455 15.1177C8.11676 14.7775 8.19144 14.4281 8.38326 14.1412C8.57507 13.8543 8.86946 13.6518 9.20594 13.5753C9.54242 13.4987 9.89545 13.5539 10.1925 13.7295L13.122 15.687L17.7795 8.7075C17.9869 8.43172 18.2921 8.24584 18.6323 8.18804C18.9725 8.13025 19.3219 8.20494 19.6088 8.39675C19.8957 8.58857 20.0982 8.88295 20.1747 9.21943C20.2513 9.55591 20.1961 9.90894 20.0205 10.206V10.1925Z" fill="#0EC937"/>
</svg>
