<svg width="46" height="9" viewBox="0 0 46 9" fill="none" xmlns="http://www.w3.org/2000/svg">
<path d="M34.9883 0.452529V1.35178H35.8669C36.2505 1.35178 36.5026 1.59373 36.6462 1.75001C36.7612 1.87873 39.2913 4.74633 39.3518 4.82169C39.4127 4.89718 39.4127 4.898 39.4127 4.94593V6.36683C39.4125 6.43198 39.406 6.49697 39.3933 6.56086C39.3753 6.6021 39.3485 6.63894 39.3149 6.66881C39.2812 6.69868 39.2415 6.72087 39.1984 6.73384C39.1153 6.74425 39.0317 6.74947 38.948 6.74945L38.0686 6.74836V7.64775H43.0015V6.74836H42.0733C41.9901 6.7488 41.9071 6.74354 41.8247 6.73261C41.7817 6.71977 41.742 6.69763 41.7085 6.66776C41.675 6.6379 41.6484 6.60103 41.6307 6.55977C41.6178 6.4959 41.6111 6.43092 41.6106 6.36575V4.94566C41.6052 4.89899 41.6169 4.85192 41.6436 4.81327L44.3806 1.69204C44.6318 1.41234 44.7625 1.35164 45.0919 1.35164H45.9999V0.452255H41.9345V1.34974H42.548C42.5809 1.34775 42.6137 1.35525 42.6424 1.37134C42.6712 1.38743 42.6947 1.41144 42.7102 1.44052C42.7257 1.46959 42.7326 1.50251 42.7299 1.53535C42.7272 1.56819 42.7152 1.59958 42.6952 1.62578C42.6823 1.64411 40.9932 3.62971 40.972 3.64899C40.9508 3.66827 40.9372 3.66365 40.9215 3.64261C40.9058 3.62142 39.2369 1.62578 39.2369 1.62578C39.1192 1.48131 39.2111 1.34988 39.3493 1.34988H39.9472V0.452392L34.9883 0.452529Z" fill="white" fill-opacity="0.53"/>
<path d="M22.8896 0.452545V1.35179H23.677C24.2456 1.35179 24.2843 1.66829 24.2843 1.94419V6.15354C24.2843 6.40541 24.299 6.75124 23.9366 6.75124H22.9649V7.64967H27.1133V6.75124H26.1014C25.6975 6.75124 25.679 6.56658 25.6745 6.17377V2.56768L31.372 7.6498H32.821L32.7445 1.91011C32.752 1.49069 32.7777 1.35098 33.2119 1.35098H34.1199V0.452545H29.888V1.35098H30.8173C31.2442 1.35098 31.3158 1.51554 31.3212 1.91011L31.372 4.91376L26.426 0.452545H22.8896Z" fill="white" fill-opacity="0.53"/>
<path d="M4.209 0C3.31757 0 2.30472 0.167412 1.44901 0.551797C0.650348 0.908618 5.88008e-06 1.4816 5.88008e-06 2.4315C-0.00121615 2.92904 0.188079 3.4082 0.529053 3.77066C0.759958 3.98396 1.13253 4.34635 2.106 4.55966C2.54105 4.65172 3.47119 4.79971 4.39767 4.8972C5.324 4.99469 6.22209 5.08118 6.58991 5.17962C6.88262 5.25402 7.37471 5.35531 7.37471 5.90711C7.37471 6.45891 6.8568 6.62428 6.76661 6.66026C6.67656 6.69611 6.05448 6.98124 4.93757 6.98124C4.19759 6.96069 3.46434 6.83464 2.76 6.6069C2.34329 6.45782 1.90633 6.26203 1.49872 5.76441C1.33421 5.53013 1.24294 5.25233 1.23644 4.96618H0.224529V7.79875H1.34876V7.41532C1.34861 7.38689 1.35603 7.35892 1.37027 7.3343C1.38451 7.30969 1.40505 7.28931 1.42978 7.27526C1.45452 7.26121 1.48255 7.254 1.51099 7.25437C1.53944 7.25474 1.56727 7.26268 1.59162 7.27737C2.12126 7.50776 2.67217 7.68579 3.23648 7.80894C3.82719 7.93209 4.209 8.02143 4.94314 8.02143C5.71782 8.03612 6.48988 7.92713 7.23019 7.69855C7.7218 7.56383 8.18304 7.33624 8.589 7.02808C8.81733 6.85276 9.00189 6.6269 9.12816 6.36825C9.25444 6.10959 9.319 5.82519 9.31676 5.53739C9.32069 4.99057 9.10963 4.46407 8.72904 4.07127C8.51737 3.86599 8.27216 3.69838 8.00399 3.57569C7.71572 3.4455 7.41645 3.34118 7.10971 3.26394C6.52647 3.12137 5.21643 2.94297 4.59 2.88037C3.933 2.81248 2.79301 2.71757 2.33772 2.57691C2.19972 2.5336 1.91815 2.4004 1.91815 2.07386C1.91815 1.84127 2.04691 1.64439 2.30091 1.48526C2.70472 1.23245 3.51995 1.07508 4.36995 1.07508C5.1928 1.06511 6.00892 1.22442 6.76757 1.54311C6.97137 1.63191 7.16302 1.74629 7.3379 1.8835C7.623 2.12693 7.82043 2.45706 7.89995 2.82335H8.80809V0.357773H7.79618V0.643718C7.79618 0.735775 7.70409 0.857161 7.52004 0.756958C7.06367 0.51962 5.78133 0.00651729 4.209 0Z" fill="white" fill-opacity="0.53"/>
<path d="M16.3884 0.000701904C14.7941 0.000701904 13.1012 0.552498 12.1444 1.42147C11.7796 1.75346 11.4884 2.15811 11.2896 2.60939C11.0907 3.06067 10.9886 3.54857 10.9897 4.04169C10.984 4.53683 11.084 5.02749 11.2831 5.4809C11.4822 5.93432 11.7758 6.34005 12.1443 6.67101C13.1748 7.59701 14.7205 8.09368 16.3884 8.09368C18.0591 8.09368 19.6378 7.60258 20.6435 6.67101C21.001 6.33229 21.2862 5.92469 21.4819 5.47281C21.6777 5.02093 21.7798 4.5341 21.7822 4.04169C21.7872 3.54979 21.6883 3.06237 21.4921 2.61123C21.2959 2.1601 21.0067 1.75539 20.6435 1.42351C19.5642 0.444964 18.152 0.000701904 16.3884 0.000701904ZM16.3884 1.0527C17.2606 1.0527 18.1005 1.36635 18.6662 1.9229C19.2136 2.46179 19.4997 3.22323 19.4997 4.03803C19.4997 4.89152 19.2394 5.58317 18.6664 6.15329C18.0932 6.72356 17.2725 7.02878 16.3884 7.02878C15.5107 7.02878 14.6725 6.71704 14.1068 6.15329C13.8362 5.87262 13.6238 5.54127 13.4817 5.17826C13.3396 4.81525 13.2706 4.42775 13.2788 4.03803C13.2788 3.2269 13.5612 2.46275 14.1068 1.9229C14.6725 1.36363 15.5163 1.0527 16.3884 1.0527Z" fill="white" fill-opacity="0.53"/>
</svg>
