<svg width="21" height="24" viewBox="0 0 21 24" fill="none" xmlns="http://www.w3.org/2000/svg">
<path d="M17.8635 4.81063C16.5666 3.968 15.63 2.61876 15.3385 1.04665C15.2757 0.707193 15.2404 0.357454 15.2404 0H11.1003L11.0934 16.5372C11.0238 18.3887 9.49464 19.8751 7.61979 19.8751C7.03755 19.8751 6.48886 19.7303 6.00553 19.4765C4.89782 18.8953 4.14014 17.7381 4.14014 16.406C4.14014 14.4936 5.70108 12.9369 7.61979 12.9369C7.97842 12.9369 8.32157 12.9961 8.64666 13.0972V8.88492C8.31039 8.83949 7.96896 8.81034 7.61979 8.81034C3.41773 8.81034 0 12.2177 0 16.4052C0 18.9751 1.28831 21.2484 3.25346 22.6233C4.49103 23.4891 5.99693 24 7.62065 24C11.8227 24 15.2404 20.5926 15.2404 16.4052V8.02C16.8642 9.18151 18.8534 9.86642 21 9.86642V5.73984C19.8433 5.73984 18.7665 5.39781 17.8635 4.81063Z" fill="white"/>
</svg>
