<svg width="116" height="25" viewBox="0 0 116 25" fill="none" xmlns="http://www.w3.org/2000/svg">
<path d="M4.05759 2.88L6.57759 10.608C6.65759 10.864 6.75359 11.176 6.86559 11.544C6.97759 11.896 7.08959 12.264 7.20159 12.648C7.31359 13.032 7.41759 13.416 7.51359 13.8C7.62559 14.184 7.71359 14.528 7.77759 14.832H7.84959C7.97759 14.224 8.16159 13.528 8.40159 12.744C8.65759 11.944 8.88959 11.224 9.09759 10.584L11.6416 2.88H15.0256L9.62559 18H6.04959L0.577594 2.88H4.05759ZM15.8234 7.56C16.5114 7.16 17.2394 6.856 18.0074 6.648C18.7754 6.424 19.5914 6.312 20.4554 6.312C21.1434 6.312 21.7674 6.392 22.3274 6.552C22.9034 6.712 23.3914 6.968 23.7914 7.32C24.2074 7.656 24.5194 8.096 24.7274 8.64C24.9514 9.168 25.0634 9.808 25.0634 10.56V18H22.5914L22.3034 16.824H22.2074C21.8394 17.272 21.3674 17.624 20.7914 17.88C20.2314 18.136 19.5754 18.264 18.8234 18.264C18.1994 18.264 17.6474 18.176 17.1674 18C16.6874 17.808 16.2794 17.56 15.9434 17.256C15.6074 16.936 15.3514 16.56 15.1754 16.128C15.0154 15.696 14.9354 15.232 14.9354 14.736C14.9354 14.08 15.0714 13.52 15.3434 13.056C15.6314 12.576 16.0234 12.184 16.5194 11.88C17.0154 11.576 17.5914 11.352 18.2474 11.208C18.9194 11.064 19.6394 10.992 20.4074 10.992H21.8474V10.296C21.8474 9.768 21.6794 9.384 21.3434 9.144C21.0234 8.888 20.5674 8.76 19.9754 8.76C19.5114 8.76 19.0314 8.832 18.5354 8.976C18.0554 9.12 17.5194 9.352 16.9274 9.672L15.8234 7.56ZM21.8714 12.984L20.8394 13.008C19.8634 13.04 19.1834 13.208 18.7994 13.512C18.4154 13.8 18.2234 14.152 18.2234 14.568C18.2234 15.112 18.3834 15.488 18.7034 15.696C19.0394 15.888 19.4154 15.984 19.8314 15.984C20.2474 15.984 20.6394 15.864 21.0074 15.624C21.3914 15.384 21.6794 15.104 21.8714 14.784V12.984ZM28.1024 18V0.863999H31.2464V18H28.1024ZM44.4173 13.104H36.8093V13.2C36.8093 14.112 37.1293 14.792 37.7693 15.24C38.4093 15.688 39.2333 15.912 40.2413 15.912C40.8813 15.912 41.4413 15.848 41.9213 15.72C42.4173 15.592 42.8653 15.44 43.2653 15.264L43.8413 17.496C43.4093 17.704 42.8653 17.88 42.2093 18.024C41.5533 18.184 40.7773 18.264 39.8813 18.264C39.0173 18.264 38.2013 18.152 37.4333 17.928C36.6813 17.688 36.0173 17.328 35.4413 16.848C34.8813 16.368 34.4333 15.76 34.0973 15.024C33.7613 14.288 33.5933 13.408 33.5933 12.384C33.5933 11.472 33.7293 10.648 34.0013 9.912C34.2733 9.16 34.6573 8.52 35.1533 7.992C35.6653 7.464 36.2733 7.056 36.9773 6.768C37.6813 6.464 38.4653 6.312 39.3293 6.312C40.8813 6.312 42.1133 6.784 43.0253 7.728C43.9533 8.672 44.4173 9.992 44.4173 11.688V13.104ZM41.1533 10.92C41.1533 10.616 41.1133 10.32 41.0333 10.032C40.9693 9.744 40.8573 9.496 40.6973 9.288C40.5373 9.064 40.3373 8.888 40.0973 8.76C39.8573 8.632 39.5613 8.568 39.2093 8.568C38.5693 8.568 38.0413 8.784 37.6253 9.216C37.2093 9.648 36.9613 10.232 36.8813 10.968L41.1533 10.92ZM46.6627 18V6.552H49.1347L49.4947 8.616C49.7667 8.008 50.1987 7.472 50.7907 7.008C51.3827 6.544 52.1267 6.312 53.0227 6.312C53.3907 6.312 53.7187 6.352 54.0067 6.432C54.2947 6.512 54.5347 6.608 54.7267 6.72L54.1987 9.24C54.0227 9.144 53.7987 9.064 53.5267 9C53.2547 8.92 52.9347 8.88 52.5667 8.88C51.7827 8.88 51.1267 9.144 50.5987 9.672C50.0867 10.184 49.8307 11.032 49.8307 12.216V18H46.6627ZM55.211 6.552H58.691L60.731 12L61.499 14.784H61.595L62.339 11.976L64.115 6.552H67.379L63.179 18.408C62.939 19.064 62.667 19.688 62.363 20.28C62.075 20.888 61.715 21.448 61.283 21.96C60.867 22.472 60.371 22.928 59.795 23.328C59.219 23.728 58.539 24.056 57.755 24.312L56.435 21.84C57.331 21.52 58.083 21.056 58.691 20.448C59.299 19.84 59.715 19.112 59.939 18.264L60.035 17.952L55.211 6.552ZM84.299 2.88V5.424H77.987V9.432H83.771V11.952H77.987V18H74.699V2.88H84.299ZM85.8781 7.56C86.5661 7.16 87.2941 6.856 88.0621 6.648C88.8301 6.424 89.6461 6.312 90.5101 6.312C91.1981 6.312 91.8221 6.392 92.3821 6.552C92.9581 6.712 93.4461 6.968 93.8461 7.32C94.2621 7.656 94.5741 8.096 94.7821 8.64C95.0061 9.168 95.1181 9.808 95.1181 10.56V18H92.6461L92.3581 16.824H92.2621C91.8941 17.272 91.4221 17.624 90.8461 17.88C90.2861 18.136 89.6301 18.264 88.8781 18.264C88.2541 18.264 87.7021 18.176 87.2221 18C86.7421 17.808 86.3341 17.56 85.9981 17.256C85.6621 16.936 85.4061 16.56 85.2301 16.128C85.0701 15.696 84.9901 15.232 84.9901 14.736C84.9901 14.08 85.1261 13.52 85.3981 13.056C85.6861 12.576 86.0781 12.184 86.5741 11.88C87.0701 11.576 87.6461 11.352 88.3021 11.208C88.9741 11.064 89.6941 10.992 90.4621 10.992H91.9021V10.296C91.9021 9.768 91.7341 9.384 91.3981 9.144C91.0781 8.888 90.6221 8.76 90.0301 8.76C89.5661 8.76 89.0861 8.832 88.5901 8.976C88.1101 9.12 87.5741 9.352 86.9821 9.672L85.8781 7.56ZM91.9261 12.984L90.8941 13.008C89.9181 13.04 89.2381 13.208 88.8541 13.512C88.4701 13.8 88.2781 14.152 88.2781 14.568C88.2781 15.112 88.4381 15.488 88.7581 15.696C89.0941 15.888 89.4701 15.984 89.8861 15.984C90.3021 15.984 90.6941 15.864 91.0621 15.624C91.4461 15.384 91.7341 15.104 91.9261 14.784V12.984ZM98.0907 18V6.552H101.283V18H98.0907ZM99.6987 4.104C99.1547 4.104 98.7307 3.952 98.4267 3.648C98.1227 3.328 97.9707 2.936 97.9707 2.472C97.9707 2.008 98.1227 1.624 98.4267 1.32C98.7307 0.999999 99.1547 0.839999 99.6987 0.839999C100.227 0.839999 100.643 0.999999 100.947 1.32C101.267 1.624 101.427 2.008 101.427 2.472C101.427 2.936 101.275 3.328 100.971 3.648C100.667 3.952 100.243 4.104 99.6987 4.104ZM107.652 18H104.46V6.552H106.956L107.34 8.016C107.868 7.472 108.444 7.056 109.068 6.768C109.708 6.464 110.412 6.312 111.18 6.312C112.444 6.312 113.412 6.656 114.084 7.344C114.756 8.032 115.092 9.032 115.092 10.344V18H111.9V10.68C111.9 10.088 111.756 9.624 111.468 9.288C111.18 8.936 110.756 8.76 110.196 8.76C109.78 8.76 109.34 8.88 108.876 9.12C108.428 9.344 108.02 9.656 107.652 10.056V18Z" fill="white"/>
</svg>
