<svg width="27" height="20" viewBox="0 0 27 20" fill="none" xmlns="http://www.w3.org/2000/svg">
<path d="M26.7777 4.48004C26.7777 4.24514 26.4253 2.36601 25.6032 1.54389C24.5462 0.369428 23.3717 0.251982 22.7845 0.251982H22.6671C19.0262 0.0170899 13.6237 0.0170898 13.5063 0.0170898C13.5063 0.0170898 7.98632 0.0170899 4.3455 0.251982H4.22805C3.64082 0.251982 2.46636 0.369428 1.40935 1.54389C0.58723 2.48345 0.234892 4.36259 0.234892 4.59748C0.234892 4.71493 0 6.82895 0 9.06043V11.057C0 13.2885 0.234892 15.4025 0.234892 15.52C0.234892 15.7548 0.58723 17.634 1.40935 18.4561C2.34892 19.5131 3.52338 19.6306 4.22805 19.748C4.3455 19.748 4.46294 19.748 4.58039 19.748C6.69442 19.9829 13.1539 19.9829 13.3888 19.9829C13.3888 19.9829 18.9088 19.9829 22.5496 19.748H22.6671C23.2543 19.6306 24.4288 19.5131 25.4858 18.4561C26.3079 17.5165 26.6602 15.6374 26.6602 15.4025C26.6602 15.2851 26.8951 13.171 26.8951 10.9396V8.94298C27.0126 6.82895 26.7777 4.59748 26.7777 4.48004ZM18.0867 10.2349L11.0399 13.9932C10.9225 13.9932 10.9225 14.1106 10.805 14.1106C10.6876 14.1106 10.5701 14.1106 10.5701 13.9932C10.4527 13.8757 10.3352 13.7583 10.3352 13.5234V5.88939C10.3352 5.65449 10.4527 5.53705 10.5701 5.4196C10.6876 5.30216 10.9225 5.30216 11.1574 5.4196L18.2041 9.17787C18.439 9.29532 18.5565 9.41276 18.5565 9.64766C18.5565 9.88255 18.3216 10.1174 18.0867 10.2349Z" fill="white"/>
</svg>
